<?xml version="1.0" encoding="UTF-8" standalone="no"?>
<svg
   xmlns:dc="http://purl.org/dc/elements/1.1/"
   xmlns:cc="http://creativecommons.org/ns#"
   xmlns:rdf="http://www.w3.org/1999/02/22-rdf-syntax-ns#"
   xmlns:svg="http://www.w3.org/2000/svg"
   xmlns="http://www.w3.org/2000/svg"
   xmlns:xlink="http://www.w3.org/1999/xlink"
   xmlns:sodipodi="http://sodipodi.sourceforge.net/DTD/sodipodi-0.dtd"
   xmlns:inkscape="http://www.inkscape.org/namespaces/inkscape"
   width="810"
   height="800"
   viewBox="0 0 2531.2482 2500"
   version="1.2"
   id="svg169"
   sodipodi:docname="goias-novo.svg"
   inkscape:version="0.92.3 (2405546, 2018-03-11)">
  <defs
     id="defs9" />
  <sodipodi:namedview
     pagecolor="#ffffff"
     bordercolor="#666666"
     borderopacity="1"
     objecttolerance="10"
     gridtolerance="10"
     guidetolerance="10"
     inkscape:pageopacity="0"
     inkscape:pageshadow="2"
     inkscape:window-width="1360"
     inkscape:window-height="700"
     id="namedview7"
     showgrid="false"
     inkscape:pagecheckerboard="true"
     inkscape:zoom="0.295"
     inkscape:cx="405"
     inkscape:cy="400"
     inkscape:window-x="0"
     inkscape:window-y="0"
     inkscape:window-maximized="1"
     inkscape:current-layer="svg169" />
  <a
     xlink:href="https://www.deolhonocorona.com/"
     target="_blank"
     cursor="pointer"
     id="a3"
     transform="translate(10.593217,-985.16914)">
    <path
       style="font-style:normal;font-weight:400;font-size:medium;font-family:'MS Shell Dlg 2';vector-effect:none;fill:#000080;fill-opacity:1;fill-rule:evenodd;stroke:#232323;stroke-width:3.07010531;stroke-linecap:square;stroke-linejoin:bevel;stroke-opacity:1"
       inkscape:connector-curvature="0"
       id="path78"
       d="m 57.856939,2749.8763 -0.01,-0.03 0.18,-0.9398 1.2097,-0.9098 -0.4699,-0.8797 0.4299,-0.29 -0.7298,-1.0697 1.7395,-3.859 h 1.0198 l -0.5799,-0.5299 1.9295,-4.2989 0.6799,0.2599 -0.6499,-1.1997 0.7698,0.4699 0.7998,-2.1495 -1.1097,-0.7098 v -3.3592 l -1.9595,-1.4696 1.5296,-0.8898 -0.5298,-3.5491 2.0694,-0.3099 0.9598,-3.6891 0.6598,-0.6398 1.3497,-0.22 0.7098,-1.4896 -0.9198,-0.8198 2.8793,-1.0697 -0.8298,-1.9995 h -1.5296 l 2.0495,-0.8198 -0.6698,-2.4494 1.5596,-0.5899 0.4899,1.9995 1.8695,-2.7993 -1.2797,-3.0592 -1.6296,0.3199 -0.1499,-0.8498 3.4291,-0.5599 0.2399,-2.2694 -2.4693,0.6798 -1.1398,-0.7998 1.1997,-0.1099 -0.2499,-2.2995 1.0098,-0.3299 -0.16,-2.7093 -1.8096,-0.5599 1.4797,-0.7598 -0.9298,-2.2694 -4.069,-2.0695 1.3997,-1.4696 -0.8198,-0.6999 2.2694,-1.8495 -1.7795,-0.3899 v -0.7998 l 1.3096,0.4999 -1.1897,-1.4097 -1.5396,0.4999 0.6798,-1.6796 -0.6498,-1.6696 3.3192,-1.9295 -0.09,-2.7093 4.0989,-2.9793 -0.6798,-5.1187 3.959,-0.7698 1.6596,-4.3289 1.7696,-1.1197 1.3496,-6.0985 1.6996,-0.5399 -0.4399,-3.3791 1.4297,-1.2097 2.1494,-5.7186 -0.3699,-5.8386 2.4794,-0.9097 2.3895,1.0597 0.7098,-3.0392 1.5297,-0.03 0.7898,-1.8296 1.5996,-0.4399 -1.3297,-2.9692 1.6596,-0.4199 3.759,-5.9785 -1.1597,-2.1795 1.1298,-0.7098 -1.1298,-1.1797 3.399201,-1.7696 0.4899,-0.1 1.6795,0.8298 0.8298,-1.1297 -0.6998,-1.2697 1.4297,-0.1899 0.4099,-0.5999 2.6493,-0.4998 -1.4896,-1.9696 2.1494,0.33 -1.4896,-2.4794 3.4591,0.9697 -0.4998,-2.9392 1.0897,-0.16 1.8595,2.0595 -0.5798,-2.6493 1.7495,0.2099 0.3899,-1.5596 1.9096,1.3796 -0.28,-2.0294 2.0095,-0.33 -0.7598,-3.6591 -1.1097,-0.6698 -1.5596,0.7098 0.03,-2.2394 1.8395,0.1999 -0.9497,-2.3894 -2.8493,1.6296 0.6698,-2.7393 1.4696,-1.0297 -0.9797,-2.9193 1.9795,-0.13 0.4299,-2.9992 1.9295,-0.2999 -2.6293,-0.7898 0.3499,-1.3297 2.1294,0.6798 -0.6198,-1.7895 1.4097,-1.8296 -0.7199,-0.5998 1.9196,-2.9593 -1.3197,-1.5696 -0.3799,-7.968 1.1297,-0.6899 0.9098,1.7096 1.3396,-4.099 -0.5798,-1.6995 4.029,-2.4194 -0.7798,-0.6599 1.0597,-2.8693 -1.8995,0.4399 1.7495,-3.5591 -1.9195,-2.8493 2.3994,-1.2197 0.7298,0.5499 -0.5898,-1.7596 2.3494,-0.3399 1.8295,-1.5496 0.8398,-4.4489 1.4397,-0.11 -1.8995,-1.8595 1.5696,-0.7598 -0.3899,-3.7691 0.8997,-2.2394 1.6796,1.9995 1.5096,-1.4596 1.0498,1.8995 2.3494,-0.7298 0.7898,1.1497 3.989,-1.0797 2.1195,1.8395 0.8298,-0.18 0.9697,-0.5198 -0.1599,-2.7693 3.4291,0.7398 0.05,-0.1 -1.0497,-3.1292 2.4294,0.9197 -0.28,2.1995 1.9296,-1.3497 -0.9098,-3.5591 -1.7996,-1.0897 8.3979,-0.2899 -0.02,-0.17 -0.6198,-0.5698 -0.9998,-0.9498 1.0398,-2.7293 -5.0188,-4.6189 2.8393,-0.8798 0.9798,-2.4594 2.0995,0.7998 -0.12,3.8191 0.7398,0.01 3.0692,-1.5996 2.3195,-0.6298 0.5098,-3.6791 4.4389,-1.7996 1.2597,-1.8995 -1.8595,-0.7698 3.889,-2.9293 4.8388,1.6596 2.7193,-4.3189 1.5796,1.7395 1.7796,-2.0694 1.9795,0.4598 0.2599,0.1 3.3892,0.8498 0.3399,-0.3199 -0.02,-3.1992 2.2595,-0.7398 5.1587,-5.4187 2.0395,1.9995 0.5398,-0.1399 2.2395,-2.4094 2.1294,0.4798 -0.8497,-5.9185 0.6598,-1.8295 2.2294,-3.0293 5.8186,-0.5498 -0.3099,-7.8381 2.4394,-3.1992 -4.5389,0.05 -0.6699,-1.2697 5.3387,-1.8995 2.6794,-2.3694 1.9795,0.4699 -2.4494,-5.8186 0.3699,-2.6393 2.4594,-0.23 2.1094,1.4996 2.6694,3.9391 2.8693,-2.4394 -3.3692,-7.988 -3.7391,-0.5399 -1.1297,-1.1797 0.09,-1.7596 3.1392,-1.8995 -2.6993,-2.6693 0.7798,-0.5499 1.8895,-0.5699 0.37,-0.1099 1.2396,0.1899 6.3285,3.7791 0.3799,-0.3099 -0.7798,-6.9483 1.2497,-1.4996 0.3999,-0.01 4.099,4.2189 4.7888,0.24 1.5596,-0.9598 -1.0398,-4.209 4.4589,0.4199 -3.2892,-3.6191 0.5399,-2.8193 1.9195,0.18 3.7191,3.3792 0.16,-4.169 1.2197,-0.8798 3.649,1.8595 0.34,-4.4388 2.7793,-1.4597 -1.0298,-4.9088 -0.1499,-0.1399 -1.7696,-1.7096 -0.7598,-3.1492 1.6196,-0.8198 3.859,1.0397 2.6194,-0.4799 1.8295,-4.0889 0.3099,-2.8493 -0.08,-0.8698 -2.2895,-2.6094 2.8893,-1.7295 -2.6193,-2.0795 -2.6794,2.1395 -0.2099,-2.5194 1.6996,-2.2395 -7.2682,-4.2489 -2.1395,-3.5191 1.3097,-3.0893 -0.7598,-1.2896 -2.2895,-1.3197 -8.4778,1.1797 -3.8091,-5.1887 0.2799,-1.6496 2.6794,-1.5396 0.07,-0.2 0.34,-1.3396 -4.8588,-4.3489 1.0597,-3.7291 -1.1297,-1.8396 3.5291,-2.4793 -1.0997,-4.8688 1.3097,-2.4094 -1.6996,-1.8196 1.7295,-3.759 1.5097,-0.5299 1.0597,-2.6393 5.3887,-4.5289 1.6096,0.09 1.3996,1.6196 3.3392,-0.5899 4.5289,1.2197 4.1389,-4.8688 6.6584,-0.8898 1.1397,-0.7298 1.8795,-5.1187 1.4597,-0.5299 4.5688,4.8988 2.3594,0.19 1.4797,-0.6499 1.0397,-0.7598 0.3099,-0.8998 -7.2682,-8.1679 -0.1799,-0.8498 0.8398,-1.8396 4.6888,0.32 2.1295,-0.8598 -1.4797,-11.1073 2.1495,-2.7193 -1.6196,-5.0787 6.9883,-2.8893 0.4998,-5.0787 2.7694,-1.7196 1.1297,-0.4299 4.1489,2.8493 1.8396,-0.9598 2.1394,-2.9192 5.5087,-1.3097 4.2389,0.2599 6.7883,-5.6486 12.8668,-5.3986 7.3682,1.5996 1.4996,-1.0298 0.9398,-3.4891 2.1794,-0.6898 0.22,-0.07 3.2292,0.5898 6.1884,-3.719 1.1098,-1.2597 0.9797,-6.0285 1.1898,-1.5796 -0.7499,-2.4494 2.5795,-3.1692 1.5996,-6.6184 4.3489,-3.6891 2.2494,-3.4591 0.3499,-6.2285 7.7081,-6.2284 0.3799,-3.1092 1.9095,-1.5896 2.1995,-7.7981 -0.3799,-5.1187 5.4686,-1.1997 8.248,0.2399 1.0397,-0.2199 4.5989,-2.0895 20.9048,4.009 6.4184,-4.009 3.709,1.9695 1.7896,-1.9495 3.3692,-0.5899 7.5581,2.1295 16.2459,-0.6198 3.7891,-4.029 4.2389,-9.4377 3.4392,-1.9895 4.1789,0.7798 1.8396,-0.8398 -0.5499,-5.2587 2.0795,-3.2891 0.8398,-0.24 11.2872,0.9698 6.4084,5.4286 1.1997,0.21 2.9093,-1.7996 1.7395,-7.6181 5.1687,-4.9587 3.5891,-5.5087 5.7286,-9.5576 0.8498,-0.9897 7.5281,-4.4889 0.08,-4.5789 11.5071,-17.7456 1.6496,-2.8693 2.1495,-6.6383 0.8598,-4.8588 -7.2082,-16.8358 -0.4899,-5.7186 0.3599,-0.9697 0.6998,-0.7398 3.989,-1.2097 3.1792,7.3381 3.2292,0.8098 4.6389,-1.9995 0.5798,-2.5893 -3.2591,-6.2885 0.1899,-4.019 3.0792,-2.7193 6.9083,-1.8695 1.5196,-3.0293 0.03,-0.9897 0.11,-3.4292 -2.8693,-5.5986 5.0388,-7.5381 0.4399,-2.1795 -2.0795,-2.8392 0.1,-2.5294 8.5178,-12.4069 -0.7398,-4.6389 -4.089,-3.739 -0.6598,-12.017 3.0792,-5.9086 5.0888,-2.7993 5.2487,-4.5688 -0.2,-2.3495 -3.3792,-1.3596 -3.2691,-3.2992 1.7595,-6.3084 3.1492,-6.5484 0.26,-8.7079 7.5381,-4.6189 7.0382,-0.6898 2.8993,-2.6093 7.8481,-13.5567 6.9082,-2.5193 5.4487,-11.7471 4.4489,-3.6491 3.1992,-1.2297 11.2372,0.6698 5.7486,-4.2289 2.4693,-3.1192 3.4792,-1.2797 4.3289,-6.7683 0.6998,-0.3799 9.0278,-1.4897 6.9882,3.0393 6.3385,-3.3592 2.6693,-3.989 3.6491,-5.4586 4.7688,-0.5199 6.8683,4.7888 1.2497,11.897 2.4494,3.6091 6.0385,1.1298 9.4976,-0.7798 14.2564,-9.9076 15.7161,-7.0882 1.3797,-1.8096 -0.2999,-5.8185 4.4189,-5.5586 1.0097,-0.8598 14.6364,-7.3882 0.3099,-0.1799 0.3499,-3.2992 -2.7693,-4.6589 0.1399,-6.1784 1.3697,-3.2992 -0.9498,-6.9683 6.9583,-10.0075 7.2282,-4.6288 0.6299,-0.9398 0.5498,-2.7793 -3.3791,-7.868 -0.36,-4.4289 1.5197,-3.6891 3.0992,-2.8393 0.9398,-2.7993 3.1292,-3.6091 0.2199,-2.9693 -1.6396,-5.6985 1.6296,-4.6589 2.4394,-1.3596 8.8378,-15.4861 -1.7495,-11.1372 11.1272,-16.9958 -3.2592,-8.5778 1.5296,-5.9386 -2.4594,-4.9587 -3.6491,-3.2192 0.14,-6.3484 -4.049,-5.9386 1.3497,-4.5488 2.0495,-2.9893 0.3199,-2.2294 -0.7198,-8.568 3.0092,-2.7493 3.6591,-6.5884 -2.1695,-10.3774 0.23,-3.5891 4.5289,-13.4666 7.868,-12.6369 3.5191,-8.6478 4.169,-4.5289 0.9697,-6.5683 -2.6793,-7.6981 0.3699,-3.5591 1.1897,-1.0498 2.9293,0.5099 3.6191,4.289 0.6998,0.2999 7.2682,-0.5399 8.7578,-6.5684 2.7293,-5.0487 0.5999,-5.3387 -6.5084,-14.3564 0.8498,-9.1977 -5.2987,-6.6683 0.9198,-7.5482 5.5286,-4.9587 1.4297,-4.6689 -1.4197,-7.702 1.4397,-4.4629 0.06,-2.4214 -0.1199,-6.2855 -0.5299,-1.9095 -4.4389,-8.2689 1.0398,-6.4934 -0.9798,-5.1577 0.8898,-9.6846 -5.6186,-8.7498 -0.22,-1.8526 2.5094,-3.6841 1.1897,-0.9187 4.149,-1.5786 2.8793,-0.5909 5.1187,0.3269 6.1584,-7.2202 5.2088,-13.8075 2.1294,-9.4997 4.169,-7.1602 1.6396,-21.7456 5.9585,-7.2732 9.6976,-5.1577 5.9085,-5.1117 4.3889,-10.3294 5.8286,-0.5869 0.5598,-5.8145 -1.7495,-8.156 1.1297,-7.4871 6.2584,-4.8538 2.4094,-5.0478 4.7688,-3.5451 3.9191,-5.4786 1.6095,-2.2515 0.5799,-10.8902 0.8798,-2.3275 4.68876,-6.7833 1.0398,-9.5486 -0.4899,-2.3714 -5.02876,-4.6509 -0.3499,-1.2736 0.4299,-4.348 2.0795,-3.3311 -1.2097,-7.8321 2.85926,-11.905 -1.32966,-4.7098 -2.3194,-1.7756 -2.9893,-8.6328 1.4197,-1.9226 9.55756,-1.9665 2.5194,-3.878 -0.9198,-2.1395 -5.0387,-2.6363 -1.7796,-6.9913 4.6089,-1.6176 4.3489,1.9605 2.7793,-0.4708 4.7388,-6.2505 5.2887,-2.1974 0.3099,-12.6329 2.6194,-5.4846 0.8197,-6.5234 3.9391,-5.2317 -0.08,-3.6581 -2.7893,-4.008 4.9887,-5.9755 1.4997,-4.3609 -1.0098,-3.0693 0.9798,-1.7245 2.0495,-0.6799 -2.9293,-8.5338 2.9793,-3.1422 2.8993,-1.2597 -0.5598,-3.8301 2.8992,-1.5836 -1.0997,-1.0137 -3.6592,0.1049 -0.9097,-1.3056 1.1697,-3.0153 4.5689,-1.0337 0.6099,-1.8646 -0.5399,-2.9312 -3.4691,-1.6286 0.2399,-2.0555 4.4289,-2.0935 0.8498,-2.9902 6.6583,1.1247 1.9096,-1.1137 0.9097,-1.3997 -1.3896,-3.869 1.4496,-2.8683 -1.4996,-2.5734 2.6193,-2.4044 0.03,-0.4749 -0.5498,-0.3319 -1.1297,0.107 -1.3597,1.9195 h -0.18 l -0.6798,-1.4166 4.3789,-3.5072 2.8693,2.9753 1.6796,-0.4839 0.5299,-1.2857 -2.2495,-6.9982 3.7191,-3.2192 4.7888,-0.8898 0.3299,-1.7016 -2.2894,-1.3976 3.6191,-3.937 1.6296,-4.213 3.729,-0.5489 1.3897,-1.3366 -1.0697,-3.7181 1.0397,-1.7256 2.6094,-0.2939 -2.3894,-2.4954 2.0095,-1.4236 4.3389,0.4639 -0.4099,-2.6524 0.8998,-0.5468 4.1089,0.9307 0.5099,-1.5236 -1.2797,-3.5741 1.3897,-1.7436 5.2287,2.1125 0.2999,-1.2137 -1.8195,-2.7763 -1.8096,-0.3819 1.3897,-1.3247 2.5693,-2.0115 7.2882,-3.1472 2.0295,-2.7033 5.1087,-0.084 0.9998,-0.2889 0.7298,-0.5379 3.0892,-4.8408 7.3582,-2.0365 2.4694,-3.1212 4.8488,0.8738 -0.18,-2.0575 -2.4494,-0.3499 1.0997,-1.3837 4.4289,-1.6236 4.299,-0.1939 0.4199,-0.3929 -0.2,-1.5096 -4.2789,-2.1205 0.4399,-1.8726 2.4494,0.111 0.1299,2.2665 1.7796,1.0207 2.6193,-0.029 1.2497,-1.2087 -0.06,-3.874 9.3177,-3.9351 -5.0387,5.3337 -0.4099,5.6646 -0.6199,1.0737 -1.3196,1.3047 -0.09,0.017 -4.5289,0.8608 -0.3799,1.2537 -1.0997,3.751 -4.009,1.0338 -2.7993,2.3894 0.08,3.2002 -3.3992,2.8253 -0.18,0.3659 -1.2496,10.3954 -3.1892,4.7878 2.1994,3.6401 2.9693,1.5636 0.5698,4.24 1.8396,-0.3829 0.09,-2.0375 0.8398,-0.138 1.8096,0.6059 1.5396,2.8732 -3.5291,-0.037 -1.3897,2.8663 -5.6986,4.068 -0.8098,0.211 -0.7298,-0.181 -1.3996,-2.5474 -1.0498,0.5759 -2.4394,5.7676 2.8393,8.6498 -3.769,2.2834 -2.1395,-1.9655 -0.6298,3.2262 -1.7196,0.8948 0.9298,2.6273 -3.3292,2.9323 1.8195,2.9333 -2.0495,4.4489 1.1997,1.5716 -1.9795,0.2419 -1.7695,-1.6666 -0.9098,3.5472 -0.9498,-1.3577 -0.6098,-0.8938 -1.4696,0.3079 -0.7099,1.7856 -0.9797,-1.3027 0.13,-2.2114 -1.5497,1.0417 1.8896,4.7888 -0.4199,3.0563 -1.1897,0.4698 0.09,0.192 4.7789,3.5921 -1.4597,5.5346 -3.1292,1.4956 0.5499,0.8878 -1.8096,1.0088 2.1995,2.5253 -3.2492,4.4199 0.6898,4.5889 -0.2499,1.2937 -0.11,0.3469 -1.6896,1.5656 -0.5099,2.4014 1.5197,2.0785 -0.3699,4.2719 0.6498,1.2587 1.2597,-0.5399 0.9098,2.0175 0.9797,0.7039 1.0897,3.6301 0.5699,-0.5669 0.5599,-0.5669 1.4696,2.2785 0.4299,-0.9058 2.7593,1.1397 1.0197,-1.0087 3.0393,1.2097 -0.3999,0.9677 4.039,0.6589 0.07,1.2706 2.7693,-0.3269 2.0095,1.6106 1.4896,-1.1587 -0.08,1.4107 1.9595,0.9687 0.2,4.172 3.829,1.2767 0.6999,-0.6399 2.0894,2.9643 1.5297,-0.3679 1.3696,2.0715 4.009,1.9855 0.11,-1.2327 2.1395,-0.3299 1.1397,1.6895 3.999,-1.1357 3.5091,3.0063 7.4281,0.7278 5.5887,2.0215 1.8695,-1.0907 8.128,-0.6819 2.2094,3.4812 7.0583,1.9065 1.8995,3.5501 1.7995,0.5749 6.7983,-1.9606 4.8488,1.4687 4.299,3.965 3.6391,-1.9835 8.3679,6.4694 4.3289,-0.9318 6.8983,2.3084 1.5496,0.6329 1.3697,2.6183 97.4957,54.8524 0.06,0.037 46.3784,25.7165 31.1223,16.8858 8.8977,-6.3154 0.6399,-3.899 0.05,-2.1685 -2.9193,-7.3012 1.5296,-4.1389 -0.1,-0.4029 -1.0097,-4.09 0.9098,-3.2402 -3.2392,-7.6371 0.6898,-3.1742 3.4891,-5.4457 -0.9297,-3.1722 -2.9693,-2.1684 -0.14,-2.5164 5.4987,-11.903 4.9387,-4.6099 6.9283,-9.1447 5.5086,-10.4564 1.6296,-0.8578 1.0198,-2.6963 -1.3097,-1.2577 0.12,-1.2427 0.1199,-1.2427 3.7491,-7.958 1.3997,-1.4406 1.7295,0.5208 0.18,-2.1774 1.5696,-1.2187 1.9295,-4.6799 -0.9897,-4.5808 4.5888,-2.9583 -0.6098,-2.8853 -0.05,-0.2589 1.9395,-0.091 0.9298,-1.8675 1.9295,-0.4279 3.759,0.5658 0.7199,-1.5736 3.999,-2.0295 1.0997,-3.2861 2.5994,-2.6124 6.7883,-4.054 4.1489,-4.9408 1.7596,-0.4299 2.9193,-6.2014 5.7985,-3.4192 4.169,14.8413 3.0792,-0.037 4.4189,3.0753 5.0588,0.6048 -1.5597,1.7566 0.5599,2.2234 -1.0697,3.2292 -3.6991,3.1083 1.4096,1.5576 -2.0594,1.3396 -0.13,1.1188 1.6596,0.3149 -0.8498,0.6378 2.3094,3.0003 7.888,1.5736 1.2097,1.4346 1.4197,-0.8188 3.929,-2.2694 2.9293,1.0197 1.2097,1.7686 3.5391,1.5066 1.6196,5.1407 8.018,5.0908 1.4696,2.9053 31.1223,-44.8979 0.5099,-0.7358 0.6598,-0.3999 2.4394,0.191 -1.7596,-2.7573 1.3297,-0.9658 2.2894,0.187 0.09,1.5296 1.6396,-1.3867 3.4891,1.4217 -0.2599,2.7353 1.7495,3.966 -1.0297,3.3222 0.9698,1.2007 3.5591,0.012 0.04,-0.8188 1.7395,1.1647 1.6096,-0.3899 0.9398,2.9962 1.7895,1.8006 -0.6598,1.6336 2.9993,0.8997 -0.24,0.9858 2.0195,1.1207 -0.08,1.0878 1.6696,-0.095 1.1597,2.5223 1.4897,0.285 0.2399,-1.4687 6.9283,6.5084 1.3297,1.8895 1.9495,0.5179 1.8395,3.1092 3.989,1.0948 0.6299,3.724 -1.4797,4.4239 2.7493,4.9888 -1.2097,4.5309 1.1997,4.6388 1.7996,0.4899 2.3994,3.5751 1.7496,-0.8318 1.5896,1.5696 1.8695,-2.0985 2.2094,-0.6198 1.1598,2.1664 1.5396,-0.1359 1.0397,-2.7843 2.8693,0.4489 2.0795,2.7063 1.2297,-0.6818 2.3594,1.2746 0.1799,2.3784 2.8193,-0.6308 2.4094,1.3557 0.6799,1.0917 0.3799,5.2847 3.0592,5.6726 2.5594,0.082 2.2994,2.3944 3.0193,-0.178 0.4398,0.3519 0.17,0.8268 -0.3899,5.0008 2.0395,0.1039 -0.5799,1.6516 3.0293,5.1488 -2.4994,2.3684 3.5591,-0.259 2.7793,6.3584 -0.5098,0.297 -1.0198,0.5948 -0.14,4.276 -2.2694,1.1487 -0.4399,1.7305 -1.9995,0.6969 1.3697,1.9575 1.9695,0.1339 -0.25,2.5874 3.0193,2.3014 -1.8795,2.1865 1.8795,2.1344 -0.8298,1.2697 0.01,0.236 0.2299,4.9627 -1.2796,1.0128 0.1199,3.769 -3.3891,4.331 -2.2095,1.0157 0.8598,2.6104 3.3392,2.6183 -1.3097,0.5389 0.6798,2.4354 -2.8093,6.5913 -0.7498,3.5451 4.5889,7.2832 2.6493,-0.8128 3.4192,-1.0517 4.5688,-3.2072 -0.08,-6.9643 -1.9096,-2.1314 1.5596,-5.0648 -0.08,-6.6533 1.7195,-2.3514 -1.2397,-1.6966 -0.2899,-6.6084 3.3292,-3.1792 4.5289,-0.8458 0.07,-2.4983 2.8893,-5.8666 -0.2399,-8.3979 4.2689,-3.911 0.01,0.03 0.7398,1.4856 3.7391,0.9978 2.2594,2.0115 2.3994,-0.278 0.33,-2.8253 1.4196,0.9978 0.8698,2.1045 1.2797,6.3554 -1.2297,1.3157 0.1399,2.1754 -1.8195,1.8116 0.7898,4.2089 -0.8398,1.7036 1.5896,1.7656 0.3299,2.9762 -1.1497,1.5086 0.9198,2.2545 -0.8898,4.08 1.5596,0.1279 0.7898,2.6494 3.5391,1.4266 -1.1697,0.2889 -0.2199,2.9093 1.6096,0.3589 -1.0897,0.7009 -0.6799,0.4388 0.4999,5.3327 0.04,0.3729 4.3389,0.9638 1.6696,2.8013 2.1095,-1.1367 -0.5299,-1.5027 1.9495,-1.3116 -0.5599,-1.5616 0.8798,-1.2307 4.259,1.0187 3.0692,-2.3684 1.7296,0.9798 3.4891,-0.8078 0.8798,-2.2285 0.8998,1.6196 2.0295,-3.3092 1.7295,0.01 1.0098,-2.0825 2.5793,-0.8107 0.6099,-1.2227 3.3292,-0.4369 1.3996,2.1234 1.5596,0.4179 1.5696,-0.8468 -2.2694,-1.7715 1.0497,-1.5526 -0.4699,-2.7363 3.8991,1.1767 1.0797,0.036 3.0093,-0.7069 0.2499,1.2937 1.8195,0.3679 1.0598,0.095 0.1999,-0.4439 -0.04,-0.5108 -1.0797,-0.028 1.2697,-1.2587 -0.7198,-0.5009 5.3186,-2.3904 -0.1699,-1.3527 1.4096,0.066 0.25,-3.3561 0.9697,0.2139 1.4497,-2.0215 1.3096,-0.052 -1.1397,2.3174 3.6891,-1.2456 1.0497,0.7068 0.8698,-2.5154 3.8491,-0.079 0.1099,-0.14 2.4894,-2.9662 -0.8398,-0.9448 2.1295,-1.3157 2.2694,-3.983 2.1895,1.8006 2.6693,-1.6656 0.9198,0.9498 0.8298,0.8487 5.1187,-0.4428 0.3599,-0.9588 -0.7398,-2.0165 3.4292,-2.1905 -1.3797,-0.7688 2.2194,0.4199 3.1893,-2.4853 2.9092,3.0012 0.7998,-1.0487 1.4697,0.9187 3.6691,-1.6036 0.4998,0.7688 -3.1592,3.4662 -0.2299,3.1922 -2.7094,2.9772 -0.1199,1.3957 0.02,2.8203 v 0.9777 l 0.1999,0.6639 0.5599,1.9455 0.12,0.161 2.6493,3.5791 -3.3692,3.1942 -1.3196,2.6813 -0.28,1.8935 1.8596,0.6569 2.0894,1.5036 0.8898,9.3807 -5.2087,6.5373 1.4297,2.0895 1.2996,-0.8098 1.2497,2.3474 0.3899,-2.4364 1.5496,1.1417 2.9093,-0.5918 6.7183,-2.3624 1.1398,-2.1715 1.6895,0.4199 2.0695,-1.3756 2.9893,1.3346 1.3896,-1.8185 3.3292,0.8048 1.5996,-2.1995 -0.8998,-0.8548 0.8798,-0.5248 0.25,-3.6751 1.6495,0.3889 -2.2194,-8 0.8998,-1.4077 1.4696,0.5859 3.0392,-1.6296 1.1598,1.7086 1.2596,-0.5539 0.3899,1.8535 -0.9097,1.1987 1.4896,1.4247 -0.15,0.9937 6.2785,-0.5988 1.3396,3.3822 -1.7095,0.4668 0.4898,2.6464 1.1798,-0.8178 2.1194,2.7113 7.5581,-1.5916 4.259,1.1017 2.3594,5.3247 2.2094,1.9795 0.34,3.4631 1.5196,1.2137 3.1892,-2.1244 1.4196,0.4709 1.3097,-1.5657 1.3797,0.5599 2.5793,-5.2997 1.9395,1.2427 1.6296,-0.9168 2.1195,1.8496 -0.5399,0.4349 1.2997,-0.139 1.3097,-0.139 2.6793,1.4527 0.4999,3.0582 1.0797,0.21 1.8296,-1.6946 1.3896,3.5021 1.7296,0.8018 4.2889,-0.2139 1.2097,-1.5486 1.7196,-0.225 5.4686,1.3797 6.6484,-2.1965 7.1982,5.2337 0.3099,1.8506 39.5302,43.4721 1.0197,-5.9965 2.6294,-4.2079 2.9492,-2.1675 0.4299,-0.4479 0.8798,-4.2699 3.4791,-3.6101 1.5996,-4.168 1.6496,-0.056 2.1695,-2.1055 1.4396,-5.4266 -4.7088,-0.9298 -4.179,-4.3949 0.13,-2.7913 -2.1295,-6.5853 0.6799,-2.1715 -2.5994,-3.829 1.6896,-1.2837 -0.7098,-1.3257 0.7698,-6.1325 2.3694,-0.8987 2.9293,-3.5432 -2.4694,-4.0919 0.4599,-2.7873 -3.4992,-2.3635 1.2497,-1.8435 -0.3299,-2.8213 -3.7691,-0.5459 0.3899,-1.4966 -1.2496,-1.5036 2.2394,-0.8918 -1.1097,-0.9228 1.4096,-1.8145 -1.5596,-0.4769 2.5894,-1.3966 0.8298,-4.7249 -4.7489,-3.1062 2.7394,-2.6883 2.2794,-0.5489 0.8398,-2.6683 2.3994,-0.077 0.2199,-1.3207 -1.6996,-2.0635 1.1398,-0.2289 -1.6696,-1.7416 1.6896,-1.5486 -0.3799,-2.5864 3.4791,-2.0424 0.3799,-3.1833 2.3194,1.9356 3.1292,-1.8666 8.128,3.8791 6.1785,0.5228 1.5296,0.129 2.5394,1.9455 -2.3195,8.06 1.7596,11.2602 7.0282,2.6403 2.6994,-2.7763 2.9792,-0.6088 4.5489,2.5733 3.0093,-0.2299 3.1392,-1.8995 3.899,0.5968 -2.8893,7.4542 0.22,3.933 6.8882,2.3164 6.3085,-1.3966 3.4691,1.3046 1.4497,3.5472 -5.2287,0.8317 -0.5099,0.333 -1.6496,2.0914 -0.17,0.5819 6.3984,5.9555 -0.9397,3.5051 2.4294,3.1283 1.0697,0.2479 0.7598,-0.5979 2.7493,-5.6016 6.0485,-2.9952 1.6496,0.4009 -0.4299,-5.3077 1.3297,-1.6006 1.9195,0.139 1.9495,-3.5201 1.3197,-0.4079 0.7498,-0.024 1.0697,2.2244 5.0688,4.119 4.7888,-0.8158 4.7588,3.888 3.6291,-2.2204 5.5986,-0.8208 0.3199,2.4653 2.5594,-0.072 -1.3797,1.9206 2.5194,0.8688 2.1995,-4.5379 2.5693,-1.1597 -0.13,-2.9093 4.8888,-1.0527 1.4797,-1.6246 -0.7798,-5.8806 6.2884,-2.6413 0.6798,-2.9143 1.8296,-0.4779 1.9295,1.0178 1.7695,-1.1537 0.08,-0.054 4.8588,0.2649 4.5489,-1.7916 2.4694,2.2815 -2.8793,3.0042 0.09,0.127 3.689,0.5399 1.5397,1.5496 1.8195,-1.7756 2.9393,1.3667 5.7885,-2.4284 0.19,-4.193 -1.8596,-0.6408 2.5194,-2.9463 4.6489,-0.2019 3.0192,-2.2185 0.07,2.9373 1.0897,0.5199 0.9098,-2.2945 1.7096,-0.9207 1.1897,0.3609 1.1797,0.3609 0.8598,2.7283 2.3294,-1.3976 -1.5096,-2.4574 1.4896,-1.3307 -0.2,-1.4516 2.7394,-0.4749 1.0697,-1.6216 2.3794,1.9055 3.3892,-1.7726 1.2296,0.5609 1.8396,-2.9213 1.9295,0.7229 0.11,-0.9398 4.129,-1.9355 1.1197,1.2277 3.1292,-1.6086 1.5196,-2.8303 -0.11,-2.2635 1.6196,-1.1397 2.7094,0.8328 1.1797,-0.5928 v 1.8775 l 3.0992,1.1167 0.09,-3.2382 4.8288,-3.0642 3.1592,-0.3279 2.4694,-3.8411 5.5986,-2.0805 0.06,-3.1782 5.8785,-4.5488 2.7393,-0.5709 3.0593,-4.5679 4.4988,-1.4236 -0.3899,3.4082 1.1597,0.8457 1.6496,-0.3769 0.14,0.8818 0.7498,1.6266 4.4989,-0.5039 0.13,-0.015 -0.13,-3.6531 2.0395,-1.5456 0.3999,0.9668 0.8298,-1.3557 -0.8498,-1.3696 2.3794,-3.5501 1.9295,-0.244 1.9595,-5.2297 3.0193,-1.1797 -1.3797,-1.9105 1.1197,-1.8356 22.4045,-10.8073 37.8805,0.269 50.7674,0.3339 7.3681,0.046 2.1995,-8.9048 0.5998,-2.4204 2.7993,-0.2449 1.5197,-1.7656 4.8888,-34.5714 1.9995,1.4527 0.1199,4.0789 1.1697,-0.4508 0.02,0.9017 0.03,1.4167 0.7998,0.4189 2.2095,1.1547 4.6588,-0.7008 2.3394,1.4256 0.07,-1.0097 0.6499,3.0922 2.6193,1.6436 -0.9598,4.1179 1.5896,1.4597 -0.9597,1.8725 1.6796,0.8648 -1.9296,3.925 2.3595,2.0275 -1.5697,1.4207 0.31,5.9305 -0.6999,2.6473 -0.8897,0.8268 -0.8998,0.8258 0.2399,4.148 -0.1999,0.4839 -1.3297,1.2137 2.5894,3.1582 -1.6596,3.978 3.0792,2.0915 9.1877,-2.4144 0.4699,-0.9378 7.2982,-0.031 6.9183,-2.6983 0.8498,0.4219 2.3694,-1.6946 1.0297,0.9148 11.2772,-3.4642 1.4596,0.6399 4.6189,-1.8526 9.4476,-0.09 2.1695,-2.2544 2.5893,-0.7698 0.9398,-2.5054 5.0787,-1.8225 3.9891,0.9767 9.4476,-3.6271 1.8195,-2.5533 0.14,0.3419 0.16,3.5501 -4.039,10.2224 -4.239,1.2857 -5.0887,3.6111 -3.7791,-0.1979 -2.5593,2.4654 -5.6086,2.0225 -1.8096,2.2574 -4.1289,1.0107 -0.9298,1.0718 -2.5494,0.3069 -3.849,-2.7973 -2.5894,1.4136 -1.6996,-0.7938 -2.5193,2.8053 -6.5184,2.8863 -0.7098,4.3349 -1.8796,1.8696 0.7799,1.0957 -0.5599,1.9375 -3.4392,3.2052 -1.5496,3.4442 -1.7895,3.95 -6.8383,7.1942 2.8293,3.3222 1.6996,4.7368 3.2391,0.9138 1.2197,1.7385 0.9398,5.3727 -0.5099,1.1327 -5.2487,2.1485 1.8996,2.9862 -3.4092,3.5361 1.4197,1.2737 2.2894,0.076 0.7198,3.6851 -1.1897,3.87 -2.5194,1.9296 -0.6298,4.4988 -2.2594,4.5389 -3.2392,3.3062 0.3199,1.0627 10.2374,0.281 -0.9297,4.2289 0.8098,4.8948 -5.4987,6.9323 5.8786,3.3681 2.9392,0.3439 0.35,3.9171 2.6793,6.8792 2.5394,-0.8008 1.9495,0.8218 9.0677,-3.807 6.2984,-6.1615 4.259,0.9958 10.6273,-2.6044 13.9566,-6.9962 2.0594,-2.6934 3.3392,0.6089 5.4287,-3.2012 10.4074,-4.253 3.929,1.4127 0.7898,1.8205 2.3094,0.4549 0.23,2.0345 -0.13,0.5939 -2.1495,9.2207 -11.3371,6.8713 -3.7791,0.6828 -5.6286,8.4969 -4.5489,1.8825 -2.4594,3.4861 -6.7183,2.6324 -5.0887,0.1989 -6.9283,2.1615 -7.3282,3.2752 -1.3096,3.1982 -7.9381,6.2774 -0.1199,0.3229 0.1699,2.0225 5.5087,-0.8717 1.0497,4.5098 5.2187,5.6006 -1.1297,2.3145 -5.1487,1.3486 -1.4497,1.4617 1.0498,1.4476 2.1594,0.5998 -0.5199,3.2082 1.0898,0.9328 -2.6594,4.237 -4.7188,3.881 2.1695,4.9968 -1.3097,4.4268 1.0297,2.7004 2.2795,1.9635 2.5593,-0.223 1.9895,1.2907 9.7776,-1.5186 6.3384,5.4816 0.9198,2.0955 -8.3479,8.7248 -8.7878,4.5959 -2.5394,3.1452 -0.5499,0.7898 -5.9085,4.7088 -3.6591,7.6711 -2.2594,1.6076 1.5496,2.1585 5.7086,2.1834 0.6498,2.4674 0.13,0.4789 -0.4099,1.3867 -0.4799,0.9067 -8.4979,5.5897 -0.6398,2.0494 3.769,2.7254 5.8686,-1.2637 4.4089,7.993 -1.6496,1.6316 -14.6264,4.121 -2.8193,3.0122 6.4484,3.921 -2.8293,4.097 0.5599,2.4724 6.4584,0.6238 4.6488,4.32 0.27,1.5956 -0.35,1.4556 -8.6278,15.941 -0.02,8.296 -1.9095,5.0487 10.4874,7.2082 4.7188,2.2295 1.4696,2.0894 0.08,0.21 0.04,0.11 -0.8198,7.2082 2.8793,3.3591 -0.8998,3.0693 -5.5686,7.688 -5.9985,3.4192 1.8095,1.0897 3.2692,-1.0997 2.4594,4.2489 -5.4486,7.4882 -1.8696,0.3799 -1.8595,-2.2095 -3.989,3.5391 3.1192,1.9796 6.4084,1.0297 6.3384,4.139 4.7588,-0.12 1.4097,2.2394 0.18,5.4087 3.779,2.8093 11.1372,2.7793 5.7086,-2.3394 5.0588,2.3194 1.3196,4.2389 -0.6498,4.4689 0.1799,0.27 4.4889,1.5396 1.7696,4.119 1.5696,0.06 4.6488,-3.2992 4.3989,-0.6299 3.5192,3.6391 -0.01,0.02 -2.7094,8.9777 4.7689,3.899 5.5286,0.5199 1.0997,3.5091 0.9398,0.8198 0.6698,0.32 0.8398,0.05 3.5291,-1.4996 3.6991,0.3999 1.3796,1.7996 -1.1297,5.2287 6.2485,-0.4499 4.1389,2.7193 2.9793,12.7568 2.4694,1.6596 1.1297,4.009 0.9498,0.8098 3.2392,1.7496 5.3486,-1.0997 2.0395,1.9995 0.11,1.5196 -1.9095,2.7493 0.2299,2.7393 -3.3691,1.6796 -1.1598,1.9596 -0.4998,7.8281 -2.4994,1.6295 -4.7388,0.4899 -3.3792,3.2592 -2.3394,0.9798 -2.4194,0.6098 -7.7181,-0.7798 -3.1292,-7.1282 -0.4699,0.06 -1.7496,2.5993 -0.4798,1.1997 1.5396,0.6299 0.6398,2.0295 2.9993,2.2794 -0.23,4.6088 -3.4791,1.8996 -1.3397,4.8188 1.0198,2.0295 5.1987,3.809 1.1497,2.5694 -0.16,1.7096 -2.3294,1.1897 0.8098,1.7495 -1.7595,1.9795 1.4896,1.9296 6.0785,2.7993 1.2597,2.7393 -0.8598,2.3694 -4.3389,-1.2097 -0.7099,0.11 1.9895,2.4493 -1.5396,1.1198 1.3997,0.8997 -0.4999,2.3295 -1.5196,0.7898 2.6193,0.4599 0.7898,1.9495 -1.3196,5.0487 -3.7791,4.049 5.2487,6.2284 -0.21,1.8496 -3.1592,4.119 2.0195,2.1194 -0.2499,4.3588 -3.4192,1.7696 -2.2494,-0.3899 -0.3499,-1.9295 -1.3797,1.4196 -2.7593,0.7498 -1.1597,0.31 0.6898,1.8895 -1.0897,2.2894 -0.8798,1.2897 1.8896,3.3192 5.2786,3.0592 0.15,1.7896 1.1297,1.1197 0.07,0.8498 -1.1997,5.1987 -0.2999,0.6298 -1.6896,0.7498 1.4896,2.6594 -0.1099,6.6583 -1.5297,2.4894 1.0898,1.4396 0.3899,6.1185 -3.1692,3.2892 -0.8698,2.3194 -0.9098,2.4394 -4.8288,1.3797 -4.7388,2.9492 0.5199,1.8496 1.9195,0.4899 4.029,6.1684 -1.4697,5.3487 -1.6396,1.0797 -3.3391,2.6394 -3.1093,7.2781 -1.6096,0.5799 -3.959,-1.5496 -1.6096,8.1979 -1.1897,1.9896 -5.9085,0.4098 -1.3097,-0.2099 -3.1092,-5.3187 -4.009,0.25 -2.0795,2.3094 -2.2694,-0.6499 -4.4489,-4.1189 -0.6398,-2.4794 -1.6196,0.7398 1.4996,6.9583 -4.7588,6.2184 -9.5177,-3.859 -1.7795,-0.06 -1.4397,2.1195 -2.8393,-0.5799 -2.9892,-6.5483 -4.4389,0.2599 -3.5091,2.1195 -9.2877,-0.24 -1.7296,-2.0595 -0.8098,-4.2689 -3.7191,0.9498 -3.0392,-3.5592 -1.2497,-0.05 0.4599,-4.7189 0.5199,-1.2197 2.4094,-1.4796 2.7293,-6.3184 -4.5389,-1.1697 -1.4096,-2.2595 -1.9795,0.09 1.5096,-3.7291 -0.6299,-7.0482 -3.929,-0.5399 -0.6698,-3.1192 -6.2585,-2.9193 -3.2791,0.3599 -0.6999,-1.8695 -2.9292,-0.9997 -8.9378,-8.5079 -7.998,-2.4294 -0.4299,-0.3799 -5.4686,-6.4884 -4.7389,-0.15 -2.2294,-7.2582 -1.9695,-1.1797 -4.8988,1.5596 -3.939,-1.7395 -0.5799,0.8698 -1.8695,2.8393 0.7098,5.2187 -0.8898,1.9795 -3.939,2.2194 -4.7688,0.7598 -2.2994,1.8096 0.3099,5.0787 -7.3482,5.7386 0.7998,4.089 1.8696,2.6293 -0.4599,2.3994 -0.2,1.0797 0.29,1.0598 6.1884,1.7895 2.1495,1.0198 3.7491,6.9582 -2.8793,10.5574 -3.8691,3.989 -1.3596,9.5476 2.1294,4.6989 -0.2799,3.789 2.7293,2.0595 -0.4199,0.9898 4.119,2.0694 1.2097,1.7696 0.17,2.9693 -3.4192,1.9895 -1.1397,5.5586 3.2892,2.7493 0.1999,2.0795 2.6594,3.1492 3.0092,7.2582 -3.839,2.8493 -3.1192,-1.5096 h -0.6799 l -1.8995,0.01 -4.079,2.8792 -2.1894,-0.4499 -3.1393,2.0895 -5.0687,4.229 -3.6891,-0.7298 -3.999,2.1694 -3.3392,-1.2297 -4.8088,1.7796 -5.6286,-0.8498 -4.4189,-1.7396 -7.668,-6.9482 -6.5384,-2.1595 -8.6079,-4.5789 -8.6078,-2.1394 -9.2777,-4.349 -13.2967,-2.7893 -11.0373,-0.1499 -2.3594,3.2792 -17.7156,9.5676 -1.2696,1.5396 -0.6599,1.1997 -0.1399,0.2499 -0.29,4.6989 5.1887,4.6688 3.5791,1.8196 0.8698,3.3291 2.3295,2.5294 -0.6799,2.4094 -1.6296,3.6091 -5.3786,8.2979 -2.5094,7.2882 -5.4387,8.6879 1.2597,5.9986 -2.4194,1.9895 4.309,8.2579 4.8088,-2.6693 1.8695,-2.9593 3.1892,-0.6298 1.6296,-0.15 0.2499,0.2799 0.6899,14.9363 4.9987,1.0098 0.03,0.04 11.967,12.037 0.16,0.6099 -3.7391,7.2282 -4.2189,1.3697 -2.7693,3.4091 6.0884,2.2894 0.3999,1.4997 -5.4686,4.1689 -6.1185,2.3794 -3.839,2.8993 -5.1787,3.5891 -5.6686,9.6476 -0.6299,13.0068 -3.829,11.3571 -1.5796,11.8071 1.7895,3.6191 7.7981,7.4881 7.2882,1.4097 4.2389,4.9488 0.6199,0.3599 1.0897,0.6398 0.3899,0.14 7.3782,2.7293 0.03,0.8198 -1.2697,5.1087 1.8395,3.5391 0.04,1.8696 -0.8998,8.7178 4.259,10.5374 4.8688,4.8588 -0.01,6.3384 4.6488,12.3369 -3.3592,7.4382 0.8098,2.1894 -0.7198,2.5094 5.7486,11.2772 -0.6199,4.3389 -0.1799,1.2597 -1.0597,2.6693 -0.3,0.22 -0.2199,0.1699 -3.899,-0.1199 -42.8794,9.8375 -31.0622,7.0982 -8.9978,6.5584 -2.0995,0.8798 -2.5293,-0.8798 -2.0995,0.16 -2.2794,-0.5799 -5.7586,-4.139 -2.7593,1.9795 0.9897,-5.1687 -1.2397,-1.7795 -0.1699,-0.24 -1.9795,-0.4499 0.8798,1.4597 -1.0298,1.4096 -1.0997,-1.0397 -1.7396,0.8898 0.7298,1.7495 -0.8098,-0.3399 -0.3799,1.1897 -1.5396,-0.6598 -1.0297,0.4899 0.6398,1.0097 -1.3097,-0.5698 -2.2594,3.2791 0.9998,0.6999 -1.2597,0.7098 0.03,0.09 1.3296,1.1897 -0.8298,0.7098 0.8398,0.2999 -0.9397,0.4999 0.6898,0.3699 -1.0897,1.6696 -2.5994,1.3297 -0.9298,-2.1195 -1.8795,0.1799 1.3097,1.8896 -1.2497,0.5098 0.4799,1.2397 -1.2697,-0.1399 -1.9795,-0.22 -0.8898,1.8795 -3.1692,0.08 0.01,3.2092 -1.3397,0.3599 0.24,1.4797 -1.8296,0.6598 -0.8898,2.9793 -0.6898,-0.8398 -2.1694,1.3296 -0.02,-1.0197 -1.7496,1.0097 -1.5396,-0.7098 -5.0388,1.8296 -2.4594,-1.6396 -5.0587,-0.7998 0.23,-1.7796 -1.4597,1.7896 -2.1794,-0.6499 -0.35,2.0295 -0.2899,-0.6798 -2.3094,0.3999 0.02,1.0497 -1.1997,-0.4099 0.3499,2.9693 -3.4791,2.0595 0.3499,1.0997 -3.2692,0.24 0.5499,-1.5797 -1.1897,-0.2799 -0.24,-1.5396 -0.6998,0.9098 -1.4297,-0.5699 -2.2094,-3.3791 -1.3997,0.6998 0.7099,-2.2695 -2.3994,-0.2299 -0.9898,-1.7096 -3.909,0.5499 -1.3697,-2.2594 -1.4896,0.3799 0.03,-2.5494 -0.9298,0.17 -1.4296,-2.5794 1.4096,-2.0195 -1.7495,-0.6498 1.0697,-3.7991 -1.0198,-1.2497 1.4597,-0.6198 -0.4099,-1.2397 1.0497,-0.3799 0.9998,-3.0193 -0.12,-1.8795 -1.6096,-1.3897 3.0093,-0.9997 -0.08,-1.0298 0.8798,0.4499 -0.32,-3.859 -1.2696,0.3699 -0.6099,-1.0497 1.2597,-2.8193 -2.9293,-0.7398 0.4899,-2.1295 -1.4596,-1.1297 -0.14,-4.4789 -1.0098,-0.6699 1.3497,-0.05 1.4596,-2.6994 0.29,-2.3294 -0.9998,-0.4599 1.8496,-3.3291 -1.0298,-1.5697 0.27,-2.3994 0.8997,-1.8095 0.6599,0.3399 -0.4399,-2.7593 1.4596,-0.4799 0.4499,-1.9795 0.5299,0.8798 1.4796,-0.3499 0.4899,-3.2492 1.7295,-1.3997 -0.5098,-1.3396 3.1992,-2.9693 1.4496,-4.5789 1.4297,-0.3399 -0.1,-1.8195 1.0697,-0.8998 -0.6098,-1.1997 2.8393,-3.3791 -0.6299,-0.9798 1.0797,0.1999 0.6299,-2.8492 0.8198,0.4698 0.3999,-2.9692 -1.9295,-1.6696 0.6698,-1.3297 -0.9997,-2.7693 2.4393,-4.2589 -0.1099,-4.099 -2.2895,-2.4394 -2.6793,0.2899 -1.1497,-2.0195 1.4796,-2.6193 -0.7198,-5.7386 0.8498,-2.3094 -2.1195,-6.1285 3.4492,-10.3574 2.1494,-1.1497 -0.4799,-1.9095 -1.4096,-0.7399 -1.7296,0.8598 -5.6186,-2.3494 -9.6976,-1.2497 -1.7195,-1.4896 -0.3,-1.8995 -2.9692,0.02 -4.9288,-6.8083 -4.1889,0.1199 0.1199,-15.0862 -25.5036,-0.01 -21.4247,0.02 -32.4419,0.02 h -35.6911 l -85.6687,-0.06 -5.5486,-0.01 -47.7881,-0.01 0.05,4.6089 0.02,34.8713 -6.0485,0.2499 -4.5389,5.3587 -1.1197,6.4584 -1.4196,8.2379 -0.01,7.3082 2.6293,0.8198 4.7388,-0.4799 3.4492,3.3392 0.4599,7.4981 -1.9096,4.6588 -0.5198,1.2497 -8.018,8.138 -1.1997,4.5189 -1.3597,-0.5599 -7.0583,3.2292 -4.2389,5.3787 -0.6098,1.9595 -1.3697,4.4189 2.9193,10.0475 1.8295,2.1495 -1.5396,3.5091 0.8998,0.4799 -0.9498,4.3089 2.1795,1.7495 -0.8598,3.0093 -1.1897,0.5399 0.06,2.5593 2.7793,0.7498 2.0595,-1.3696 0.2199,0.1899 2.8193,2.4494 -0.01,1.9295 -0.01,3.6991 -2.7793,4.209 0.2799,3.4591 -1.4996,5.5286 -2.5894,4.4389 0.3999,6.5584 -2.3194,6.5284 -0.1199,0.8798 62.4344,0.07 16.9558,-0.04 4.2989,-0.01 26.5834,-0.08 40.4499,-0.1 42.5094,-0.14 21.3947,0.01 100.1451,-0.04 0.9697,1.7796 0.4599,1.5196 -3.6791,2.1495 1.3597,0.3599 1.0797,2.0695 0.01,1.3096 -2.7493,0.25 1.7795,0.7598 -0.05,1.9995 -3.5691,0.7398 -0.33,-1.5696 -0.2499,-0.11 -1.6796,1.6896 -1.2397,-1.4796 -1.2997,2.5094 1.7996,0.2299 -0.7598,1.1397 0.6698,3.1292 -2.3094,2.2295 0.7898,1.6696 -1.5996,0.7398 1.2097,2.1794 -4.6488,1.1198 1.4796,2.7893 -0.9298,2.4593 3.0593,-0.01 -2.4894,2.2694 2.6593,0.5998 -1.4896,2.3095 1.4096,-0.09 2.8293,2.5793 0.18,2.5494 -2.9593,1.8395 3.1592,-0.3199 0.27,3.7691 -2.0695,1.8495 3.5991,1.8196 0.5598,0.6498 -0.07,0.02 -1.7196,0.5499 -0.3799,1.0997 2.5094,5.4986 -2.0995,5.7786 -1.5896,-0.19 -0.3499,3.0993 -3.2892,2.4094 -1.8795,2.9892 1.0297,4.069 -2.7693,2.1095 1.0497,4.1589 -1.6596,1.4897 -2.6593,6.5883 -1.6296,0.5899 -2.3094,4.3989 -8.168,9.3877 -4.6388,1.7595 -0.4599,3.1192 -2.5494,1.0698 1.1597,8.4579 -2.6693,6.4584 0.7498,0.8198 -5.1687,2.6793 -0.7998,4.4689 -1.9895,1.0397 -0.6798,6.3284 1.0297,1.0598 -1.5896,2.6193 -0.2299,1.1297 -0.12,0.5699 0.5598,1.2997 3.1093,3.0392 0.7498,3.919 1.0397,-0.08 -0.7398,3.749 4.4989,0.14 -1.1297,1.1897 1.6196,2.4394 0.8598,-1.3097 1.8895,1.1197 2.2894,-1.1897 2.4694,2.4594 0.06,0.3099 -2.1595,0.5899 -0.2199,1.2197 1.2297,-0.4499 -1.0098,1.5096 1.0398,0.4299 -1.2097,2.9293 3.909,-1.1597 2.2094,0.5998 -0.7798,1.8996 3.0893,2.8792 -0.01,-3.1892 0.1299,-0.04 3.2492,0.4299 0.6599,4.3989 -0.5499,1.7596 2.9893,0.6099 0.7398,-2.0695 2.9092,-1.6596 1.5996,1.2197 2.5694,-0.06 -0.03,1.6096 1.9495,-0.06 -0.4998,1.9095 1.4896,1.4097 -1.3197,1.1297 1.1797,1.7696 4.4689,-3.2692 0.6498,-1.1297 1.0198,1.2996 -1.4796,3.4292 1.1997,-0.4999 3.829,2.4294 -0.8498,2.5993 1.7796,-1.6495 2.2494,-0.15 0.18,3.3092 2.3994,-0.5499 0.8997,1.3597 0.09,0.1899 -1.0897,1.4896 2.8293,1.2297 0.3499,3.8391 1.7096,1.1797 1.9795,-1.2297 0.6298,0.7698 1.1997,-2.1495 0.27,-0.01 1.7895,2.6094 -1.9295,1.3397 3.1292,-0.32 0.5699,2.6994 -3.4192,1.2497 1.2097,2.5193 2.7993,-1.3896 0.29,6.0085 -1.8796,1.4596 0.8898,1.0598 2.3394,-1.3697 1.0198,1.4896 3.4891,1.4197 1.3897,2.9792 0.08,2.8393 -2.5893,0.9498 1.4796,2.3794 -2.5893,0.9697 -0.4799,3.4692 1.2597,3.1492 2.8093,-1.0597 -2.0995,1.8395 -0.3199,2.5694 4.4389,1.5096 -0.7299,2.2194 0.9898,2.1695 -0.8598,1.0897 1.0997,1.6796 -1.3296,0.7998 -0.13,0.7198 0.2999,0.6699 3.8191,3.5591 -1.7196,1.0597 0.2099,1.5496 6.0385,-0.8698 -4.039,4.7489 1.8196,6.6083 -0.2599,0.5799 -2.6494,1.1297 0.5299,3.4291 2.1994,-0.2199 v 2.2394 l 2.5094,0.28 -0.4699,1.3596 -2.5093,0.9198 0.3299,1.4496 2.4894,1.1897 -0.9898,3.6291 4.7488,-2.3494 0.8298,0.9398 2.1595,4.3289 1.9795,-0.9598 0.8298,0.9598 1.2897,1.1597 -4.5889,3.5091 1.5796,0.8498 0.3799,1.8396 1.2797,-0.9898 2.4194,1.0698 -3.1292,3.639 4.5188,0.7799 0.08,0.2599 -1.9295,2.8693 2.1795,0.9097 2.4194,-0.6698 0.5098,2.1595 4.8788,2.1894 0.3099,0.5599 -1.5996,3.5591 -6.3484,1.8795 3.5491,-0.05 -0.04,2.4394 -1.2496,-0.2899 -0.2,1.9195 3.889,-1.4296 0.33,1.6596 -2.8893,2.2394 0.7298,0.8598 -1.9395,1.6896 -1.4897,-0.3399 0.6499,2.1494 -0.6599,0.27 -1.0097,0.1699 -0.9398,-1.8895 -0.6998,2.4394 -1.0497,-1.0797 -0.5499,1.2696 -0.08,0.5399 -0.3699,1.6696 -1.6096,-0.6798 1.0997,1.9295 -0.6198,0.7798 -3.909,-2.5894 -0.4099,-1.4396 -1.3497,0.2899 0.8798,5.4687 1.7895,0.4498 0.02,0.5199 -1.9195,2.6494 -1.7296,-2.0395 -0.9297,1.2996 -1.9195,-0.5298 -0.02,2.1394 1.4996,-0.06 0.1899,1.0297 -2.2794,0.8498 -2.4194,-0.5099 -0.7598,-1.2397 -0.8098,2.2894 0.8798,2.0895 -5.2287,-1.5196 v 2.2295 l -1.6496,-1.1398 -1.7196,1.0798 1.1097,1.2996 2.0595,-0.2099 -1.7295,1.2697 -3.1892,-1.9295 -1.1498,1.0197 -1.4996,-1.6396 -0.1399,5.4387 -1.9995,-0.08 -0.7099,-1.6696 -0.9197,2.4694 -1.6596,-1.0498 -0.4799,5.2187 -2.4794,-3.2591 -2.7193,3.669 2.2094,0.9598 -0.2499,1.6996 -2.0295,-0.1 1.8895,1.4996 -2.2894,1.0298 0.2299,4.3889 -4.2489,-1.7796 -2.7193,2.6994 0.3899,2.4393 -1.4197,1.4797 -1.1897,-4.119 -4.1089,3.0192 -1.2897,-2.3694 -1.4197,1.9695 0.8498,1.3297 -1.4496,2.2095 -5.8686,0.3899 1.1398,3.1492 -1.5297,1.2997 4.219,2.3294 -0.8398,0.6998 -2.2194,-1.0797 -2.2895,0.7798 -2.0695,-0.6898 2.0095,2.6493 2.1495,0.5898 -0.09,2.3695 -0.1999,0.4898 -1.6096,-0.8697 -1.5396,0.6498 -1.0898,2.3894 0.4999,3.4791 -3.2092,-1.6995 -0.6198,-0.06 0.2899,1.2796 -1.6396,-0.4099 -2.1695,2.2995 2.0395,2.9892 -2.4294,1.1198 1.4797,1.1797 -1.4897,2.0894 -3.0892,-2.2794 -3.4891,0.9398 -1.3797,1.1497 0.9098,2.7093 -4.5689,0.6598 -0.2499,0.8098 1.9495,0.8198 0.05,0.11 -0.02,0.8098 -0.2,0.7298 -5.4586,2.1095 0.5499,2.3594 2.3394,0.04 1.3397,1.9495 0.3899,2.4294 -0.19,1.2797 -2.7793,2.2594 2.4894,2.5794 -0.8098,2.6093 -4.039,-1.8995 -1.7096,1.5696 -2.7293,0.3399 -0.22,1.6396 -1.2996,0.5099 4.6188,5.5286 -2.0395,0.4999 -1.3096,-1.3397 -2.8993,-0.3199 0.6998,2.4594 -1.5596,1.0497 -0.5099,0.18 -2.5793,-3.3392 -5.1088,1.3897 -0.9297,-1.5196 -1.3797,0.01 -1.1497,-2.9293 -3.6691,-1.2397 -0.3199,-1.5996 -0.15,0.02 -0.2499,2.5294 1.0897,1.0697 1.3597,-0.2999 -5.5386,5.0287 0.6698,1.2597 1.8195,-0.15 -0.1599,5.9985 -1.3197,0.21 -0.06,1.6096 -2.2594,0.8598 -1.5596,-1.7496 -0.5799,1.1497 1.2597,2.4294 -3.3692,0.06 1.7796,1.8196 0.3899,2.2194 2.6293,1.8395 -0.2299,1.4397 -0.03,0.2399 -4.059,-1.2497 0.5099,1.4497 1.9095,0.3599 0.6998,3.3092 1.4397,-0.7399 0.5998,0.6899 -1.8695,1.8995 -0.04,3.4491 -4.2289,1.7896 -0.27,2.7293 1.7796,0.4399 6.9383,1.6696 0.7298,4.2189 2.8593,2.5894 -0.8098,3.6491 0.9197,7.6281 0.6599,1.0497 1.6296,1.7896 1.0897,0.3699 4.6888,-4.7888 0.17,0.02 3.4391,7.0782 1.0898,0.6099 1.9895,0.6798 1.2397,-0.11 2.3294,-2.0795 10.4474,-2.9992 4.6788,-2.7893 4.8288,0.4599 3.3592,3.0992 7.5181,0.9797 6.6283,-0.6798 3.2792,2.0495 2.1795,4.199 2.4294,4.6588 7.3881,6.2085 2.5994,6.5683 2.9093,3.6491 0.9397,3.6891 -1.3896,5.5986 -3.3992,2.1095 -0.8598,2.9292 0.9298,0.7599 -0.4499,0.9497 1.3197,0.3599 1.5596,2.4894 0.2,2.3194 -5.2487,3.1692 -3.8191,-0.07 -1.0097,1.5896 0.6398,0.8298 -1.9895,-0.04 -2.6093,2.4893 0.5098,4.049 -1.8595,4.9088 -6.2285,3.4991 -1.8495,2.2795 0.09,2.3794 2.5393,1.6296 -0.5898,1.3596 1.2197,1.8196 -3.4092,2.7393 0.7698,1.2897 -4.4289,2.7593 0.08,2.0095 1.8796,1.3796 -1.4697,2.2395 -1.6296,0.15 2.3894,1.9195 -0.4598,1.2597 -3.6591,0.5898 -0.3699,2.1195 -2.7894,2.0895 1.9896,1.7595 1.4996,5.7586 1.3696,1.7096 -0.4698,2.4893 1.8895,1.5797 -1.6596,5.2786 0.9698,1.5097 -0.7399,0.07 0.34,1.8596 3.3191,0.06 0.3999,0.3199 0.6999,1.3497 -0.24,1.8895 1.8795,1.1397 -1.8695,1.9495 0.5799,1.0897 -0.7798,-0.3099 1.7395,2.3594 -0.3799,2.9993 1.0598,0.4399 0.1299,-1.0698 0.7598,1.3497 0.29,3.859 6.4384,3.7991 -0.04,4.4789 -2.3894,0.8798 -0.5299,1.5396 1.0297,0.4799 0.2,3.2591 1.1597,-0.1999 1.3097,3.4591 4.7688,1.0798 0.9198,2.4794 -1.0498,1.1297 0.4899,1.9695 -1.6296,0.1399 2.4994,1.0198 2.0395,4.089 0.8998,-0.5899 0.2599,5.6086 -2.9993,1.8896 -1.6895,-0.7299 -2.5594,0.6099 1.0097,3.2592 -2.5693,-1.3897 -4.029,0.07 -6.6983,3.6091 -1.1198,2.4094 -3.5391,-1.0397 -1.1697,3.6291 2.1695,0.1999 -0.3799,2.6893 -3.2592,0.8798 -1.1697,2.4094 -4.6889,0.8098 -0.6898,1.1197 -2.4894,-1.6096 -0.6598,3.5392 -3.7291,1.4896 0.5999,1.1497 2.8892,0.6798 -0.1,1.4497 -3.6091,-0.11 -1.4297,2.0095 -1.9295,-2.2794 -3.3891,-0.4499 -2.1295,4.1189 0.4999,1.6996 2.0994,1.3197 -0.8797,1.4596 -1.8896,0.5799 -2.8093,-2.8093 -2.1694,0.08 -4.129,5.8985 -1.4996,-0.3299 -0.9398,1.1997 -2.7593,-0.9198 -1.1097,1.1397 -1.5297,1.9695 1.0298,2.1895 -1.6096,-0.3599 -2.3594,2.1594 -2.6194,-2.2094 -4.1989,2.1395 0.06,3.799 -4.099,2.3594 1.0197,2.7193 -2.0195,1.4497 -1.7695,-0.9598 -0.31,-3.3791 1.8096,-6.0685 -1.3497,-1.1797 -1.2796,0.06 -4.8888,4.1689 -1.3197,0.2 -1.8695,-1.5496 -1.0998,5.3386 -1.7895,1.8396 -1.5396,-0.5999 -2.3994,0.9398 2.3194,1.5096 -0.11,1.1097 -2.9093,0.22 -5.3086,3.5491 0.05,0.1 1.1498,2.2694 0.06,1.1997 -1.3096,1.9995 -2.1295,-0.4299 -0.4199,-0.6098 0.19,-3.1792 -2.9393,2.2394 -0.5099,0.8698 2.0095,3.6391 -3.5391,1.7995 -2.8693,3.3892 1.9395,1.2797 1.7696,3.729 5.2087,3.979 -4.219,2.3495 -0.6198,3.779 -2.3094,-0.2499 -4.319,2.0895 -0.4398,-0.27 0.3399,-2.8593 -2.0295,-1.3196 -1.4197,0.5098 -4.2689,9.6176 -2.8093,-0.3499 -2.2994,0.3499 0.1199,1.7296 -4.049,4.6888 -1.2296,0.6099 -1.1997,0.08 -1.6696,-0.6399 -1.8296,-4.9687 -7.6981,0.5698 2.3695,3.9091 -0.9498,0.9797 -1.9795,-0.7398 -0.3399,0.2699 -1.8796,2.3694 -2.3494,3.3092 v 0.3899 l 2.8493,3.1192 -0.09,1.8896 -3.6491,-0.4299 -3.759,2.6193 -2.6894,1.8696 -3.3091,-2.0995 -3.0093,-0.4399 -0.5099,-1.7496 0.7099,-1.1197 -1.3797,-0.9498 -2.2694,-1.1897 -2.0095,1.7496 -4.7288,2.3294 -0.28,3.8191 -2.0395,3.4491 1.7496,2.1595 -0.09,2.3594 -2.2294,0.6498 -3.4592,-3.3891 -3.0292,-0.31 -0.5599,0.8798 -1.2996,2.0595 -0.36,1.1097 -2.0594,1.0898 -0.29,0.5098 -0.1299,0.5099 2.9592,1.6296 0.3,1.7396 -1.5996,1.5096 -2.3695,0.4099 -3.2791,-2.3194 -1.4897,2.7193 -7.818,-3.3492 -3.6191,1.5197 -1.3397,5.3786 -3.5591,0.09 -3.929,1.8595 -0.7398,2.0895 -2.3595,-1.3697 -0.8897,-6.0684 -1.3397,-0.8398 -2.3694,0.9797 -0.9198,-0.5898 -0.2199,-4.309 1.2497,-3.2691 -1.5796,-3.1593 -5.5187,3.8091 -2.7793,-0.08 -1.1297,-0.4899 -1.1797,-2.6493 -4.209,-2.5494 -0.6898,-0.1599 -3.4591,-0.8398 -2.8093,-5.4387 -2.5294,-1.2097 -1.8095,-0.06 -2.0395,3.939 -1.8996,0.9597 -4.8887,0.3999 -2.2995,-0.2499 -6.1384,-0.6698 -1.0398,-0.5199 -3.5191,-2.8693 -6.1985,-2.5594 -0.9797,-4.2289 -2.8993,-3.4691 -0.5199,-3.979 -3.739,0.8897 -7.4882,-3.4991 -8.1079,-0.6198 -1.8596,-1.4197 -0.04,-3.939 -9.2777,-0.5699 -2.2694,-3.929 -3.1892,-0.07 -2.2195,-0.04 -2.9892,5.5587 -8.6479,5.0187 -0.2599,2.8893 3.6391,2.3294 -0.05,0.9398 -2.8993,0.5498 -3.4691,-0.9797 -3.3292,-2.3294 -0.2499,-0.17 -2.3294,-1.0297 -3.5891,-1.5796 -3.2292,1.0897 -11.987,0.7998 -1.0198,-0.23 -0.6698,-4.8088 -2.5194,-0.04 -1.9595,1.7196 -5.5286,1.2197 -2.9493,-3.2392 -10.4274,7.7481 -0.5998,0.1699 -1.1997,-0.8597 -0.8198,-1.1797 1.4396,-4.149 -1.0897,-2.2694 -2.5894,-0.22 -7.4181,4.3589 -5.0188,-4.9687 -6.0285,-0.3 -1.5696,-1.0397 0.2599,-5.0487 -2.4893,-2.4394 -6.7983,1.0897 -2.8593,2.2594 -1.9795,0.2 -11.8571,-2.3294 -2.4994,1.8795 0.15,2.2194 -1.9795,1.1797 -2.8993,-0.4898 -4.009,0.9797 -0.13,0.04 -4.5388,-0.6498 -4.8288,2.1494 -3.5091,-1.6596 -7.1483,2.6694 -8.1579,-2.8893 -4.6789,3.6491 -4.5588,-1.4496 -5.3887,3.3791 -5.0287,5.8686 -3.7891,-1.4297 -1.3197,-9.4476 -3.909,-1.9496 -9.2777,-2.3594 -3.2892,-4.5388 -7.858,-0.8098 -3.4491,-3.3992 -6.1785,0.11 -7.3682,5.5986 -3.1592,1.8995 -2.0595,3.4492 -2.7893,0.4698 0.8698,4.8588 -2.9593,0.6999 -1.7395,4.019 -3.2392,1.1097 -5.7686,-2.0895 -5.9185,2.7893 -1.6996,5.3087 -2.1195,3.1492 -7.5481,4.6089 -1.5996,-1.1398 -3.0092,0.09 -1.8296,-3.1992 -4.2389,-0.4899 -0.8298,-0.6598 -0.19,-0.3399 1.9196,-3.3192 -0.5299,-1.6296 -6.0585,-0.1499 -8.7878,6.2784 -1.1597,3.6191 -8.9878,0.8198 -6.4284,-1.4996 -1.7595,1.6595 -0.06,2.1395 4.6888,4.8988 0.7798,1.3297 0.4299,1.6495 -2.6793,3.5892 -4.5989,2.5793 -4.1789,4.229 -5.0888,8.5778 -1.6196,5.3087 -0.03,0.11 -7.2982,1.5396 -0.8397,0.5199 -3.2592,2.4993 -0.9398,1.2697 -1.7396,7.4782 -3.3691,0.7898 -6.3584,-1.6496 -2.4994,1.3496 -4.199,10.5374 -7.1182,6.2784 -2.6493,4.8688 -1.7596,3.2392 -5.1787,1.2697 -4.5089,-0.4699 -2.6293,-2.0295 -5.0888,-10.3174 -16.026,-14.8363 -1.2697,-5.3587 -0.1899,-3.979 0.01,-7.778 -0.8698,-1.9496 -1.1297,-1.7595 -1.5896,-1.0298 -8.3179,-0.2599 -4.169,0.2599 -1.2497,0.7299 -2.6393,2.4294 1.7595,7.798 -1.9595,3.5991 -0.5199,0.9498 -1.5896,1.1497 -0.9997,0.4399 -5.5886,-1.3097 -17.1857,3.3292 -5.6186,1.5596 -0.7898,0.4799 -1.2397,1.1597 -0.22,3.0492 5.4986,5.8986 -1.4896,3.3091 -2.5094,0.5199 -7.0982,-3.7291 -2.1295,-0.2599 -3.4391,0.2199 -6.0585,1.6896 -6.0085,4.5389 -0.7098,0.5399 -3.1892,1.5596 -1.7896,-0.07 -5.2287,-1.8895 -4.059,0.9597 -0.8398,0.8598 -1.5096,5.0188 -1.9995,3.3791 -3.4191,0.7798 -0.18,-0.02 h -0.12 l -7.998,-3.5991 -5.2986,1.3297 -5.3987,-4.3889 -4.9688,-0.22 -1.1497,-2.8593 -1.9195,-0.9297 -1.3597,-0.3799 -1.1297,0.05 -6.2084,3.739 -8.8478,0.8698 -13.6766,-3.1392 -2.4794,-3.1392 -11.3972,-1.5496 -3.949,0.5198 -2.8193,3.0693 -4.139,10.5873 -4.5588,3.1792 -5.1187,6.1285 -27.3332,-2.5593 -11.2172,4.7788 -6.0385,0.4698 -10.6274,-0.8597 -6.3884,2.0095 -6.4184,2.0195 -1.5996,0.4998 -4.7688,2.1395 -4.7388,4.5589 -9.1977,15.5061 -7.3682,16.216 -0.5499,0.6798 -1.6596,1.2797 -4.029,2.0795 -6.4384,1.2896 -2.2794,1.4397 -1.1197,1.6396 -5.4686,17.6656 -0.04,0.04 -7.9481,8.4678 -1.6295,1.0398 -0.7699,0.2599 -8.7079,2.8593 -2.8593,2.5094 -0.8898,4.7088 3.8391,9.4777 -1.2897,7.5581 2.8993,2.7193 -1.1897,6.8683 -7.8081,13.9165 -4.7688,7.2882 -1.4096,1.5696 -0.5899,0.4499 -0.5598,0.4399 -8.7879,4.5589 -4.0689,5.3086 -19.64506,-1.1197 -0.3,-0.02 -4.1689,0.07 -3.979,0.5599 -1.1798,0.4199 -0.7898,0.8297 1.6796,7.7981 -2.6393,3.0792 -17.1257,4.089 -3.0593,4.019 -0.3499,5.4387 -0.18,2.8293 -1.0397,3.939 -7.6981,7.6281 -5.6186,1.0797 -9.1977,8.8078 -3.5191,5.8985 -0.3199,0.7898 -2.2295,5.4087 -0.6598,5.9985 -3.2892,6.3884 -4.089,8.6879 -3.819,4.5588 -0.4999,1.2497 -0.4599,4.169 2.1995,3.5991 9.6576,7.6781 4.4988,5.6586 -0.5698,4.0289 -2.8193,3.0593 -2.2095,0.7298 -21.0847,-7.5581 -9.2877,-2.6494 -1.2597,-3.6191 -2.2794,-1.1797 -1.7096,-3.2491 -5.3187,-2.5894 -5.4886,-1.1397 0.08,-6.7983 -6.4084,0.8698 0.9197,-2.8793 -1.3396,-1.6696 -3.0393,1.1097 -4.9387,-0.3399 -0.5099,-1.1497 3.6691,-2.5994 0.9597,-1.9495 -1.8795,-0.7898 -2.7693,-6.0985 -0.2999,-0.2499 -2.9793,-0.4099 -0.06,-4.5189 -2.6493,-3.769 -0.9098,0.2599 -1.3696,-2.0795 -2.9893,0.21 -0.2399,-1.5996 -6.5284,-3.5292 -0.02,-1.9395 -1.4896,-0.3999 h -0.02 l -4.3489,0.5199 -4.019,-1.8495 -2.4894,0.1499 -5.7586,-5.2687 -7.948,0.06 -3.939,-1.2497 -2.4194,-4.8588 -4.189,-1.1797 -0.6898,-1.1997 -1.5296,1.5496 -2.8193,-2.2794 -2.5594,-0.2599 -1.3397,1.7195 -0.2099,0.27 -3.859,1.5396 -1.8796,-0.9198 -1.7695,2.5494 -1.5397,-2.1595 -5.7785,-1.7195 -1.3597,-3.8891 -1.5296,0.5399 -0.3399,0.11 -0.6998,-0.23 -1.0498,-1.7196 -1.9995,-0.9397 -0.5498,-1.4397 -3.2292,-0.2799 1.4096,-4.5289 -1.3696,-1.7595 -9.0378,1.2097 -2.7093,-2.7094 -7.2782,2.7394 -0.9798,-0.5399 1.5896,-2.5194 -1.9295,-1.6296 0.17,-2.3494 -1.6596,-1.9595 -6.6284,0.4699 -2.6093,-2.6593 -0.8998,-0.8298 -0.3099,-0.21 -1.3897,-1.3996 1.8196,-1.5297 -1.8196,-1.0397 -1.6495,0.5999 -1.2297,-2.5094 -2.1095,-0.3099 -1.1597,1.7695 -2.4394,0.21 -1.6796,-1.3697 -0.8298,-2.2394 -0.7098,-0.04 -2.9393,0.8298 -0.3899,1.4896 -5.1087,-4.3289 -0.4299,-0.02 -0.7698,0.09 -1.1997,1.6895 -4.059,1.0798 -2.1795,-2.1795 -0.2699,-2.7593 -3.2492,1.0697 -5.1787,-3.719 -3.999,1.1997 -3.5791,-0.9998 -1.2297,-2.5194 -7.0183,0.03 -0.5498,-1.3896 -0.5699,0.7798 -4.1589,-1.0598 -1.3897,2.8893 -4.029,1.4796 -1.4396,-1.3296 -3.3192,0.4099 -5.1087,-3.4392 -0.9398,0.7898 -5.0088,2.6094 -11.4371,-6.3884 -2.1895,0.4699 -3.1792,-2.3495 -0.4998,-1.2796 1.7695,-0.5899 -2.3694,-1.2397 -1.1397,1.4996 -3.899,0.25 -0.9598,-2.9793 -2.8293,0.5899 -0.7898,-0.7798 -1.2197,-1.4797 -0.09,-0.6498 1.6196,-0.5898 -0.4399,-0.7299 -5.6586,0.26 -5.0087,-3.7591 -1.6596,1.3497 -3.2892,-0.9998 0.5799,-1.3396 -2.7093,-0.4099 0.4798,-1.9796 -7.1182,-4.2389 -7.4381,1.1597 -0.8398,-1.4696 2.6893,-2.1495 -2.3194,-1.1997 -2.6394,0.6798 0.6799,0.8098 -1.9695,1.4597 -5.2787,-5.1387 -0.3,-1.7996 -1.1297,0.2 -2.3394,-3.4792 -2.7493,-0.9397 0.5998,-2.7993 -3.0592,-4.5989 -2.8193,0.01 -2.3494,-3.4291 -3.5391,0.2199 -0.26,-2.5494 -2.3494,-0.3199 -2.1494,-2.4394 -1.8596,2.3394 -2.0295,-0.08 0.26,1.8795 -2.0595,-0.7798 -1.7696,-3.1692 -0.6598,0.6498 -0.9498,-1.2497 0.3999,2.7993 -0.8598,0.6399 -1.0697,-0.8498 -1.6896,1.9895 -1.0397,-3.1092 -4.7188,0.7198 -0.9598,-1.8496 -1.8395,0.3999 -1.1698,2.6194 -2.3994,1.8595 -1.6495,-1.1297 2.0194,-1.9095 -1.7595,-1.8596 0.3999,-1.3596 -2.2295,0.03 -3.1392,-1.7596 -0.6698,1.0498 -1.4297,-0.32 -1.1597,-3.2092 -1.5196,0.27 -2.1794,-1.6096 -3.3292,2.2594 -4.6888,-0.7898 -2.3095,-2.9293 -0.8198,0.04 0.07,-0.2099 0.5899,-1.8596 -2.2795,0.13 -2.7293,-2.5794 -0.8498,-1.4796 1.3397,-0.4899 -0.6698,-1.2796 -1.3097,0.2899 0.8998,-4.229 -1.7796,-2.1494 -0.5699,0.9397 -3.5591,-1.5796 -2.2994,0.13 -1.9195,-2.5294 -3.4492,1.2997 -2.9492,-1.7796 0.6598,-1.9095 -2.1195,-1.2697 0.7099,-0.6998 -1.8796,0.06 -0.2399,-3.6191 -2.0895,-1.1097 -1.2097,-2.3994 -1.1097,0.2699 -0.6099,-2.4694 -1.7795,-0.6598 -4.009,1.5896 -1.1897,-0.9498 -1.6096,0.7398 -0.6199,-1.2796 -3.0692,-1.1797 -10.4274,-0.9598 -3.989,-3.8191 -0.3299,0.9298 -3.999,-0.4699 -5.7886,0.01 -1.2197,2.3894 -3.3492,0.9998 -3.989,-2.8193 -4.149,-0.8998 -1.2397,-2.0495 -2.1895,-0.1299 -0.6798,-2.0095 -2.4894,-0.8598 1.1297,-0.8198 -0.9897,-3.2292 -5.1087,-0.3099 0.6698,-1.7396 -2.4394,-0.7198 -0.3299,-1.4497 -1.0298,0.14 0.34,-1.1997 -6.8283,-6.1085 0.5398,-2.1595 -3.919,-1.1197 -0.5199,-2.8093 -0.3699,-1.9795 -4.129,-2.7893 -0.8997,-1.1997 -6.8183,-11.997 -8.5679,-1.7496 -8.198,-3.3391 -6.8083,-1.9296 -0.2499,-1.5196 -2.8193,-2.1494 -7.0682,-0.33 -0.8198,1.5197 -3.6591,1.0497 -6.3784,5.1987 -2.0695,2.8993 -9.6476,-0.23 -3.5891,2.0695 -3.1392,-2.3094 -9.9076,-2.5394 -3.2592,-0.3399 -11.2372,3.7991 -0.7098,0.1 -3.4091,-0.8598 -5.9386,0.5998 -5.2887,-3.1192 -6.7583,0.05 -7.3681,-4.6489 -5.9086,1.5896 -2.9592,-1.6096 -3.1592,0.07 -0.6799,-1.7895 -8.058,-4.9988 -13.3766,-1.8295 -0.6299,-0.4599 0.7498,-6.2685 -2.2094,-2.0794 -6.0785,-0.05 1.7596,-4.5889 -2.2995,-4.2789 -3.3391,-2.9993 -0.5799,-4.6388 -3.6691,-4.009 0.8398,-2.9893 5.7686,-6.9182 9.3377,-3.4292 2.4493,-6.3784 2.9593,-4.029 5.8885,-3.6791 1.5097,-9.8875 0.8198,-2.2295 2.0794,-0.8298 2.3894,-0.4998 7.0383,-0.12 12.9068,-2.8593 4.039,-7.958 7.838,-6.1685 0.7998,-7.1782 -0.7198,-1.2397 -1.5796,-1.8295 -5.0188,-4.5789 -4.8787,-2.5393 -6.2285,-1.8496 -1.5196,-0.1899 -1.1997,-0.15 -15.7661,1.2397 -16.4159,-4.8388 -6.8783,-1.0897 h -1.4296 l -9.6276,2.6393 -11.2972,6.9583 -3.5291,7.928 -1.6096,0.2199 -4.7888,-2.3794 -8.238,-0.3399 -10.1275,-10.3974 -0.2899,-12.3969 -2.6893,-7.968 0.05,-9.2477 -6.348401,-19.0853 0.2399,-7.2082 -3.5591,-12.4169 -1.0598,-5.9585 1.2697,-3.3092 4.3389,-3.5491 1.6296,-0.6598 8.847801,-0.5299 2.2095,-0.4299 3.6091,-1.5996 1.2097,-3.6691 0.6198,-17.1757 -2.2394,-5.7885 -2.9193,-2.1895 -4.6988,-8.148 -10.047501,-6.4784 1.2397,-5.4586 -1.6596,-2.8193 -0.04,-3.2092 -2.4794,-1.3996 -0.8198,-1.7696 2.1495,-11.2272 -3.6492,-4.5089 0.3099,-1.8995 -3.809,-3.879 -1.6296,-3.1893 1.2197,-2.8392 -3.2492,-5.2687 0.3599,-1.3797 -2.2794,-0.14 -0.5599,-3.2391 -1.8196,-1.8296 -1.3296,0.5999 -0.7198,-2.0895 -2.9293,-1.9395 0.5598,-0.9598 -1.3696,-1.9295 -3.8591,-1.4697 0.25,-0.8697 -2.8393,-0.9698 -0.3499,0.9998 -5.3787,-3.0693 0.7198,-2.1794 -1.2397,-1.6496 0.24,-2.2795 -2.4894,-1.4996 1.9195,-1.4296 0.29,-1.9395 -1.8496,-2.5794 1.7896,-1.4596 -1.4797,-1.0098 0.23,-2.7293 -1.4497,-0.4299 0.8398,-0.8898 -1.5796,-2.6093 0.01,-5.2387 1.1597,-1.6096 -1.2796,-1.3097 1.2197,-0.6398 0.2999,-1.9895 -1.0598,-1.5197 2.2195,-1.4496 0.02,-3.0292 1.3596,-0.8498 -1.1497,-2.2095 0.9898,-0.6998 -1.2097,-2.5394 0.7398,-0.7898 -2.1195,-2.0495 -0.2699,-1.7595 2.2294,-1.9595 -1.5196,-1.7196 -0.07,-2.9193 0.9598,-1.4596 -1.1697,-0.5399 0.11,-1.8395 2.1194,-3.4892 -0.6598,-1.3296 0.8198,0.2699 -1.3397,-2.3094" />
  </a>
  <metadata
     id="qgismetadata">
    <rdf:RDF>
      <cc:Work>
        <dc:format>image/svg+xml</dc:format>
        <dc:title></dc:title>
        <dc:date>2020-03-28T17:25:37</dc:date>
        <dc:identifier />
        <dc:description />
        <dc:creator>
          <cc:Agent>
            <dc:title>Zaqueu Henrique Souza</dc:title>
          </cc:Agent>
        </dc:creator>
        <dc:publisher>
          <cc:Agent>
            <dc:title>QGIS 3.8.0-Zanzibar</dc:title>
          </cc:Agent>
        </dc:publisher>
        <dc:subject>
          <rdf:Bag />
        </dc:subject>
        <dc:type
           rdf:resource="http://purl.org/dc/dcmitype/StillImage" />
      </cc:Work>
    </rdf:RDF>
  </metadata>
</svg>
