<?xml version="1.0" encoding="UTF-8" standalone="no"?>
<svg
   xmlns:dc="http://purl.org/dc/elements/1.1/"
   xmlns:cc="http://creativecommons.org/ns#"
   xmlns:rdf="http://www.w3.org/1999/02/22-rdf-syntax-ns#"
   xmlns:svg="http://www.w3.org/2000/svg"
   xmlns="http://www.w3.org/2000/svg"
   xmlns:sodipodi="http://sodipodi.sourceforge.net/DTD/sodipodi-0.dtd"
   xmlns:inkscape="http://www.inkscape.org/namespaces/inkscape"
   xml:space="preserve"
   width="143mm"
   height="133.39999mm"
   style="fill-rule:evenodd;image-rendering:optimizeQuality;shape-rendering:geometricPrecision;text-rendering:geometricPrecision"
   viewBox="0 0 143000 133400"
   version="1.1"
   id="svg410"
   sodipodi:docname="mapa-site-santa-helena.svg"
   inkscape:version="0.92.3 (2405546, 2018-03-11)"><metadata
   id="metadata414"><rdf:RDF><cc:Work
       rdf:about=""><dc:format>image/svg+xml</dc:format><dc:type
         rdf:resource="http://purl.org/dc/dcmitype/StillImage" /><dc:title></dc:title></cc:Work></rdf:RDF></metadata><sodipodi:namedview
   pagecolor="#ffffff"
   bordercolor="#666666"
   borderopacity="1"
   objecttolerance="10"
   gridtolerance="10"
   guidetolerance="10"
   inkscape:pageopacity="0"
   inkscape:pageshadow="2"
   inkscape:window-width="1440"
   inkscape:window-height="872"
   id="namedview412"
   showgrid="false"
   inkscape:zoom="1.4951693"
   inkscape:cx="397.7695"
   inkscape:cy="274.86328"
   inkscape:window-x="0"
   inkscape:window-y="0"
   inkscape:window-maximized="1"
   inkscape:current-layer="svg410" />
<defs
   id="defs4">
<style
   type="text/css"
   id="style2">
<![CDATA[
.str2 {stroke:#1F1A17;stroke-width:76}
.str0 {stroke:#72706F;stroke-width:76;stroke-linecap:round;stroke-linejoin:round}
.str4 {stroke:#C2C1C1;stroke-width:76}
.str5 {stroke:#D82B40;stroke-width:76}
.str1 {stroke:#72706F;stroke-width:353;stroke-linecap:round;stroke-linejoin:round}
.str3 {stroke:#131516;stroke-width:353;stroke-linecap:round;stroke-linejoin:round}
.str7 {stroke:#1F1A17;stroke-width:706}
.str6 {stroke:#D82B40;stroke-width:1058}
.fil2 {fill:none}
.fil3 {fill:#FFFFFF}
.fil0 {fill:#EEDDB3}
.fil1 {fill:#F6EAD9}
.fil5 {fill:#D82B40}
.fil4 {fill:#ECECEB}
]]>
</style>

























































































































































































































































</defs>


<g
   id="Destaque"
   transform="translate(0,-146000.39)">
</g>
<path
   style="fill:#91c1bb;fill-opacity:1;stroke:#c8eae6;stroke-width:155.31040955;stroke-linecap:round;stroke-linejoin:round;stroke-miterlimit:4;stroke-dasharray:none;stroke-opacity:1"
   inkscape:connector-curvature="0"
   d="m 108660,53475.744 473,-677 -164,-457 -307,-332 -2,-494 348,-362 834,55 362,-402 23,-719 -339,-470 129,-587 -309,-85 -366,173 -85,-66 660,-457 59,-583 -184,-477 157,-127 -125,-115 3,-704 161,-249 468,-117 317,-1086 -30,-265 -244,-91 -162,-573 655,-96 517,-390 537,149 293,-215 409,-928 653,-643 315,-2137 1114,-1559 1481,4212 289,-2 411,-239 78,-273 452,-461 602,-296 895,-711 646,-44 92,178 167,-22 74,514 262,191 295,287 51,317 424,-299 144,208 -41,330 363,-81 143,193 229,17 53,-364 -135,-377 151,-384 260,178 241,-128 187,283 -180,209 127,377 -170,364 446,68 126,370 -221,376 -392,162 -73,176 -186,-7 147,133 -40,270 -248,-156 -167,193 -110,321 87,401 281,-349 93,178 319,-304 419,-34 200,316 201,15 237,-597 334,-116 101,226 93,-41 -39,78 123,50 -39,678 211,58 138,-120 150,378 204,101 -162,512 109,338 -184,287 134,75 368,-113 -353,627 343,169 -124,305 337,278 381,-288 25,196 303,41 245,419 320,-131 82,381 -194,415 393,356 108,454 -384,288 12,272 210,289 -390,246 277,189 -118,301 -269,283 -389,-38 108,420 -125,507 -300,127 -93,259 188,207 -83,281 -393,-53 -89,282 -101,-134 -180,66 -252,345 -564,-290 -52,-154 -160,164 -195,-329 279,-113 -754,-757 -140,176 -427,-121 -635,147 -1115,-250 -886,572 -461,-357 -381,456 168,292 -190,455 -644,390 -910,-43 -512,-576 -739,340 -855,-74 -712,516 -1365,-24 -793,803 -436,137 -407,527 -110,-253 -648,51 -879,-190 -956,-1558 -439,-312 z"
   class="fil2 str0"
   id="mun_5200134" /><path
   style="fill:#91c1bb;fill-opacity:1;stroke:#c8eae6;stroke-width:155.31040955;stroke-linecap:round;stroke-linejoin:round;stroke-miterlimit:4;stroke-dasharray:none;stroke-opacity:1"
   inkscape:connector-curvature="0"
   d="m 78806,78863.744 -1069,-825 -653,34 -244,-549 -681,-18 -752,-857 292,-376 5,-690 313,-323 -103,-122 -245,23 -67,-182 159,-57 63,-285 408,-191 905,192 1613,1186 1273,-44 -65,-197 297,-723 -48,-1396 657,-511 99,-562 260,-399 665,-422 1631,28 51,373 318,349 828,-30 430,650 1396,401 157,315 250,49 -49,405 290,9 -68,641 280,-77 81,449 315,30 -62,609 296,96 73,185 -479,407 183,967 -380,-131 -12,170 -192,81 -18,257 158,80 -197,134 31,121 392,-42 98,830 -302,32 -20,437 -501,233 -359,123 1,-134 -422,-62 -86,-183 -119,133 -288,-41 -397,702 -209,50 -93,263 -108,-225 -288,389 -291,36 -355,531 36,129 -405,358 -631,-170 -203,-725 -364,102 -120,-304 169,-209 -47,-181 -330,-9 -145,246 -635,-682 -1299,-210 -829,-725 -244,30 z"
   class="fil2 str0"
   id="mun_5201454" /><path
   style="fill:#91c1bb;fill-opacity:1;stroke:#c8eae6;stroke-width:155.31040955;stroke-linecap:round;stroke-linejoin:round;stroke-miterlimit:4;stroke-dasharray:none;stroke-opacity:1"
   inkscape:connector-curvature="0"
   d="m 36673,93480.756 2505,-1364.004 589,-784.004 709,-479.004 612,-1067.004 1684,899.004 1671,531.004 30,-998.004 -1198,-764.004 -270,-413 -136,-628.996 315,-1149 476,-212 147,33 82,-184 431,-209 88,375 195,-172 87,199 217,-193 116,186 75,-224 236,189 179,-111 -51,176 166,121 -9,145 97,-102 242,67 -77,-125 178,55 291,-159 86,188 294,3 109,-158 137,155 151,-247 173,90 166,-97 358,250 10,-162 285,-258 130,204 26,-105 217,-3 230,202 202,-268 395,-113 113,302 267,-29 359,147 197,414 539,92 287,233 170,-47 95,-271 401,-210 772,-268 372,314 294,14 217,487 525,106 89,445 339,134 49,337.996 -210,35 27,115 296,38 588,413 452,-72 62,272 164,48 -108,141 63,161.004 397,67 154,215 131,-79 157,176 240,-85 176,150 -25,321 256,-70 194,473.004 314,-40 432,257 140,-79 624,504 140,-43 183,65 -74,501.004 125,56 336,539.004 -75,71 403,380 522,94 88,491.004 198,-117.004 320,284.004 414,121 -28,214 283,39 -109,241 125,-39 68,173.004 310,30 171,247 54,-141 210,86 -47,175 291,303 -74,210 634,95.004 -102,95 211,86 303,456 712,73 211,-93 76,-227 898,-52 827,530 180,-149 245,149 141,-254 479,153 90,64 -144,156.004 -2,253 150,138 -660,650.004 -666,303 -374,577 -507,388.004 1159,8669.2 218,243 -171,336 5,409 171,299 -238,610 -250,55 -363,-269 -57,-146 201,-68 -271,-141 -129,172 -446,28 -109,-340 -324,66 -231,-257 126,-225 -647,29 -572,-429 -190,154 -375,-114 66,-153 -310,-47 56,-227 -813,-483 -851,131 -95,-166 307,-247 -265,-136 -301,77 78,93 -225,167 -604,-588 -35,-205 -128,23 -268,-397 -314,-109 68,-319 -349,-525 -322,1 -269,-392 -404,26 -31,-292 -268,-36 -245,-279 -213,267 -232,-9 29,215 -622,-519 47,320 -222,-25 -193,228 -118,-355 -539,82 -109,-211 -211,45 -408,513 -188,-130 230,-218 -200,-213 46,-155 -613,-198 -78,120 -163,-36 -132,-367 -174,32 -250,-184 -380,258 -536,-91 -349,-354 68,-212 -261,14 -410,-464 154,-55 -77,-146 -150,33 102,-484 -203,-245 -64,107 -407,-181 -263,16 -221,-290 -393,148 -338,-204 76,-217 -243,-145 82,-80 -215,6 -27,-413 -239,-126 -138,-275 -126,32 -70,-283.2 -205,-75 -457,181 -137,-108 -183,85 -71,-147 -350,-134 -1192,-111 -455,-436 -38,106 -1119,-52 -140,272 -381,115 -456,-322 -474,-103 -143,-234.004 -249,-15 -78,-230 -284,-98 129,-93 -113,-370 -584,-35 76,-199.004 -278,-83 -38,-165 -117,16 39,-137 -781,-697.004 62,-248 -448,-129 -59,-320 -43,-226.004 -471,-319 -103,-138 -780,-1370.004 -978,-201.004 -937,-381 z"
   class="fil2 str0"
   id="mun_5201504" /><path
   style="fill:#91c1bb;fill-opacity:1;stroke:#c8eae6;stroke-width:155.31040955;stroke-linecap:round;stroke-linejoin:round;stroke-miterlimit:4;stroke-dasharray:none;stroke-opacity:1"
   inkscape:connector-curvature="0"
   d="m 83484,81701.744 404,-358 -35,-129 355,-531 291,-36 288,-389 108,225 92,-263 210,-50 397,-702 287,41 120,-133 86,183 422,62 -2,133 360,-122 743,1034 508,121 310,478 297,78 99,-175 291,-2 58,-164 473,-106 743,-419 1366,334 1252,-302 179,-681 -144,-450 -214,-94 251,-370 712,726 305,74 415,382 485,-97 556,295 919,47 1069,-797 237,77 198,309 51,907 228,77 -17,141 320,218 67,232 218,-44 -74,245 644,23 1140,643 115,-50 12,383 419,211 -71,232 243,215 192,577 -887,270 -486,-138 -611,481 -1108,242 -798,454 -1243,-181 -411,1246 -924,383 -269,536 -676,-68 -507,329 250,713 841,492 495,625.996 702,214 591,404 338,424.004 327,139 260,347 -86,618.004 194,148 96,-158 296,169 -64,101 130,11 137,289.004 536,27 -65,200 219,204 405,-73 522,172 356,-191 162,71 119,313 -336,266.004 -470,1161.004 -721,887.004 -506,1027.004 723,4635.212 -416,548 152,503 -296,649 -253,-174 -85,352 -198,34 -780,-452 -111,-514 -208,-54 -336,140 -486,-495 -325,-128 -139,232 -209,56 -367,-115 -343,-301 -124,-338 89,-356 -183,-320.2 206,-359 -978,-1193.004 -771,-603.004 129,-557 -91,-390.004 -260,-313 -9,-629.004 -419,-304 -142,-639 -430,-320.004 -210,-575 -949,-1135.008 -367,-734 -771,-524.004 205,-397 -136,-420.004 -347,-71 -598,-746 -210,-640.004 -1237,-849.996 -274,-770 -726,-585 18,-606 -692,-219 -195,-483 -611,-645 -50,-377 147,-173 -289,-313 344,-518 -546,-143 -188,-686 121,-826 -269,-184 -311,111 20,-479 z"
   class="fil2 str0"
   id="mun_5204102" /><path
   style="fill:#91c1bb;fill-opacity:1;stroke:#c8eae6;stroke-width:155.31040955;stroke-linecap:round;stroke-linejoin:round;stroke-miterlimit:4;stroke-dasharray:none;stroke-opacity:1"
   inkscape:connector-curvature="0"
   d="m 107697,73563.744 77,-729 452,444 875,412 766,611 595,-89 699,155 415,609 289,39 171,191 187,-111 274,377 365,-144 322,132 -14,165 270,216 52,-363 252,-116 245,-15 71,166 331,-118 107,124 181,-158 334,109 46,-227 317,-195 121,89 315,-731 393,-66 461,-991 704,-671 410,-11 444,-527 -155,-82 51,-177 798,-509 745,-28 167,-259 191,-45 350,154 72,181 420,-185 161,166 683,-426 399,50 307,-289 640,479 308,607 19,1116 -175,39 -351,-187 -220,62 -253,509 119,380 -659,-158 -103,288 -180,53 -643,-394 -223,63 -125,366 -336,284 -271,508 -839,341 -494,753 -449,14 -573,439 -855,-246 -387,519 -755,486 -214,439 -855,67 -348,-419 -1407,-121 -319,-329 -403,145 -444,-350 -432,-122 -742,105 -325,-285 157,-722 -206,-483 -333,-36 -148,256 -199,10 -813,-368 -127,-577 -754,-656 z"
   class="fil2 str0"
   id="mun_5205059" /><path
   style="fill:#179999;fill-opacity:1;stroke:#c8eae6;stroke-width:155.31040955;stroke-linecap:round;stroke-linejoin:round;stroke-miterlimit:4;stroke-dasharray:none;stroke-opacity:1"
   inkscape:connector-curvature="0"
   d="m 21092,91187.748 -695,-5 201,-524.004 -263,-489 -381,-343.004 -66,-529 -420,-457.996 96,-342 660,-791 1067,-391 280,-730 338,-460 672,-420 267,-1385 2789,-492 462,-910 895,-704 92,-821 -263,-351 -573,-522 -558,-291 -885,-232 1345,-8900 208,122 104,622 353,205 59,333 434,394 27,208 260,146 -25,143 196,-8 1031,927 149,-51 69,508 109,-124 193,80 -60,152 135,150 170,-220 296,126 67,278 342,40 222,336 -112,78 196,167 31,311 303,194 113,-74 341,713 413,-172 69,262 219,19 206,236 -53,100 289,118 88,-165 170,82 -31,282 268,163 -42,232 603,608 98,331 357,167 380,438 237,44 316,431 157,60 203,-126 291,182 280,537 -166,402 956,242 301,-95 274,288 -28,131 169,13 55,155 106,-63 137,330 -172,217 164,-24 31,257 163,-33 -106,584 312,212 -220,206 235,227 285,-45 85,241 160,-82 84,256 81,-123 404,605 185,72 107,-107 197,266 363,21 88,217 273,9 -84,302 273,-114 385,412 131,-130 136,179 135,-86 2,129 274,83 462,-74 -32,117 213,32 80,-126 54,151 294,-98 256,194 -95,184 149,-74 256,225 -81,76 181,-42 165,205 -81,176 278,77 -95,194 -476,211 -315,1150 136,628.996 270,413 1198,764.004 -30,998.004 -1671,-532.004 -1684,-898.004 -612,1067.004 -709,479.004 -589,784.004 -2505,1364.004 -779,-221 -28,-173 -323,-245.004 -808,-38 -93,174 -419,120.004 -729,593 -235,332.004 -1103,-27.004 -411,237.004 -359,-264.004 -1132,-290 -371,-38 -1284,433.004 -471,-87.004 -679,69.004 -604,-357.004 -772,5 -842,-531 -676,183 -338,-185 -361,8 -78,-204.004 -921,-572 -1528,-208 -71,-52 85,-718.004 -252,-237 z"
   class="fil2 str0"
   id="mun_5205471" /><path
   style="fill:#91c1bb;fill-opacity:1;stroke:#c8eae6;stroke-width:155.31040955;stroke-linecap:round;stroke-linejoin:round;stroke-miterlimit:4;stroke-dasharray:none;stroke-opacity:1"
   inkscape:connector-curvature="0"
   d="m 119364,93807.756 3,-410 341,-807.004 358,-54 -93,-203 462,-653.004 -177,-193 -156,124 37,-367 -414,-191 -101,-344.004 214,-166 -67,-150 -173,-15 160,-216 -159,-110 67,-143.004 -240,-152 48,-546 -233,-1081.996 -506,-59 -96,-424 182,-44 432,204 237,-244 -56,-1158 198,-785 -266,-156 13,-1711 -695,-1284 630,21 775,-213 546,-461 1021,-165 528,-326 1055,-215 203,-268 454,100 413,-437 498,252 355,-291 168,29 65,171 545,208 604,867 664,27 282,458 123,652 -99,518 -561,339 -67,625 580,594 494,1460 -239,517 169,276 -128,346 114,334 311,227 70,358 -649,852.996 -98,516 153,288.004 585,251 55,364 -322,351.004 -473,1208.004 -521,364 -585,700.004 -3123,-293 -1282,547 -689,53 -1215,-97 -730,229 z"
   class="fil2 str0"
   id="mun_5209150" /><path
   style="fill:#91c1bb;fill-opacity:1;stroke:#c8eae6;stroke-width:155.31040955;stroke-linecap:round;stroke-linejoin:round;stroke-miterlimit:4;stroke-dasharray:none;stroke-opacity:1"
   inkscape:connector-curvature="0"
   d="m 66607,109899.98 238,-610 -171,-299 -5,-409 171,-336 -218,-243 -1159,-8669.2 507,-389.004 375,-576 665,-303 660,-650.004 221,41 347,422 218,-7 87,-240 296,233 98,-280 648,147 -157,328.004 240,269 233,-156 -32,-167 338,-102.004 165,301.004 -151,89 318,173 272,434 -287,102.004 441,284 404,73 217,-31 72,-233 159,79 -12,161 155,16 -20,168 212,63 7,151 469,3 -144,272.2 389,39 -32,288 488,112 284,-168 331,811 205,-153 345,226 381,-389 308,72 277,244 33,213 805,171 127,206 -373,474 8,282 171,42 384,-456 187,137 434,6 727,419 241,-11 104,143 -78,615 814,-245 31,361 68,107 175,-54 82,362 659,-146 -18,403 271,227 278,-217 176,30 25,253 203,-77 159,628 -202,207 57,195 -272,227 54,212 664,-116 -75,484 307,-148 335,28 -160,317 315,238 132,-390 500,252 39,291 453,-226 149,656 273,-83 229,-294 304,390 199,-61 59,486 132,-216 155,135 50,234 -222,207 371,62 342,-237 110,59 -134,317 482,-175 87,-158 367,372 350,-115 15,388 218,136 29,445 143,86 -231,165 654,-43 192,-168 68,89 -165,197 369,217 -57,235 446,122 180,246 345,-45 -39,-305 292,-15 187,153 103,442 897,-63 -103,316 160,167 1,318 454,-60 123,569 370,185 317,-447 364,-17 75,184 -140,204 -136,-16 57,201 290,142 306,-142 118,-259 269,10 392,577 409,185 167,-114 1,-293 308,-144 55,505 -266,144 -4,393 924,36 24,266 247,68 -177,211 -327,-70 212,289 610,-131 445,123 332,630 -40,622 319,343 449,209 -330,390 28,135 393,-133 149,-246 161,541 398,136 94,546 156,94 739,-35 -254,618 -76,685 -843,1723 -437,520 -110,620 251,411 1104,877 514,647 -65,461 -574,433 -3471,-1167 -144,-414 -260,-133 -196,-372 -1235,-426 9,-777 -732,100 106,-330 -154,-190 -348,126 -564,-39 -58,-131 529,-520 -215,-90 -316,-697 -375,-76 -7,-516 -303,-431 -104,29 -156,-238 -342,25 -28,-182 -746,-404 -1,-222 -172,-45 -46,-712 132,-229 -142,-131 165,-422 -313,-1100 61,-357 -203,-96 -104,-293 -1608,-334 -389,-225 -313,-443 -406,-188 -768,9 -867,-977 -1288,-494 -877,-610 -1960,-1869 -1956,-147 -815,-260 -1025,-63 -1063,2165 279,438 -52,530 200,302 189,47 -342,116 -44,170 -633,-496 -225,203 -464,123 -248,-248 -32,-316 -371,122 -591,-425 -457,138 -410,-114 -140,-288 -802,4 -63,-159 -65,89 -475,-121 -159,330 -460,169 -165,-152 -380,46 -583,-393 -679,389 -1308,-730 z"
   class="fil2 str0"
   id="mun_5210802" /><path
   style="fill:#91c1bb;fill-opacity:1;stroke:#c8eae6;stroke-width:155.31040955;stroke-linecap:round;stroke-linejoin:round;stroke-miterlimit:4;stroke-dasharray:none;stroke-opacity:1"
   inkscape:connector-curvature="0"
   d="m 59068,91916.748 62,-857 -299,-682.004 105,-212 -374,-455.004 -198,-779.996 -327,-418 2897,1141.996 486,-95 624,-399 172,-370.996 453,-266 -94,-548 370,-709 -257,-604 23,-70 1286,-548 211,39 254,-227 101,84 -223,105 165,180 548,-2 43,-151 251,-91 137,261 373,-172 197,57 -10,163 651,365 160,-363 549,235 336,311 863,-83 54,236 675,-57 149,-169 225,56 73,191 343,76 304,-127 128,500 517,-75 -38,335 128,240 651,-109 646,486 283,60 207,232 629,266 -141,267.996 78,207 362,-72 270,359 597,75 432,394.004 702,176 413,272 -247,247 159,230.004 482,6 394,324 219,-227 183,85 65,317 195,-140 228,34 509,496 88,311.004 205,21 276,-303.004 106,39.004 192,626 643,550.004 -121,526 485,-281 192,286 295,90 529,807.004 711,371 147,-44 296,627.004 793,45 139,247 419,131 199,647.004 187,185 -41,216.004 320,46 -144,303 98,127 575,-104 224,237 284,-77 109,221 -243,683.004 423,-43 328,324 327,-250 561,1028.004 770,665.2 -194,449 162,258 629,5 338,-234 365,314 309,-269 1199,607 169,716 659,-331 284,135 276,305 374,-159 195,54 330,626 422,317 35,356 240,192 182,519 -69,487 940,146 13,384 -232,609 298,51 411,-283 -291,596 151,243 450,-77 437,564 234,-37 201,-282 407,193 -36,215 159,209 -117,202 -521,29 -81,107 547,190 500,-436 113,381 518,431 337,-77 506,388 322,-100 1181,752 202,377 86,808 255,27 36,-219 152,-17 98,384 -255,192 55,420 245,135 361,-339 417,346 184,394 362,96 3,316 -273,316 51,216 -350,460 -39,621 -140,773 -880,872 -641,124 -1051,1006 -440,764 -739,35 -155,-94 -95,-545 -398,-137 -160,-541 -149,246 -393,134 -29,-135 331,-390 -450,-210 -318,-343 40,-622 -332,-630 -446,-122 -609,130 -213,-288 327,70 177,-212 -247,-67 -24,-267 -923,-35 4,-394 265,-144 -54,-504 -309,144 -1,293 -166,114 -410,-186 -391,-576 -270,-11 -117,259 -306,142 -290,-141 -58,-201 136,15 140,-204 -75,-184 -364,17 -316,448 -371,-186 -123,-569 -454,60 -1,-318 -159,-167 102,-316 -897,64 -102,-442 -188,-154 -292,15 39,305 -345,45 -180,-245 -445,-123 56,-235 -369,-216 166,-197 -69,-90 -191,169 -655,43 232,-166 -144,-86 -28,-445 -218,-135 -16,-389 -349,115 -367,-372 -87,158 -482,175 133,-317 -110,-59 -342,237 -371,-62 222,-207 -49,-234 -156,-134 -132,215 -58,-486 -200,61 -303,-390 -230,294 -273,83 -149,-656 -452,226 -39,-291 -501,-252 -132,390 -315,-238 161,-317 -336,-27 -307,148 76,-485 -664,116 -54,-212 271,-227 -57,-194 203,-208 -160,-628 -202,78 -26,-253 -176,-31 -278,217 -270,-226 18,-404 -660,146 -82,-362 -175,55 -68,-108 -30,-360 -815,245 79,-616 -105,-143 -241,11 -726,-419 -434,-6 -188,-136 -384,456 -170,-43 -8,-281 373,-475 -127,-205 -805,-172 -34,-212 -277,-245 -307,-72 -381,389 -345,-226 -206,154 -331,-811 -283,167 -489,-112 32,-287 -388,-40 143,-272.2 -468,-3 -7,-151 -212,-63 20,-167 -156,-17 12,-161 -158,-79 -72,233 -217,31 -404,-72 -441,-285.004 287,-101 -273,-434 -317,-174 150,-88 -165,-302.004 -338,102 33,167.004 -234,156 -239,-268 157,-328.004 -649,-148 -98,280 -296,-232 -86,240 -218,6 -347,-421 -222,-42 -149,-138 1,-253 145,-156.004 -90,-64 -479,-153 -141,254 -246,-149 -179,149 -827,-530 -898,53 -76,226 -211,93 -712,-73 -303,-456 -211,-86 102,-95 -634,-95.004 74,-210 -291,-302 47,-176 -211,-86 -53,141 -171,-247 -310,-30 -69,-173.004 -124,39 109,-241 -283,-39 28,-214 -414,-121 -320,-284.004 -198,117.004 -88,-490.004 -522,-95 -404,-380 76,-71 -336,-539.004 -125,-56 74,-501.004 -184,-65 z"
   class="fil2 str0"
   id="mun_5211305" /><path
   style="fill:#179999;fill-opacity:1;stroke:#c8eae6;stroke-width:155.31040955;stroke-linecap:round;stroke-linejoin:round;stroke-miterlimit:4;stroke-dasharray:none;stroke-opacity:1"
   inkscape:connector-curvature="0"
   d="m 43876,53096.744 526,491 607,231 657,702 1131,597 1045,-78 499,122 356,-96 525,177 592,-214 889,341 747,-35 230,174 542,-40 194,-137 397,45 151,-210 308,62 53,-321 413,-22 1209,301 -29,357 597,-299 -20,-721 -447,-260 -50,-737 70,-385 223,-77 -15,-364 303,-336 41,-271 -321,-39 2,-282 -191,-248 301,-162 -846,-935 292,-186 83,-259 -581,-6 -229,-392 1401,-140 83,-467 311,-209 134,-880 610,-512 63,-386 428,-633 -102,-414 -368,-64 51,-521 -112,-127 246,-665 600,-271 259,349 393,190 465,136 336,-101 428,220 220,-360 94,-960 968,71 72,-578 189,-48 -132,-654 212,-209 1194,638 1231,295 272,-203 397,-1049 505,-667 406,63 512,427 825,-258 453,6 -569,796 -408,881 -109,1528 -499,398 -68,354 467,1261 -210,897 55,658 -205,319 143,121 41,409 658,297 479,413 47,388 -396,488 681,946 334,237 579,138 160,239 -70,236 916,456 338,426 438,51 209,195 -164,573 -257,178 93,368 -498,217 -202,298 -64,551 225,230 422,122 109,190 669,127 225,291 412,-59 -121,378 284,24 492,668 -36,198 431,11 -13,249 142,-39 30,131 147,-83 203,320 344,-179 199,199 51,-172 132,200 189,-36 65,442 634,-13 71,100 76,-104 391,169 20,-151 94,23 73,437 246,157 -69,148 479,-39 -113,400 260,167 -130,105 199,341 -56,148 141,70 -140,88 148,70 -69,108 689,443 -42,111 131,161 70,-116 287,360 123,-34 -33,394 266,-76 167,268 193,-129 505,781 369,38 73,-219 444,394 112,-162 306,240 246,-8 205,-304 424,86 169,-294 741,168 432,-26 119,-128 161,86 248,932 803,-267 361,251 214,-92 70,371 183,87 -26,135 185,9 -126,127 -198,-70 -96,183 276,113 23,132 180,-100 -182,340 40,851 346,96 -101,246 53,221 430,294 -48,184 269,37 35,192 -211,-53 146,272 -299,42 -59,175 222,-12 -104,213 99,466 342,-24 65,803 361,-70 74,231 -200,280 156,414 695,370 238,297 -167,-6 87,228 -161,276 186,117 150,-74 127,212 4,335 145,145 -320,227 257,312 68,506 -1396,-401 -430,-650 -828,30 -318,-349 -51,-373 -1631,-28 -665,422 -260,399 -99,562 -657,511 48,1397 -297,722 65,197 -1273,44 -1613,-1186 -905,-192 -408,191 -63,285 -159,57 67,182 245,-23 103,122 -313,323 -5,690 -292,376 752,857 681,18 244,549 653,-34 1069,825 -372,947 -366,506 212,694 -94,729 -160,257 -4373,4864 -70,627 -601,272 -240,641 -282,-60 -646,-486 -651,109 -128,-240 38,-335 -517,75 -129,-500 -303,126 -343,-75 -73,-191 -225,-56 -149,169 -675,57 -54,-237 307,-465 21,-376 -745,-1585 180,-998 -112,-487 -724,-748 -965,-231 816,-338 248,-503 1009,-333 -243,-274 59,-428 -227,-214 -71,-633 -265,-44 -256,-424 -579,-227 42,-244 -930,-31 23,-149 -301,-328 -914,-236 -511,279 -368,-23 -158,239 -533,218 -294,276 14,-781 -189,-193 97,-528 -188,-200 -54,-360 -511,-264 -544,156 -287,-358 -283,-1165 104,-172 -233,-178 82,-413 -200,-377 -489,-176 -712,163 -553,-127 -1124,819 -746,81 -748,-173 -524,216 -1541,-627 -242,-876 238,-267 -7,-391 -240,-126 -306,-496 -415,-82 -964,-715 -217,-531 -413,-293 -760,-208 -547,127 -282,-234 -18,-474 -530,-18 -323,161 -46,-1628 -160,-691 -179,-275 -885,-67 80,-266 -167,-270 300,-368 -121,-242 90,-481 -448,-282 -213,-394 144,-321 471,-167 -477,-1099 105,-329 344,-333 -1344,-647 -85,-326 -656,28 -518,-262 -359,-13 -304,-286 126,-188 -144,-332 1669,70 130,-111 295,-531 -43,-235 -582,-376 -277,-595 469,-447 -202,-501 899,-732 -109,-225 -973,-632 -503,-769 -339,-20 -617,-457 -844,-225 -111,-1244 z"
   class="fil2 str0"
   id="mun_5211909" /><path
   style="fill:#179999;fill-opacity:1;stroke:#c8eae6;stroke-width:155.31040955;stroke-linecap:round;stroke-linejoin:round;stroke-miterlimit:4;stroke-dasharray:none;stroke-opacity:1"
   inkscape:connector-curvature="0"
   d="m 9162,53690.744 420,154 204,277 1098,-6 110,200 269,8 276,217 482,788 272,129 366,-165 188,156 425,20 526,565 256,-136 498,36 164,143 694,65 161,-95 -4148,-4146 -43,-615 412,-817 206,-35 174,-238 308,-11 163,-150 485,141 197,-301 -35,-172 589,-680 108,-468 369,-353 147,-1367 157,-112 38,-360 519,-360 14,-304 -190,-56 -74,-293 -136,189 -222,-27 238,-599 940,215 347,-263 242,53 395,-596 530,-102 727,-540 915,-385 435,-462 1300,-103 1215,-625 363,-58 119,-223 98,-452 -300,-255 131,-460 -752,-223 -694,-1035 476,-997 -382,-1542 -223,46 -35,-254 -242,-363 -357,-102 223,-192 -42,-238 -373,-38 35,-341 -192,83 -66,-131 87,-339 -448,-632 84,-406 -114,-591 599,-701 -140,-259 199,-114 -181,-218 170,-334 -108,-18 62,-60 -61,-591 -315,-409 116,-372 227,18 5,-212 280,-117 -114,-359 108,-181 105,107 307,-210 394,135 327,-103 130,-392 216,-107 -226,-225 167,-23 -153,-112 -23,-272 -351,-245 19,-601 -100,-38 100,-147 -225,-175 263,-325 -84,-134 279,-33 -114,-282 217,-184 -189,-17 -12,-567 -156,-48 74,-204 -303,173 -115,-107 120,-312 -574,-528 324,-101 112,-281 239,91 -13,436 434,-182 265,-72 58,-421 508,-205 144,-217 -212,-88 444,-335 552,190 312,-492 180,198 203,-237 644,162 206,184 -263,275 152,487 -269,288 118,185 -136,225 222,64 52,-221 74,352 219,47 -238,228 151,51 5,527 -231,127 296,473 219,122 -38,114 -206,-57 -36,402 -202,141 271,286 -120,265 408,88 -79,158 260,-34 268,229 279,-90 55,137 189,-36 371,614 408,270 156,278 583,196 -235,305 209,-4 144,356 324,-174 45,125 171,-245 253,447 242,-211 95,114 160,-110 532,329 241,-157 238,148 449,22 29,-229 335,-7 27,118 217,-117 -18,121 418,65 409,-110 13,242 436,-208 296,329 -122,574 -513,110 -15,255 -230,113 -125,-170 -154,170 206,94 -49,182 185,-105 342,548 140,-110 192,64 -219,175 296,144 290,601 196,40 104,-259 217,134 175,-114 52,266 286,-51 112,181 139,-34 168,299 762,261 7,390 -238,269 291,30 213,295 153,-63 63,289 401,108 -110,243 180,116 15,343 287,255 -263,178 96,228 262,24 84,806 164,184 -352,1542 498,1000 -20,668 191,376 231,31 327,-630 396,48 29,215 202,-31 470,295 106,1014 1079,-189 258,-638 626,-243 524,424 338,709 625,261 65,284 198,125 320,-62 -26,-225 383,-194 378,121 186,449 799,-214 485,647 401,180 366,-29 110,-189 319,-117 1517,179 180,-227 930,-277 182,250 420,81 223,287 -33,594 232,263 17,282 316,38 367,396 323,61 155,431 322,35 -92,259 136,-1 -44,165 273,310 -78,366 -272,37 31,222 -255,-230 -404,276 -262,-75 -74,317 -407,-81 -363,111 -259,417 -376,38 -44,-241 -210,129 -305,-165 -291,331 -387,-641 -509,-224 279,-391 -328,-48 75,-114 -317,-240 58,-138 -170,62 -99,-123 -593,391 -457,-84 -78,106 -358,-408 67,-129 -298,-155 -154,-311 -198,26 42,-350 132,-92 -210,-5 64,-175 -207,-96 -101,-476 -300,181 -71,-157 -370,13 -493,-389 -1056,25 -606,-73 -155,-146 -796,238 -1101,-449 -927,202 -716,-196 -291,210 -135,413 -346,-24 -771,498 -480,672 639,255 506,624 455,107 183,476 710,-146 273,143 62,278 288,216 892,141 524,-279 219,95 493,-272 444,-37 269,340 569,308 -143,495 86,177 -437,554 -14,316 -381,73 -105,450 328,571 -17,611 272,218 770,48 551,672 441,292 525,659 -170,613 111,1245 844,224 617,457 339,20 503,770 973,631 109,225 -899,733 202,500 -469,447 276,595 583,376 43,236 -295,530 -130,111 -1669,-70 144,332 -126,188 304,286 358,13 519,262 656,-27 85,325 -498,158 -933,1001 -852,-281 -478,91 -603,-299 -1361,665 7,226 -213,-91 -142,117 -3,-454 -203,-107 -280,87 35,-433 -201,272 -116,-88 -130,98 -5,-514 -181,204 -214,9 -270,699 -761,487 -176,306 -350,6 -50,103 -134,-93 -1067,484 -410,657 -664,527 -734,-191 -221,-200 -652,-41 -1397,325 -408,616 -382,52 -491,375 -254,-19 -745,405 -318,29 -382,314 -82,534 -178,210 -994,-290 -780,100 -331,622 -2201,2913 -1345,8901 -1938,123 -1876,-552 -949,-124 -1100,302 -1291,794 -404,906 -183,25 -548,-273 -942,-38 -1157,-1188 -32,-1416 -307,-910 5,-1056 -725,-2182 27,-824 -528,-2099 145,-378 496,-405 1450,-184 413,-183 138,-421 71,-1961 -257,-661 -333,-250 -538,-932 -1147,-740 142,-623 -190,-323 -4,-366 -377,-362 245,-1283 -1003,-1540 140,-325 -372,-602 40,-158 -259,-15 -65,-371 -209,-210 -151,70 -83,-240 -334,-221 64,-110 -157,-220 -1390,-615 82,-249 -142,-189 28,-261 -284,-171 220,-164 32,-222 -211,-293 205,-167 -169,-116 25,-312 -164,-49 96,-101 -181,-299 1,-598 132,-184 -147,-149 175,-302 -122,-172 254,-166 z m 16269,-9675 -298,342 -328,100 -130,413 -917,701 -473,563 -1173,540 789,528 -171,413 44,343 -557,791 210,316 381,-378 717,-1159 680,-331 1755,-43 973,-210 1024,141 263,323 1143,333 490,295 770,-40 281,-544 303,169 -119,238 224,44 -158,178 263,33 53,547 462,-110 168,-528 172,3 -4,-124 435,-212 97,-346 140,-6 -122,-299 269,-490 398,-229 557,191 679,-184 1183,-2113 -34,-155 -1028,-254 -515,-94 -460,147 -1325,-379 -332,-531 86,-493 h -318 l -50,-282 -167,-3 123,-296 -119,-540 -228,-215 50,-128 -200,-54 -60,-261 -149,-41 115,-218 -136,-141 -262,61 -81,-296 -583,-520 -67,-373 -294,-325 -59,107 -241,-24 -10,332 -161,158 -601,14 35,215 -340,-181 -207,110 -314,426 -224,40 -42,460 -353,104 -318,367 -389,167 -234,537 -1031,210 -365,555 154,291 130,14 118,275 -83,81 170,74 z"
   class="fil2 str0"
   id="mun_5213103" /><path
   style="fill:#91c1bb;fill-opacity:1;stroke:#c8eae6;stroke-width:155.31040955;stroke-linecap:round;stroke-linejoin:round;stroke-miterlimit:4;stroke-dasharray:none;stroke-opacity:1"
   inkscape:connector-curvature="0"
   d="m 72377,43827.744 553,81 867,-90 916,387 887,-247 657,-8 362,-156 461,-907 903,-758 315,35 474,-262 -46,-158 451,38 215,-220 158,137 246,-328 559,22 136,-590 1235,-1180 -349,-1497 526,305 586,-236 -63,-450 -249,-174 43,-218 435,-306 371,-26 140,-253 256,35 466,-618 489,-178 288,-261 533,302 412,-80 358,-265 516,291 381,-78 504,-335 -126,-812 805,-305 -132,-382 64,-276 339,28 350,-235 -5,-998 424,-631 -138,-867 -635,-647 -8,-219 513,-163 353,32 363,-214 472,187 288,-283 260,15 571,461 153,612 337,307 612,1038 433,407 392,157 405,605 248,129 245,534 265,60 135,463 -111,154 -34,186 -227,-40 -341,235 -1004,67 -307,585 -459,328 -149,885 109,432 -301,355 -403,202 -537,-42 -1581,498 -1372,1039 358,629 -244,1375 341,612 723,-176 284,102 15,137 385,-49 88,163 673,-291 242,140 149,-75 326,424 256,2 147,465 292,165 -71,313 302,125 85,-206 179,56 -59,-279 170,-48 115,209 210,29 76,-212 650,48 -32,198 164,182 -516,819 -179,956 328,386 -1,347 739,-72 726,729 -1833,1966 -761,545 -81,293 -288,295 -464,215 -809,700 -992,299 -821,-254 -770,167 -295,-204 -796,-92 -851,197 -330,254 -685,-163 -1410,240 -929,-523 -1153,-111 -460,-125 -204,-204 -1100,30 -4151,-1354 340,-538 599,-336 -20,-285 -639,-309 75,-525 -110,-268 -858,-653 -1033,-349 -298,102 -1193,-176 142,-1683 z"
   class="fil2 str0"
   id="mun_5213756" /><path
   style="fill:#91c1bb;fill-opacity:1;stroke:#c8eae6;stroke-width:155.31040955;stroke-linecap:round;stroke-linejoin:round;stroke-miterlimit:4;stroke-dasharray:none;stroke-opacity:1"
   inkscape:connector-curvature="0"
   d="m 98431,102429.98 295,-650 -151,-502 416,-548 -724,-4635.212 507,-1028.004 721,-886.004 470,-1161.004 336,-266.004 429,587.004 296,115 226,313 617,21 27,178 614,222.004 126,149 -66,70 704,740.004 367,74 -35,142 452,-87 70,239 -141,168 409,-131 -32,568.004 338,-141.004 522,145.004 208,197 -14,197 205,-94 -67,-224 381,-149 103,357 367,-118 -11,124 392,-54 366,222 -31,118 353,64 278,232 589,6.004 -215,-279.004 3,-578 -224,8 -153,-126 156,-211.004 -318,-188 -31,-200 105,-207 -229,-501.004 190,-1099.004 886,-1364.004 477,-1046.004 1065,259 -84,625.004 159,269 532,303 315,359.004 103,441 173,194 1813,869.004 446,-75 26,258 230,70 -212,404.004 222,520 558,47 502,444.004 1024,477 451,-44 -906,1931.008 -649,383 -735,147.004 -261,166 -128,187 -630,2023.2 -908,968 -274,148 -442,-785 -788,-197 -1282,588 -1003,-145 -1193,698 -564,60 -2325,-508 174,595 -191,363 -97,729 -364,283 -621,1135 -1072,-915 -1113,-297 -638,-845 -1158,-42 -116,-333 -565,-307 -31,-233 z"
   class="fil2 str0"
   id="mun_5216304" /><path
   style="fill:#91c1bb;fill-opacity:1;stroke:#c8eae6;stroke-width:155.31040955;stroke-linecap:round;stroke-linejoin:round;stroke-miterlimit:4;stroke-dasharray:none;stroke-opacity:1"
   inkscape:connector-curvature="0"
   d="m 43876,53096.744 170,-613 -525,-658 -442,-293 -550,-672 -770,-47 -273,-218 17,-612 -328,-570 105,-451 381,-73 15,-316 436,-553 -85,-178 142,-495 -569,-307 -268,-341 -444,38 -493,271 -219,-95 -525,280 -891,-142 -288,-216 -62,-278 -274,-143 -709,146 -183,-475 -455,-108 -506,-623 -639,-256 480,-671 771,-499 346,25 134,-414 292,-210 715,196 928,-202 1101,449 795,-238 156,147 605,72 1056,-24 494,388 370,-13 71,157 299,-180 102,476 207,96 -64,174 210,6 -132,92 -43,349 199,-25 154,311 298,154 -68,130 359,408 78,-106 456,84 594,-392 98,123 171,-62 -58,139 316,239 -75,115 329,47 -279,391 509,224 387,642 291,-332 305,166 209,-130 44,241 377,-38 258,-417 364,-111 407,81 74,-317 262,75 404,-276 254,230 -31,-222 273,-36 111,137 -101,115 209,244 -72,121 113,160 342,-30 206,231 287,-17 144,133 -107,111 238,56 -24,303 -211,-92 89,140 -90,484 401,90 598,-331 181,160 -213,123 -24,279 498,150 -98,61 158,344 229,392 580,6 -83,258 -291,187 846,934 -301,163 191,247 -3,283 322,38 -42,271 -302,336 15,364 -223,78 -70,385 50,736 447,261 20,720 -597,299 29,-356 -1209,-302 -413,22 -54,321 -307,-62 -151,210 -397,-45 -194,138 -542,40 -230,-174 -747,35 -889,-341 -592,214 -526,-178 -355,96 -499,-122 -1045,78 -1131,-596 -657,-702 -607,-231 -527,-491 z"
   class="fil2 str0"
   id="mun_5216452" /><path
   style="fill:#91c1bb;fill-opacity:1;stroke:#c8eae6;stroke-width:155.31040955;stroke-linecap:round;stroke-linejoin:round;stroke-miterlimit:4;stroke-dasharray:none;stroke-opacity:1"
   inkscape:connector-curvature="0"
   d="m 25431,44015.744 74,-860 -170,-74 83,-81 -118,-275 -130,-14 -154,-291 365,-555 1031,-210 234,-537 389,-167 318,-367 353,-104 42,-460 224,-40 314,-426 207,-110 340,181 -35,-215 601,-14 161,-158 10,-332 241,24 59,-107 294,325 67,373 583,520 81,296 262,-61 136,141 -115,218 149,41 60,261 200,54 -50,128 228,215 119,540 -123,296 167,3 50,282 h 318 l -86,493 332,531 1325,379 460,-147 515,94 1028,254 34,155 -1183,2113 -679,184 -557,-191 -398,229 -269,490 122,299 -140,6 -97,346 -435,212 4,124 -172,-3 -168,528 -462,110 -53,-547 -263,-33 158,-178 -224,-44 119,-238 -303,-169 -281,544 -770,40 -490,-295 -1143,-333 -263,-323 -1024,-141 -973,210 -1755,43 -680,331 -717,1159 -381,378 -210,-316 557,-791 -44,-343 171,-413 -789,-528 1173,-540 473,-563 917,-701 130,-413 328,-100 z"
   class="fil2 str0"
   id="mun_5218102" /><path
   style="fill:#91c1bb;fill-opacity:1;stroke:#c8eae6;stroke-width:155.31040955;stroke-linecap:round;stroke-linejoin:round;stroke-miterlimit:4;stroke-dasharray:none;stroke-opacity:1"
   inkscape:connector-curvature="0"
   d="m 97536,79544.744 1419,-1016 695,-1431 -201,-342 -457,-296 -130,-510 45,-621 218,-417 218,-88 310,157 951,-14 514,392 421,134 475,-34 515,-363 576,268 154,-92 429,114 235,306 377,-58 -4,-131 468,49 227,-205 741,-300 498,-21 180,-199 366,-94 288,-294 61,-415 277,-360 295,-101 753,656 128,577 813,368 199,-10 147,-256 334,36 205,483 -156,722 325,285 742,-105 432,122 443,350 403,-145 320,329 1407,121 348,419 854,-67 215,-439 755,-486 387,-519 854,246 573,-440 450,-13 494,-753 839,-341 271,-508 336,-285 125,-365 222,-63 644,394 180,-53 103,-288 659,158 353,449 593,186 174,250 -75,641 -429,485 102,208 835,66 316,-505 597,-384 18,461 -379,932 -17,890 529,249 603,-46 92,285 -90,756 -283,297 -436,1113 324,467 -168,-29 -354,290 -498,-251 -414,437 -453,-100 -204,268 -1055,215 -527,326 -1022,164 -546,461 -775,213 -630,-21 696,1285 -13,1710 266,157 -199,784 56,1159 -237,244 -432,-204 -181,44 96,424 505,58 234,1082.996 -49,545 240,153 -67,142.004 159,111 -159,216 172,15 68,150 -214,166 101,343.004 413,192 -37,367 156,-125 177,194 -462,653.004 94,203 -359,53 -341,807.004 -3,410 -1460,533.004 -542,520 -1051,1772.008 -450,44 -1025,-476 -501,-445.004 -559,-47 -221,-519 212,-405.004 -231,-69 -25,-258 -446,74 -1813,-869.004 -173,-193 -103,-442 -315,-359.004 -532,-302 -159,-269 84,-625.004 -1065,-259 -477,1045.004 -886,1365.004 -190,1099.004 228,500.004 -104,208 31,199 318,188 -156,212.004 153,125 224,-7 -3,578 215,278.004 -590,-5.004 -277,-232 -354,-65 31,-118 -365,-221 -393,54 12,-125 -367,118 -103,-356 -382,149 68,223 -205,95 14,-197 -208,-197 -522,-145.004 -338,141.004 31,-568.004 -408,131 140,-169 -70,-238 -451,87 35,-142 -367,-75 -705,-739.004 67,-71 -126,-148 -615,-222.004 -27,-179 -617,-21 -225,-312 -296,-115 -429,-588.004 -120,-313 -161,-71 -357,191 -522,-172 -405,73 -218,-204 64,-200 -536,-28 -136,-289.004 -131,-10 64,-101 -296,-169 -96,158 -193,-148 85,-619.004 -260,-346 -327,-139 -338,-424.004 -591,-404 -701,-214 -495,-625.996 -841,-492 -250,-713 506,-329 677,68 268,-536 924,-383 411,-1246 1243,180 798,-453 1108,-243 611,-480 486,138 887,-270 -191,-577 -244,-215 71,-232 -419,-211 -12,-383 -114,50 -1141,-644 -644,-22 74,-245 -218,44 -67,-232 -320,-218 18,-141 -229,-77 -51,-907 -197,-309 -238,-77 z"
   class="fil2 str0"
   id="mun_5218508" /><path
   style="fill:#179999;fill-opacity:1;stroke:#c8eae6;stroke-width:155.31040955;stroke-linecap:round;stroke-linejoin:round;stroke-miterlimit:4;stroke-dasharray:none;stroke-opacity:1"
   inkscape:connector-curvature="0"
   d="m 66774,41603.744 495,129 494,-74 1060,358 280,177 105,446 378,210 720,9 399,177 120,225 521,-9 121,335 316,-347 198,-18 396,606 -142,1682 1194,176 298,-102 1033,349 857,653 110,268 -74,525 639,309 19,285 -599,336 -339,538 4150,1354 1100,-30 205,204 459,125 1153,111 929,523 1410,-240 685,163 330,-254 851,-197 796,92 296,204 769,-167 821,254 992,-299 809,-700 464,-215 288,-295 82,-293 760,-545 1833,-1966 -726,-729 -739,72 1,-347 -328,-386 179,-956 517,-819 -165,-182 32,-198 -650,-48 -75,212 -210,-29 -116,-209 -169,48 58,279 -179,-55 -85,205 -302,-125 71,-312 -292,-166 -147,-465 -256,-2 -326,-424 -149,75 -242,-139 -673,290 -87,-163 -386,49 -15,-137 -284,-102 -723,177 -341,-613 244,-1375 -358,-629 1372,-1039 1581,-498 537,42 404,-202 300,-355 -109,-432 149,-885 459,-328 307,-585 1004,-67 341,-235 227,40 34,-186 244,149 377,-11 67,177 217,59 -98,220 269,78 89,314 356,183 49,473 -145,83 272,56 50,213 -161,112 101,75 -57,192 304,-70 79,210 319,-69 241,346 232,4 41,249 521,52 267,-152 476,95 6,431 200,135 246,-71 117,232 229,-189 445,58 180,-309 549,359 221,-37 149,241 279,124 -114,136 84,327 549,504 14,257 212,-38 130,199 136,-108 368,138 365,573 -251,-107 -110,137 194,126 -64,109 -458,261 409,287 78,506 239,-188 -15,544 490,96 9,242 135,-27 51,-287 364,-6 -34,233 -291,236 164,166 -92,188 732,364 -158,257 419,482 -39,277 297,117 113,-383 164,-99 54,495 512,215 -16,143 -252,88 -19,176 282,25 210,300 -90,-519 219,-183 535,332 -485,241 -20,505 -180,355 -329,273 -348,-181 261,1750 -378,223 -118,423 -429,326 -320,-193 -300,14 -411,439 -73,344 -1106,392 -695,693 -100,325 68,1312 -145,124 706,492 612,1418 384,280 -34,442 326,489 -369,490 -412,986 -219,90 -331,474 -790,350 -577,658 134,1028 -150,487 28,319 262,355 446,249 93,513 264,403 369,-18 291,237 588,87 234,170 172,-122 784,229 117,-80 334,683 269,-50 209,307 462,-257 -473,765 -1243,1038 -472,2161 458,-28 138,142 665,67 339,-146 561,23 532,115 88,144 1435,36 1874,-724 380,-396 490,59 886,-284 315,230 473,45 -73,755 -413,1041 -894,488 -94,182 2569,1209 -14,490 219,640 206,214 -26,255 452,504 -943,618 553,266 273,-259 726,170 169,411 287,79 310,429 863,180 -393,66 -315,731 -122,-88 -316,194 -46,227 -334,-109 -181,158 -107,-124 -331,119 -71,-167 -245,15 -252,117 -52,363 -271,-217 15,-164 -322,-133 -365,145 -274,-378 -187,112 -172,-192 -289,-39 -414,-609 -699,-154 -595,88 -766,-611 -875,-412 -452,-444 -78,730 -294,101 -277,360 -61,415 -288,294 -367,94 -179,199 -498,21 -741,300 -227,205 -468,-49 3,131 -376,58 -235,-306 -429,-114 -154,92 -576,-268 -516,363 -474,34 -421,-134 -514,-392 -951,14 -311,-157 -217,88 -218,417 -45,621 130,510 457,296 201,342 -695,1431 -1419,1016 -1069,796 -918,-47 -556,-295 -485,98 -415,-383 -306,-74 -711,-725 -252,369 214,94 144,450 -179,681 -1252,302 -1366,-333 -742,418 -473,106 -59,164 -290,2 -100,176 -297,-79 -310,-477 -508,-122 -742,-1033 500,-234 20,-437 302,-32 -98,-830 -391,42 -31,-121 197,-134 -159,-80 19,-257 191,-80 12,-171 380,131 -183,-967 480,-407 -74,-185 -296,-96 63,-609 -316,-30 -81,-449 -280,77 68,-641 -290,-9 50,-405 -250,-48 -157,-316 -69,-506 -257,-312 320,-227 -145,-145 -4,-335 -127,-212 -150,74 -186,-117 161,-276 -86,-228 166,6 -238,-297 -694,-370 -157,-414 200,-280 -73,-231 -362,70 -65,-803 -342,24 -98,-466 103,-213 -221,12 58,-175 299,-42 -146,-272 211,53 -35,-192 -269,-37 48,-184 -429,-294 -54,-221 101,-246 -345,-96 -40,-851 181,-340 -180,100 -22,-132 -277,-113 96,-183 199,70 126,-127 -186,-9 26,-135 -182,-87 -70,-371 -214,92 -362,-251 -802,267 -249,-932 -161,-86 -119,128 -432,26 -741,-168 -169,294 -423,-86 -206,304 -245,8 -307,-240 -112,162 -444,-394 -73,219 -369,-38 -505,-781 -193,129 -167,-268 -265,76 32,-394 -123,34 -287,-360 -69,116 -131,-161 41,-111 -688,-443 68,-108 -147,-70 140,-88 -141,-70 55,-148 -199,-341 131,-105 -261,-167 113,-400 -479,39 69,-148 -246,-157 -72,-437 -95,-23 -20,151 -391,-169 -75,104 -71,-100 -634,13 -66,-442 -188,36 -133,-200 -51,172 -198,-199 -345,179 -203,-320 -147,83 -30,-131 -142,39 13,-249 -431,-11 36,-198 -492,-668 -284,-24 122,-378 -412,59 -226,-291 -669,-127 -108,-190 -423,-122 -225,-230 64,-551 203,-298 497,-217 -93,-368 258,-178 163,-573 -209,-195 -438,-51 -338,-426 -916,-456 70,-236 -160,-239 -579,-138 -334,-237 -681,-946 396,-488 -47,-388 -478,-413 -659,-297 -41,-409 -143,-121 205,-319 -55,-658 210,-897 -467,-1261 69,-354 498,-398 109,-1528 409,-881 569,-796 z"
   class="fil2 str0"
   id="mun_5218805" /><path
   style="fill:#1a5f5f;fill-opacity:1;stroke:#c8eae6;stroke-width:155.31040955;stroke-linecap:round;stroke-linejoin:round;stroke-miterlimit:4;stroke-dasharray:none;stroke-opacity:1"
   inkscape:connector-curvature="0"
   d="m 103385,55828.744 330,24 1005,-341 11,-400 711,-264 127,-228 298,-127 352,59 245,278 599,-624 -82,-155 510,-151 234,63 532,-255 291,-343 111,112 439,311 956,1559 879,189 648,-50 110,252 3,445 444,434 -91,625 412,210 -203,620 218,276 571,-173 899,-823 474,-127 102,131 -121,305 -506,89 -244,767 -629,298 -399,-7 6,524 451,35 172,269 -238,1398 834,718 234,429 218,-30 362,345 -298,247 -408,69 -293,1217 724,680 193,-100 -16,-608 441,329 655,182 -63,261 -502,114 -75,340 199,109 676,1 -27,534 504,145 199,297 -590,193 -392,-530 -177,-43 -274,183 -533,-314 -709,468 -113,215 -156,-138 -252,70 -350,-151 -986,399 -474,-44 -314,-231 -886,284 -490,-58 -381,395 -1874,725 -1434,-37 -89,-144 -531,-115 -561,-23 -340,146 -664,-67 -138,-142 -459,28 473,-2161 1243,-1038 473,-764 -462,256 -209,-307 -270,50 -333,-682 -118,80 -783,-230 -172,122 -234,-170 -588,-86 -291,-237 -369,17 -264,-402 -93,-514 -446,-249 -262,-355 -28,-319 150,-487 -134,-1027 576,-659 791,-350 331,-474 219,-90 412,-986 369,-490 z"
   class="fil2 str0"
   id="mun_5219308" /><path
   style="fill:#91c1bb;fill-opacity:1;stroke:#c8eae6;stroke-width:155.31040955;stroke-linecap:round;stroke-linejoin:round;stroke-miterlimit:4;stroke-dasharray:none;stroke-opacity:1"
   inkscape:connector-curvature="0"
   d="m 9144,50122.744 158,-215 -88,-256 653,-1293 -127,-80 v -384 l -225,-168 175,-101 -60,-406 236,-35 110,-422 311,-269 -105,-94 329,-121 -121,-289 85,-34 -76,-280 178,-67 56,228 214,-320 -146,-350 -186,37 -18,-98 392,-64 28,-260 -284,78 -129,-91 137,-13 -30,-263 117,-37 -19,-309 -207,-65 170,-87 -106,-259 -466,-236 160,-167 -94,-81 191,-225 -122,-226 -175,57 3,-383 379,-220 -10,-310 468,-341 -77,-585 452,-88 190,-495 202,-128 153,-696 195,-62 -51,-387 409,-791 -42,-667 283,-104 273,120 81,-347 175,-3 90,-209 183,-50 -152,-341 189,-47 430,-684 -133,-249 131,-80 -130,-135 389,-203 248,84 95,-129 -80,-145 513,-147 -171,-226 246,38 -170,-284 396,111 -58,-335 123,-18 214,235 -67,-303 199,23 45,-178 218,158 -32,-232 230,-38 -87,-417 -304,4 3,-256 210,24 -108,-273 -326,185 77,-313 167,-118 -112,-334 226,-14 50,-343 220,-34 -300,-91 40,-152 243,78 -70,-205 298,-615 -150,-179 -43,-911 128,-78 104,195 153,-468 -66,-194 460,-276 -88,-76 120,-328 -216,51 200,-406 -220,-327 358,-76 -68,-201 478,-215 96,-509 165,-12 -217,-212 180,-87 -45,-431 103,-255 192,228 171,-167 120,217 816,-75 337,190 110,-60 -18,-317 398,73 -122,-358 279,105 -32,252 221,-154 -104,-407 -206,-124 959,-33 -72,-85 303,-174 -74,205 156,48 12,566 189,17 -216,184 113,283 -279,33 84,134 -263,325 226,175 -101,147 101,37 -20,601 351,246 24,272 153,112 -168,22 226,226 -215,106 -131,393 -327,102 -394,-135 -307,211 -105,-107 -108,180 114,360 -280,117 -5,211 -226,-17 -117,372 315,409 61,591 -62,59 109,19 -171,334 181,218 -198,114 139,259 -599,701 114,591 -84,406 448,632 -87,339 66,131 192,-84 -35,342 373,38 42,238 -223,191 357,103 242,362 35,255 224,-46 381,1542 -476,997 694,1034 752,224 -131,459 300,256 -97,452 -120,223 -363,58 -1215,625 -1300,103 -434,462 -916,385 -727,540 -529,101 -396,597 -242,-54 -347,263 -940,-215 -238,600 222,26 136,-188 74,293 190,56 -14,303 -519,361 -38,360 -157,111 -147,1367 -369,354 -108,468 -589,680 35,172 -197,301 -485,-141 -162,149 -309,12 -174,237 -206,35 -412,818 43,615 4148,4146 -161,95 -694,-65 -164,-143 -498,-37 -256,136 -526,-565 -425,-19 -188,-156 -366,165 -272,-130 -481,-787 -276,-217 -270,-8 -110,-200 -1098,6 -204,-277 -419,-155 2,-345 155,-97 -131,-253 113,-80 -139,-289 85,-91 -274,-436 255,-223 -174,-197 102,-499 -133,-62 254,-610 -133,-385 z"
   class="fil2 str0"
   id="mun_5219407" /><path
   style="fill:#91c1bb;fill-opacity:1;stroke:#c8eae6;stroke-width:155.31040955;stroke-linecap:round;stroke-linejoin:round;stroke-miterlimit:4;stroke-dasharray:none;stroke-opacity:1"
   inkscape:connector-curvature="0"
   d="m 103385,55828.744 -327,-488 34,-442 -383,-280 -612,-1418 -706,-493 144,-124 -68,-1312 101,-325 695,-692 1105,-392 73,-344 412,-440 299,-14 321,193 429,-325 117,-423 379,-224 -262,-1749 348,180 330,-272 180,-355 20,-506 484,-241 307,-15 362,304 53,265 -231,255 191,93 297,-235 41,561 382,-221 394,150 428,-136 75,138 -197,219 327,143 324,-121 307,586 264,-34 125,115 -157,127 184,477 -59,582 -659,458 84,66 367,-174 308,86 -129,587 339,470 -23,718 -361,402 -835,-54 -348,361 2,495 307,332 165,457 -474,677 -111,-112 -290,343 -533,255 -233,-63 -511,151 82,155 -599,624 -245,-278 -352,-59 -297,127 -128,228 -711,264 -11,400 -1005,341 -330,-24 z"
   class="fil2 str0"
   id="mun_5219712" /><path
   style="fill:#91c1bb;fill-opacity:1;stroke:#c8eae6;stroke-width:155.31040955;stroke-linecap:round;stroke-linejoin:round;stroke-miterlimit:4;stroke-dasharray:none;stroke-opacity:1"
   inkscape:connector-curvature="0"
   d="m 103125,105400.74 620,-1135 365,-282 96,-730 191,-363 -173,-595 2325,508 563,-59 1194,-699 1002,145 1283,-588 788,197 442,785 -995,326 -327,287 -102,539 439,1082 -148,864 332,311 -136,784 -893,1591 -545,833 -228,230 -1068,571 -465,606 -2245,-128 154,-466 -545,-640 -20,-511 223,-313 -155,-182 -400,54 -161,-626 201,-461 -148,-404 -205,-14 -248,-211 100,-394 -252,-346 -235,-210 -435,-20 -188,-336 z"
   class="fil2 str0"
   id="mun_5220405" /><path
   style="fill:#91c1bb;fill-opacity:1;stroke:#c8eae6;stroke-width:155.31040955;stroke-linecap:round;stroke-linejoin:round;stroke-miterlimit:4;stroke-dasharray:none;stroke-opacity:1"
   inkscape:connector-curvature="0"
   d="m 26151,71095.744 2200,-2913 332,-622 780,-100 994,289 178,-210 82,-533 382,-314 317,-29 746,-406 254,20 491,-375 382,-52 408,-616 1397,-325 652,41 221,200 733,191 665,-527 410,-657 1067,-484 134,93 49,-103 350,-7 176,-305 761,-487 271,-699 214,-9 181,-204 4,513 131,-97 116,88 200,-272 -35,433 280,-87 204,107 3,454 142,-118 213,92 -7,-226 1361,-665 603,299 478,-91 851,281 933,-1001 499,-158 1344,647 -344,333 -105,329 477,1099 -471,167 -144,321 213,394 448,282 -90,481 121,242 -300,368 167,270 -81,266 885,67 179,275 161,691 45,1629 323,-162 530,18 18,474 283,234 547,-127 759,208 414,293 216,531 964,715 416,82 306,496 240,126 6,391 -237,267 241,876 1542,627 524,-216 748,173 746,-81 1124,-819 553,127 712,-163 489,177 199,376 -81,413 233,178 -104,172 283,1165 286,358 545,-156 510,264 55,360 188,200 -98,528 190,193 -15,781 295,-276 532,-218 158,-239 369,23 511,-279 914,236 301,328 -23,149 930,31 -42,244 579,227 256,424 265,44 71,633 226,214 -58,428 242,274 -1008,333 -248,503 -816,338 965,231 724,748 111,487 -180,998 746,1585 -21,376 -308,465 -863,84 -336,-312 -549,-234 -160,363 -650,-366 9,-162 -197,-57 -372,171 -138,-260 -251,90 -43,152 -548,2 -165,-181 223,-105 -101,-83 -254,227 -211,-39 -1286,547 -23,71 258,604 -370,709 94,547 -453,267 -173,370.996 -623,399 -486,95 -2897,-1141.996 326,417 199,780.996 373,455.004 -105,212 300,682.004 -63,856 -139,43 -624,-503 -140,79 -433,-258 -314,40 -194,-473.004 -255,70 24,-321 -176,-150 -240,85 -156,-175 -131,79 -155,-215 -396,-68 -63,-160.004 107,-142 -163,-48 -63,-272 -452,72 -587,-413 -297,-38 -27,-115 210,-34.996 -48,-338 -339,-133 -90,-446 -525,-105 -216,-487 -295,-15 -372,-313 -772,268 -400,210 -95,270 -171,47 -286,-233 -539,-92 -197,-413 -359,-148 -268,30 -112,-303 -396,113 -202,269 -229,-202 -218,2 -26,105 -129,-203 -286,258 -10,161 -358,-250 -166,98 -173,-91 -150,247 -138,-155 -109,158 -294,-3 -85,-187 -292,158 -178,-55 77,126 -241,-67 -98,102 10,-145 -166,-122 50,-176 -178,111 -236,-189 -75,224 -116,-185 -218,193 -86,-200 -196,172 -87,-375 -432,210 -81,184 -148,-34 96,-194 -279,-76 82,-176 -166,-205 -180,41 80,-75 -255,-226 -149,75 94,-185 -256,-193 -293,98 -54,-151 -81,126 -213,-33 33,-116 -463,74 -273,-83 -3,-129 -134,86 -137,-179 -131,130 -384,-412 -274,114 84,-302 -273,-10 -88,-216 -363,-21 -197,-266 -106,107 -186,-73 -404,-605 -81,123 -83,-255 -160,82 -86,-242 -285,46 -234,-227 220,-206 -312,-212 106,-584 -163,33 -31,-257 -165,24 172,-217 -137,-330 -105,63 -56,-155 -168,-13 27,-131 -273,-288 -301,94 -956,-242 165,-401 -280,-537 -290,-182 -203,126 -157,-61 -317,-430 -237,-44 -380,-438 -357,-168 -97,-330 -604,-608 42,-232 -268,-163 32,-282 -171,-82 -88,165 -288,-119 52,-99 -205,-236 -220,-20 -68,-261 -414,172 -341,-713 -112,74 -303,-194 -32,-311 -195,-168 111,-78 -221,-335 -342,-40 -68,-279 -295,-125 -170,220 -135,-151 59,-151 -193,-81 -108,125 -69,-508 -149,50 -1032,-926 -196,7 25,-142 -259,-146 -27,-208 -435,-394 -59,-333 -353,-205 -103,-622 -209,-122 z"
   class="fil2 str0"
   id="mun_5220504" /><path
   style="fill:#91c1bb;fill-opacity:1;stroke:#c8eae6;stroke-width:155.31040955;stroke-linecap:round;stroke-linejoin:round;stroke-miterlimit:4;stroke-dasharray:none;stroke-opacity:1"
   inkscape:connector-curvature="0"
   d="m 111692,55736.744 407,-526 436,-137 792,-804 1366,25 712,-516 855,74 739,-341 511,577 910,42 645,-389 190,-455 -168,-292 380,-456 462,356 885,-571 1116,250 635,-147 426,121 140,-176 755,756 -279,113 194,330 102,491 -211,1 -785,1205 508,325 116,441 -288,-21 -223,339 -406,-76 -255,131 230,239 -166,524 -433,48 -210,167 147,714 479,209 202,239 -389,346 -602,162 -53,175 367,309 403,55 -183,237 -523,183 -355,87 -659,628 -439,-238 -587,-98 -235,489 199,270 -133,558 454,169 547,531 -65,170 -426,91 -21,316 85,109 334,-4 413,462 -272,766 61,414 -718,455 -275,-165 -270,310 -155,-260 -262,211 -279,-146 -225,442 79,492 531,587 -76,550 -362,299 192,447 305,130 531,-646 414,91 284,231 282,-123 276,354 1090,-222 -206,690 -736,467 -312,94 -636,611 -1429,-105 -175,-263 105,-325 329,-247 -67,-300 -783,69 -102,-411 -572,-91 -735,-1650 -199,-297 -505,-145 28,-534 -677,-1 -198,-109 75,-339 502,-115 63,-260 -656,-183 -441,-329 16,609 -193,100 -723,-680 293,-1217 408,-69 298,-248 -363,-344 -218,30 -234,-429 -834,-719 239,-1398 -172,-268 -451,-35 -7,-524 399,7 629,-299 245,-766 505,-90 122,-304 -103,-131 -474,126 -899,823 -571,174 -217,-276 202,-621 -412,-210 92,-624 -444,-434 -3,-445 z"
   class="fil2 str0"
   id="mun_5221551" /><path
   style="fill:#91c1bb;fill-opacity:1;stroke:#c8eae6;stroke-width:155.31040955;stroke-linecap:round;stroke-linejoin:round;stroke-miterlimit:4;stroke-dasharray:none;stroke-opacity:1"
   inkscape:connector-curvature="0"
   d="m 112037,66665.744 986,-400 350,152 252,-70 156,137 113,-214 709,-468 533,314 274,-184 177,44 392,530 590,-193 736,1649 571,91 102,411 783,-69 67,300 -328,247 -105,326 174,263 1430,104 636,-611 311,-94 366,600 405,281 402,705 295,175 -308,289 -398,-50 -684,426 -160,-166 -420,185 -72,-181 -350,-154 -191,45 -167,259 -746,28 -797,509 -51,177 155,82 -444,527 -410,11 -704,671 -461,991 -863,-181 -310,-429 -287,-79 -169,-411 -726,-170 -273,260 -553,-266 943,-618 -452,-504 26,-256 -206,-213 -219,-641 14,-490 -2569,-1209 94,-181 894,-489 413,-1040 73,-755 z"
   class="fil2 str0"
   id="mun_5213004" /><path
   style="fill:#91c1bb;fill-opacity:1;stroke:#c8eae6;stroke-width:155.31040955;stroke-linecap:round;stroke-linejoin:round;stroke-miterlimit:4;stroke-dasharray:none;stroke-opacity:1"
   inkscape:connector-curvature="0"
   d="m 75703,111443.74 -189,-47 -200,-302 52,-530 -279,-438 1063,-2165 1026,63 814,260 1956,147 1960,1869 877,610 1289,494 866,977 768,-9 407,188 312,443 389,225 1608,334 104,293 203,96 -60,357 312,1100 -165,422 142,131 -131,229 45,712 -498,58 -459,-210 -284,17 -658,-603 -909,8 -451,-144 -275,-555 -479,-134 -78,-137 -175,177 -323,-260 -292,-29 -226,228 -391,175 -215,-105 -203,290 -175,-246 -660,-197 -155,-444 -206,32 -500,-453 -369,-32 152,-528 -148,-191 -168,22 -864,116 -309,-309 -832,312 -112,-62 182,-288 -220,-185 19,-269 -190,-223 -758,54 -173,-170 -386,-378 141,-184 -171,-127 -193,50 -141,-287 -178,-26 -196,193 -279,23 -318,-359 -43,-79 z"
   class="fil2 str0"
   id="mun_5212253" />





<path
   style="fill:#179999;fill-opacity:1;fill-rule:evenodd;stroke:#c8eae6;stroke-width:155.31040955;stroke-miterlimit:4;stroke-dasharray:none;stroke-opacity:1;image-rendering:optimizeQuality;shape-rendering:geometricPrecision;text-rendering:geometricPrecision"
   inkscape:connector-curvature="0"
   d="m 72746.99,88402.734 239,-641 601,-272 70,-627 4374.01,-4863 159,-258 94,-729 -212,-694 366,-506 372,-947 244,-30 829,725 1299,210 635,683 145,-247 330,10 47,180 -169,210 120,303 364,-102 203,725 631,170 -19,479 311,-111 268,184 -120,826 188,686 545,142 -343,519 289,313 -148,173 51,377 610,645 195,483 692,219 -17,606 725,585 274,770 1237,849.996 210,640.014 598,746 347,70 136,420.004 -204,398 770,524.004 368,733 948.01,1136.008 210,575 430,320.004 142,639 419,303 9,630.004 260,312 92,391.004 -130,557 771,603.004 979,1193.004 -206,359 183,320.2 -90,355 124,339 343,301 368,115 208,-56 139,-232 325,128 486,495 336,-140 208,53 111,515 780,452 198,-34 85,-352 254,174 31,234 565,306 116,333 1158,43 639,844 1112,297 1073,915.01 188.01,335.99 434.99,21.01 235.01,210 251.99,345 -99.99,394 247.99,211.01 205.01,13.99 148,404 -201,461 161,626 400,-54 155,182 -223,313 20,511 545,640 -154,467 -965,70 -225,144 192,890 -301,351.01 -1958,467 -51,-215 273,-316 -2.99,-317 -362,-95.01 -184,-393.99 -416,-347.01 -362,340 -245,-136 -55,-420 255,-192 -98,-383 -152,17.02 -35,219 -256,-27 -86,-808 -202,-377 -1181.01,-752.01 -322,100.01 -505,-389 -337,77.99 -519,-432 -112,-381 -501,437.01 -547,-190 81,-107 521,-30.01 117,-201.99 -159,-209 36,-215 -406,-193.01 -202,283 -234,36.01 -437,-563.01 -449,77.01 -152,-243.01 291,-596 -410,283 -299,-52 232,-609 -12,-383 -941,-147 70,-486 -183,-519 -240,-192 -35,-357 -422,-316 -330,-626 -195,-54 -373,159 -277,-306 -284,-135 -659,332 -168,-716 -1200,-607 -309,268 -365,-313 -337,234 -630,-5 -162,-258 194,-450 -770,-664.2 -561,-1028.004 -327,250 -327.01,-324 -424,43 243,-684.004 -108,-220 -285,77 -224,-237 -575,103 -98,-127 144,-302 -319,-47 40,-216.004 -187,-184 -199,-648 -419,-131.004 -139,-246 -793,-45 -296,-628.004 -147,44 -711,-370 -529,-807.004 -295,-90 -192,-287 -485,282 121,-526.01 -643,-550.004 -192,-626 -105,-39.004 -277,302.004 -204,-20 -88,-311.004 -510,-496 -228,-35 -195,140 -65,-316 -183,-86 -219,227 -394,-324 -482,-5 -158,-230.004 246,-247 -413.01,-272.01 -702.01,-176 -432,-394.014 -597,-75 -269,-359 -363,72 -78,-207 141,-268.996 -629,-265 -207,-232 z"
   class="fil5 str5"
   id="mun_5204300" /><path
   style="fill:#ffffff;stroke:#ffffff;stroke-width:1594.4387207;stroke-linecap:butt;stroke-linejoin:miter;stroke-miterlimit:4;stroke-dasharray:none;stroke-opacity:1"
   d="M 107374.43,60858.34 56875,44566.744"
   id="path1002"
   inkscape:connector-curvature="0"
   sodipodi:nodetypes="cc" /><rect
   style="opacity:1;fill:#1a5f5f;fill-opacity:1;fill-rule:nonzero;stroke:#ffffff;stroke-width:731.1026001;stroke-miterlimit:4;stroke-dasharray:none;stroke-dashoffset:0;stroke-opacity:1"
   id="rect994"
   width="74368.383"
   height="15311.9"
   x="23285"
   y="30822.846" /><text
   xml:space="preserve"
   style="font-style:normal;font-weight:normal;font-size:11055.54492188px;line-height:1.25;font-family:sans-serif;letter-spacing:0px;word-spacing:0px;fill:#ffffff;fill-opacity:1;stroke:none;stroke-width:276.38861084"
   x="27737.699"
   y="41832.602"
   id="text992"><tspan
     sodipodi:role="line"
     x="27737.699"
     y="41832.602"
     style="font-style:normal;font-variant:normal;font-weight:normal;font-stretch:normal;font-family:'Ubuntu Mono';-inkscape-font-specification:'Ubuntu Mono';fill:#ffffff;stroke-width:276.38861084"
     id="tspan993">Santa Helena</tspan></text>
<circle
   style="opacity:1;fill:#ffffff;fill-opacity:1;fill-rule:nonzero;stroke:none;stroke-width:466.30679321;stroke-miterlimit:4;stroke-dasharray:none;stroke-dashoffset:0;stroke-opacity:1"
   id="path1000"
   cx="107614.35"
   cy="61110.531"
   r="1743.6423" /></svg>