<svg id="Layer_1" enable-background="new 0 0 512.443 512.443" height="512" viewBox="0 0 512.443 512.443" width="512" xmlns="http://www.w3.org/2000/svg"><path d="m256.221 512.373c-141.567 0-256.151-114.564-256.151-256.152 0-141.566 114.564-256.151 256.151-256.151 141.567 0 256.151 114.564 256.151 256.151.001 141.566-114.563 256.152-256.151 256.152z" fill="#86bff2"/><path d="m73.349 99.741c-6.227-6.348-6.227-16.512 0-22.86 100.546-102.514 265.212-102.5 365.744 0 6.227 6.348 6.227 16.512 0 22.86-100.546 102.515-265.211 102.5-365.744 0z" fill="#d7edff"/><path d="m73.349 435.562c-6.227-6.348-6.227-16.512 0-22.86 100.546-102.515 265.212-102.501 365.744 0 6.227 6.348 6.227 16.512 0 22.86-100.548 102.515-265.21 102.5-365.744 0z" fill="#d7edff"/><path d="m256.221 512.373c-133.523 0-194.37-274.993-107.354-433.587 27.85-50.76 65.976-78.715 107.354-78.715 133.523 0 194.37 274.993 107.354 433.587-27.849 50.759-65.975 78.715-107.354 78.715z" fill="#b9dcff"/><path d="m124.065 139.944c80.735 48.835 183.533 48.862 264.313 0-53.902-186.191-210.232-186.81-264.313 0z" fill="#86bff2"/><path d="m124.065 372.499c53.954 186.368 210.291 186.607 264.313 0-80.735-48.835-183.533-48.863-264.313 0z" fill="#86bff2"/><path d="m437.347 75.095c-100.1-100.102-262.136-100.118-362.252 0-100.103 100.102-100.118 262.136 0 362.253 100.1 100.102 262.136 100.118 362.252 0 100.104-100.103 100.118-262.137 0-362.253zm-10.705 325.738c-11.968-10.702-24.77-20.173-38.264-28.335 8.919-30.809 14.203-64.712 15.452-99.954h75.309c-3.406 47.503-21.657 92.064-52.497 128.289zm-393.338-128.289h75.309c1.249 35.242 6.533 69.145 15.452 99.954-13.494 8.162-26.296 17.633-38.264 28.335-30.84-36.225-49.091-80.786-52.497-128.289zm52.497-160.935c11.968 10.702 24.77 20.173 38.264 28.335-8.919 30.809-14.203 64.712-15.452 99.954h-75.309c3.406-47.503 21.657-92.064 52.497-128.289zm154.097 31.708c-26.622-1.904-52.291-8.461-76.088-19.278 13.84-35.639 39.354-78.384 76.088-88.977zm0 32.708v63.873h-98.625c1.13-29.812 5.354-58.439 12.379-84.632 27.043 11.822 56.127 18.882 86.246 20.759zm0 96.519v63.873c-30.119 1.877-59.203 8.937-86.246 20.759-7.025-26.193-11.249-54.82-12.379-84.632zm0 96.581v108.254c-36.732-10.593-62.246-53.333-76.088-88.976 23.797-10.817 49.467-17.374 76.088-19.278zm32.647 0c26.622 1.904 52.291 8.461 76.088 19.278-13.841 35.64-39.354 78.383-76.088 88.976zm0-32.708v-63.873h98.625c-1.13 29.812-5.354 58.439-12.379 84.632-27.044-11.822-56.128-18.882-86.246-20.759zm0-96.519v-63.873c30.119-1.877 59.203-8.937 86.246-20.759 7.025 26.193 11.249 54.82 12.379 84.632zm0-96.581v-108.254c36.734 10.593 62.248 53.338 76.088 88.977-23.797 10.816-49.467 17.373-76.088 19.277zm73.32-91.957c20.895 9.15 40.389 21.557 57.864 36.951-8.318 7.334-17.095 13.984-26.26 19.931-8.139-20.152-18.537-39.736-31.604-56.882zm-210.891 56.882c-9.165-5.947-17.941-12.597-26.26-19.931 17.475-15.394 36.969-27.801 57.864-36.951-13.068 17.148-23.466 36.732-31.604 56.882zm0 295.958c8.138 20.151 18.537 39.736 31.604 56.882-20.895-9.15-40.389-21.557-57.864-36.951 8.318-7.334 17.095-13.984 26.26-19.931zm242.495 0c9.165 5.947 17.942 12.597 26.26 19.93-17.475 15.394-36.969 27.801-57.864 36.951 13.066-17.144 23.465-36.729 31.604-56.881zm26.361-164.302c-1.249-35.242-6.533-69.146-15.452-99.954 13.494-8.162 26.295-17.633 38.264-28.335 30.84 36.225 49.091 80.786 52.497 128.289z" fill="#2e58ff"/></svg>