<?xml version="1.0" encoding="iso-8859-1"?>
<!-- Generator: Adobe Illustrator 19.0.0, SVG Export Plug-In . SVG Version: 6.00 Build 0)  -->
<svg version="1.1" id="Layer_1" xmlns="http://www.w3.org/2000/svg" xmlns:xlink="http://www.w3.org/1999/xlink" x="0px" y="0px"
	 viewBox="0 0 512.001 512.001" style="enable-background:new 0 0 512.001 512.001;" xml:space="preserve">
<rect x="234.735" y="183.299" style="fill:#464655;" width="35.534" height="97.718"/>
<path style="fill:#959CB5;" d="M270.267,263.254h-35.534c-4.906,0-8.883,3.978-8.883,8.883v26.65h53.301v-26.65
	C279.15,267.232,275.173,263.254,270.267,263.254z"/>
<polygon style="fill:#AFB9D2;" points="305.801,334.322 199.199,334.322 208.082,298.788 296.917,298.788 "/>
<path style="fill:#5B5D6E;" d="M400.033,111.598l-176.947,102.16c-4.249,2.453-9.682,0.997-12.135-3.251l-17.767-30.773
	c-2.453-4.249-0.997-9.682,3.251-12.135l176.947-102.16L400.033,111.598z"/>
<g>
	<path style="fill:#464655;" d="M493.543,78.125l-76.933,44.417c-4.249,2.453-9.682,0.997-12.135-3.251l-35.534-61.547
		c-2.453-4.249-0.997-9.682,3.251-12.135l76.933-44.417c4.249-2.453,9.682-0.997,12.135,3.251l35.534,61.547
		C499.248,70.238,497.792,75.672,493.543,78.125z"/>
	<path style="fill:#464655;" d="M193.185,179.732l-126.12,72.816l-37.267-9.986c-4.739-1.27-9.61,1.542-10.88,6.282l-4.598,17.162
		c-1.27,4.739,1.542,9.61,6.282,10.88l40.822,10.938c6.827,1.829,14.101,0.872,20.223-2.663l129.306-74.654L193.185,179.732z"/>
</g>
<path style="fill:#5B5D6E;" d="M180.19,237.159c-3.071,0-6.055-1.588-7.704-4.442l-39.976-69.246
	c-2.455-4.251-0.997-9.682,3.254-12.137c4.225-2.455,9.673-1.006,12.137,3.254l39.976,69.246c2.455,4.251,0.997,9.682-3.254,12.137
	C183.228,236.777,181.701,237.159,180.19,237.159z"/>
<path style="fill:#464655;" d="M194.056,127.941l-92.319,53.301c-4.249,2.453-9.682,0.997-12.135-3.251l-8.883-15.386
	c-2.453-4.249-0.997-9.682,3.251-12.135l92.319-53.301c4.249-2.453,9.682-0.997,12.135,3.251l8.883,15.386
	C199.761,120.055,198.305,125.488,194.056,127.941z"/>
<path style="fill:#D5DCED;" d="M376.373,500.193l-68.995-198.351c-2.473-7.14-9.222-11.937-16.778-11.937h-76.204
	c-7.556,0-14.306,4.797-16.778,11.937l-68.995,198.351c-1.613,4.633,0.833,9.691,5.474,11.304c4.606,1.631,9.691-0.833,11.304-5.474
	l68.995-198.351h29.219v195.436c0,4.91,3.973,8.883,8.883,8.883c4.91,0,8.883-3.973,8.883-8.883V307.671h29.217l68.995,198.351
	c1.275,3.67,4.71,5.969,8.389,5.969c0.972,0,1.952-0.157,2.915-0.494C375.54,509.884,377.986,504.826,376.373,500.193z"/>
<rect x="329.298" y="97.409" transform="matrix(0.5 0.866 -0.866 0.5 270.0211 -255.1132)" style="fill:#464655;" width="53.3" height="17.767"/>
<g>
	<path style="fill:#5B5D6E;" d="M77.782,246.36l-10.716,6.187l-37.267-9.986c-4.739-1.27-9.61,1.542-10.88,6.282l-4.598,17.162
		c-1.27,4.739,1.542,9.61,6.282,10.88l40.822,10.938c6.827,1.829,14.101,0.872,20.223-2.663l13.903-8.026L77.782,246.36z"/>
	<path style="fill:#5B5D6E;" d="M188.424,100.419c-2.453-4.25-7.886-5.704-12.135-3.251l-23.083,13.326l17.767,30.772l23.081-13.326
		c4.25-2.453,5.705-7.886,3.251-12.135L188.424,100.419z"/>
</g>
<g>
</g>
<g>
</g>
<g>
</g>
<g>
</g>
<g>
</g>
<g>
</g>
<g>
</g>
<g>
</g>
<g>
</g>
<g>
</g>
<g>
</g>
<g>
</g>
<g>
</g>
<g>
</g>
<g>
</g>
</svg>
