<?xml version="1.0" encoding="UTF-8" standalone="no"?>
<svg
   xmlns:dc="http://purl.org/dc/elements/1.1/"
   xmlns:cc="http://creativecommons.org/ns#"
   xmlns:rdf="http://www.w3.org/1999/02/22-rdf-syntax-ns#"
   xmlns:svg="http://www.w3.org/2000/svg"
   xmlns="http://www.w3.org/2000/svg"
   xmlns:sodipodi="http://sodipodi.sourceforge.net/DTD/sodipodi-0.dtd"
   xmlns:inkscape="http://www.inkscape.org/namespaces/inkscape"
   id="Layer_1"
   enable-background="new 0 0 496 496"
   height="512"
   viewBox="0 0 496 496"
   width="512"
   version="1.1"
   sodipodi:docname="observatorio.svg"
   inkscape:version="0.92.3 (2405546, 2018-03-11)">
  <metadata
     id="metadata9">
    <rdf:RDF>
      <cc:Work
         rdf:about="">
        <dc:format>image/svg+xml</dc:format>
        <dc:type
           rdf:resource="http://purl.org/dc/dcmitype/StillImage" />
        <dc:title></dc:title>
      </cc:Work>
    </rdf:RDF>
  </metadata>
  <defs
     id="defs7" />
  <sodipodi:namedview
     pagecolor="#ffffff"
     bordercolor="#666666"
     borderopacity="1"
     objecttolerance="10"
     gridtolerance="10"
     guidetolerance="10"
     inkscape:pageopacity="0"
     inkscape:pageshadow="2"
     inkscape:window-width="1360"
     inkscape:window-height="700"
     id="namedview5"
     showgrid="false"
     inkscape:pagecheckerboard="true"
     inkscape:zoom="0.4609375"
     inkscape:cx="256"
     inkscape:cy="256"
     inkscape:window-x="0"
     inkscape:window-y="0"
     inkscape:window-maximized="1"
     inkscape:current-layer="Layer_1" />
  <path
     d="m199.114 194.6c2.377 8.511-2.596 17.337-11.106 19.714-19.513 5.45-35.303 20.086-42.236 39.154-2.363 6.499-8.501 10.536-15.038 10.536-11.068 0-18.834-11.028-15.036-21.473 10.454-28.747 34.268-50.817 63.702-59.038 8.511-2.377 17.337 2.597 19.714 11.107zm276.2-33.286-56.235 56.235c-6.249 6.249-16.38 6.249-22.627 0l-8.31-8.31-29.377 29.377c5.102 21.566 4.235 34.989 4.235 64.384h15c8.836 0 16 7.164 16 16v161c0 8.836-7.164 16-16 16h-346c-8.836 0-16-7.164-16-16v-161c0-8.836 7.164-16 16-16h15v-28c0-101.437 94.945-177.292 194.385-153.764l29.376-29.377-8.31-8.31c-6.249-6.248-6.249-16.379 0-22.627l56.235-56.235c6.249-6.249 16.379-6.249 22.627 0l134 134c6.249 6.248 6.249 16.379.001 22.627zm-113.314 173.686c-3.102 0-310.923 0-314 0v129h314zm-31-32v-28c0-69.477-56.523-126-126-126s-126 56.524-126 126v28zm34.513-116.388-72.125-72.125-18.726 18.726c31.256 15.419 56.706 40.869 72.125 72.125zm75.86-36.612-111.373-111.372-33.608 33.608 111.373 111.373zm-264.373 223v52c0 8.836-7.164 16-16 16h-52c-8.836 0-16-7.164-16-16v-52c0-8.836 7.164-16 16-16h52c8.837 0 16 7.164 16 16zm-32 16h-20v20h20zm172-16v52c0 8.836-7.164 16-16 16h-52c-8.836 0-16-7.164-16-16v-52c0-8.836 7.164-16 16-16h52c8.837 0 16 7.164 16 16zm-32 16h-20v20h20z"
     id="path2"
     style="fill:#ffffff" />
</svg>
