<svg version="1.1" viewBox="0.0 0.0 600.0 371.0" fill="none" stroke="none" stroke-linecap="square" stroke-miterlimit="10" width="600" height="371" xmlns:xlink="http://www.w3.org/1999/xlink" xmlns="http://www.w3.org/2000/svg"><path fill="#ffffff" d="M0 0L600.0 0L600.0 371.0L0 371.0L0 0Z" fill-rule="nonzero"/><path stroke="#cccccc" stroke-width="1.0" stroke-linecap="butt" d="M45.5 51.5L45.5 332.5" fill-rule="nonzero"/><path stroke="#cccccc" stroke-width="1.0" stroke-linecap="butt" d="M179.5 51.5L179.5 332.5" fill-rule="nonzero"/><path stroke="#cccccc" stroke-width="1.0" stroke-linecap="butt" d="M313.5 51.5L313.5 332.5" fill-rule="nonzero"/><path stroke="#cccccc" stroke-width="1.0" stroke-linecap="butt" d="M447.5 51.5L447.5 332.5" fill-rule="nonzero"/><path stroke="#cccccc" stroke-width="1.0" stroke-linecap="butt" d="M581.5 51.5L581.5 332.5" fill-rule="nonzero"/><path stroke="#333333" stroke-width="1.0" stroke-linecap="butt" d="M45.5 332.5L581.5 332.5" fill-rule="nonzero"/><path stroke="#cccccc" stroke-width="1.0" stroke-linecap="butt" d="M45.5 285.5L581.5 285.5" fill-rule="nonzero"/><path stroke="#cccccc" stroke-width="1.0" stroke-linecap="butt" d="M45.5 238.5L581.5 238.5" fill-rule="nonzero"/><path stroke="#cccccc" stroke-width="1.0" stroke-linecap="butt" d="M45.5 192.5L581.5 192.5" fill-rule="nonzero"/><path stroke="#cccccc" stroke-width="1.0" stroke-linecap="butt" d="M45.5 145.5L581.5 145.5" fill-rule="nonzero"/><path stroke="#cccccc" stroke-width="1.0" stroke-linecap="butt" d="M45.5 98.5L581.5 98.5" fill-rule="nonzero"/><path stroke="#cccccc" stroke-width="1.0" stroke-linecap="butt" d="M45.5 51.5L581.5 51.5" fill-rule="nonzero"/><clipPath id="id_0"><path d="M45.55 51.916668L581.45 51.916668L581.45 332.45L45.55 332.45L45.55 51.916668Z" clip-rule="nonzero"/></clipPath><path stroke="#4285f4" stroke-width="2.0" stroke-linecap="butt" clip-path="url(#id_0)" d="M112.5375 285.69446C112.5375 285.69446 157.19583 227.25 179.525 215.56111C201.85417 203.87222 224.18333 215.56111 246.5125 215.56111C268.84167 215.56111 291.17084 227.25 313.5 215.56111C335.82916 203.87222 358.15833 157.11667 380.4875 145.42778C402.81668 133.73889 425.14584 145.42778 447.475 145.42778C469.80417 145.42778 492.13333 137.63518 514.4625 145.42778C536.7917 153.22037 581.45 192.18333 581.45 192.18333" fill-rule="nonzero"/><path stroke="#ea4335" stroke-width="2.0" stroke-linecap="butt" clip-path="url(#id_0)" d="M45.55 285.69446C45.55 285.69446 90.208336 258.42038 112.5375 238.93889C134.86667 219.45741 157.19583 180.49445 179.525 168.80556C201.85417 157.11667 224.18333 168.80556 246.5125 168.80556C268.84167 168.80556 291.17084 180.49445 313.5 168.80556C335.82916 157.11667 358.15833 110.361115 380.4875 98.672226C402.81668 86.98333 425.14584 98.672226 447.475 98.672226C469.80417 98.672226 492.13333 102.56852 514.4625 98.672226C536.7917 94.775925 581.45 75.29444 581.45 75.29444" fill-rule="nonzero"/><path stroke="#fbbc04" stroke-width="2.0" stroke-linecap="butt" clip-path="url(#id_0)" d="M380.4875 285.69446C380.4875 285.69446 425.14584 305.17593 447.475 309.07224C469.80417 312.9685 492.13333 305.17593 514.4625 309.07224C536.7917 312.9685 581.45 332.45 581.45 332.45" fill-rule="nonzero"/><path stroke="#34a853" stroke-width="2.0" stroke-linecap="butt" clip-path="url(#id_0)" d="M380.4875 168.80556C380.4875 168.80556 425.14584 149.32408 447.475 145.42778C469.80417 141.53148 492.13333 149.32408 514.4625 145.42778C536.7917 141.53148 581.45 122.05 581.45 122.05" fill-rule="nonzero"/><path stroke="#ff6d01" stroke-width="2.0" stroke-linecap="butt" clip-path="url(#id_0)" d="M45.55 309.07224C45.55 309.07224 90.208336 309.07224 112.5375 309.07224C134.86667 309.07224 157.19583 309.07224 179.525 309.07224C201.85417 309.07224 224.18333 309.07224 246.5125 309.07224C268.84167 309.07224 291.17084 309.07224 313.5 309.07224C335.82916 309.07224 358.15833 309.07224 380.4875 309.07224C402.81668 309.07224 425.14584 309.07224 447.475 309.07224C469.80417 309.07224 492.13333 312.9685 514.4625 309.07224C536.7917 305.17593 581.45 285.69446 581.45 285.69446" fill-rule="nonzero"/><path fill="#000000" fill-opacity="0.0" clip-path="url(#id_0)" d="M115.5375 285.69446C115.5375 287.3513 114.19435 288.69446 112.5375 288.69446C110.880646 288.69446 109.5375 287.3513 109.5375 285.69446C109.5375 284.0376 110.880646 282.69446 112.5375 282.69446C114.19435 282.69446 115.5375 284.0376 115.5375 285.69446Z" fill-rule="nonzero"/><path fill="#000000" fill-opacity="0.0" clip-path="url(#id_0)" d="M182.525 215.56111C182.525 217.21797 181.18185 218.56111 179.525 218.56111C177.86815 218.56111 176.525 217.21797 176.525 215.56111C176.525 213.90425 177.86815 212.56111 179.525 212.56111C181.18185 212.56111 182.525 213.90425 182.525 215.56111Z" fill-rule="nonzero"/><path fill="#000000" fill-opacity="0.0" clip-path="url(#id_0)" d="M249.5125 215.56111C249.5125 217.21797 248.16936 218.56111 246.5125 218.56111C244.85565 218.56111 243.5125 217.21797 243.5125 215.56111C243.5125 213.90425 244.85565 212.56111 246.5125 212.56111C248.16936 212.56111 249.5125 213.90425 249.5125 215.56111Z" fill-rule="nonzero"/><path fill="#000000" fill-opacity="0.0" clip-path="url(#id_0)" d="M316.5 215.56111C316.5 217.21797 315.15686 218.56111 313.5 218.56111C311.84314 218.56111 310.5 217.21797 310.5 215.56111C310.5 213.90425 311.84314 212.56111 313.5 212.56111C315.15686 212.56111 316.5 213.90425 316.5 215.56111Z" fill-rule="nonzero"/><path fill="#000000" fill-opacity="0.0" clip-path="url(#id_0)" d="M383.4875 145.42778C383.4875 147.08463 382.14435 148.42778 380.4875 148.42778C378.83066 148.42778 377.4875 147.08463 377.4875 145.42778C377.4875 143.77092 378.83066 142.42778 380.4875 142.42778C382.14435 142.42778 383.4875 143.77092 383.4875 145.42778Z" fill-rule="nonzero"/><path fill="#000000" fill-opacity="0.0" clip-path="url(#id_0)" d="M450.475 145.42778C450.475 147.08463 449.13187 148.42778 447.475 148.42778C445.81815 148.42778 444.475 147.08463 444.475 145.42778C444.475 143.77092 445.81815 142.42778 447.475 142.42778C449.13187 142.42778 450.475 143.77092 450.475 145.42778Z" fill-rule="nonzero"/><path fill="#000000" fill-opacity="0.0" clip-path="url(#id_0)" d="M517.4625 145.42778C517.4625 147.08463 516.1194 148.42778 514.4625 148.42778C512.80566 148.42778 511.4625 147.08463 511.4625 145.42778C511.4625 143.77092 512.80566 142.42778 514.4625 142.42778C516.1194 142.42778 517.4625 143.77092 517.4625 145.42778Z" fill-rule="nonzero"/><path fill="#000000" fill-opacity="0.0" clip-path="url(#id_0)" d="M584.45 192.18333C584.45 193.8402 583.1069 195.18333 581.45 195.18333C579.79315 195.18333 578.45 193.8402 578.45 192.18333C578.45 190.52647 579.79315 189.18333 581.45 189.18333C583.1069 189.18333 584.45 190.52647 584.45 192.18333Z" fill-rule="nonzero"/><path fill="#000000" fill-opacity="0.0" clip-path="url(#id_0)" d="M48.55 285.69446C48.55 287.3513 47.206856 288.69446 45.55 288.69446C43.893147 288.69446 42.55 287.3513 42.55 285.69446C42.55 284.0376 43.893147 282.69446 45.55 282.69446C47.206856 282.69446 48.55 284.0376 48.55 285.69446Z" fill-rule="nonzero"/><path fill="#000000" fill-opacity="0.0" clip-path="url(#id_0)" d="M115.5375 238.93889C115.5375 240.59575 114.19435 241.93889 112.5375 241.93889C110.880646 241.93889 109.5375 240.59575 109.5375 238.93889C109.5375 237.28203 110.880646 235.93889 112.5375 235.93889C114.19435 235.93889 115.5375 237.28203 115.5375 238.93889Z" fill-rule="nonzero"/><path fill="#000000" fill-opacity="0.0" clip-path="url(#id_0)" d="M182.525 168.80556C182.525 170.4624 181.18185 171.80556 179.525 171.80556C177.86815 171.80556 176.525 170.4624 176.525 168.80556C176.525 167.1487 177.86815 165.80556 179.525 165.80556C181.18185 165.80556 182.525 167.1487 182.525 168.80556Z" fill-rule="nonzero"/><path fill="#000000" fill-opacity="0.0" clip-path="url(#id_0)" d="M249.5125 168.80556C249.5125 170.4624 248.16936 171.80556 246.5125 171.80556C244.85565 171.80556 243.5125 170.4624 243.5125 168.80556C243.5125 167.1487 244.85565 165.80556 246.5125 165.80556C248.16936 165.80556 249.5125 167.1487 249.5125 168.80556Z" fill-rule="nonzero"/><path fill="#000000" fill-opacity="0.0" clip-path="url(#id_0)" d="M316.5 168.80556C316.5 170.4624 315.15686 171.80556 313.5 171.80556C311.84314 171.80556 310.5 170.4624 310.5 168.80556C310.5 167.1487 311.84314 165.80556 313.5 165.80556C315.15686 165.80556 316.5 167.1487 316.5 168.80556Z" fill-rule="nonzero"/><path fill="#000000" fill-opacity="0.0" clip-path="url(#id_0)" d="M383.4875 98.672226C383.4875 100.32908 382.14435 101.672226 380.4875 101.672226C378.83066 101.672226 377.4875 100.32908 377.4875 98.672226C377.4875 97.015366 378.83066 95.672226 380.4875 95.672226C382.14435 95.672226 383.4875 97.015366 383.4875 98.672226Z" fill-rule="nonzero"/><path fill="#000000" fill-opacity="0.0" clip-path="url(#id_0)" d="M450.475 98.672226C450.475 100.32908 449.13187 101.672226 447.475 101.672226C445.81815 101.672226 444.475 100.32908 444.475 98.672226C444.475 97.015366 445.81815 95.672226 447.475 95.672226C449.13187 95.672226 450.475 97.015366 450.475 98.672226Z" fill-rule="nonzero"/><path fill="#000000" fill-opacity="0.0" clip-path="url(#id_0)" d="M517.4625 98.672226C517.4625 100.32908 516.1194 101.672226 514.4625 101.672226C512.80566 101.672226 511.4625 100.32908 511.4625 98.672226C511.4625 97.015366 512.80566 95.672226 514.4625 95.672226C516.1194 95.672226 517.4625 97.015366 517.4625 98.672226Z" fill-rule="nonzero"/><path fill="#000000" fill-opacity="0.0" clip-path="url(#id_0)" d="M584.45 75.29444C584.45 76.9513 583.1069 78.29444 581.45 78.29444C579.79315 78.29444 578.45 76.9513 578.45 75.29444C578.45 73.63759 579.79315 72.29444 581.45 72.29444C583.1069 72.29444 584.45 73.63759 584.45 75.29444Z" fill-rule="nonzero"/><path fill="#000000" fill-opacity="0.0" clip-path="url(#id_0)" d="M383.4875 285.69446C383.4875 287.3513 382.14435 288.69446 380.4875 288.69446C378.83066 288.69446 377.4875 287.3513 377.4875 285.69446C377.4875 284.0376 378.83066 282.69446 380.4875 282.69446C382.14435 282.69446 383.4875 284.0376 383.4875 285.69446Z" fill-rule="nonzero"/><path fill="#000000" fill-opacity="0.0" clip-path="url(#id_0)" d="M450.475 309.07224C450.475 310.72906 449.13187 312.07224 447.475 312.07224C445.81815 312.07224 444.475 310.72906 444.475 309.07224C444.475 307.41537 445.81815 306.07224 447.475 306.07224C449.13187 306.07224 450.475 307.41537 450.475 309.07224Z" fill-rule="nonzero"/><path fill="#000000" fill-opacity="0.0" clip-path="url(#id_0)" d="M517.4625 309.07224C517.4625 310.72906 516.1194 312.07224 514.4625 312.07224C512.80566 312.07224 511.4625 310.72906 511.4625 309.07224C511.4625 307.41537 512.80566 306.07224 514.4625 306.07224C516.1194 306.07224 517.4625 307.41537 517.4625 309.07224Z" fill-rule="nonzero"/><path fill="#000000" fill-opacity="0.0" clip-path="url(#id_0)" d="M584.45 332.45C584.45 334.10684 583.1069 335.45 581.45 335.45C579.79315 335.45 578.45 334.10684 578.45 332.45C578.45 330.79315 579.79315 329.45 581.45 329.45C583.1069 329.45 584.45 330.79315 584.45 332.45Z" fill-rule="nonzero"/><path fill="#000000" fill-opacity="0.0" clip-path="url(#id_0)" d="M383.4875 168.80556C383.4875 170.4624 382.14435 171.80556 380.4875 171.80556C378.83066 171.80556 377.4875 170.4624 377.4875 168.80556C377.4875 167.1487 378.83066 165.80556 380.4875 165.80556C382.14435 165.80556 383.4875 167.1487 383.4875 168.80556Z" fill-rule="nonzero"/><path fill="#000000" fill-opacity="0.0" clip-path="url(#id_0)" d="M450.475 145.42778C450.475 147.08463 449.13187 148.42778 447.475 148.42778C445.81815 148.42778 444.475 147.08463 444.475 145.42778C444.475 143.77092 445.81815 142.42778 447.475 142.42778C449.13187 142.42778 450.475 143.77092 450.475 145.42778Z" fill-rule="nonzero"/><path fill="#000000" fill-opacity="0.0" clip-path="url(#id_0)" d="M517.4625 145.42778C517.4625 147.08463 516.1194 148.42778 514.4625 148.42778C512.80566 148.42778 511.4625 147.08463 511.4625 145.42778C511.4625 143.77092 512.80566 142.42778 514.4625 142.42778C516.1194 142.42778 517.4625 143.77092 517.4625 145.42778Z" fill-rule="nonzero"/><path fill="#000000" fill-opacity="0.0" clip-path="url(#id_0)" d="M584.45 122.05C584.45 123.706856 583.1069 125.05 581.45 125.05C579.79315 125.05 578.45 123.706856 578.45 122.05C578.45 120.39314 579.79315 119.05 581.45 119.05C583.1069 119.05 584.45 120.39314 584.45 122.05Z" fill-rule="nonzero"/><path fill="#000000" fill-opacity="0.0" clip-path="url(#id_0)" d="M48.55 309.07224C48.55 310.72906 47.206856 312.07224 45.55 312.07224C43.893147 312.07224 42.55 310.72906 42.55 309.07224C42.55 307.41537 43.893147 306.07224 45.55 306.07224C47.206856 306.07224 48.55 307.41537 48.55 309.07224Z" fill-rule="nonzero"/><path fill="#000000" fill-opacity="0.0" clip-path="url(#id_0)" d="M115.5375 309.07224C115.5375 310.72906 114.19435 312.07224 112.5375 312.07224C110.880646 312.07224 109.5375 310.72906 109.5375 309.07224C109.5375 307.41537 110.880646 306.07224 112.5375 306.07224C114.19435 306.07224 115.5375 307.41537 115.5375 309.07224Z" fill-rule="nonzero"/><path fill="#000000" fill-opacity="0.0" clip-path="url(#id_0)" d="M182.525 309.07224C182.525 310.72906 181.18185 312.07224 179.525 312.07224C177.86815 312.07224 176.525 310.72906 176.525 309.07224C176.525 307.41537 177.86815 306.07224 179.525 306.07224C181.18185 306.07224 182.525 307.41537 182.525 309.07224Z" fill-rule="nonzero"/><path fill="#000000" fill-opacity="0.0" clip-path="url(#id_0)" d="M249.5125 309.07224C249.5125 310.72906 248.16936 312.07224 246.5125 312.07224C244.85565 312.07224 243.5125 310.72906 243.5125 309.07224C243.5125 307.41537 244.85565 306.07224 246.5125 306.07224C248.16936 306.07224 249.5125 307.41537 249.5125 309.07224Z" fill-rule="nonzero"/><path fill="#000000" fill-opacity="0.0" clip-path="url(#id_0)" d="M316.5 309.07224C316.5 310.72906 315.15686 312.07224 313.5 312.07224C311.84314 312.07224 310.5 310.72906 310.5 309.07224C310.5 307.41537 311.84314 306.07224 313.5 306.07224C315.15686 306.07224 316.5 307.41537 316.5 309.07224Z" fill-rule="nonzero"/><path fill="#000000" fill-opacity="0.0" clip-path="url(#id_0)" d="M383.4875 309.07224C383.4875 310.72906 382.14435 312.07224 380.4875 312.07224C378.83066 312.07224 377.4875 310.72906 377.4875 309.07224C377.4875 307.41537 378.83066 306.07224 380.4875 306.07224C382.14435 306.07224 383.4875 307.41537 383.4875 309.07224Z" fill-rule="nonzero"/><path fill="#000000" fill-opacity="0.0" clip-path="url(#id_0)" d="M450.475 309.07224C450.475 310.72906 449.13187 312.07224 447.475 312.07224C445.81815 312.07224 444.475 310.72906 444.475 309.07224C444.475 307.41537 445.81815 306.07224 447.475 306.07224C449.13187 306.07224 450.475 307.41537 450.475 309.07224Z" fill-rule="nonzero"/><path fill="#000000" fill-opacity="0.0" clip-path="url(#id_0)" d="M517.4625 309.07224C517.4625 310.72906 516.1194 312.07224 514.4625 312.07224C512.80566 312.07224 511.4625 310.72906 511.4625 309.07224C511.4625 307.41537 512.80566 306.07224 514.4625 306.07224C516.1194 306.07224 517.4625 307.41537 517.4625 309.07224Z" fill-rule="nonzero"/><path fill="#000000" fill-opacity="0.0" clip-path="url(#id_0)" d="M584.45 285.69446C584.45 287.3513 583.1069 288.69446 581.45 288.69446C579.79315 288.69446 578.45 287.3513 578.45 285.69446C578.45 284.0376 579.79315 282.69446 581.45 282.69446C583.1069 282.69446 584.45 284.0376 584.45 285.69446Z" fill-rule="nonzero"/><path fill="#000000" d="M33.05 332.21564Q33.05 330.6844 33.3625 329.7625Q33.675 328.825 34.284374 328.325Q34.909374 327.825 35.846874 327.825Q36.534374 327.825 37.05 328.10626Q37.58125 328.3875 37.925 328.91876Q38.26875 329.4344 38.45625 330.1844Q38.64375 330.9344 38.64375 332.21564Q38.64375 333.73126 38.33125 334.65314Q38.034374 335.575 37.409374 336.09064Q36.8 336.59064 35.846874 336.59064Q34.6125 336.59064 33.89375 335.7Q33.05 334.6375 33.05 332.21564ZM34.128124 332.21564Q34.128124 334.325 34.628124 335.02814Q35.128124 335.73126 35.846874 335.73126Q36.58125 335.73126 37.065624 335.02814Q37.565624 334.325 37.565624 332.21564Q37.565624 330.09064 37.065624 329.40314Q36.58125 328.7 35.83125 328.7Q35.1125 328.7 34.675 329.3094Q34.128124 330.09064 34.128124 332.21564Z" fill-rule="nonzero"/><path fill="#000000" d="M38.596874 288.67883L38.596874 289.69446L32.909374 289.69446Q32.909374 289.31946 33.034374 288.96008Q33.253124 288.38196 33.721874 287.81946Q34.20625 287.25696 35.1125 286.52258Q36.51875 285.36633 37.003124 284.69446Q37.503124 284.02258 37.503124 283.42883Q37.503124 282.80383 37.05 282.38196Q36.596874 281.94446 35.878124 281.94446Q35.1125 281.94446 34.659374 282.39758Q34.20625 282.8507 34.190624 283.6632L33.1125 283.55383Q33.221874 282.33508 33.940624 281.71008Q34.675 281.06946 35.909374 281.06946Q37.14375 281.06946 37.8625 281.75696Q38.58125 282.44446 38.58125 283.46008Q38.58125 283.9757 38.3625 284.4757Q38.159374 284.96008 37.659374 285.52258Q37.175 286.06946 36.05 287.02258Q35.096874 287.81946 34.815624 288.11633Q34.55 288.39758 34.378124 288.67883L38.596874 288.67883Z" fill-rule="nonzero"/><path fill="#000000" d="M36.425 242.93889L36.425 240.87639L32.70625 240.87639L32.70625 239.90764L36.628124 234.34514L37.4875 234.34514L37.4875 239.90764L38.64375 239.90764L38.64375 240.87639L37.4875 240.87639L37.4875 242.93889L36.425 242.93889ZM36.425 239.90764L36.425 236.04826L33.7375 239.90764L36.425 239.90764Z" fill-rule="nonzero"/><path fill="#000000" d="M38.51875 189.69896L37.471874 189.77708Q37.33125 189.15208 37.08125 188.87083Q36.64375 188.41771 36.01875 188.41771Q35.51875 188.41771 35.128124 188.69896Q34.64375 189.07396 34.346874 189.77708Q34.065624 190.46458 34.05 191.74583Q34.425 191.16771 34.971874 190.88646Q35.534374 190.60521 36.14375 190.60521Q37.190624 190.60521 37.925 191.38646Q38.675 192.16771 38.675 193.38646Q38.675 194.19896 38.315624 194.90208Q37.971874 195.58958 37.3625 195.96458Q36.753124 196.32396 35.9875 196.32396Q34.659374 196.32396 33.83125 195.35521Q33.003124 194.38646 33.003124 192.16771Q33.003124 189.66771 33.925 188.54271Q34.721874 187.55833 36.08125 187.55833Q37.096874 187.55833 37.7375 188.13646Q38.39375 188.69896 38.51875 189.69896ZM34.221874 193.40208Q34.221874 193.94896 34.440624 194.44896Q34.675 194.93333 35.08125 195.19896Q35.503124 195.46458 35.971874 195.46458Q36.628124 195.46458 37.1125 194.93333Q37.596874 194.38646 37.596874 193.46458Q37.596874 192.57396 37.1125 192.05833Q36.64375 191.54271 35.925 191.54271Q35.20625 191.54271 34.70625 192.05833Q34.221874 192.57396 34.221874 193.40208Z" fill-rule="nonzero"/><path fill="#000000" d="M34.675 144.77153Q34.01875 144.52153 33.690624 144.08403Q33.378124 143.6309 33.378124 143.02153Q33.378124 142.08403 34.05 141.4434Q34.7375 140.80278 35.846874 140.80278Q36.971874 140.80278 37.659374 141.45903Q38.346874 142.11528 38.346874 143.05278Q38.346874 143.64653 38.034374 144.08403Q37.721874 144.52153 37.08125 144.77153Q37.878124 145.02153 38.284374 145.59966Q38.690624 146.17778 38.690624 146.97466Q38.690624 148.0684 37.909374 148.8184Q37.14375 149.5684 35.8625 149.5684Q34.596874 149.5684 33.815624 148.8184Q33.034374 148.0684 33.034374 146.9434Q33.034374 146.09966 33.45625 145.53716Q33.89375 144.97466 34.675 144.77153ZM34.45625 142.97466Q34.45625 143.58403 34.846874 143.97466Q35.253124 144.36528 35.878124 144.36528Q36.4875 144.36528 36.878124 143.99028Q37.26875 143.59966 37.26875 143.03716Q37.26875 142.45903 36.8625 142.0684Q36.45625 141.66216 35.8625 141.66216Q35.253124 141.66216 34.846874 142.05278Q34.45625 142.4434 34.45625 142.97466ZM34.128124 146.9434Q34.128124 147.39653 34.33125 147.8184Q34.55 148.24028 34.971874 148.47466Q35.39375 148.70903 35.878124 148.70903Q36.628124 148.70903 37.1125 148.22466Q37.6125 147.74028 37.6125 146.99028Q37.6125 146.22466 37.1125 145.72466Q36.6125 145.22466 35.846874 145.22466Q35.096874 145.22466 34.6125 145.72466Q34.128124 146.20903 34.128124 146.9434Z" fill-rule="nonzero"/><path fill="#000000" d="M30.01875 102.672226L28.971874 102.672226L28.971874 95.953476Q28.58125 96.31285 27.95625 96.68785Q27.346874 97.047226 26.8625 97.2191L26.8625 96.203476Q27.7375 95.7816 28.39375 95.203476Q29.065624 94.609726 29.346874 94.047226L30.01875 94.047226L30.01875 102.672226ZM33.05 98.43785Q33.05 96.9066 33.3625 95.984726Q33.675 95.047226 34.284374 94.547226Q34.909374 94.047226 35.846874 94.047226Q36.534374 94.047226 37.05 94.328476Q37.58125 94.609726 37.925 95.140976Q38.26875 95.6566 38.45625 96.4066Q38.64375 97.1566 38.64375 98.43785Q38.64375 99.953476 38.33125 100.87535Q38.034374 101.797226 37.409374 102.31285Q36.8 102.81285 35.846874 102.81285Q34.6125 102.81285 33.89375 101.922226Q33.05 100.859726 33.05 98.43785ZM34.128124 98.43785Q34.128124 100.547226 34.628124 101.25035Q35.128124 101.953476 35.846874 101.953476Q36.58125 101.953476 37.065624 101.25035Q37.565624 100.547226 37.565624 98.43785Q37.565624 96.31285 37.065624 95.62535Q36.58125 94.922226 35.83125 94.922226Q35.1125 94.922226 34.675 95.5316Q34.128124 96.31285 34.128124 98.43785Z" fill-rule="nonzero"/><path fill="#000000" d="M30.01875 55.916668L28.971874 55.916668L28.971874 49.197918Q28.58125 49.557293 27.95625 49.932293Q27.346874 50.291668 26.8625 50.463543L26.8625 49.447918Q27.7375 49.026043 28.39375 48.447918Q29.065624 47.854168 29.346874 47.291668L30.01875 47.291668L30.01875 55.916668ZM38.596874 54.901043L38.596874 55.916668L32.909374 55.916668Q32.909374 55.541668 33.034374 55.182293Q33.253124 54.604168 33.721874 54.041668Q34.20625 53.479168 35.1125 52.744793Q36.51875 51.588543 37.003124 50.916668Q37.503124 50.244793 37.503124 49.651043Q37.503124 49.026043 37.05 48.604168Q36.596874 48.166668 35.878124 48.166668Q35.1125 48.166668 34.659374 48.619793Q34.20625 49.072918 34.190624 49.885418L33.1125 49.776043Q33.221874 48.557293 33.940624 47.932293Q34.675 47.291668 35.909374 47.291668Q37.14375 47.291668 37.8625 47.979168Q38.58125 48.666668 38.58125 49.682293Q38.58125 50.197918 38.3625 50.697918Q38.159374 51.182293 37.659374 51.744793Q37.175 52.291668 36.05 53.244793Q35.096874 54.041668 34.815624 54.338543Q34.55 54.619793 34.378124 54.901043L38.596874 54.901043Z" fill-rule="nonzero"/><path fill="#000000" d="M43.01875 349.45L41.971874 349.45L41.971874 342.73126Q41.58125 343.09064 40.95625 343.46564Q40.346874 343.825 39.8625 343.9969L39.8625 342.98126Q40.7375 342.5594 41.39375 341.98126Q42.065624 341.3875 42.346874 340.825L43.01875 340.825L43.01875 349.45ZM47.675 344.79376Q47.01875 344.54376 46.690624 344.10626Q46.378124 343.65314 46.378124 343.04376Q46.378124 342.10626 47.05 341.46564Q47.7375 340.825 48.846874 340.825Q49.971874 340.825 50.659374 341.48126Q51.346874 342.1375 51.346874 343.075Q51.346874 343.66876 51.034374 344.10626Q50.721874 344.54376 50.08125 344.79376Q50.878124 345.04376 51.284374 345.6219Q51.690624 346.2 51.690624 346.9969Q51.690624 348.09064 50.909374 348.84064Q50.14375 349.59064 48.8625 349.59064Q47.596874 349.59064 46.815624 348.84064Q46.034374 348.09064 46.034374 346.96564Q46.034374 346.1219 46.45625 345.5594Q46.89375 344.9969 47.675 344.79376ZM47.45625 342.9969Q47.45625 343.60626 47.846874 343.9969Q48.253124 344.3875 48.878124 344.3875Q49.4875 344.3875 49.878124 344.0125Q50.26875 343.6219 50.26875 343.0594Q50.26875 342.48126 49.8625 342.09064Q49.45625 341.6844 48.8625 341.6844Q48.253124 341.6844 47.846874 342.075Q47.45625 342.46564 47.45625 342.9969ZM47.128124 346.96564Q47.128124 347.41876 47.33125 347.84064Q47.55 348.2625 47.971874 348.4969Q48.39375 348.73126 48.878124 348.73126Q49.628124 348.73126 50.1125 348.2469Q50.6125 347.7625 50.6125 347.0125Q50.6125 346.2469 50.1125 345.7469Q49.6125 345.2469 48.846874 345.2469Q48.096874 345.2469 47.6125 345.7469Q47.128124 346.23126 47.128124 346.96564Z" fill-rule="nonzero"/><path fill="#000000" d="M178.57187 348.4344L178.57187 349.45L172.88437 349.45Q172.88437 349.075 173.00937 348.71564Q173.22812 348.1375 173.69687 347.575Q174.18124 347.0125 175.0875 346.27814Q176.49374 345.1219 176.97812 344.45Q177.47812 343.77814 177.47812 343.1844Q177.47812 342.5594 177.025 342.1375Q176.57187 341.7 175.85312 341.7Q175.0875 341.7 174.63437 342.15314Q174.18124 342.60626 174.16562 343.41876L173.0875 343.3094Q173.19687 342.09064 173.91562 341.46564Q174.65 340.825 175.88437 340.825Q177.11874 340.825 177.8375 341.5125Q178.55624 342.2 178.55624 343.21564Q178.55624 343.73126 178.3375 344.23126Q178.13437 344.71564 177.63437 345.27814Q177.15 345.825 176.025 346.77814Q175.07187 347.575 174.79062 347.8719Q174.525 348.15314 174.35312 348.4344L178.57187 348.4344ZM180.025 345.21564Q180.025 343.6844 180.3375 342.7625Q180.65 341.825 181.25937 341.325Q181.88437 340.825 182.82187 340.825Q183.50937 340.825 184.025 341.10626Q184.55624 341.3875 184.9 341.91876Q185.24374 342.4344 185.43124 343.1844Q185.61874 343.9344 185.61874 345.21564Q185.61874 346.73126 185.30624 347.65314Q185.00937 348.575 184.38437 349.09064Q183.775 349.59064 182.82187 349.59064Q181.5875 349.59064 180.86874 348.7Q180.025 347.6375 180.025 345.21564ZM181.10312 345.21564Q181.10312 347.325 181.60312 348.02814Q182.10312 348.73126 182.82187 348.73126Q183.55624 348.73126 184.04062 348.02814Q184.54062 347.325 184.54062 345.21564Q184.54062 343.09064 184.04062 342.40314Q183.55624 341.7 182.80624 341.7Q182.0875 341.7 181.65 342.3094Q181.10312 343.09064 181.10312 345.21564Z" fill-rule="nonzero"/><path fill="#000000" d="M312.54688 348.4344L312.54688 349.45L306.85938 349.45Q306.85938 349.075 306.98438 348.71564Q307.20312 348.1375 307.67188 347.575Q308.15625 347.0125 309.0625 346.27814Q310.46875 345.1219 310.95312 344.45Q311.45312 343.77814 311.45312 343.1844Q311.45312 342.5594 311.0 342.1375Q310.54688 341.7 309.82812 341.7Q309.0625 341.7 308.60938 342.15314Q308.15625 342.60626 308.14062 343.41876L307.0625 343.3094Q307.17188 342.09064 307.89062 341.46564Q308.625 340.825 309.85938 340.825Q311.09375 340.825 311.8125 341.5125Q312.53125 342.2 312.53125 343.21564Q312.53125 343.73126 312.3125 344.23126Q312.10938 344.71564 311.60938 345.27814Q311.125 345.825 310.0 346.77814Q309.04688 347.575 308.76562 347.8719Q308.5 348.15314 308.32812 348.4344L312.54688 348.4344ZM319.54688 348.4344L319.54688 349.45L313.85938 349.45Q313.85938 349.075 313.98438 348.71564Q314.20312 348.1375 314.67188 347.575Q315.15625 347.0125 316.0625 346.27814Q317.46875 345.1219 317.95312 344.45Q318.45312 343.77814 318.45312 343.1844Q318.45312 342.5594 318.0 342.1375Q317.54688 341.7 316.82812 341.7Q316.0625 341.7 315.60938 342.15314Q315.15625 342.60626 315.14062 343.41876L314.0625 343.3094Q314.17188 342.09064 314.89062 341.46564Q315.625 340.825 316.85938 340.825Q318.09375 340.825 318.8125 341.5125Q319.53125 342.2 319.53125 343.21564Q319.53125 343.73126 319.3125 344.23126Q319.10938 344.71564 318.60938 345.27814Q318.125 345.825 317.0 346.77814Q316.04688 347.575 315.76562 347.8719Q315.5 348.15314 315.32812 348.4344L319.54688 348.4344Z" fill-rule="nonzero"/><path fill="#000000" d="M446.52188 348.4344L446.52188 349.45L440.83438 349.45Q440.83438 349.075 440.95938 348.71564Q441.17813 348.1375 441.64688 347.575Q442.13126 347.0125 443.0375 346.27814Q444.44376 345.1219 444.92813 344.45Q445.42813 343.77814 445.42813 343.1844Q445.42813 342.5594 444.975 342.1375Q444.52188 341.7 443.80313 341.7Q443.0375 341.7 442.58438 342.15314Q442.13126 342.60626 442.11563 343.41876L441.0375 343.3094Q441.14688 342.09064 441.86563 341.46564Q442.6 340.825 443.83438 340.825Q445.06876 340.825 445.7875 341.5125Q446.50626 342.2 446.50626 343.21564Q446.50626 343.73126 446.2875 344.23126Q446.08438 344.71564 445.58438 345.27814Q445.1 345.825 443.975 346.77814Q443.02188 347.575 442.74063 347.8719Q442.475 348.15314 442.30313 348.4344L446.52188 348.4344ZM451.35 349.45L451.35 347.3875L447.63126 347.3875L447.63126 346.41876L451.55313 340.85626L452.4125 340.85626L452.4125 346.41876L453.56876 346.41876L453.56876 347.3875L452.4125 347.3875L452.4125 349.45L451.35 349.45ZM451.35 346.41876L451.35 342.5594L448.6625 346.41876L451.35 346.41876Z" fill-rule="nonzero"/><path fill="#000000" d="M580.4969 348.4344L580.4969 349.45L574.8094 349.45Q574.8094 349.075 574.9344 348.71564Q575.15314 348.1375 575.6219 347.575Q576.10626 347.0125 577.0125 346.27814Q578.41876 345.1219 578.90314 344.45Q579.40314 343.77814 579.40314 343.1844Q579.40314 342.5594 578.95 342.1375Q578.4969 341.7 577.77814 341.7Q577.0125 341.7 576.5594 342.15314Q576.10626 342.60626 576.09064 343.41876L575.0125 343.3094Q575.1219 342.09064 575.84064 341.46564Q576.575 340.825 577.8094 340.825Q579.04376 340.825 579.7625 341.5125Q580.48126 342.2 580.48126 343.21564Q580.48126 343.73126 580.2625 344.23126Q580.0594 344.71564 579.5594 345.27814Q579.075 345.825 577.95 346.77814Q576.9969 347.575 576.71564 347.8719Q576.45 348.15314 576.27814 348.4344L580.4969 348.4344ZM587.41876 342.96564L586.3719 343.04376Q586.23126 342.41876 585.98126 342.1375Q585.54376 341.6844 584.91876 341.6844Q584.41876 341.6844 584.02814 341.96564Q583.54376 342.34064 583.2469 343.04376Q582.96564 343.73126 582.95 345.0125Q583.325 344.4344 583.8719 344.15314Q584.4344 343.8719 585.04376 343.8719Q586.09064 343.8719 586.825 344.65314Q587.575 345.4344 587.575 346.65314Q587.575 347.46564 587.21564 348.16876Q586.8719 348.85626 586.2625 349.23126Q585.65314 349.59064 584.8875 349.59064Q583.5594 349.59064 582.73126 348.6219Q581.90314 347.65314 581.90314 345.4344Q581.90314 342.9344 582.825 341.8094Q583.6219 340.825 584.98126 340.825Q585.9969 340.825 586.6375 341.40314Q587.29376 341.96564 587.41876 342.96564ZM583.1219 346.66876Q583.1219 347.21564 583.34064 347.71564Q583.575 348.2 583.98126 348.46564Q584.40314 348.73126 584.8719 348.73126Q585.52814 348.73126 586.0125 348.2Q586.4969 347.65314 586.4969 346.73126Q586.4969 345.84064 586.0125 345.325Q585.54376 344.8094 584.825 344.8094Q584.10626 344.8094 583.60626 345.325Q583.1219 345.84064 583.1219 346.66876Z" fill-rule="nonzero"/><path stroke="#4285f4" stroke-width="4.0" stroke-linecap="butt" d="M65.0 25.55L77.0 25.55" fill-rule="nonzero"/><path fill="#1a1a1a" d="M86.125 29.55L86.125 20.95625L87.25 20.95625L87.25 29.55L86.125 29.55ZM88.796875 29.55L88.796875 23.33125L89.734375 23.33125L89.734375 24.20625Q90.421875 23.190624 91.71875 23.190624Q92.28125 23.190624 92.75 23.39375Q93.234375 23.596874 93.46875 23.925Q93.703125 24.253124 93.796875 24.690624Q93.84375 24.9875 93.84375 25.721874L93.84375 29.55L92.796875 29.55L92.796875 25.76875Q92.796875 25.1125 92.671875 24.8Q92.546875 24.4875 92.234375 24.3Q91.921875 24.096874 91.5 24.096874Q90.828125 24.096874 90.328125 24.534374Q89.84375 24.95625 89.84375 26.14375L89.84375 29.55L88.796875 29.55ZM97.515625 29.55L95.15625 23.33125L96.265625 23.33125L97.609375 27.05Q97.8125 27.659374 98.0 28.3Q98.140625 27.815624 98.390625 27.128124L99.78125 23.33125L100.859375 23.33125L98.5 29.55L97.515625 29.55ZM106.046875 27.55L107.140625 27.675Q106.890625 28.628124 106.1875 29.159374Q105.484375 29.690624 104.40625 29.690624Q103.046875 29.690624 102.234375 28.846874Q101.4375 28.003124 101.4375 26.4875Q101.4375 24.925 102.25 24.065624Q103.0625 23.190624 104.34375 23.190624Q105.59375 23.190624 106.375 24.034374Q107.171875 24.878124 107.171875 26.425Q107.171875 26.51875 107.171875 26.70625L102.53125 26.70625Q102.59375 27.7375 103.109375 28.284374Q103.625 28.815624 104.40625 28.815624Q104.984375 28.815624 105.390625 28.51875Q105.8125 28.20625 106.046875 27.55ZM102.59375 25.846874L106.0625 25.846874Q106.0 25.05 105.671875 24.659374Q105.15625 24.05 104.359375 24.05Q103.625 24.05 103.125 24.534374Q102.640625 25.01875 102.59375 25.846874ZM108.375 27.690624L109.40625 27.534374Q109.5 28.159374 109.890625 28.4875Q110.296875 28.815624 111.03125 28.815624Q111.75 28.815624 112.09375 28.534374Q112.453125 28.2375 112.453125 27.83125Q112.453125 27.471874 112.140625 27.26875Q111.921875 27.128124 111.0625 26.909374Q109.90625 26.6125 109.453125 26.409374Q109.015625 26.190624 108.78125 25.815624Q108.546875 25.440624 108.546875 24.971874Q108.546875 24.565624 108.734375 24.20625Q108.921875 23.846874 109.25 23.6125Q109.5 23.440624 109.921875 23.315624Q110.34375 23.190624 110.84375 23.190624Q111.5625 23.190624 112.109375 23.409374Q112.671875 23.6125 112.9375 23.971874Q113.203125 24.33125 113.296875 24.925L112.265625 25.065624Q112.203125 24.596874 111.859375 24.33125Q111.53125 24.05 110.90625 24.05Q110.1875 24.05 109.875 24.3Q109.5625 24.534374 109.5625 24.8625Q109.5625 25.065624 109.6875 25.221874Q109.828125 25.39375 110.09375 25.503124Q110.25 25.565624 111.03125 25.76875Q112.15625 26.08125 112.59375 26.26875Q113.03125 26.45625 113.28125 26.815624Q113.53125 27.175 113.53125 27.721874Q113.53125 28.253124 113.21875 28.721874Q112.921875 29.175 112.34375 29.440624Q111.765625 29.690624 111.03125 29.690624Q109.8125 29.690624 109.171875 29.190624Q108.546875 28.675 108.375 27.690624ZM117.09375 28.6125L117.25 29.534374Q116.796875 29.628124 116.453125 29.628124Q115.875 29.628124 115.5625 29.45625Q115.25 29.26875 115.109375 28.971874Q114.984375 28.675 114.984375 27.721874L114.984375 24.14375L114.21875 24.14375L114.21875 23.33125L114.984375 23.33125L114.984375 21.784374L116.03125 21.159374L116.03125 23.33125L117.09375 23.33125L117.09375 24.14375L116.03125 24.14375L116.03125 27.784374Q116.03125 28.2375 116.078125 28.3625Q116.140625 28.4875 116.265625 28.565624Q116.390625 28.64375 116.625 28.64375Q116.8125 28.64375 117.09375 28.6125ZM117.796875 22.175L117.796875 20.95625L118.859375 20.95625L118.859375 22.175L117.796875 22.175ZM117.796875 29.55L117.796875 23.33125L118.859375 23.33125L118.859375 29.55L117.796875 29.55ZM120.59375 30.065624L121.625 30.221874Q121.6875 30.690624 121.984375 30.909374Q122.375 31.20625 123.046875 31.20625Q123.78125 31.20625 124.171875 30.909374Q124.578125 30.6125 124.71875 30.096874Q124.8125 29.76875 124.796875 28.7375Q124.109375 29.55 123.078125 29.55Q121.796875 29.55 121.09375 28.628124Q120.390625 27.690624 120.390625 26.409374Q120.390625 25.51875 120.703125 24.76875Q121.03125 24.003124 121.640625 23.596874Q122.25 23.190624 123.078125 23.190624Q124.1875 23.190624 124.90625 24.08125L124.90625 23.33125L125.875 23.33125L125.875 28.70625Q125.875 30.159374 125.578125 30.76875Q125.28125 31.378124 124.640625 31.721874Q124.0 32.08125 123.0625 32.08125Q121.953125 32.08125 121.265625 31.58125Q120.578125 31.08125 120.59375 30.065624ZM121.46875 26.33125Q121.46875 27.55 121.953125 28.1125Q122.4375 28.675 123.171875 28.675Q123.90625 28.675 124.390625 28.1125Q124.890625 27.55 124.890625 26.3625Q124.890625 25.221874 124.375 24.64375Q123.875 24.065624 123.15625 24.065624Q122.453125 24.065624 121.953125 24.64375Q121.46875 25.20625 121.46875 26.33125ZM131.85938 28.784374Q131.26562 29.284374 130.71875 29.4875Q130.1875 29.690624 129.5625 29.690624Q128.53125 29.690624 127.984375 29.190624Q127.4375 28.690624 127.4375 27.909374Q127.4375 27.45625 127.640625 27.08125Q127.84375 26.690624 128.1875 26.471874Q128.53125 26.2375 128.95312 26.128124Q129.25 26.034374 129.89062 25.95625Q131.15625 25.815624 131.76562 25.596874Q131.76562 25.378124 131.76562 25.33125Q131.76562 24.675 131.46875 24.409374Q131.0625 24.065624 130.26562 24.065624Q129.53125 24.065624 129.17188 24.33125Q128.8125 24.58125 128.64062 25.2375L127.609375 25.096874Q127.75 24.440624 128.07812 24.034374Q128.40625 23.628124 129.01562 23.409374Q129.625 23.190624 130.42188 23.190624Q131.21875 23.190624 131.71875 23.378124Q132.21875 23.565624 132.45312 23.846874Q132.6875 24.128124 132.78125 24.565624Q132.82812 24.83125 132.82812 25.534374L132.82812 26.940624Q132.82812 28.409374 132.89062 28.8Q132.96875 29.190624 133.17188 29.55L132.0625 29.55Q131.90625 29.221874 131.85938 28.784374ZM131.76562 26.425Q131.1875 26.659374 130.04688 26.83125Q129.39062 26.925 129.125 27.05Q128.85938 27.159374 128.70312 27.378124Q128.5625 27.596874 128.5625 27.878124Q128.5625 28.3 128.875 28.58125Q129.20312 28.8625 129.8125 28.8625Q130.42188 28.8625 130.89062 28.596874Q131.375 28.33125 131.59375 27.8625Q131.76562 27.503124 131.76562 26.815624L131.76562 26.425ZM138.85938 27.26875L139.89062 27.409374Q139.71875 28.471874 139.01562 29.08125Q138.3125 29.690624 137.29688 29.690624Q136.01562 29.690624 135.23438 28.8625Q134.46875 28.01875 134.46875 26.45625Q134.46875 25.45625 134.79688 24.70625Q135.14062 23.940624 135.8125 23.565624Q136.5 23.190624 137.3125 23.190624Q138.3125 23.190624 138.95312 23.70625Q139.60938 24.20625 139.79688 25.159374L138.76562 25.315624Q138.625 24.690624 138.25 24.378124Q137.875 24.05 137.34375 24.05Q136.54688 24.05 136.04688 24.628124Q135.54688 25.190624 135.54688 26.425Q135.54688 27.690624 136.03125 28.253124Q136.51562 28.815624 137.28125 28.815624Q137.90625 28.815624 138.3125 28.440624Q138.73438 28.065624 138.85938 27.26875ZM136.26562 30.45625L136.57812 29.409374L137.35938 29.409374L137.15625 30.05Q137.65625 30.096874 137.90625 30.346874Q138.17188 30.596874 138.17188 30.909374Q138.17188 31.346874 137.75 31.675Q137.32812 32.01875 136.46875 32.01875Q135.98438 32.01875 135.625 31.940624L135.6875 31.26875Q136.0625 31.284374 136.25 31.284374Q136.79688 31.284374 137.01562 31.128124Q137.1875 31.01875 137.1875 30.846874Q137.1875 30.7375 137.10938 30.659374Q137.04688 30.58125 136.85938 30.51875Q136.6875 30.45625 136.26562 30.45625ZM144.85938 28.784374Q144.26562 29.284374 143.71875 29.4875Q143.1875 29.690624 142.5625 29.690624Q141.53125 29.690624 140.98438 29.190624Q140.4375 28.690624 140.4375 27.909374Q140.4375 27.45625 140.64062 27.08125Q140.84375 26.690624 141.1875 26.471874Q141.53125 26.2375 141.95312 26.128124Q142.25 26.034374 142.89062 25.95625Q144.15625 25.815624 144.76562 25.596874Q144.76562 25.378124 144.76562 25.33125Q144.76562 24.675 144.46875 24.409374Q144.0625 24.065624 143.26562 24.065624Q142.53125 24.065624 142.17188 24.33125Q141.8125 24.58125 141.64062 25.2375L140.60938 25.096874Q140.75 24.440624 141.07812 24.034374Q141.40625 23.628124 142.01562 23.409374Q142.625 23.190624 143.42188 23.190624Q144.21875 23.190624 144.71875 23.378124Q145.21875 23.565624 145.45312 23.846874Q145.6875 24.128124 145.78125 24.565624Q145.82812 24.83125 145.82812 25.534374L145.82812 26.940624Q145.82812 28.409374 145.89062 28.8Q145.96875 29.190624 146.17188 29.55L145.0625 29.55Q144.90625 29.221874 144.85938 28.784374ZM144.76562 26.425Q144.1875 26.659374 143.04688 26.83125Q142.39062 26.925 142.125 27.05Q141.85938 27.159374 141.70312 27.378124Q141.5625 27.596874 141.5625 27.878124Q141.5625 28.3 141.875 28.58125Q142.20312 28.8625 142.8125 28.8625Q143.42188 28.8625 143.89062 28.596874Q144.375 28.33125 144.59375 27.8625Q144.76562 27.503124 144.76562 26.815624L144.76562 26.425ZM141.04688 22.409374Q141.03125 21.8 141.375 21.440624Q141.70312 21.065624 142.23438 21.065624Q142.59375 21.065624 143.21875 21.39375Q143.5625 21.565624 143.76562 21.565624Q143.95312 21.565624 144.04688 21.471874Q144.15625 21.3625 144.20312 21.05L144.96875 21.05Q144.9375 21.721874 144.625 22.065624Q144.3125 22.39375 143.8125 22.39375Q143.4375 22.39375 142.84375 22.065624Q142.45312 21.846874 142.26562 21.846874Q142.0625 21.846874 141.9375 21.9875Q141.8125 22.128124 141.82812 22.409374L141.04688 22.409374ZM147.40625 26.440624Q147.40625 24.70625 148.35938 23.878124Q149.15625 23.190624 150.3125 23.190624Q151.59375 23.190624 152.40625 24.034374Q153.23438 24.8625 153.23438 26.346874Q153.23438 27.55 152.875 28.2375Q152.51562 28.925 151.8125 29.315624Q151.125 29.690624 150.3125 29.690624Q149.01562 29.690624 148.20312 28.8625Q147.40625 28.01875 147.40625 26.440624ZM148.48438 26.440624Q148.48438 27.628124 149.0 28.221874Q149.53125 28.815624 150.3125 28.815624Q151.10938 28.815624 151.625 28.221874Q152.14062 27.628124 152.14062 26.409374Q152.14062 25.253124 151.60938 24.659374Q151.09375 24.065624 150.3125 24.065624Q149.53125 24.065624 149.0 24.659374Q148.48438 25.2375 148.48438 26.440624Z" fill-rule="nonzero"/><path stroke="#ea4335" stroke-width="4.0" stroke-linecap="butt" d="M170.0 25.55L182.0 25.55" fill-rule="nonzero"/><path fill="#1a1a1a" d="M190.92188 29.55L190.92188 20.95625L192.07812 20.95625L196.59375 27.70625L196.59375 20.95625L197.6875 20.95625L197.6875 29.55L196.51562 29.55L192.0 22.8L192.0 29.55L190.92188 29.55ZM199.40625 26.440624Q199.40625 24.70625 200.35938 23.878124Q201.15625 23.190624 202.3125 23.190624Q203.59375 23.190624 204.40625 24.034374Q205.23438 24.8625 205.23438 26.346874Q205.23438 27.55 204.875 28.2375Q204.51562 28.925 203.8125 29.315624Q203.125 29.690624 202.3125 29.690624Q201.01562 29.690624 200.20312 28.8625Q199.40625 28.01875 199.40625 26.440624ZM200.48438 26.440624Q200.48438 27.628124 201.0 28.221874Q201.53125 28.815624 202.3125 28.815624Q203.10938 28.815624 203.625 28.221874Q204.14062 27.628124 204.14062 26.409374Q204.14062 25.253124 203.60938 24.659374Q203.09375 24.065624 202.3125 24.065624Q201.53125 24.065624 201.0 24.659374Q200.48438 25.2375 200.48438 26.440624ZM209.09375 28.6125L209.25 29.534374Q208.79688 29.628124 208.45312 29.628124Q207.875 29.628124 207.5625 29.45625Q207.25 29.26875 207.10938 28.971874Q206.98438 28.675 206.98438 27.721874L206.98438 24.14375L206.21875 24.14375L206.21875 23.33125L206.98438 23.33125L206.98438 21.784374L208.03125 21.159374L208.03125 23.33125L209.09375 23.33125L209.09375 24.14375L208.03125 24.14375L208.03125 27.784374Q208.03125 28.2375 208.07812 28.3625Q208.14062 28.4875 208.26562 28.565624Q208.39062 28.64375 208.625 28.64375Q208.8125 28.64375 209.09375 28.6125ZM209.79688 22.175L209.79688 20.95625L210.85938 20.95625L210.85938 22.175L209.79688 22.175ZM209.79688 29.55L209.79688 23.33125L210.85938 23.33125L210.85938 29.55L209.79688 29.55ZM213.04688 29.55L213.04688 24.14375L212.10938 24.14375L212.10938 23.33125L213.04688 23.33125L213.04688 22.659374Q213.04688 22.034374 213.15625 21.7375Q213.3125 21.315624 213.6875 21.065624Q214.07812 20.815624 214.76562 20.815624Q215.21875 20.815624 215.75 20.925L215.59375 21.83125Q215.26562 21.784374 214.96875 21.784374Q214.48438 21.784374 214.28125 21.9875Q214.09375 22.190624 214.09375 22.753124L214.09375 23.33125L215.3125 23.33125L215.3125 24.14375L214.09375 24.14375L214.09375 29.55L213.04688 29.55ZM215.79688 22.175L215.79688 20.95625L216.85938 20.95625L216.85938 22.175L215.79688 22.175ZM215.79688 29.55L215.79688 23.33125L216.85938 23.33125L216.85938 29.55L215.79688 29.55ZM222.85938 27.26875L223.89062 27.409374Q223.71875 28.471874 223.01562 29.08125Q222.3125 29.690624 221.29688 29.690624Q220.01562 29.690624 219.23438 28.8625Q218.46875 28.01875 218.46875 26.45625Q218.46875 25.45625 218.79688 24.70625Q219.14062 23.940624 219.8125 23.565624Q220.5 23.190624 221.3125 23.190624Q222.3125 23.190624 222.95312 23.70625Q223.60938 24.20625 223.79688 25.159374L222.76562 25.315624Q222.625 24.690624 222.25 24.378124Q221.875 24.05 221.34375 24.05Q220.54688 24.05 220.04688 24.628124Q219.54688 25.190624 219.54688 26.425Q219.54688 27.690624 220.03125 28.253124Q220.51562 28.815624 221.28125 28.815624Q221.90625 28.815624 222.3125 28.440624Q222.73438 28.065624 222.85938 27.26875ZM228.85938 28.784374Q228.26562 29.284374 227.71875 29.4875Q227.1875 29.690624 226.5625 29.690624Q225.53125 29.690624 224.98438 29.190624Q224.4375 28.690624 224.4375 27.909374Q224.4375 27.45625 224.64062 27.08125Q224.84375 26.690624 225.1875 26.471874Q225.53125 26.2375 225.95312 26.128124Q226.25 26.034374 226.89062 25.95625Q228.15625 25.815624 228.76562 25.596874Q228.76562 25.378124 228.76562 25.33125Q228.76562 24.675 228.46875 24.409374Q228.0625 24.065624 227.26562 24.065624Q226.53125 24.065624 226.17188 24.33125Q225.8125 24.58125 225.64062 25.2375L224.60938 25.096874Q224.75 24.440624 225.07812 24.034374Q225.40625 23.628124 226.01562 23.409374Q226.625 23.190624 227.42188 23.190624Q228.21875 23.190624 228.71875 23.378124Q229.21875 23.565624 229.45312 23.846874Q229.6875 24.128124 229.78125 24.565624Q229.82812 24.83125 229.82812 25.534374L229.82812 26.940624Q229.82812 28.409374 229.89062 28.8Q229.96875 29.190624 230.17188 29.55L229.0625 29.55Q228.90625 29.221874 228.85938 28.784374ZM228.76562 26.425Q228.1875 26.659374 227.04688 26.83125Q226.39062 26.925 226.125 27.05Q225.85938 27.159374 225.70312 27.378124Q225.5625 27.596874 225.5625 27.878124Q225.5625 28.3 225.875 28.58125Q226.20312 28.8625 226.8125 28.8625Q227.42188 28.8625 227.89062 28.596874Q228.375 28.33125 228.59375 27.8625Q228.76562 27.503124 228.76562 26.815624L228.76562 26.425ZM235.82812 29.55L235.82812 28.76875Q235.23438 29.690624 234.09375 29.690624Q233.34375 29.690624 232.71875 29.284374Q232.09375 28.8625 231.75 28.128124Q231.40625 27.39375 231.40625 26.440624Q231.40625 25.51875 231.71875 24.753124Q232.03125 23.9875 232.65625 23.596874Q233.28125 23.190624 234.04688 23.190624Q234.60938 23.190624 235.04688 23.425Q235.48438 23.659374 235.76562 24.034374L235.76562 20.95625L236.8125 20.95625L236.8125 29.55L235.82812 29.55ZM232.5 26.440624Q232.5 27.64375 233.0 28.2375Q233.5 28.815624 234.1875 28.815624Q234.875 28.815624 235.35938 28.253124Q235.84375 27.690624 235.84375 26.534374Q235.84375 25.253124 235.34375 24.659374Q234.85938 24.065624 234.14062 24.065624Q233.4375 24.065624 232.96875 24.64375Q232.5 25.20625 232.5 26.440624ZM238.40625 26.440624Q238.40625 24.70625 239.35938 23.878124Q240.15625 23.190624 241.3125 23.190624Q242.59375 23.190624 243.40625 24.034374Q244.23438 24.8625 244.23438 26.346874Q244.23438 27.55 243.875 28.2375Q243.51562 28.925 242.8125 29.315624Q242.125 29.690624 241.3125 29.690624Q240.01562 29.690624 239.20312 28.8625Q238.40625 28.01875 238.40625 26.440624ZM239.48438 26.440624Q239.48438 27.628124 240.0 28.221874Q240.53125 28.815624 241.3125 28.815624Q242.10938 28.815624 242.625 28.221874Q243.14062 27.628124 243.14062 26.409374Q243.14062 25.253124 242.60938 24.659374Q242.09375 24.065624 241.3125 24.065624Q240.53125 24.065624 240.0 24.659374Q239.48438 25.2375 239.48438 26.440624Z" fill-rule="nonzero"/><path stroke="#fbbc04" stroke-width="4.0" stroke-linecap="butt" d="M261.0 25.55L273.0 25.55" fill-rule="nonzero"/><path fill="#1a1a1a" d="M282.125 29.55L282.125 20.95625L283.25 20.95625L283.25 29.55L282.125 29.55ZM284.79688 29.55L284.79688 23.33125L285.73438 23.33125L285.73438 24.20625Q286.42188 23.190624 287.71875 23.190624Q288.28125 23.190624 288.75 23.39375Q289.23438 23.596874 289.46875 23.925Q289.70312 24.253124 289.79688 24.690624Q289.84375 24.9875 289.84375 25.721874L289.84375 29.55L288.79688 29.55L288.79688 25.76875Q288.79688 25.1125 288.67188 24.8Q288.54688 24.4875 288.23438 24.3Q287.92188 24.096874 287.5 24.096874Q286.82812 24.096874 286.32812 24.534374Q285.84375 24.95625 285.84375 26.14375L285.84375 29.55L284.79688 29.55ZM294.09375 28.6125L294.25 29.534374Q293.79688 29.628124 293.45312 29.628124Q292.875 29.628124 292.5625 29.45625Q292.25 29.26875 292.10938 28.971874Q291.98438 28.675 291.98438 27.721874L291.98438 24.14375L291.21875 24.14375L291.21875 23.33125L291.98438 23.33125L291.98438 21.784374L293.03125 21.159374L293.03125 23.33125L294.09375 23.33125L294.09375 24.14375L293.03125 24.14375L293.03125 27.784374Q293.03125 28.2375 293.07812 28.3625Q293.14062 28.4875 293.26562 28.565624Q293.39062 28.64375 293.625 28.64375Q293.8125 28.64375 294.09375 28.6125ZM299.04688 27.55L300.14062 27.675Q299.89062 28.628124 299.1875 29.159374Q298.48438 29.690624 297.40625 29.690624Q296.04688 29.690624 295.23438 28.846874Q294.4375 28.003124 294.4375 26.4875Q294.4375 24.925 295.25 24.065624Q296.0625 23.190624 297.34375 23.190624Q298.59375 23.190624 299.375 24.034374Q300.17188 24.878124 300.17188 26.425Q300.17188 26.51875 300.17188 26.70625L295.53125 26.70625Q295.59375 27.7375 296.10938 28.284374Q296.625 28.815624 297.40625 28.815624Q297.98438 28.815624 298.39062 28.51875Q298.8125 28.20625 299.04688 27.55ZM295.59375 25.846874L299.0625 25.846874Q299.0 25.05 298.67188 24.659374Q298.15625 24.05 297.35938 24.05Q296.625 24.05 296.125 24.534374Q295.64062 25.01875 295.59375 25.846874ZM301.78125 29.55L301.78125 23.33125L302.73438 23.33125L302.73438 24.26875Q303.09375 23.6125 303.39062 23.409374Q303.70312 23.190624 304.07812 23.190624Q304.60938 23.190624 305.15625 23.51875L304.79688 24.503124Q304.40625 24.26875 304.03125 24.26875Q303.67188 24.26875 303.39062 24.4875Q303.125 24.690624 303.01562 25.065624Q302.82812 25.628124 302.82812 26.284374L302.82812 29.55L301.78125 29.55ZM305.79688 29.55L305.79688 23.33125L306.73438 23.33125L306.73438 24.20625Q307.42188 23.190624 308.71875 23.190624Q309.28125 23.190624 309.75 23.39375Q310.23438 23.596874 310.46875 23.925Q310.70312 24.253124 310.79688 24.690624Q310.84375 24.9875 310.84375 25.721874L310.84375 29.55L309.79688 29.55L309.79688 25.76875Q309.79688 25.1125 309.67188 24.8Q309.54688 24.4875 309.23438 24.3Q308.92188 24.096874 308.5 24.096874Q307.82812 24.096874 307.32812 24.534374Q306.84375 24.95625 306.84375 26.14375L306.84375 29.55L305.79688 29.55ZM316.85938 28.784374Q316.26562 29.284374 315.71875 29.4875Q315.1875 29.690624 314.5625 29.690624Q313.53125 29.690624 312.98438 29.190624Q312.4375 28.690624 312.4375 27.909374Q312.4375 27.45625 312.64062 27.08125Q312.84375 26.690624 313.1875 26.471874Q313.53125 26.2375 313.95312 26.128124Q314.25 26.034374 314.89062 25.95625Q316.15625 25.815624 316.76562 25.596874Q316.76562 25.378124 316.76562 25.33125Q316.76562 24.675 316.46875 24.409374Q316.0625 24.065624 315.26562 24.065624Q314.53125 24.065624 314.17188 24.33125Q313.8125 24.58125 313.64062 25.2375L312.60938 25.096874Q312.75 24.440624 313.07812 24.034374Q313.40625 23.628124 314.01562 23.409374Q314.625 23.190624 315.42188 23.190624Q316.21875 23.190624 316.71875 23.378124Q317.21875 23.565624 317.45312 23.846874Q317.6875 24.128124 317.78125 24.565624Q317.82812 24.83125 317.82812 25.534374L317.82812 26.940624Q317.82812 28.409374 317.89062 28.8Q317.96875 29.190624 318.17188 29.55L317.0625 29.55Q316.90625 29.221874 316.85938 28.784374ZM316.76562 26.425Q316.1875 26.659374 315.04688 26.83125Q314.39062 26.925 314.125 27.05Q313.85938 27.159374 313.70312 27.378124Q313.5625 27.596874 313.5625 27.878124Q313.5625 28.3 313.875 28.58125Q314.20312 28.8625 314.8125 28.8625Q315.42188 28.8625 315.89062 28.596874Q316.375 28.33125 316.59375 27.8625Q316.76562 27.503124 316.76562 26.815624L316.76562 26.425ZM323.82812 29.55L323.82812 28.76875Q323.23438 29.690624 322.09375 29.690624Q321.34375 29.690624 320.71875 29.284374Q320.09375 28.8625 319.75 28.128124Q319.40625 27.39375 319.40625 26.440624Q319.40625 25.51875 319.71875 24.753124Q320.03125 23.9875 320.65625 23.596874Q321.28125 23.190624 322.04688 23.190624Q322.60938 23.190624 323.04688 23.425Q323.48438 23.659374 323.76562 24.034374L323.76562 20.95625L324.8125 20.95625L324.8125 29.55L323.82812 29.55ZM320.5 26.440624Q320.5 27.64375 321.0 28.2375Q321.5 28.815624 322.1875 28.815624Q322.875 28.815624 323.35938 28.253124Q323.84375 27.690624 323.84375 26.534374Q323.84375 25.253124 323.34375 24.659374Q322.85938 24.065624 322.14062 24.065624Q321.4375 24.065624 320.96875 24.64375Q320.5 25.20625 320.5 26.440624ZM326.40625 26.440624Q326.40625 24.70625 327.35938 23.878124Q328.15625 23.190624 329.3125 23.190624Q330.59375 23.190624 331.40625 24.034374Q332.23438 24.8625 332.23438 26.346874Q332.23438 27.55 331.875 28.2375Q331.51562 28.925 330.8125 29.315624Q330.125 29.690624 329.3125 29.690624Q328.01562 29.690624 327.20312 28.8625Q326.40625 28.01875 326.40625 26.440624ZM327.48438 26.440624Q327.48438 27.628124 328.0 28.221874Q328.53125 28.815624 329.3125 28.815624Q330.10938 28.815624 330.625 28.221874Q331.14062 27.628124 331.14062 26.409374Q331.14062 25.253124 330.60938 24.659374Q330.09375 24.065624 329.3125 24.065624Q328.53125 24.065624 328.0 24.659374Q327.48438 25.2375 327.48438 26.440624Z" fill-rule="nonzero"/><path stroke="#34a853" stroke-width="4.0" stroke-linecap="butt" d="M349.0 25.55L361.0 25.55" fill-rule="nonzero"/><path fill="#1a1a1a" d="M370.125 29.55L370.125 20.95625L371.25 20.95625L371.25 29.55L370.125 29.55ZM372.375 27.690624L373.40625 27.534374Q373.5 28.159374 373.89062 28.4875Q374.29688 28.815624 375.03125 28.815624Q375.75 28.815624 376.09375 28.534374Q376.45312 28.2375 376.45312 27.83125Q376.45312 27.471874 376.14062 27.26875Q375.92188 27.128124 375.0625 26.909374Q373.90625 26.6125 373.45312 26.409374Q373.01562 26.190624 372.78125 25.815624Q372.54688 25.440624 372.54688 24.971874Q372.54688 24.565624 372.73438 24.20625Q372.92188 23.846874 373.25 23.6125Q373.5 23.440624 373.92188 23.315624Q374.34375 23.190624 374.84375 23.190624Q375.5625 23.190624 376.10938 23.409374Q376.67188 23.6125 376.9375 23.971874Q377.20312 24.33125 377.29688 24.925L376.26562 25.065624Q376.20312 24.596874 375.85938 24.33125Q375.53125 24.05 374.90625 24.05Q374.1875 24.05 373.875 24.3Q373.5625 24.534374 373.5625 24.8625Q373.5625 25.065624 373.6875 25.221874Q373.82812 25.39375 374.09375 25.503124Q374.25 25.565624 375.03125 25.76875Q376.15625 26.08125 376.59375 26.26875Q377.03125 26.45625 377.28125 26.815624Q377.53125 27.175 377.53125 27.721874Q377.53125 28.253124 377.21875 28.721874Q376.92188 29.175 376.34375 29.440624Q375.76562 29.690624 375.03125 29.690624Q373.8125 29.690624 373.17188 29.190624Q372.54688 28.675 372.375 27.690624ZM378.40625 26.440624Q378.40625 24.70625 379.35938 23.878124Q380.15625 23.190624 381.3125 23.190624Q382.59375 23.190624 383.40625 24.034374Q384.23438 24.8625 384.23438 26.346874Q384.23438 27.55 383.875 28.2375Q383.51562 28.925 382.8125 29.315624Q382.125 29.690624 381.3125 29.690624Q380.01562 29.690624 379.20312 28.8625Q378.40625 28.01875 378.40625 26.440624ZM379.48438 26.440624Q379.48438 27.628124 380.0 28.221874Q380.53125 28.815624 381.3125 28.815624Q382.10938 28.815624 382.625 28.221874Q383.14062 27.628124 383.14062 26.409374Q383.14062 25.253124 382.60938 24.659374Q382.09375 24.065624 381.3125 24.065624Q380.53125 24.065624 380.0 24.659374Q379.48438 25.2375 379.48438 26.440624ZM385.76562 29.55L385.76562 20.95625L386.82812 20.95625L386.82812 29.55L385.76562 29.55ZM392.85938 28.784374Q392.26562 29.284374 391.71875 29.4875Q391.1875 29.690624 390.5625 29.690624Q389.53125 29.690624 388.98438 29.190624Q388.4375 28.690624 388.4375 27.909374Q388.4375 27.45625 388.64062 27.08125Q388.84375 26.690624 389.1875 26.471874Q389.53125 26.2375 389.95312 26.128124Q390.25 26.034374 390.89062 25.95625Q392.15625 25.815624 392.76562 25.596874Q392.76562 25.378124 392.76562 25.33125Q392.76562 24.675 392.46875 24.409374Q392.0625 24.065624 391.26562 24.065624Q390.53125 24.065624 390.17188 24.33125Q389.8125 24.58125 389.64062 25.2375L388.60938 25.096874Q388.75 24.440624 389.07812 24.034374Q389.40625 23.628124 390.01562 23.409374Q390.625 23.190624 391.42188 23.190624Q392.21875 23.190624 392.71875 23.378124Q393.21875 23.565624 393.45312 23.846874Q393.6875 24.128124 393.78125 24.565624Q393.82812 24.83125 393.82812 25.534374L393.82812 26.940624Q393.82812 28.409374 393.89062 28.8Q393.96875 29.190624 394.17188 29.55L393.0625 29.55Q392.90625 29.221874 392.85938 28.784374ZM392.76562 26.425Q392.1875 26.659374 391.04688 26.83125Q390.39062 26.925 390.125 27.05Q389.85938 27.159374 389.70312 27.378124Q389.5625 27.596874 389.5625 27.878124Q389.5625 28.3 389.875 28.58125Q390.20312 28.8625 390.8125 28.8625Q391.42188 28.8625 391.89062 28.596874Q392.375 28.33125 392.59375 27.8625Q392.76562 27.503124 392.76562 26.815624L392.76562 26.425ZM395.79688 29.55L395.79688 23.33125L396.73438 23.33125L396.73438 24.20625Q397.03125 23.7375 397.51562 23.471874Q398.0 23.190624 398.625 23.190624Q399.3125 23.190624 399.75 23.471874Q400.20312 23.753124 400.375 24.26875Q401.125 23.190624 402.29688 23.190624Q403.23438 23.190624 403.71875 23.70625Q404.21875 24.20625 404.21875 25.284374L404.21875 29.55L403.17188 29.55L403.17188 25.628124Q403.17188 25.003124 403.0625 24.721874Q402.96875 24.440624 402.70312 24.26875Q402.4375 24.096874 402.0625 24.096874Q401.40625 24.096874 400.96875 24.534374Q400.54688 24.971874 400.54688 25.940624L400.54688 29.55L399.48438 29.55L399.48438 25.503124Q399.48438 24.8 399.21875 24.45625Q398.96875 24.096874 398.39062 24.096874Q397.9375 24.096874 397.5625 24.33125Q397.1875 24.565624 397.01562 25.01875Q396.84375 25.471874 396.84375 26.315624L396.84375 29.55L395.79688 29.55ZM410.04688 27.55L411.14062 27.675Q410.89062 28.628124 410.1875 29.159374Q409.48438 29.690624 408.40625 29.690624Q407.04688 29.690624 406.23438 28.846874Q405.4375 28.003124 405.4375 26.4875Q405.4375 24.925 406.25 24.065624Q407.0625 23.190624 408.34375 23.190624Q409.59375 23.190624 410.375 24.034374Q411.17188 24.878124 411.17188 26.425Q411.17188 26.51875 411.17188 26.70625L406.53125 26.70625Q406.59375 27.7375 407.10938 28.284374Q407.625 28.815624 408.40625 28.815624Q408.98438 28.815624 409.39062 28.51875Q409.8125 28.20625 410.04688 27.55ZM406.59375 25.846874L410.0625 25.846874Q410.0 25.05 409.67188 24.659374Q409.15625 24.05 408.35938 24.05Q407.625 24.05 407.125 24.534374Q406.64062 25.01875 406.59375 25.846874ZM412.79688 29.55L412.79688 23.33125L413.73438 23.33125L413.73438 24.20625Q414.42188 23.190624 415.71875 23.190624Q416.28125 23.190624 416.75 23.39375Q417.23438 23.596874 417.46875 23.925Q417.70312 24.253124 417.79688 24.690624Q417.84375 24.9875 417.84375 25.721874L417.84375 29.55L416.79688 29.55L416.79688 25.76875Q416.79688 25.1125 416.67188 24.8Q416.54688 24.4875 416.23438 24.3Q415.92188 24.096874 415.5 24.096874Q414.82812 24.096874 414.32812 24.534374Q413.84375 24.95625 413.84375 26.14375L413.84375 29.55L412.79688 29.55ZM422.09375 28.6125L422.25 29.534374Q421.79688 29.628124 421.45312 29.628124Q420.875 29.628124 420.5625 29.45625Q420.25 29.26875 420.10938 28.971874Q419.98438 28.675 419.98438 27.721874L419.98438 24.14375L419.21875 24.14375L419.21875 23.33125L419.98438 23.33125L419.98438 21.784374L421.03125 21.159374L421.03125 23.33125L422.09375 23.33125L422.09375 24.14375L421.03125 24.14375L421.03125 27.784374Q421.03125 28.2375 421.07812 28.3625Q421.14062 28.4875 421.26562 28.565624Q421.39062 28.64375 421.625 28.64375Q421.8125 28.64375 422.09375 28.6125ZM422.40625 26.440624Q422.40625 24.70625 423.35938 23.878124Q424.15625 23.190624 425.3125 23.190624Q426.59375 23.190624 427.40625 24.034374Q428.23438 24.8625 428.23438 26.346874Q428.23438 27.55 427.875 28.2375Q427.51562 28.925 426.8125 29.315624Q426.125 29.690624 425.3125 29.690624Q424.01562 29.690624 423.20312 28.8625Q422.40625 28.01875 422.40625 26.440624ZM423.48438 26.440624Q423.48438 27.628124 424.0 28.221874Q424.53125 28.815624 425.3125 28.815624Q426.10938 28.815624 426.625 28.221874Q427.14062 27.628124 427.14062 26.409374Q427.14062 25.253124 426.60938 24.659374Q426.09375 24.065624 425.3125 24.065624Q424.53125 24.065624 424.0 24.659374Q423.48438 25.2375 423.48438 26.440624Z" fill-rule="nonzero"/><path stroke="#ff6d01" stroke-width="4.0" stroke-linecap="butt" d="M445.0 25.55L457.0 25.55" fill-rule="nonzero"/><path fill="#1a1a1a" d="M472.0625 26.534374L473.1875 26.83125Q472.82812 28.221874 471.90625 28.95625Q470.98438 29.690624 469.64062 29.690624Q468.25 29.690624 467.375 29.128124Q466.5 28.565624 466.04688 27.503124Q465.59375 26.425 465.59375 25.190624Q465.59375 23.846874 466.10938 22.846874Q466.625 21.846874 467.5625 21.33125Q468.51562 20.815624 469.65625 20.815624Q470.9375 20.815624 471.8125 21.471874Q472.70312 22.128124 473.04688 23.315624L471.92188 23.58125Q471.625 22.64375 471.04688 22.221874Q470.48438 21.784374 469.625 21.784374Q468.64062 21.784374 467.96875 22.26875Q467.3125 22.7375 467.03125 23.534374Q466.76562 24.33125 466.76562 25.190624Q466.76562 26.284374 467.07812 27.096874Q467.40625 27.909374 468.07812 28.315624Q468.75 28.721874 469.54688 28.721874Q470.5 28.721874 471.15625 28.175Q471.82812 27.628124 472.0625 26.534374ZM474.40625 26.440624Q474.40625 24.70625 475.35938 23.878124Q476.15625 23.190624 477.3125 23.190624Q478.59375 23.190624 479.40625 24.034374Q480.23438 24.8625 480.23438 26.346874Q480.23438 27.55 479.875 28.2375Q479.51562 28.925 478.8125 29.315624Q478.125 29.690624 477.3125 29.690624Q476.01562 29.690624 475.20312 28.8625Q474.40625 28.01875 474.40625 26.440624ZM475.48438 26.440624Q475.48438 27.628124 476.0 28.221874Q476.53125 28.815624 477.3125 28.815624Q478.10938 28.815624 478.625 28.221874Q479.14062 27.628124 479.14062 26.409374Q479.14062 25.253124 478.60938 24.659374Q478.09375 24.065624 477.3125 24.065624Q476.53125 24.065624 476.0 24.659374Q475.48438 25.2375 475.48438 26.440624ZM481.79688 29.55L481.79688 23.33125L482.73438 23.33125L482.73438 24.20625Q483.42188 23.190624 484.71875 23.190624Q485.28125 23.190624 485.75 23.39375Q486.23438 23.596874 486.46875 23.925Q486.70312 24.253124 486.79688 24.690624Q486.84375 24.9875 486.84375 25.721874L486.84375 29.55L485.79688 29.55L485.79688 25.76875Q485.79688 25.1125 485.67188 24.8Q485.54688 24.4875 485.23438 24.3Q484.92188 24.096874 484.5 24.096874Q483.82812 24.096874 483.32812 24.534374Q482.84375 24.95625 482.84375 26.14375L482.84375 29.55L481.79688 29.55ZM489.04688 29.55L489.04688 24.14375L488.10938 24.14375L488.10938 23.33125L489.04688 23.33125L489.04688 22.659374Q489.04688 22.034374 489.15625 21.7375Q489.3125 21.315624 489.6875 21.065624Q490.07812 20.815624 490.76562 20.815624Q491.21875 20.815624 491.75 20.925L491.59375 21.83125Q491.26562 21.784374 490.96875 21.784374Q490.48438 21.784374 490.28125 21.9875Q490.09375 22.190624 490.09375 22.753124L490.09375 23.33125L491.3125 23.33125L491.3125 24.14375L490.09375 24.14375L490.09375 29.55L489.04688 29.55ZM491.79688 22.175L491.79688 20.95625L492.85938 20.95625L492.85938 22.175L491.79688 22.175ZM491.79688 29.55L491.79688 23.33125L492.85938 23.33125L492.85938 29.55L491.79688 29.55ZM494.78125 29.55L494.78125 23.33125L495.73438 23.33125L495.73438 24.26875Q496.09375 23.6125 496.39062 23.409374Q496.70312 23.190624 497.07812 23.190624Q497.60938 23.190624 498.15625 23.51875L497.79688 24.503124Q497.40625 24.26875 497.03125 24.26875Q496.67188 24.26875 496.39062 24.4875Q496.125 24.690624 496.01562 25.065624Q495.82812 25.628124 495.82812 26.284374L495.82812 29.55L494.78125 29.55ZM498.79688 29.55L498.79688 23.33125L499.73438 23.33125L499.73438 24.20625Q500.03125 23.7375 500.51562 23.471874Q501.0 23.190624 501.625 23.190624Q502.3125 23.190624 502.75 23.471874Q503.20312 23.753124 503.375 24.26875Q504.125 23.190624 505.29688 23.190624Q506.23438 23.190624 506.71875 23.70625Q507.21875 24.20625 507.21875 25.284374L507.21875 29.55L506.17188 29.55L506.17188 25.628124Q506.17188 25.003124 506.0625 24.721874Q505.96875 24.440624 505.70312 24.26875Q505.4375 24.096874 505.0625 24.096874Q504.40625 24.096874 503.96875 24.534374Q503.54688 24.971874 503.54688 25.940624L503.54688 29.55L502.48438 29.55L502.48438 25.503124Q502.48438 24.8 502.21875 24.45625Q501.96875 24.096874 501.39062 24.096874Q500.9375 24.096874 500.5625 24.33125Q500.1875 24.565624 500.01562 25.01875Q499.84375 25.471874 499.84375 26.315624L499.84375 29.55L498.79688 29.55ZM512.8594 28.784374Q512.2656 29.284374 511.71875 29.4875Q511.1875 29.690624 510.5625 29.690624Q509.53125 29.690624 508.98438 29.190624Q508.4375 28.690624 508.4375 27.909374Q508.4375 27.45625 508.64062 27.08125Q508.84375 26.690624 509.1875 26.471874Q509.53125 26.2375 509.95312 26.128124Q510.25 26.034374 510.89062 25.95625Q512.15625 25.815624 512.7656 25.596874Q512.7656 25.378124 512.7656 25.33125Q512.7656 24.675 512.46875 24.409374Q512.0625 24.065624 511.26562 24.065624Q510.53125 24.065624 510.17188 24.33125Q509.8125 24.58125 509.64062 25.2375L508.60938 25.096874Q508.75 24.440624 509.07812 24.034374Q509.40625 23.628124 510.01562 23.409374Q510.625 23.190624 511.42188 23.190624Q512.21875 23.190624 512.71875 23.378124Q513.21875 23.565624 513.4531 23.846874Q513.6875 24.128124 513.78125 24.565624Q513.8281 24.83125 513.8281 25.534374L513.8281 26.940624Q513.8281 28.409374 513.8906 28.8Q513.96875 29.190624 514.1719 29.55L513.0625 29.55Q512.90625 29.221874 512.8594 28.784374ZM512.7656 26.425Q512.1875 26.659374 511.04688 26.83125Q510.39062 26.925 510.125 27.05Q509.85938 27.159374 509.70312 27.378124Q509.5625 27.596874 509.5625 27.878124Q509.5625 28.3 509.875 28.58125Q510.20312 28.8625 510.8125 28.8625Q511.42188 28.8625 511.89062 28.596874Q512.375 28.33125 512.59375 27.8625Q512.7656 27.503124 512.7656 26.815624L512.7656 26.425ZM519.8281 29.55L519.8281 28.76875Q519.2344 29.690624 518.09375 29.690624Q517.34375 29.690624 516.71875 29.284374Q516.09375 28.8625 515.75 28.128124Q515.40625 27.39375 515.40625 26.440624Q515.40625 25.51875 515.71875 24.753124Q516.03125 23.9875 516.65625 23.596874Q517.28125 23.190624 518.0469 23.190624Q518.6094 23.190624 519.0469 23.425Q519.4844 23.659374 519.7656 24.034374L519.7656 20.95625L520.8125 20.95625L520.8125 29.55L519.8281 29.55ZM516.5 26.440624Q516.5 27.64375 517.0 28.2375Q517.5 28.815624 518.1875 28.815624Q518.875 28.815624 519.3594 28.253124Q519.84375 27.690624 519.84375 26.534374Q519.84375 25.253124 519.34375 24.659374Q518.8594 24.065624 518.1406 24.065624Q517.4375 24.065624 516.96875 24.64375Q516.5 25.20625 516.5 26.440624ZM522.40625 26.440624Q522.40625 24.70625 523.3594 23.878124Q524.15625 23.190624 525.3125 23.190624Q526.59375 23.190624 527.40625 24.034374Q528.2344 24.8625 528.2344 26.346874Q528.2344 27.55 527.875 28.2375Q527.5156 28.925 526.8125 29.315624Q526.125 29.690624 525.3125 29.690624Q524.0156 29.690624 523.2031 28.8625Q522.40625 28.01875 522.40625 26.440624ZM523.4844 26.440624Q523.4844 27.628124 524.0 28.221874Q524.53125 28.815624 525.3125 28.815624Q526.1094 28.815624 526.625 28.221874Q527.1406 27.628124 527.1406 26.409374Q527.1406 25.253124 526.6094 24.659374Q526.09375 24.065624 525.3125 24.065624Q524.53125 24.065624 524.0 24.659374Q523.4844 25.2375 523.4844 26.440624ZM529.375 27.690624L530.40625 27.534374Q530.5 28.159374 530.8906 28.4875Q531.2969 28.815624 532.03125 28.815624Q532.75 28.815624 533.09375 28.534374Q533.4531 28.2375 533.4531 27.83125Q533.4531 27.471874 533.1406 27.26875Q532.9219 27.128124 532.0625 26.909374Q530.90625 26.6125 530.4531 26.409374Q530.0156 26.190624 529.78125 25.815624Q529.5469 25.440624 529.5469 24.971874Q529.5469 24.565624 529.7344 24.20625Q529.9219 23.846874 530.25 23.6125Q530.5 23.440624 530.9219 23.315624Q531.34375 23.190624 531.84375 23.190624Q532.5625 23.190624 533.1094 23.409374Q533.6719 23.6125 533.9375 23.971874Q534.2031 24.33125 534.2969 24.925L533.2656 25.065624Q533.2031 24.596874 532.8594 24.33125Q532.53125 24.05 531.90625 24.05Q531.1875 24.05 530.875 24.3Q530.5625 24.534374 530.5625 24.8625Q530.5625 25.065624 530.6875 25.221874Q530.8281 25.39375 531.09375 25.503124Q531.25 25.565624 532.03125 25.76875Q533.15625 26.08125 533.59375 26.26875Q534.03125 26.45625 534.28125 26.815624Q534.53125 27.175 534.53125 27.721874Q534.53125 28.253124 534.21875 28.721874Q533.9219 29.175 533.34375 29.440624Q532.7656 29.690624 532.03125 29.690624Q530.8125 29.690624 530.1719 29.190624Q529.5469 28.675 529.375 27.690624Z" fill-rule="nonzero"/></svg>