<?xml version="1.0" encoding="UTF-8" standalone="no"?>
<svg
   xmlns:dc="http://purl.org/dc/elements/1.1/"
   xmlns:cc="http://creativecommons.org/ns#"
   xmlns:rdf="http://www.w3.org/1999/02/22-rdf-syntax-ns#"
   xmlns:svg="http://www.w3.org/2000/svg"
   xmlns="http://www.w3.org/2000/svg"
   xmlns:sodipodi="http://sodipodi.sourceforge.net/DTD/sodipodi-0.dtd"
   xmlns:inkscape="http://www.inkscape.org/namespaces/inkscape"
   xml:space="preserve"
   width="150mm"
   height="140mm"
   style="fill-rule:evenodd;image-rendering:optimizeQuality;shape-rendering:geometricPrecision;text-rendering:geometricPrecision"
   viewBox="0 0 340157.48 317480.32"
   version="1.1"
   id="svg410"
   sodipodi:docname="mapa-sudoeste.svg"
   inkscape:version="0.92.3 (2405546, 2018-03-11)"><metadata
   id="metadata414"><rdf:RDF><cc:Work
       rdf:about=""><dc:format>image/svg+xml</dc:format><dc:type
         rdf:resource="http://purl.org/dc/dcmitype/StillImage" /><dc:title></dc:title></cc:Work></rdf:RDF></metadata><sodipodi:namedview
   pagecolor="#ffffff"
   bordercolor="#666666"
   borderopacity="1"
   objecttolerance="10"
   gridtolerance="10"
   guidetolerance="10"
   inkscape:pageopacity="0"
   inkscape:pageshadow="2"
   inkscape:window-width="1360"
   inkscape:window-height="700"
   id="namedview412"
   showgrid="false"
   showguides="false"
   inkscape:zoom="0.69376907"
   inkscape:cx="-129.53179"
   inkscape:cy="257.24238"
   inkscape:window-x="0"
   inkscape:window-y="0"
   inkscape:window-maximized="1"
   inkscape:current-layer="svg410"
   scale-x="600" />
<defs
   id="defs4">
<style
   type="text/css"
   id="style2">
<![CDATA[
.str2 {stroke:#1F1A17;stroke-width:76}
.str0 {stroke:#72706F;stroke-width:76;stroke-linecap:round;stroke-linejoin:round}
.str4 {stroke:#C2C1C1;stroke-width:76}
.str5 {stroke:#D82B40;stroke-width:76}
.str1 {stroke:#72706F;stroke-width:353;stroke-linecap:round;stroke-linejoin:round}
.str3 {stroke:#131516;stroke-width:353;stroke-linecap:round;stroke-linejoin:round}
.str7 {stroke:#1F1A17;stroke-width:706}
.str6 {stroke:#D82B40;stroke-width:1058}
.fil2 {fill:none}
.fil3 {fill:#FFFFFF}
.fil0 {fill:#EEDDB3}
.fil1 {fill:#F6EAD9}
.fil5 {fill:#D82B40}
.fil4 {fill:#ECECEB}
]]>
</style>































































































































































































































































</defs>


<g
   id="Destaque"
   transform="translate(0,-316119.67)">
</g>
<path
   style="fill:#91c1bb;fill-opacity:1;stroke:#c8eae6;stroke-width:374.3862915;stroke-linecap:round;stroke-linejoin:round;stroke-miterlimit:4;stroke-dasharray:none;stroke-opacity:1"
   inkscape:connector-curvature="0"
   d="m 263402.04,109542.5 1140.2,-1631.97 -395.33,-1101.62 -740.05,-800.31 -4.82,-1190.82 838.88,-872.63 2010.41,132.59 872.62,-969.05 55.45,-1733.2 -817.18,-1132.96 310.96,-1415.012 -744.87,-204.898 -882.26,417.03 -204.9,-159.096 1590.97,-1101.629 142.23,-1405.364 -443.55,-1149.841 378.46,-306.137 -301.32,-277.223 7.23,-1697.034 388.1,-600.238 1128.15,-282.035 764.15,-2617.876 -72.32,-638.796 -588.17,-219.366 -390.52,-1381.252 1578.93,-231.421 1246.25,-940.117 1294.48,359.178 706.3,-518.275 985.92,-2237.007 1574.1,-1549.996 759.33,-5151.383 2685.37,-3758.075 3570.06,10153.312 696.65,-4.822 990.74,-576.125 188.02,-658.086 1089.58,-1111.271 1451.16,-713.528 2157.46,-1713.914 1557.22,-106.065 221.78,429.081 402.56,-53.032 178.39,1239.032 631.56,460.418 711.12,691.833 122.94,764.15 1022.08,-720.76 347.13,501.398 -98.84,795.487 875.04,-195.255 344.71,465.239 552.02,40.98 127.76,-877.446 -325.42,-908.785 363.99,-925.658 626.74,429.082 580.95,-308.553 450.78,682.19 -433.9,503.809 306.14,908.784 -409.8,877.446 1075.12,163.919 303.73,891.911 -532.73,906.373 -944.95,390.512 -175.97,424.26 -448.37,-16.874 354.35,320.605 -96.41,650.85 -597.83,-376.04 -402.56,465.233 -265.16,773.791 209.71,966.644 677.37,-841.294 224.18,429.086 768.98,-732.811 1010.03,-81.96 482.11,761.736 484.52,36.157 571.3,-1439.11 805.14,-279.625 243.47,544.792 224.17,-98.838 -94,188.031 296.49,120.527 -94,1634.364 508.62,139.807 332.66,-289.268 361.58,911.197 491.76,243.466 -390.51,1234.212 262.76,814.771 -443.56,691.832 323.02,180.797 887.1,-272.391 -850.93,1511.425 826.81,407.386 -298.9,735.222 812.36,670.131 918.42,-694.243 60.27,472.477 730.4,98.828 590.59,1010.034 771.38,-315.781 197.67,918.42 -467.65,1000.39 947.35,858.162 260.34,1094.399 -925.65,694.24 28.92,655.67 506.23,696.66 -940.13,593 667.72,455.59 -284.44,725.59 -648.44,682.18 -937.71,-91.6 260.34,1012.45 -301.32,1222.15 -723.17,306.14 -224.19,624.34 453.19,498.99 -200.08,677.36 -947.35,-127.75 -214.54,679.78 -243.47,-323.02 -433.9,159.1 -607.46,831.65 -1359.56,-699.07 -125.35,-371.23 -385.7,395.33 -470.05,-793.08 672.54,-272.39 -1817.56,-1824.79 -337.48,424.25 -1029.32,-291.68 -1530.71,354.36 -2687.78,-602.65 -2135.76,1378.85 -1111.28,-860.57 -918.42,1099.22 404.98,703.89 -458.01,1096.8 -1552.41,940.12 -2193.62,-103.65 -1234.21,-1388.48 -1781.41,819.58 -2061.03,-178.38 -1716.33,1243.85 -3290.43,-57.85 -1911.57,1935.69 -1051.01,330.25 -981.1,1270.37 -265.17,-609.88 -1562.04,122.94 -2118.89,-458 -2304.51,-3755.68 -1058.23,-752.09 z"
   class="fil2 str0"
   id="mun_5200134" /><path
   style="fill:#91c1bb;fill-opacity:1;stroke:#c8eae6;stroke-width:374.3862915;stroke-linecap:round;stroke-linejoin:round;stroke-miterlimit:4;stroke-dasharray:none;stroke-opacity:1"
   inkscape:connector-curvature="0"
   d="m 191436.95,170741.99 -2576.89,-1988.72 -1574.11,81.96 -588.18,-1323.4 -1641.6,-43.39 -1812.74,-2065.86 703.88,-906.38 12.05,-1663.28 754.52,-778.62 -248.29,-294.09 -590.6,55.45 -161.5,-438.73 383.28,-137.4 151.86,-687.02 983.51,-460.41 2181.57,462.82 3888.25,2858.95 3068.65,-106.08 -156.69,-474.87 715.94,-1742.85 -115.71,-3365.15 1583.75,-1231.79 238.65,-1354.74 626.74,-961.83 1603.02,-1017.25 3931.64,67.49 122.94,899.14 766.57,841.29 1995.94,-72.31 1036.55,1566.86 3365.15,966.64 378.46,759.33 602.65,118.12 -118.13,976.27 699.06,21.7 -163.91,1545.18 674.96,-185.61 195.25,1082.34 759.34,72.32 -149.46,1468.03 713.53,231.42 175.96,445.95 -1154.65,981.1 441.13,2331.02 -916.02,-315.78 -28.92,409.79 -462.83,195.26 -43.4,619.51 380.88,192.85 -474.88,323.02 74.73,291.67 944.94,-101.24 236.23,2000.77 -727.99,77.14 -48.21,1053.41 -1207.7,561.67 -865.38,296.51 2.4,-323.03 -1017.26,-149.45 -207.31,-441.13 -286.86,320.6 -694.24,-98.84 -956.99,1692.23 -503.81,120.52 -224.19,633.99 -260.33,-542.38 -694.25,937.71 -701.47,86.78 -855.75,1280.01 86.78,310.96 -976.29,862.99 -1521.06,-409.8 -489.35,-1747.66 -877.45,245.88 -289.27,-732.81 407.39,-503.81 -113.29,-436.31 -795.5,-21.7 -349.52,593 -1530.72,-1644.01 -3131.32,-506.22 -1998.37,-1747.66 -588.17,72.32 z"
   class="fil2 str0"
   id="mun_5201454" /><path
   style="fill:#91c1bb;fill-opacity:1;stroke:#c8eae6;stroke-width:374.3862915;stroke-linecap:round;stroke-linejoin:round;stroke-miterlimit:4;stroke-dasharray:none;stroke-opacity:1"
   inkscape:connector-curvature="0"
   d="m 89872.485,205977.26 6038.473,-3288.02 1419.821,-1889.88 1709.1,-1154.67 1475.261,-2572.07 4059.4,2167.1 4028.06,1280.01 72.31,-2405.74 -2887.85,-1841.67 -650.85,-995.57 -327.84,-1516.25 759.32,-2769.75 1147.43,-511.03 354.36,79.55 197.67,-443.55 1038.95,-503.81 212.13,903.96 470.07,-414.61 209.72,479.7 523.09,-465.24 279.62,448.37 180.8,-539.97 568.89,455.6 431.49,-267.58 -122.94,424.26 400.15,291.68 -21.69,349.53 233.82,-245.88 583.36,161.52 -185.62,-301.32 429.09,132.58 701.47,-383.28 207.31,453.18 708.71,7.24 262.75,-380.88 330.25,373.64 363.99,-595.41 417.03,216.95 400.16,-233.82 862.98,602.64 24.11,-390.51 687.01,-621.93 313.37,491.76 62.68,-253.11 523.09,-7.24 554.43,486.94 486.93,-646.03 952.18,-272.39 272.4,727.99 643.62,-69.91 865.39,354.35 474.88,997.98 1299.29,221.77 691.85,561.67 409.79,-113.31 229,-653.26 966.63,-506.21 1860.97,-646.04 896.73,756.92 708.71,33.75 523.09,1173.94 1265.55,255.52 214.54,1072.71 817.18,323.01 118.12,814.77 -506.23,84.37 65.1,277.21 713.52,91.61 1417.42,995.57 1089.57,-173.57 149.45,655.68 395.34,115.7 -260.34,339.9 151.86,388.1 957,161.51 371.23,518.27 315.78,-190.43 378.46,424.25 578.54,-204.9 424.26,361.59 -60.27,773.8 617.11,-168.74 467.65,1140.19 756.91,-96.42 1041.37,619.51 337.49,-190.43 1504.19,1214.92 337.48,-103.65 441.13,156.69 -178.38,1207.69 301.32,134.99 809.95,1299.3 -180.8,171.15 971.47,916.02 1258.31,226.59 212.13,1183.59 477.29,-282.04 771.38,684.6 997.98,291.68 -67.49,515.87 682.19,94 -262.76,580.95 301.32,-94.01 163.92,417.02 747.28,72.33 412.21,595.4 130.17,-339.89 506.21,207.31 -113.29,421.85 701.48,730.4 -178.39,506.23 1528.3,229 -245.87,229.01 508.62,207.31 730.41,1099.21 1716.32,175.98 508.63,-224.19 183.21,-547.2 2164.68,-125.35 1993.54,1277.6 433.91,-359.17 590.58,359.17 339.89,-612.28 1154.67,368.81 216.95,154.28 -347.12,376.05 -4.83,609.87 361.59,332.66 -1590.98,1566.87 -1605.44,730.4 -901.55,1390.9 -1222.16,935.3 2793.85,20897.21 525.51,585.77 -412.21,809.95 12.05,985.92 412.21,720.77 -573.71,1470.44 -602.64,132.58 -875.04,-648.44 -137.41,-351.94 484.53,-163.92 -653.27,-339.89 -310.96,414.61 -1075.11,67.5 -262.75,-819.6 -781.02,159.1 -556.85,-619.51 303.74,-542.38 -1559.64,69.91 -1378.84,-1034.14 -458.01,371.23 -903.97,-274.8 159.1,-368.82 -747.28,-113.29 134.99,-547.21 -1959.79,-1164.3 -2051.39,315.79 -229.01,-400.16 740.05,-595.41 -638.8,-327.84 -725.58,185.62 188.02,224.18 -542.38,402.56 -1455.98,-1417.41 -84.37,-494.17 -308.56,55.45 -646.03,-957 -756.91,-262.75 163.92,-768.97 -841.29,-1265.55 -776.21,2.41 -648.44,-944.94 -973.86,62.68 -74.73,-703.89 -646.04,-86.78 -590.58,-672.55 -513.46,643.62 -559.25,-21.7 69.91,518.27 -1499.37,-1251.08 113.29,771.38 -535.14,-60.26 -465.24,549.61 -284.45,-855.75 -1299.3,197.66 -262.74,-508.62 -508.64,108.47 -983.51,1236.62 -453.19,-313.38 554.44,-525.5 -482.12,-513.45 110.89,-373.63 -1477.68,-477.29 -188.03,289.26 -392.92,-86.78 -318.19,-884.68 -419.44,77.14 -602.64,-443.55 -916.02,621.93 -1292.07,-219.36 -841.28,-853.34 163.92,-511.04 -629.16,33.75 -988.33,-1118.51 371.22,-132.58 -185.61,-351.94 -361.58,79.55 245.87,-1166.71 -489.34,-590.6 -154.27,257.94 -981.11,-436.32 -633.98,38.57 -532.73,-699.07 -947.36,356.77 -814.77,-491.75 183.2,-523.1 -585.76,-349.53 197.66,-192.84 -518.27,14.45 -65.09,-995.55 -576.12,-303.74 -332.66,-662.91 -303.73,77.14 -168.74,-682.19 -494.17,-180.8 -1101.63,436.32 -330.24,-260.34 -441.14,204.9 -171.15,-354.35 -843.7,-323.02 -2873.39,-267.58 -1096.82,-1051 -91.59,255.52 -2697.43,-125.35 -337.48,655.68 -918.43,277.21 -1099.21,-776.2 -1142.61,-248.29 -344.72,-564.07 -600.23,-36.16 -188.03,-554.43 -684.59,-236.24 310.97,-224.19 -272.41,-891.9 -1407.76,-84.37 183.2,-479.7 -670.15,-200.08 -91.59,-397.75 -282.04,38.58 94.01,-330.25 -1882.655,-1680.17 149.462,-597.82 -1079.938,-310.96 -142.229,-771.38 -103.649,-544.79 -1135.375,-768.97 -248.289,-332.66 -1880.242,-3302.49 -2357.541,-484.52 -2258.7,-918.42 z"
   class="fil2 str0"
   id="mun_5201504" /><path
   style="fill:#91c1bb;fill-opacity:1;stroke:#c8eae6;stroke-width:374.3862915;stroke-linecap:round;stroke-linejoin:round;stroke-miterlimit:4;stroke-dasharray:none;stroke-opacity:1"
   inkscape:connector-curvature="0"
   d="m 202713.58,177583.18 973.88,-862.98 -84.37,-310.97 855.75,-1280.01 701.47,-86.78 694.25,-937.71 260.33,542.37 221.78,-633.97 506.22,-120.53 956.99,-1692.22 691.83,98.84 289.27,-320.61 207.31,441.14 1017.26,149.45 -4.81,320.6 867.79,-294.09 1791.06,2492.54 1224.57,291.68 747.27,1152.24 715.94,188.03 238.64,-421.85 701.48,-4.83 139.82,-395.33 1140.19,-255.52 1791.05,-1010.02 3292.84,805.12 3018.03,-727.99 431.5,-1641.59 -347.13,-1084.76 -515.86,-226.59 605.05,-891.91 1716.33,1750.07 735.22,178.38 1000.39,920.84 1169.12,-233.83 1340.27,711.13 2215.32,113.29 2576.89,-1921.22 571.31,185.61 477.29,744.86 122.94,2186.39 549.61,185.61 -40.98,339.89 771.38,525.51 161.52,559.25 525.5,-106.07 -178.39,590.59 1552.41,55.44 2748.04,1550 277.22,-120.53 28.93,923.25 1010.03,508.63 -171.16,559.25 585.77,518.27 462.84,1390.9 -2138.18,650.85 -1171.54,-332.66 -1472.86,1159.49 -2670.91,583.36 -1923.63,1094.39 -2996.33,-436.31 -990.74,3003.57 -2227.37,923.25 -648.44,1292.06 -1629.54,-163.92 -1222.16,793.08 602.64,1718.73 2027.28,1186 1193.23,1509.02 1692.22,515.86 1424.65,973.87 814.77,1022.08 788.26,335.07 626.75,836.46 -207.31,1489.74 467.64,356.76 231.42,-380.87 713.53,407.39 -154.28,243.47 313.37,26.51 330.25,696.66 1292.07,65.08 -156.69,482.12 527.92,491.75 976.28,-175.97 1258.31,414.62 858.16,-460.42 390.52,171.15 286.86,754.5 -809.95,641.22 -1132.98,2798.66 -1738.01,2138.18 -1219.75,2475.65 1742.84,11172.98 -1002.8,1321 366.41,1212.51 -713.53,1564.46 -609.87,-419.44 -204.9,848.52 -477.3,81.96 -1880.24,-1089.58 -267.57,-1239.03 -501.4,-130.17 -809.94,337.48 -1171.55,-1193.24 -783.43,-308.54 -335.06,559.24 -503.81,135 -884.68,-277.21 -826.83,-725.58 -298.91,-814.78 214.54,-858.16 -441.13,-771.38 496.57,-865.4 -2357.53,-2875.8 -1858.55,-1453.58 310.97,-1342.68 -219.37,-940.12 -626.75,-754.51 -21.69,-1516.25 -1010.02,-732.81 -342.31,-1540.35 -1036.54,-771.39 -506.22,-1386.07 -2287.63,-2736 -884.68,-1769.36 -1858.55,-1263.13 494.17,-957 -327.84,-1012.44 -836.46,-171.15 -1441.52,-1798.28 -506.23,-1542.76 -2981.87,-2048.98 -660.49,-1856.14 -1750.07,-1410.18 43.39,-1460.81 -1668.11,-527.91 -470.07,-1164.3 -1472.85,-1554.82 -120.53,-908.78 354.35,-417.03 -696.66,-754.52 829.24,-1248.67 -1316.17,-344.71 -453.19,-1653.64 291.68,-1991.14 -648.44,-443.54 -749.69,267.58 48.22,-1154.67 z"
   class="fil2 str0"
   id="mun_5204102" /><path
   style="fill:#91c1bb;fill-opacity:1;stroke:#c8eae6;stroke-width:374.3862915;stroke-linecap:round;stroke-linejoin:round;stroke-miterlimit:4;stroke-dasharray:none;stroke-opacity:1"
   inkscape:connector-curvature="0"
   d="m 176819.26,193729.17 576.13,-1545.19 1448.75,-655.67 168.73,-1511.42 10543.84,-11722.6 383.27,-621.92 226.6,-1757.31 -511.04,-1672.93 882.27,-1219.75 896.73,-2282.8 588.17,-72.32 1998.37,1747.66 3131.32,506.23 1530.72,1646.41 349.52,-595.41 795.5,24.1 113.29,433.91 -407.39,506.21 289.27,730.41 877.45,-245.88 489.35,1747.66 1521.06,409.8 -45.79,1154.66 749.68,-267.58 646.03,443.55 -289.26,1991.13 453.17,1653.65 1313.76,342.3 -826.81,1251.09 696.65,754.5 -356.77,417.03 122.94,908.79 1470.45,1554.81 470.06,1164.3 1668.11,527.92 -40.98,1460.81 1747.67,1410.17 660.49,1856.14 2981.88,2048.99 506.21,1542.76 1441.52,1798.29 836.47,168.73 327.84,1012.44 -491.76,959.4 1856.13,1263.14 887.1,1766.95 2285.22,2738.4 506.22,1386.09 1036.54,771.38 342.3,1540.35 1010.02,730.4 21.7,1518.65 626.75,752.1 221.77,942.54 -313.37,1342.68 1858.54,1453.58 2359.95,2875.81 -496.57,865.38 441.13,771.39 -216.96,855.75 298.92,817.18 826.82,725.58 887.09,277.22 501.4,-134.99 335.07,-559.26 783.44,308.56 1171.53,1193.23 809.95,-337.48 501.4,127.76 267.58,1241.44 1880.24,1089.58 477.29,-81.96 204.89,-848.53 612.29,419.45 74.72,564.07 1361.98,737.63 279.62,802.72 2791.44,103.65 1540.35,2034.53 2680.56,715.93 2586.54,2205.67 453.18,809.96 1048.6,50.61 566.48,506.23 607.47,831.65 -241.07,949.76 597.83,508.63 494.17,33.74 356.76,973.88 -484.52,1111.26 388.09,1509.03 964.23,-130.18 373.64,438.72 -537.55,754.52 48.21,1231.8 1313.76,1542.76 -371.23,1125.73 -2326.19,168.74 -542.38,347.12 462.82,2145.4 -725.58,846.12 -4719.89,1125.73 -122.94,-518.27 658.08,-761.74 -7.23,-764.15 -872.62,-229 -443.54,-949.77 -1002.8,-836.47 -872.63,819.59 -590.59,-327.83 -132.58,-1012.44 614.7,-462.83 -236.24,-923.24 -366.4,40.98 -84.37,527.91 -617.11,-65.08 -207.31,-1947.75 -486.93,-908.78 -2846.89,-1812.74 -776.2,241.05 -1217.33,-937.7 -812.36,188.02 -1251.09,-1041.37 -269.98,-918.42 -1207.7,1053.41 -1318.58,-458.01 195.26,-257.92 1255.9,-72.33 282.04,-486.93 -383.28,-503.8 86.78,-518.28 -978.7,-465.23 -486.93,682.18 -564.07,86.78 -1053.42,-1357.15 -1082.34,185.61 -366.41,-585.76 701.48,-1436.7 -988.34,682.19 -720.75,-125.35 559.24,-1468.03 -28.92,-923.25 -2268.35,-354.36 168.74,-1171.53 -441.13,-1251.09 -578.54,-462.82 -84.37,-860.57 -1017.25,-761.75 -795.5,-1509.01 -470.05,-130.18 -899.14,383.29 -667.73,-737.64 -684.6,-325.42 -1588.57,800.3 -404.98,-1725.97 -2892.67,-1463.21 -744.87,646.03 -879.85,-754.5 -812.37,564.07 -1518.66,-12.06 -390.51,-621.92 467.66,-1084.75 -1856.14,-1600.62 -1352.33,-2478.06 -788.26,602.64 -788.26,-781.03 -1022.08,103.65 585.77,-1648.82 -260.34,-530.32 -687.01,185.61 -539.97,-571.31 -1386.08,248.29 -236.23,-306.14 347.12,-727.99 -768.97,-113.3 96.42,-520.68 -450.77,-443.55 -479.7,-1562.04 -1010.04,-315.79 -335.07,-592.99 -1911.57,-108.49 -713.53,-1513.83 -354.36,106.07 -1713.91,-891.91 -1275.19,-1945.33 -711.12,-216.96 -462.82,-691.83 -1169.13,679.79 291.68,-1267.96 -1550,-1325.82 -462.83,-1509.01 -253.1,-94.02 -667.73,727.99 -491.76,-48.21 -212.13,-749.68 -1229.39,-1195.64 -549.61,-84.37 -470.06,337.48 -156.68,-761.75 -441.14,-207.31 -527.92,547.21 -949.75,-781.03 -1161.9,-12.05 -380.87,-554.43 593,-595.42 -995.57,-655.67 -1692.22,-424.25 -1041.37,-949.77 -1439.11,-180.8 -648.44,-865.38 -875.03,173.55 -188.03,-498.98 339.89,-648.45 -1516.24,-638.79 -498.99,-559.25 z"
   class="fil2 str0"
   id="mun_5204300" /><path
   style="fill:#91c1bb;fill-opacity:1;stroke:#c8eae6;stroke-width:374.3862915;stroke-linecap:round;stroke-linejoin:round;stroke-miterlimit:4;stroke-dasharray:none;stroke-opacity:1"
   inkscape:connector-curvature="0"
   d="m 261080.67,157965.98 185.6,-1757.31 1089.59,1070.29 2109.24,993.16 1846.49,1472.86 1434.29,-214.55 1684.99,373.64 1000.38,1468.04 696.65,94.01 412.21,460.42 450.78,-267.58 660.5,908.79 879.86,-347.12 776.2,318.2 -33.75,397.74 650.86,520.69 125.35,-875.04 607.46,-279.63 590.58,-36.15 171.15,400.15 797.91,-284.45 257.93,298.9 436.31,-380.86 805.12,262.75 110.9,-547.19 764.14,-470.07 291.68,214.54 759.33,-1762.12 947.35,-159.1 1111.28,-2388.87 1697.04,-1617.49 988.32,-26.52 1070.3,-1270.37 -373.64,-197.67 122.94,-426.66 1923.63,-1226.98 1795.88,-67.5 402.56,-624.34 460.42,-108.47 843.7,371.22 173.56,436.31 1012.44,-445.95 388.1,400.15 1646.41,-1026.89 961.83,120.53 740.04,-696.66 1542.76,1154.66 742.46,1463.22 45.8,2690.19 -421.85,94.01 -846.11,-450.77 -530.32,149.45 -609.88,1226.98 286.86,916.02 -1588.57,-380.88 -248.28,694.25 -433.91,127.76 -1549.99,-949.77 -537.56,151.87 -301.32,882.27 -809.95,684.6 -653.27,1224.56 -2022.46,822.01 -1190.82,1815.16 -1082.35,33.75 -1381.25,1058.23 -2061.04,-592.99 -932.88,1251.08 -1819.99,1171.54 -515.86,1058.24 -2061.03,161.51 -838.88,-1010.03 -3391.67,-291.68 -768.97,-793.08 -971.46,349.53 -1070.29,-843.7 -1041.37,-294.09 -1788.64,253.11 -783.43,-687.01 378.46,-1740.43 -496.58,-1164.3 -802.72,-86.78 -356.77,617.11 -479.7,24.1 -1959.79,-887.09 -306.14,-1390.9 -1817.57,-1581.33 z"
   class="fil2 str0"
   id="mun_5205059" /><path
   style="fill:#91c1bb;fill-opacity:1;stroke:#c8eae6;stroke-width:374.3862915;stroke-linecap:round;stroke-linejoin:round;stroke-miterlimit:4;stroke-dasharray:none;stroke-opacity:1"
   inkscape:connector-curvature="0"
   d="m 289204.75,206765.51 7.24,-988.32 822,-1945.34 862.99,-130.17 -224.19,-489.35 1113.68,-1574.09 -426.66,-465.24 -376.05,298.91 89.19,-884.68 -997.98,-460.43 -243.46,-829.22 515.85,-400.17 -161.5,-361.58 -417.03,-36.16 385.69,-520.68 -383.28,-265.16 161.5,-344.71 -578.52,-366.4 115.7,-1316.17 -561.67,-2608.24 -1219.74,-142.22 -231.41,-1022.08 438.72,-106.07 1041.37,491.76 571.3,-588.18 -134.99,-2791.44 477.28,-1892.3 -641.2,-376.05 31.33,-4124.48 -1675.34,-3095.16 1518.66,50.61 1868.19,-513.44 1316.16,-1111.28 2461.19,-397.74 1272.79,-785.84 2543.15,-518.27 489.34,-646.04 1094.4,241.05 995.56,-1053.41 1200.47,607.46 855.75,-701.48 404.97,69.92 156.69,412.2 1313.76,501.39 1455.99,2089.97 1600.61,65.09 679.78,1104.04 296.5,1571.69 -238.64,1248.67 -1352.33,817.18 -161.51,1506.6 1398.12,1431.88 1190.82,3519.43 -576.12,1246.27 407.39,665.32 -308.56,834.05 274.81,805.13 749.69,547.2 168.74,862.98 -1564.46,2056.22 -236.24,1243.85 368.82,694.25 1410.18,605.05 132.58,877.45 -776.2,846.1 -1140.2,2911.97 -1255.9,877.45 -1410.19,1687.39 -7528.2,-706.29 -3090.35,1318.57 -1660.88,127.76 -2928.84,-233.82 -1759.72,552.03 z"
   class="fil2 str0"
   id="mun_5209150" /><path
   style="fill:#91c1bb;fill-opacity:1;stroke:#c8eae6;stroke-width:374.3862915;stroke-linecap:round;stroke-linejoin:round;stroke-miterlimit:4;stroke-dasharray:none;stroke-opacity:1"
   inkscape:connector-curvature="0"
   d="m 162030.43,245556.37 573.71,-1470.45 -412.21,-720.76 -12.05,-985.92 412.21,-809.95 -525.51,-585.77 -2793.85,-20897.21 1222.16,-937.71 903.96,-1388.49 1603.03,-730.4 1590.98,-1566.87 532.73,98.84 836.47,1017.26 525.5,-16.88 209.72,-578.54 713.54,561.67 236.23,-674.96 1562.05,354.36 -378.46,790.66 578.54,648.44 561.65,-376.04 -77.13,-402.58 814.77,-245.88 397.74,725.59 -364,214.54 766.57,417.03 655.68,1046.19 -691.84,245.88 1063.07,684.59 973.86,175.98 523.09,-74.73 173.57,-561.67 383.27,190.44 -28.92,388.1 373.64,38.57 -48.22,404.97 511.05,151.88 16.87,363.99 1130.56,7.23 -347.13,655.68 937.71,94 -77.14,694.25 1176.36,269.99 684.61,-404.98 797.89,1954.97 494.17,-368.82 831.65,544.79 918.42,-937.72 742.46,173.57 667.73,588.18 79.55,513.45 1940.5,412.2 306.15,496.58 -899.14,1142.61 19.28,679.79 412.2,101.23 925.67,-1099.21 450.77,330.25 1046.19,14.46 1752.48,1010.03 580.95,-26.52 250.7,344.71 -188.02,1482.5 1962.2,-590.59 74.72,870.21 163.92,257.94 421.85,-130.17 197.67,872.62 1588.56,-351.94 -43.39,971.46 653.26,547.19 670.14,-523.09 424.26,72.32 60.27,609.87 489.34,-185.61 383.28,1513.84 -486.94,498.99 137.41,470.05 -655.68,547.2 130.18,511.05 1600.61,-279.63 -180.79,1166.72 740.04,-356.77 807.54,67.5 -385.69,764.14 759.33,573.72 318.2,-940.12 1205.28,607.46 94.01,701.48 1091.99,-544.79 359.17,1581.33 658.08,-200.07 552.03,-708.71 732.81,940.12 479.7,-147.04 142.23,1171.53 318.19,-520.68 373.64,325.43 120.53,564.07 -535.15,498.99 894.32,149.45 824.42,-571.31 265.16,142.23 -323.01,764.15 1161.89,-421.85 209.72,-380.87 884.67,896.73 843.71,-277.21 36.15,935.3 525.51,327.84 69.9,1072.7 344.71,207.31 -556.83,397.74 1576.5,-103.66 462.84,-404.97 163.91,214.54 -397.74,474.88 889.5,523.1 -137.41,566.48 1075.12,294.09 433.9,593 831.65,-108.48 -94.02,-735.22 703.89,-36.16 450.78,368.82 248.28,1065.47 2162.28,-151.87 -248.29,761.74 385.7,402.57 2.41,766.55 1094.39,-144.62 296.51,1371.6 891.9,445.96 764.16,-1077.52 877.44,-40.98 180.8,443.54 -337.48,491.76 -327.84,-38.57 137.4,484.52 699.07,342.31 737.63,-342.31 284.45,-624.34 648.44,24.12 944.94,1390.89 985.93,445.96 402.56,-274.81 2.41,-706.29 742.46,-347.13 132.57,1217.34 -641.21,347.12 -9.64,947.35 2227.37,86.79 57.85,641.2 595.41,163.92 -426.67,508.64 -788.25,-168.75 511.03,696.66 1470.45,-315.78 1072.7,296.49 800.32,1518.66 -96.43,1499.38 768.97,826.81 1082.35,503.82 -795.49,940.12 67.49,325.42 947.35,-320.6 359.19,-593 388.09,1304.12 959.41,327.84 226.59,1316.17 376.05,226.59 1781.41,-84.37 -612.29,1489.73 -183.2,1651.24 -2032.1,4153.4 -1053.43,1253.51 -265.15,1494.54 605.05,990.75 2661.26,2114.06 1239.04,1559.64 -156.69,1111.27 -1383.67,1043.78 -8367.07,-2813.14 -347.13,-997.96 -626.75,-320.62 -472.47,-896.73 -2977.05,-1026.9 21.69,-1873.01 -1764.53,241.06 255.52,-795.48 -371.23,-458.01 -838.88,303.72 -1359.55,-94 -139.82,-315.8 1275.19,-1253.49 -518.28,-216.95 -761.73,-1680.17 -903.96,-183.19 -16.87,-1243.86 -730.41,-1038.95 -250.69,69.9 -376.05,-573.71 -824.42,60.26 -67.5,-438.72 -1798.28,-973.87 -2.42,-535.15 -414.6,-108.47 -110.9,-1716.33 318.2,-552.02 -342.3,-315.78 397.74,-1017.27 -754.5,-2651.62 147.04,-860.57 -489.34,-231.41 -250.7,-706.3 -3876.19,-805.13 -937.71,-542.38 -754.52,-1067.88 -978.68,-453.19 -1851.32,21.7 -2089.96,-2355.13 -3104.81,-1190.82 -2114.08,-1470.44 -4724.7,-4505.35 -4715.08,-354.35 -1964.61,-626.75 -2470.83,-151.87 -2562.43,5218.88 672.54,1055.82 -125.35,1277.61 482.12,727.99 455.59,113.3 -824.41,279.62 -106.07,409.8 -1525.89,-1195.64 -542.38,489.34 -1118.51,296.5 -597.81,-597.82 -77.14,-761.74 -894.32,294.09 -1424.64,-1024.49 -1101.64,332.66 -988.32,-274.8 -337.49,-694.25 -1933.27,9.64 -151.87,-383.27 -156.69,214.53 -1145.02,-291.68 -383.27,795.49 -1108.87,407.39 -397.74,-366.41 -916.02,110.88 -1405.36,-947.35 -1636.77,937.72 -3153.03,-1759.71 z"
   class="fil2 str0"
   id="mun_5210802" /><path
   style="fill:#91c1bb;fill-opacity:1;stroke:#c8eae6;stroke-width:374.3862915;stroke-linecap:round;stroke-linejoin:round;stroke-miterlimit:4;stroke-dasharray:none;stroke-opacity:1"
   inkscape:connector-curvature="0"
   d="m 143857.16,202207.13 149.45,-2065.86 -720.76,-1644.01 253.11,-511.03 -901.56,-1096.82 -477.28,-1880.24 -788.26,-1007.61 6983.42,2752.87 1171.53,-229.01 1504.19,-961.81 414.62,-894.32 1091.99,-641.22 -226.6,-1320.98 891.91,-1709.1 -619.5,-1455.98 55.43,-168.74 3100,-1321 508.62,94.02 612.29,-547.2 243.46,202.48 -537.55,253.11 397.75,433.91 1320.98,-4.82 103.66,-363.99 605.05,-219.37 330.25,629.16 899.14,-414.62 474.88,137.4 -24.1,392.93 1569.28,879.85 385.68,-875.03 1323.41,566.48 809.95,749.68 2080.32,-200.07 130.17,568.89 1627.14,-137.4 359.17,-407.38 542.38,134.98 175.96,460.42 826.83,183.21 732.81,-306.15 308.56,1205.29 1246.26,-180.8 -91.6,807.55 308.55,578.53 1569.28,-262.75 1557.23,1171.54 682.19,144.64 498.99,559.24 1516.25,641.21 -339.9,646.04 188.03,498.98 872.62,-173.55 650.85,865.39 1439.11,180.79 1041.37,949.76 1692.22,424.27 995.57,655.67 -595.41,595.41 383.28,554.43 1161.89,14.46 949.76,781.03 527.92,-547.21 441.14,204.9 156.68,764.16 470.06,-337.48 549.61,81.95 1226.98,1195.65 212.13,749.69 494.17,50.61 665.32,-730.4 255.51,94.02 462.83,1509.01 1550,1325.82 -291.68,1267.95 1169.13,-677.37 462.82,689.42 711.12,216.95 1275.19,1945.34 1713.91,894.32 354.35,-106.07 713.54,1511.43 1911.57,108.47 335.07,595.41 1010.04,315.79 479.7,1559.64 450.77,445.95 -98.83,520.68 771.38,110.88 -347.12,730.41 236.23,306.14 1386.08,-250.7 539.97,571.31 684.6,-185.61 262.75,532.73 -585.77,1646.41 1019.67,-103.65 790.67,781.03 788.26,-602.64 1352.33,2478.06 1856.14,1603.03 -467.66,1082.34 390.51,621.92 1516.25,12.06 814.78,-564.07 879.85,756.91 744.87,-648.44 2890.26,1463.22 407.39,1725.96 1588.57,-797.89 684.6,325.42 665.32,735.23 901.55,-383.29 470.06,130.17 795.49,1509.02 1017.26,764.15 84.37,858.17 578.53,462.82 438.72,1251.09 -166.33,1173.94 2265.94,351.95 31.34,925.65 -559.25,1468.04 718.34,122.94 990.75,-682.19 -701.48,1436.7 364,585.77 1084.76,-185.62 1053.41,1359.56 564.07,-89.19 484.52,-679.78 981.1,465.24 -86.77,518.28 383.28,503.8 -282.04,486.93 -1255.9,69.91 -195.25,257.93 1318.57,458.01 1205.29,-1051.01 272.39,918.43 1248.68,1038.95 812.36,-185.61 1219.74,935.3 776.2,-241.05 2846.89,1812.74 486.93,908.78 207.31,1947.75 614.7,65.08 86.78,-527.92 366.4,-40.98 236.24,925.66 -614.7,462.83 132.59,1012.44 590.58,325.43 870.22,-817.19 1005.21,834.06 443.54,949.77 872.62,231.41 7.23,761.74 -658.08,761.74 122.94,520.68 -843.7,1108.86 -94.01,1496.97 -337.49,1863.36 -2121.29,2102.02 -1545.17,298.91 -2533.51,2425.03 -1060.65,1841.68 -1781.41,84.36 -373.64,-226.59 -229,-1313.76 -959.41,-330.25 -385.69,-1304.11 -359.18,592.99 -947.34,323.03 -69.92,-325.43 797.91,-940.13 -1084.76,-506.21 -766.56,-826.83 96.42,-1499.37 -800.31,-1518.66 -1075.12,-294.09 -1468.03,313.37 -513.45,-694.24 788.26,168.74 426.67,-511.04 -595.41,-161.51 -57.86,-643.62 -2224.95,-84.37 9.64,-949.77 638.81,-347.11 -130.17,-1214.93 -744.87,347.12 -2.41,706.3 -400.16,274.8 -988.33,-448.36 -942.53,-1388.49 -650.85,-26.51 -282.04,624.33 -737.63,342.3 -699.07,-339.89 -139.81,-484.53 327.83,36.16 337.48,-491.75 -180.79,-443.55 -877.44,40.98 -761.75,1079.94 -894.32,-448.36 -296.5,-1371.62 -1094.39,144.64 -2.42,-766.57 -383.27,-402.56 245.88,-761.74 -2162.29,154.28 -245.88,-1065.48 -453.18,-371.22 -703.88,36.15 94,735.23 -831.64,108.48 -433.9,-590.6 -1072.71,-296.5 135,-566.48 -889.5,-520.68 400.15,-474.89 -166.33,-216.94 -460.42,407.38 -1578.92,103.65 559.25,-400.15 -347.11,-207.31 -67.51,-1072.7 -525.5,-325.43 -38.57,-937.71 -841.28,277.22 -884.69,-896.73 -209.72,380.87 -1161.88,421.85 320.6,-764.16 -265.17,-142.21 -824.41,571.3 -894.32,-149.46 535.15,-498.98 -118.12,-564.08 -376.05,-323.02 -318.19,518.28 -139.82,-1171.54 -482.11,147.05 -730.4,-940.12 -554.43,708.7 -658.08,200.08 -359.19,-1581.33 -1089.57,544.79 -94.01,-701.48 -1207.69,-607.46 -318.2,940.12 -759.33,-573.71 388.11,-764.16 -809.96,-65.08 -740.05,356.76 183.21,-1169.12 -1600.62,279.62 -130.17,-511.04 653.26,-547.19 -137.39,-467.66 489.34,-501.4 -385.69,-1513.84 -486.94,188.03 -62.68,-609.87 -424.25,-74.73 -670.14,523.1 -650.85,-544.79 43.39,-973.87 -1590.98,351.94 -197.66,-872.63 -421.85,132.58 -163.92,-260.33 -72.32,-867.81 -1964.61,590.58 190.43,-1484.9 -253.11,-344.71 -580.95,26.51 -1750.07,-1010.02 -1046.18,-14.47 -453.19,-327.84 -925.66,1099.23 -409.8,-103.66 -19.28,-677.37 899.15,-1145.01 -306.15,-494.17 -1940.5,-414.62 -81.96,-511.05 -667.73,-590.58 -740.05,-173.56 -918.43,937.71 -831.65,-544.79 -496.57,371.22 -797.9,-1954.96 -682.18,402.56 -1178.78,-269.98 77.14,-691.83 -935.3,-96.43 344.71,-655.67 -1128.15,-7.24 -16.86,-363.99 -511.05,-151.86 48.21,-402.57 -376.05,-40.98 28.94,-388.1 -380.88,-190.43 -173.56,561.66 -523.09,74.72 -973.87,-173.56 -1063.06,-687.01 691.83,-243.47 -658.08,-1046.18 -764.16,-419.44 361.6,-212.13 -397.75,-727.99 -814.78,245.88 79.55,402.56 -564.07,376.05 -576.12,-646.03 378.46,-790.67 -1564.46,-356.76 -236.24,674.95 -713.53,-559.25 -207.31,578.54 -525.5,14.46 -836.46,-1014.85 -535.15,-101.25 -359.18,-332.65 2.41,-609.88 349.54,-376.04 -216.96,-154.28 -1154.66,-368.82 -339.88,612.28 -593.01,-359.17 -431.48,359.17 -1993.55,-1277.59 -2164.69,127.76 -183.2,544.78 -508.63,224.19 -1716.32,-175.97 -730.4,-1099.22 -508.64,-207.31 245.88,-229 -1528.3,-229.01 178.38,-506.21 -701.47,-728 113.29,-424.25 -508.62,-207.31 -127.76,339.88 -412.21,-595.41 -747.28,-72.31 -166.33,-417.03 -298.9,94.01 262.74,-580.95 -682.19,-94.01 67.5,-515.86 -997.97,-291.68 -771.39,-684.61 -477.29,282.05 -212.13,-1181.19 -1258.32,-229 -973.86,-916.02 183.2,-171.14 -809.95,-1299.3 -301.33,-134.99 178.39,-1207.7 -443.54,-156.68 z"
   class="fil2 str0"
   id="mun_5211305" /><path
   style="fill:#179999;fill-opacity:1;stroke:#c8eae6;stroke-width:374.3862915;stroke-linecap:round;stroke-linejoin:round;stroke-miterlimit:4;stroke-dasharray:none;stroke-opacity:1"
   inkscape:connector-curvature="0"
   d="m 107235.8,108628.89 1267.96,1183.59 1463.22,556.83 1583.74,1692.22 2726.36,1439.11 2519.04,-188.02 1202.88,294.09 858.16,-231.42 1265.55,426.68 1427.05,-515.87 2143,822.01 1800.69,-84.37 554.43,419.44 1306.52,-96.43 467.66,-330.25 957,108.48 363.99,-506.22 742.46,149.45 127.75,-773.79 995.57,-53.02 2914.37,725.57 -69.9,860.58 1439.11,-720.77 -48.21,-1738.01 -1077.53,-626.75 -120.53,-1776.58 168.74,-928.08 537.56,-185.61 -36.15,-877.45 730.4,-809.95 98.82,-653.26 -773.79,-94.02 4.82,-679.77 -460.42,-597.83 725.59,-390.51 -2039.34,-2253.88 703.88,-448.36 200.08,-624.34 -1400.53,-14.47 -552.03,-944.93 3377.21,-337.483 200.08,-1125.74 749.68,-503.802 323.02,-2121.307 1470.45,-1234.212 151.86,-930.477 1031.72,-1525.892 -245.87,-997.968 -887.1,-154.274 122.94,-1255.913 -269.98,-306.136 593,-1603.029 1446.34,-653.264 624.34,841.284 947.35,458.01 1120.92,327.837 809.95,-243.467 1031.72,530.324 530.33,-867.806 226.59,-2314.143 2333.42,171.15 173.57,-1393.308 455.6,-115.707 -318.2,-1576.512 511.04,-503.808 2878.22,1537.942 2967.4,711.117 655.68,-489.345 957,-2528.685 1217.33,-1607.849 978.69,151.866 1234.21,1029.312 1988.73,-621.926 1091.98,14.463 -1371.61,1918.812 -983.51,2123.71 -262.76,3683.353 -1202.87,959.4 -163.92,853.339 1125.74,3039.728 -506.22,2162.277 132.58,1586.161 -494.17,768.969 344.72,291.68 98.82,985.923 1586.17,715.936 1154.65,995.56 113.3,935.3 -954.58,1176.36 1641.59,2280.4 805.13,571.3 1395.72,332.66 385.69,576.13 -168.74,568.89 2208.08,1099.22 814.77,1026.9 1055.83,122.94 503.81,470.06 -395.33,1381.26 -619.52,429.08 224.18,887.08 -1200.45,523.1 -486.95,718.35 -154.27,1328.22 542.38,554.43 1017.26,294.09 262.75,458.01 1612.67,306.14 542.38,701.47 993.15,-142.21 -291.68,911.18 684.6,57.86 1186,1610.26 -86.78,477.29 1038.96,26.51 -31.34,600.24 342.31,-94.01 72.31,315.78 354.35,-200.08 489.34,771.38 829.24,-431.48 479.7,479.7 122.94,-414.62 318.19,482.12 455.6,-86.78 156.69,1065.47 1528.3,-31.35 171.15,241.07 183.21,-250.7 942.53,407.38 48.21,-363.99 226.59,55.43 175.98,1053.43 592.99,378.45 -166.33,356.77 1154.67,-94.01 -272.39,964.22 626.75,402.57 -313.38,253.1 479.71,822.01 -135,356.77 339.9,168.73 -337.49,212.13 356.77,168.74 -166.33,260.35 1660.88,1067.88 -101.25,267.57 315.79,388.11 168.74,-279.63 691.83,867.8 296.5,-81.96 -79.55,949.76 641.22,-183.19 402.56,646.03 465.24,-310.96 1217.34,1882.65 889.5,91.59 175.97,-527.91 1070.29,949.77 269.98,-390.51 737.64,578.53 592.99,-19.28 494.17,-732.81 1022.08,207.3 407.38,-708.71 1786.24,404.98 1041.36,-62.67 286.86,-308.56 388.1,207.31 597.82,2246.65 1935.69,-643.62 870.22,605.05 515.85,-221.77 168.75,894.32 441.13,209.72 -62.67,325.43 445.95,21.69 -303.73,306.15 -477.29,-168.74 -231.42,441.13 665.32,272.39 55.44,318.2 433.91,-241.06 -438.73,819.6 96.42,2051.39 834.06,231.41 -243.46,593 127.75,532.73 1036.55,708.71 -115.71,443.54 648.44,89.2 84.37,462.83 -508.63,-127.76 351.95,655.67 -720.77,101.24 -142.22,421.85 535.15,-28.92 -250.7,513.45 238.64,1123.33 824.42,-57.86 156.68,1935.69 870.22,-168.75 178.39,556.85 -482.12,674.96 376.05,997.97 1675.34,891.91 573.72,715.95 -402.57,-14.47 209.72,549.6 -388.09,665.32 448.36,282.04 361.59,-178.38 306.13,511.04 9.65,807.53 349.53,349.54 -771.39,547.2 619.52,752.09 163.92,1219.75 -3365.15,-966.63 -1036.54,-1566.88 -1995.96,72.33 -766.56,-841.29 -122.94,-899.15 -3931.63,-67.49 -1603.03,1017.26 -626.75,961.81 -238.64,1354.74 -1583.74,1231.8 115.7,3367.57 -715.93,1740.43 156.68,474.88 -3068.65,106.06 -3888.24,-2858.93 -2181.57,-462.83 -983.51,460.42 -151.86,687.01 -383.29,137.4 161.51,438.72 590.59,-55.43 248.29,294.09 -754.51,778.61 -12.06,1663.29 -703.88,906.37 1812.75,2065.85 1641.59,43.4 588.18,1323.4 1574.1,-81.96 2576.9,1988.71 -896.73,2282.82 -882.27,1219.75 511.04,1672.93 -226.59,1757.3 -385.7,619.52 -10541.41,11725 -168.74,1511.43 -1448.75,655.67 -578.54,1545.17 -679.78,-144.63 -1557.23,-1171.54 -1569.27,262.76 -308.56,-578.54 91.6,-807.54 -1246.26,180.79 -310.96,-1205.28 -730.4,303.73 -826.83,-180.79 -175.97,-460.42 -542.38,-135 -359.18,407.39 -1627.13,137.41 -130.17,-571.31 740.05,-1120.92 50.62,-906.36 -1795.87,-3820.75 433.9,-2405.75 -269.98,-1173.95 -1745.26,-1803.11 -2326.2,-556.83 1967.03,-814.77 597.81,-1212.53 2432.27,-802.71 -585.77,-660.5 142.23,-1031.72 -547.2,-515.86 -171.16,-1525.89 -638.79,-106.06 -617.11,-1022.08 -1395.72,-547.2 101.25,-588.19 -2241.83,-74.72 55.44,-359.17 -725.58,-790.67 -2203.25,-568.9 -1231.8,672.56 -887.1,-55.45 -380.86,576.13 -1284.84,525.5 -708.71,665.32 33.75,-1882.66 -455.59,-465.24 233.82,-1272.78 -453.19,-482.11 -130.17,-867.81 -1231.8,-636.38 -1311.35,376.05 -691.83,-862.99 -682.19,-2808.31 250.7,-414.62 -561.67,-429.08 197.67,-995.57 -482.11,-908.78 -1178.77,-424.25 -1716.32,392.91 -1333.05,-306.14 -2709.47,1974.25 -1798.29,195.27 -1803.11,-417.03 -1263.13,520.68 -3714.68,-1511.43 -583.36,-2111.66 573.71,-643.62 -16.87,-942.53 -578.53,-303.73 -737.64,-1195.64 -1000.39,-197.67 -2323.78,-1723.55 -523.09,-1280.02 -995.57,-706.3 -1832.03,-501.4 -1318.58,306.15 -679.79,-564.07 -43.38,-1142.61 -1277.6,-43.39 -778.62,388.1 -110.89,-3924.4 -385.68,-1665.7 -431.5,-662.91 -2133.35,-161.51 192.85,-641.22 -402.56,-650.85 723.16,-887.08 -291.68,-583.36 216.96,-1159.49 -1079.94,-679.78 -513.45,-949.76 347.12,-773.79 1135.37,-402.57 -1149.84,-2649.21 253.11,-793.08 829.24,-802.71 -3239.8,-1559.64 -204.9,-785.85 -1581.33,67.5 -1248.68,-631.57 -865.39,-31.34 -732.82,-689.42 303.74,-453.19 -347.13,-800.3 4023.24,168.74 313.37,-267.58 711.12,-1280.02 -103.64,-566.48 -1402.96,-906.37 -667.73,-1434.29 1130.56,-1077.52 -486.94,-1207.7 2167.11,-1764.53 -262.76,-542.38 -2345.48,-1523.47 -1212.51,-1853.73 -817.18,-48.22 -1487.33,-1101.62 -2034.51,-542.38 -267.58,-2998.75 z"
   class="fil2 str0"
   id="mapa_jatai"
   inkscape:label="#mun_5211909" /><path
   style="fill:#179999;fill-opacity:1;stroke:#c8eae6;stroke-width:374.3862915;stroke-linecap:round;stroke-linejoin:round;stroke-miterlimit:4;stroke-dasharray:none;stroke-opacity:1"
   inkscape:connector-curvature="0"
   d="m 23555.353,110060.77 1012.439,371.22 491.756,667.73 2646.803,-14.46 265.163,482.11 648.443,19.29 665.317,523.09 1161.893,1899.53 655.675,310.96 882.268,-397.74 453.186,376.04 1024.491,48.21 1267.959,1361.97 617.106,-327.83 1200.462,86.78 395.333,344.71 1672.934,156.69 388.102,-229.01 -9999.035,-9994.21 -103.655,-1482.51 993.154,-1969.43 496.576,-84.36 419.44,-573.72 742.455,-26.52 392.922,-361.58 1169.126,339.89 474.882,-725.59 -84.371,-414.6 1419.825,-1639.191 260.341,-1128.151 889.5,-850.928 354.353,-3295.251 378.459,-269.979 91.602,-867.807 1251.084,-867.806 33.748,-732.811 -458.007,-134.995 -178.383,-706.289 -327.837,455.599 -535.146,-65.092 573.715,-1443.932 2265.934,518.278 836.468,-633.984 583.356,127.762 952.175,-1436.7 1277.601,-245.877 1752.482,-1301.705 2205.67,-928.069 1048.597,-1113.682 3133.738,-248.288 2928.84,-1506.606 875.037,-139.813 286.857,-537.556 236.236,-1089.576 -723.171,-614.695 315.784,-1108.862 -1812.746,-537.556 -1672.935,-2494.938 1147.431,-2403.336 -920.837,-3717.096 -537.557,110.886 -84.369,-612.284 -583.358,-875.036 -860.573,-245.878 537.557,-462.829 -101.243,-573.716 -899.143,-91.6 84.371,-822.005 -462.829,200.078 -159.099,-315.784 209.72,-817.183 -1079.934,-1523.479 202.487,-978.69 -274.805,-1424.646 1443.931,-1689.808 -337.48,-624.337 479.703,-274.804 -436.312,-525.504 409.796,-805.131 -260.341,-43.389 149.455,-144.635 -147.044,-1424.645 -759.329,-985.922 279.626,-896.731 547.198,43.39 12.053,-511.04 674.96,-282.037 -274.805,-865.394 260.341,-436.313 253.109,257.931 740.045,-506.219 949.764,325.426 788.255,-248.288 313.374,-944.942 520.683,-257.931 -544.789,-542.378 402.566,-55.443 -368.817,-269.983 -55.444,-655.675 -846.109,-590.589 45.8,-1448.752 -241.056,-91.601 241.056,-354.354 -542.377,-421.849 633.979,-783.435 -202.488,-323.016 672.549,-79.548 -274.805,-679.78 523.094,-443.545 -455.598,-40.98 -28.927,-1366.792 -376.048,-115.707 178.381,-491.756 -730.401,417.028 -277.216,-257.93 289.269,-752.097 -1383.667,-1272.78 781.025,-243.467 269.983,-677.37 576.126,219.361 -31.337,1051.008 1046.185,-438.723 638.802,-173.561 139.812,-1014.849 1224.568,-494.166 347.123,-523.094 -511.041,-212.13 1070.292,-807.54 1330.633,458.007 752.098,-1185.998 433.902,477.292 489.346,-571.305 1552.405,390.513 496.577,443.544 -633.979,662.905 366.406,1173.948 -648.443,694.243 284.448,445.955 -327.838,542.378 535.146,154.277 125.349,-532.736 178.383,848.519 527.914,113.297 -573.715,549.61 363.995,122.939 12.053,1270.369 -556.841,306.142 713.528,1140.199 527.915,294.089 -91.602,274.805 -496.577,-137.403 -86.78,969.049 -486.935,339.89 653.264,689.422 -289.268,638.801 983.512,212.13 -190.436,380.869 626.748,-81.959 646.033,552.02 672.547,-216.951 132.582,330.247 455.597,-86.779 894.321,1480.087 983.511,650.854 376.049,670.138 1405.362,472.472 -566.484,735.222 503.808,-9.642 347.122,858.162 781.025,-419.439 108.475,301.322 412.206,-590.59 609.875,1077.524 583.357,-508.63 229.004,274.805 385.691,-265.162 1282.422,793.076 580.946,-378.458 573.715,356.763 1082.346,53.032 69.906,-552.019 807.54,-16.875 65.086,284.448 523.093,-282.036 -43.39,291.679 1007.617,156.686 985.922,-265.163 31.338,583.358 1051.007,-501.398 713.528,793.076 -294.089,1383.667 -1236.621,265.162 -36.159,614.695 -554.43,272.394 -301.322,-409.797 -371.227,409.797 496.577,226.593 -118.117,438.724 445.955,-253.11 824.413,1320.991 337.48,-265.162 462.829,154.276 -527.914,421.849 713.528,347.122 699.064,1448.751 472.472,96.424 250.699,-624.338 523.093,323.016 421.849,-274.805 125.35,641.212 689.422,-122.939 269.984,436.312 335.068,-81.959 404.977,720.76 1836.852,629.158 16.874,940.121 -573.715,648.443 701.475,72.317 513.451,711.118 368.817,-151.866 151.866,696.654 966.638,260.341 -265.163,585.768 433.902,279.626 36.159,826.825 691.833,614.695 -633.98,429.08 231.415,549.61 631.569,57.854 202.487,1942.918 395.333,443.545 -848.52,3717.094 1200.463,2410.569 -48.211,1610.259 460.421,906.374 556.837,74.727 788.258,-1518.658 954.588,115.708 69.904,518.271 486.933,-74.727 1132.963,711.117 255.523,2444.316 2601.008,-455.597 621.918,-1537.942 1509.024,-585.768 1263.137,1022.08 814.77,1709.093 1506.61,629.158 156.68,684.602 477.3,301.32 771.38,-149.455 -62.68,-542.377 923.25,-467.651 911.2,291.679 448.37,1082.345 1926.04,-515.861 1169.12,1559.637 966.63,433.902 882.28,-69.906 265.15,-455.598 768.98,-282.036 3656.83,431.492 433.9,-547.2 2241.83,-667.727 438.72,602.642 1012.45,195.257 537.55,691.832 -79.54,1431.88 559.24,633.974 40.98,679.786 761.74,91.594 884.68,954.588 778.62,147.051 373.64,1038.948 776.2,84.371 -221.78,624.339 327.84,-2.411 -106.06,397.741 658.08,747.278 -188.03,882.263 -655.67,89.193 74.72,535.147 -614.69,-554.426 -973.87,665.309 -631.56,-180.787 -178.39,764.147 -981.1,-195.254 -875.04,267.568 -624.34,1005.213 -906.36,91.603 -106.07,-580.948 -506.22,310.959 -735.23,-397.741 -701.46,797.903 -932.9,-1545.181 -1226.98,-539.969 672.55,-942.532 -790.67,-115.706 180.8,-274.802 -764.16,-578.537 139.82,-332.66 -409.79,149.462 -238.65,-296.502 -1429.46,942.532 -1101.63,-202.487 -188.03,255.522 -862.99,-983.511 161.51,-310.97 -718.34,-373.639 -371.23,-749.679 -477.29,62.67 101.24,-843.695 318.19,-221.776 -506.21,-12.056 154.27,-421.842 -498.99,-231.422 -243.47,-1147.43 -723.16,436.32 -171.15,-378.462 -891.91,31.335 -1188.41,-937.71 -2545.56,60.264 -1460.82,-175.971 -373.63,-351.943 -1918.817,573.715 -2654.033,-1082.345 -2234.592,486.934 -1725.968,-472.471 -701.476,506.22 -325.426,995.566 -834.06,-57.858 -1858.546,1200.466 -1157.072,1619.897 1540.353,614.695 1219.747,1504.202 1096.811,257.923 441.132,1147.43 1711.501,-351.938 658.085,344.705 149.452,670.141 694.253,520.68 2150.221,339.893 1263.136,-672.542 527.913,229 1188.406,-655.675 1070.3,-89.193 648.44,819.593 1371.62,742.456 -344.71,1193.233 207.3,426.664 -1053.41,1335.461 -33.75,761.735 -918.43,175.975 -253.11,1084.76 790.67,1376.428 -40.98,1472.86 655.68,525.5 1856.14,115.71 1328.21,1619.9 1063.06,703.89 1265.56,1588.56 -409.8,1477.68 267.57,3001.15 2034.52,539.97 1487.32,1101.63 817.18,48.21 1212.51,1856.14 2345.49,1521.07 262.76,542.38 -2167.1,1766.94 486.93,1205.29 -1130.56,1077.52 665.32,1434.29 1405.36,906.38 103.65,568.89 -711.11,1277.6 -313.38,267.57 -4023.23,-168.74 347.12,800.31 -303.74,453.19 732.82,689.42 862.99,31.34 1251.08,631.56 1581.32,-65.08 204.9,783.43 -1200.45,380.88 -2249.06,2412.97 -2053.81,-677.37 -1152.25,219.36 -1453.58,-720.75 -3280.78,1603.02 16.88,544.79 -513.45,-219.37 -342.3,282.05 -7.24,-1094.41 -489.34,-257.92 -674.97,209.71 84.37,-1043.77 -484.52,655.67 -279.63,-212.13 -313.37,236.24 -12.05,-1239.03 -436.311,491.76 -515.867,21.69 -650.853,1684.99 -1834.439,1173.94 -424.264,737.63 -843.694,14.47 -120.528,248.29 -323.015,-224.19 -2572.084,1166.72 -988.324,1583.74 -1600.621,1270.37 -1769.356,-460.42 -532.736,-482.11 -1571.691,-98.83 -3367.563,783.43 -983.512,1484.91 -920.836,125.35 -1183.589,903.96 -612.284,-45.8 -1795.873,976.28 -766.561,69.91 -920.837,756.91 -197.666,1287.25 -429.081,506.21 -2396.104,-699.05 -1880.243,241.06 -797.899,1499.36 -5305.66,7021.99 -3242.213,21456.46 -4671.681,296.51 -4522.225,-1330.64 -2287.629,-298.92 -2651.624,728 -3112.043,1913.99 -973.87,2183.98 -441.133,60.26 -1320.992,-658.09 -2270.755,-91.6 -2789.027,-2863.76 -77.138,-3413.35 -740.044,-2193.62 12.053,-2545.57 -1747.662,-5259.85 65.085,-1986.31 -1272.779,-5059.78 349.532,-911.19 1195.642,-976.28 3495.323,-443.55 995.565,-441.14 332.657,-1014.84 171.151,-4727.12 -619.516,-1593.4 -802.719,-602.63 -1296.886,-2246.65 -2764.921,-1783.82 342.301,-1501.79 -458.007,-778.61 -9.643,-882.26 -908.784,-872.63 590.589,-3092.76 -2417.799,-3712.28 337.478,-783.43 -896.731,-1451.16 96.424,-380.87 -624.338,-36.16 -156.687,-894.32 -503.809,-506.22 -363.995,168.74 -200.077,-578.54 -805.129,-532.73 154.276,-265.16 -378.46,-530.33 -3350.689,-1482.5 197.667,-600.23 -342.301,-455.6 67.496,-629.15 -684.601,-412.21 530.325,-395.33 77.138,-535.15 -508.63,-706.3 494.166,-402.56 -407.385,-279.63 60.264,-752.09 -395.333,-118.12 231.414,-243.47 -436.312,-720.76 2.41,-1441.53 318.194,-443.54 -354.353,-359.17 421.85,-727.99 -294.089,-414.62 612.283,-400.15 z m 39217.528,-23322.25 -718.349,824.415 -790.666,241.056 -313.374,995.567 -2210.49,1689.811 -1140.199,1357.151 -2827.597,1301.704 1901.939,1272.781 -412.207,995.557 106.065,826.827 -1342.686,1906.764 506.219,761.736 918.426,-911.198 1728.377,-2793.85 1639.186,-797.892 4230.547,-103.66 2345.483,-506.213 2468.42,339.893 633.98,778.614 2755.279,802.715 1181.179,711.121 1856.137,-96.426 677.369,-1311.349 730.402,407.385 -286.857,573.715 539.967,106.061 -380.87,429.086 633.979,79.548 127.76,1318.582 1113.682,-265.167 404.976,-1272.78 414.618,7.233 -9.642,-298.913 1048.597,-511.035 233.825,-834.06 337.479,-14.457 -294.089,-720.766 648.443,-1181.176 959.406,-552.015 1342.686,460.411 1636.775,-443.543 2851.702,-5093.533 -81.959,-373.629 -2478.064,-612.289 -1241.442,-226.593 -1108.861,354.353 -3194.003,-913.605 -800.308,-1280.011 207.308,-1188.41 h -766.56 l -120.528,-679.78 -402.565,-7.233 296.5,-713.527 -286.858,-1301.707 -549.609,-518.272 120.528,-308.553 -482.114,-130.17 -144.634,-629.158 -359.174,-98.833 277.215,-525.504 -327.838,-339.89 -631.569,147.044 -195.255,-713.528 -1405.361,-1253.495 -161.508,-899.142 -708.707,-783.434 -142.224,257.93 -580.947,-57.853 -24.105,800.308 -388.101,380.87 -1448.752,33.747 84.37,518.273 -819.593,-436.313 -498.987,265.163 -756.919,1026.901 -539.967,96.424 -101.244,1108.86 -850.93,250.7 -766.561,884.678 -937.71,402.564 -564.074,1294.475 -2485.295,506.22 -879.857,1337.865 371.227,701.475 313.374,33.748 284.447,662.906 -200.077,195.256 409.796,178.382 z"
   class="fil2 str0"
   id="mapa_mineiros"
   inkscape:label="#mun_5213103" /><path
   style="fill:none;stroke:#c8eae6;stroke-width:374.3862915;stroke-linecap:round;stroke-linejoin:round;stroke-miterlimit:4;stroke-dasharray:none;stroke-opacity:1"
   inkscape:connector-curvature="0"
   d="m 175939.4,86285.334 1333.05,195.252 2089.96,-216.946 2208.08,932.889 2138.17,-595.405 1583.75,-19.289 872.62,-376.049 1111.28,-2186.385 2176.74,-1827.21 759.33,84.37 1142.61,-631.569 -110.89,-380.87 1087.17,91.602 518.27,-530.326 380.87,330.249 593,-790.666 1347.5,53.032 327.84,-1422.235 2977.06,-2844.47 -841.3,-3608.62 1267.96,735.222 1412.6,-568.894 -151.86,-1084.755 -600.24,-419.438 103.66,-525.504 1048.59,-737.634 894.32,-62.675 337.48,-609.873 617.11,84.369 1123.33,-1489.73 1178.76,-429.081 694.25,-629.159 1284.83,727.992 993.15,-192.845 862.98,-638.801 1243.86,701.475 918.42,-188.025 1214.93,-807.54 -303.73,-1957.381 1940.51,-735.222 -318.2,-920.838 154.28,-665.316 817.18,67.495 843.69,-566.482 -12.04,-2405.747 1022.08,-1521.069 -332.66,-2089.962 -1530.71,-1559.637 -19.28,-527.915 1236.61,-392.922 850.94,77.138 875.03,-515.862 1137.79,450.777 694.25,-682.192 626.74,36.159 1376.44,1111.272 368.81,1475.267 812.36,740.044 1475.27,2502.171 1043.77,981.1 944.94,378.46 976.28,1458.393 597.83,310.963 590.58,1287.244 638.81,144.633 325.43,1116.093 -267.58,371.227 -81.96,448.367 -547.19,-96.423 -822.01,566.483 -2420.21,161.508 -740.04,1410.183 -1106.46,790.666 -359.17,2133.352 262.75,1041.366 -725.58,855.751 -971.46,486.935 -1294.48,-101.244 -3811.1,1200.463 -3307.3,2504.579 862.98,1516.248 -588.18,3314.53 822.01,1475.268 1742.84,-424.259 684.6,245.877 36.16,330.248 928.07,-118.118 212.12,392.923 1622.32,-701.476 583.36,337.48 359.17,-180.793 785.85,1022.081 617.11,4.821 354.35,1120.915 703.88,397.743 -171.15,754.507 727.99,301.322 204.9,-496.577 431.5,134.991 -142.23,-672.548 409.8,-115.708 277.21,503.81 506.22,69.905 183.2,-511.04 1566.87,115.708 -77.14,477.292 395.33,438.723 -1243.84,1974.256 -431.5,2304.506 790.67,930.476 -2.41,836.471 1781.41,-173.563 1750.07,1757.303 -4418.57,4739.173 -1834.44,1313.76 -195.26,706.299 -694.24,711.117 -1118.5,518.27 -1950.16,1687.4 -2391.27,720.76 -1979.08,-612.29 -1856.14,402.57 -711.12,-491.76 -1918.81,-221.77 -2051.4,474.88 -795.48,612.28 -1651.24,-392.91 -3398.9,578.53 -2239.42,-1260.73 -2779.38,-267.57 -1108.86,-301.32 -491.76,-491.76 -2651.63,72.32 -10006.26,-3263.909 819.59,-1296.882 1443.93,-809.949 -48.21,-687.019 -1540.35,-744.857 180.79,-1265.558 -265.16,-646.03 -2068.28,-1574.094 -2490.11,-841.294 -718.35,245.878 -2875.81,-424.253 342.3,-4056.991 z"
   class="fil2 str0"
   id="mun_5213756" /><path
   style="fill:#91c1bb;fill-opacity:1;stroke:#c8eae6;stroke-width:374.3862915;stroke-linecap:round;stroke-linejoin:round;stroke-miterlimit:4;stroke-dasharray:none;stroke-opacity:1"
   inkscape:connector-curvature="0"
   d="m 238744.34,227549.43 711.12,-1566.87 -364,-1210.1 1002.8,-1321 -1745.25,-11172.98 1222.16,-2478.07 1738.01,-2135.76 1132.98,-2798.66 809.94,-641.22 1034.14,1415.01 713.52,277.21 544.79,754.51 1487.33,50.62 65.08,429.08 1480.09,535.15 303.72,359.17 -159.09,168.74 1697.04,1783.83 884.68,178.37 -84.37,342.31 1089.58,-209.72 168.74,576.12 -339.89,404.98 985.92,-315.78 -77.14,1369.19 814.77,-339.88 1258.32,349.53 501.4,474.88 -33.75,474.88 494.17,-226.59 -161.51,-539.96 918.42,-359.19 248.29,860.58 884.68,-284.45 -26.52,298.91 944.94,-130.17 882.28,535.15 -74.74,284.45 850.94,154.27 670.13,559.26 1419.83,14.45 -518.28,-672.54 7.24,-1393.31 -539.97,19.28 -368.82,-303.72 376.05,-508.64 -766.56,-453.18 -74.72,-482.12 253.11,-498.99 -552.03,-1207.68 458.01,-2649.23 2135.77,-3288 1149.84,-2521.46 2567.25,624.34 -202.49,1506.6 383.29,648.44 1282.41,730.4 759.34,865.4 248.29,1063.06 417.02,467.65 4370.36,2094.79 1075.12,-180.8 62.67,621.93 554.42,168.74 -511.03,973.87 535.15,1253.5 1345.09,113.29 1210.11,1070.29 2468.42,1149.85 1087.17,-106.07 -2183.98,4654.81 -1564.46,923.24 -1771.77,354.35 -629.15,400.16 -308.56,450.78 -1518.66,4876.58 -2188.79,2333.43 -660.5,356.76 -1065.47,-1892.3 -1899.53,-474.88 -3090.34,1417.41 -2417.8,-349.52 -2875.81,1682.57 -1359.56,144.63 -5604.57,-1224.57 419.44,1434.29 -460.42,875.04 -233.82,1757.3 -877.45,682.19 -1496.96,2735.99 -2584.13,-2205.66 -2682.97,-715.94 -1537.93,-2036.93 -2791.44,-101.24 -279.63,-802.73 -1361.97,-740.04 -74.73,-561.66 z"
   class="fil2 str0"
   id="mun_5216304" /><path
   style="fill:#91c1bb;fill-opacity:1;stroke:#c8eae6;stroke-width:374.3862915;stroke-linecap:round;stroke-linejoin:round;stroke-miterlimit:4;stroke-dasharray:none;stroke-opacity:1"
   inkscape:connector-curvature="0"
   d="m 107235.8,108628.89 409.8,-1477.68 -1265.55,-1586.15 -1065.47,-706.3 -1325.8,-1619.91 -1856.14,-113.29 -658.09,-525.5 40.98,-1475.27 -790.67,-1374.019 253.11,-1087.172 918.43,-175.974 36.16,-761.735 1051,-1333.04 -204.89,-429.085 342.3,-1193.233 -1371.62,-740.045 -646.03,-822.004 -1070.29,91.604 -1188.415,653.263 -527.913,-229 -1265.547,674.954 -2147.82,-342.294 -694.243,-520.69 -149.452,-670.131 -660.496,-344.716 -1709.09,351.939 -441.132,-1145.019 -1096.812,-260.335 -1219.747,-1501.79 -1540.353,-617.106 1157.073,-1617.486 1858.546,-1202.877 834.06,60.269 323.015,-997.977 703.887,-506.218 1723.557,472.47 2237.003,-486.934 2654.033,1082.345 1916.406,-573.715 376.04,354.352 1458.41,173.562 2545.56,-57.854 1190.82,935.299 891.91,-31.335 171.15,378.461 720.75,-433.908 245.88,1147.43 498.99,231.421 -154.27,419.431 506.21,14.467 -318.19,221.777 -103.65,841.283 479.7,-60.258 371.23,749.679 718.34,371.228 -163.92,313.38 865.4,983.512 188.03,-255.522 1099.22,202.487 1431.87,-944.944 236.24,296.503 412.2,-149.462 -139.81,335.071 761.74,576.126 -180.8,277.213 793.09,113.304 -672.56,942.533 1226.98,539.958 932.89,1547.593 701.47,-800.314 735.23,400.152 503.81,-313.371 106.07,580.949 908.78,-91.604 621.92,-1005.202 877.46,-267.578 981.1,195.253 178.37,-764.146 631.57,180.797 973.87,-665.32 612.28,554.426 -74.72,-535.146 658.08,-86.782 267.58,330.248 -243.47,277.223 503.81,588.172 -173.57,291.68 272.41,385.695 824.41,-72.314 496.58,556.837 691.83,-40.98 347.12,320.604 -257.94,267.578 573.72,134.985 -57.85,730.4 -508.63,-221.766 214.54,337.482 -216.95,1166.709 966.64,216.955 1441.52,-797.903 436.31,385.695 -513.46,296.502 -57.84,672.543 1200.46,361.583 -236.24,147.051 380.87,829.241 552.03,944.94 1398.12,14.46 -200.08,621.92 -701.48,450.78 2039.35,2251.47 -725.59,392.92 460.43,595.41 -7.24,682.19 776.2,91.61 -101.23,653.26 -727.99,809.95 36.15,877.45 -537.55,188.02 -168.75,928.07 120.53,1774.17 1077.53,629.17 48.21,1735.61 -1439.11,720.75 69.91,-858.16 -2914.38,-727.99 -995.57,53.03 -130.16,773.8 -740.05,-149.46 -363.99,506.22 -957,-108.47 -467.65,332.65 -1306.53,96.42 -554.43,-419.44 -1800.69,84.37 -2143,-822 -1427.05,515.87 -1267.96,-429.09 -855.75,231.42 -1202.88,-294.09 -2519.04,188.02 -2726.35,-1436.7 -1583.74,-1692.22 -1463.23,-556.84 -1270.37,-1183.58 z"
   class="fil2 str0"
   id="mun_5216452" /><path
   style="fill:#91c1bb;fill-opacity:1;stroke:#c8eae6;stroke-width:374.3862915;stroke-linecap:round;stroke-linejoin:round;stroke-miterlimit:4;stroke-dasharray:none;stroke-opacity:1"
   inkscape:connector-curvature="0"
   d="m 62772.881,86738.52 178.382,-2073.087 -409.796,-178.382 200.077,-195.256 -284.447,-662.906 -313.374,-33.748 -371.227,-701.475 879.857,-1337.865 2485.295,-506.22 564.074,-1294.475 937.71,-402.564 766.561,-884.678 850.93,-250.7 101.244,-1108.86 539.967,-96.424 756.919,-1026.901 498.987,-265.163 819.593,436.313 -84.37,-518.273 1448.752,-33.747 388.101,-380.87 24.105,-800.308 580.947,57.853 142.224,-257.93 708.707,783.434 161.508,899.142 1405.361,1253.495 195.255,713.528 631.569,-147.044 327.838,339.89 -277.215,525.504 359.174,98.833 144.634,629.158 482.114,130.17 -120.528,308.553 549.609,518.272 286.858,1301.707 -296.5,713.527 402.565,7.233 120.528,679.78 h 766.56 l -207.308,1188.41 800.308,1280.011 3194.003,913.605 1108.861,-354.353 1241.442,226.593 2478.064,612.289 81.959,373.629 -2851.702,5093.533 -1636.775,443.543 -1342.686,-460.411 -959.406,552.015 -648.443,1181.176 294.089,720.766 -337.479,14.457 -233.825,834.06 -1048.597,511.035 9.642,298.913 -414.618,-7.233 -404.976,1272.78 -1113.682,265.167 -127.76,-1318.582 -633.979,-79.548 380.87,-429.086 -539.967,-106.061 286.857,-573.715 -730.402,-407.385 -677.369,1311.349 -1856.137,96.426 -1181.179,-711.121 -2755.279,-802.715 -633.98,-778.614 -2468.42,-339.893 -2345.483,506.213 -4230.547,103.66 -1639.186,797.892 -1728.377,2793.85 -918.426,911.198 -506.219,-761.736 1342.686,-1906.764 -106.065,-826.827 412.207,-995.557 -1901.939,-1272.781 2827.597,-1301.704 1140.199,-1357.151 2210.49,-1689.811 313.374,-995.567 790.666,-241.056 z"
   class="fil2 str0"
   id="mun_5218102" /><path
   style="fill:#91c1bb;fill-opacity:1;stroke:#c8eae6;stroke-width:374.3862915;stroke-linecap:round;stroke-linejoin:round;stroke-miterlimit:4;stroke-dasharray:none;stroke-opacity:1"
   inkscape:connector-curvature="0"
   d="m 236586.89,172383.59 3420.59,-2449.15 1675.34,-3449.51 -484.52,-824.42 -1101.63,-713.53 -313.37,-1229.39 108.47,-1496.96 525.5,-1005.21 525.51,-212.13 747.27,378.46 2292.45,-33.75 1239.04,944.95 1014.85,323.01 1145.01,-81.96 1241.45,-875.04 1388.49,646.04 371.22,-221.77 1034.14,274.8 566.48,737.63 908.79,-139.8 -9.65,-315.8 1128.14,118.13 547.21,-494.17 1786.22,-723.17 1200.47,-50.62 433.9,-479.71 882.27,-226.59 694.24,-708.71 147.04,-1000.38 667.73,-867.8 711.13,-243.47 1815.15,1581.33 308.55,1390.9 1959.79,887.08 479.7,-24.1 354.36,-617.11 805.13,86.79 494.17,1164.31 -376.05,1740.42 783.43,687.01 1788.64,-253.11 1041.37,294.09 1067.88,843.7 971.46,-349.53 771.38,793.08 3391.68,291.68 838.87,1010.02 2058.62,-161.51 518.27,-1058.23 1819.99,-1171.55 932.88,-1251.08 2058.63,593.01 1381.25,-1060.66 1084.76,-31.34 1190.81,-1815.15 2022.48,-822 653.26,-1224.58 809.95,-687.01 301.32,-879.85 535.15,-151.87 1552.4,949.76 433.9,-127.76 248.29,-694.24 1588.57,380.87 850.93,1082.35 1429.47,448.37 419.44,602.63 -180.8,1545.18 -1034.14,1169.13 245.88,501.39 2012.83,159.1 761.74,-1217.34 1439.11,-925.65 43.38,1111.27 -913.59,2246.65 -40.98,2145.41 1275.19,600.22 1453.56,-110.88 221.78,687.01 -216.95,1822.38 -682.19,715.95 -1051.01,2682.95 781.02,1125.74 -404.97,-69.9 -853.34,699.07 -1200.47,-605.06 -997.97,1053.42 -1091.99,-241.06 -491.76,646.04 -2543.15,518.26 -1270.37,785.85 -2463.59,395.33 -1316.17,1111.27 -1868.2,513.46 -1518.65,-50.62 1677.75,3097.57 -31.33,4122.08 641.21,378.45 -479.71,1889.89 135,2793.85 -571.31,588.18 -1041.37,-491.76 -436.3,106.06 231.41,1022.08 1217.34,139.82 564.07,2610.64 -118.12,1313.76 578.54,368.82 -161.51,342.3 383.28,267.57 -383.28,520.68 414.61,36.16 163.92,361.59 -515.86,400.15 243.47,826.83 995.57,462.82 -89.19,884.69 376.05,-301.33 426.66,467.66 -1113.68,1574.09 226.6,489.35 -865.4,127.76 -822,1945.33 -7.24,988.34 -3519.43,1284.82 -1306.52,1253.5 -2533.51,4271.52 -1084.76,106.07 -2470.82,-1147.43 -1207.7,-1072.7 -1347.51,-113.3 -532.73,-1251.09 511.04,-976.27 -556.85,-166.33 -60.25,-621.93 -1075.12,178.38 -4370.36,-2094.78 -417.03,-465.25 -248.29,-1065.46 -759.33,-865.39 -1282.42,-728 -383.28,-648.44 202.49,-1506.6 -2567.25,-624.34 -1149.84,2519.04 -2135.77,3290.42 -458.01,2649.22 549.61,1205.28 -250.7,501.4 74.73,479.7 766.56,453.19 -376.04,511.04 368.81,301.33 539.96,-16.88 -7.22,1393.31 518.27,670.14 -1422.23,-12.05 -667.73,-559.25 -853.34,-156.7 74.72,-284.44 -879.86,-532.74 -947.35,130.17 28.93,-301.32 -884.68,284.45 -248.29,-858.17 -920.83,359.18 163.91,537.56 -494.16,229 33.74,-474.88 -501.4,-474.88 -1258.31,-349.53 -814.77,339.88 74.72,-1369.19 -983.51,315.78 337.48,-407.39 -168.74,-573.71 -1087.16,209.72 84.37,-342.31 -884.68,-180.78 -1699.45,-1781.42 161.51,-171.15 -303.74,-356.76 -1482.5,-535.15 -65.08,-431.49 -1487.32,-50.62 -542.38,-752.1 -713.52,-277.21 -1034.14,-1417.41 -289.27,-754.52 -388.09,-171.15 -860.58,460.42 -1258.32,-414.62 -976.28,175.98 -525.5,-491.76 154.27,-482.11 -1292.06,-67.5 -327.83,-696.65 -315.8,-24.11 154.29,-243.46 -713.53,-407.39 -231.41,380.86 -465.25,-356.76 204.9,-1492.13 -626.75,-834.06 -788.25,-335.07 -814.77,-1022.08 -1424.65,-973.87 -1689.8,-515.87 -1193.24,-1509.01 -2027.29,-1186 -602.64,-1718.73 1219.75,-793.09 1631.95,163.92 646.03,-1292.06 2227.37,-923.24 990.74,-3003.57 2996.34,433.9 1923.63,-1091.99 2670.92,-585.77 1472.85,-1157.07 1171.53,332.66 2138.18,-650.85 -460.42,-1390.9 -588.17,-518.27 171.14,-559.26 -1010.03,-508.62 -28.92,-923.25 -274.81,120.53 -2750.45,-1552.41 -1552.42,-53.03 178.39,-590.59 -525.5,106.07 -161.51,-559.26 -771.38,-525.5 43.39,-339.89 -552.02,-185.61 -122.94,-2186.39 -474.88,-744.87 -573.72,-185.61 z"
   class="fil2 str0"
   id="mun_5218508" /><path
   style="fill:#179999;fill-opacity:1;stroke:#c8eae6;stroke-width:374.3862915;stroke-linecap:round;stroke-linejoin:round;stroke-miterlimit:4;stroke-dasharray:none;stroke-opacity:1"
   inkscape:connector-curvature="0"
   d="m 162432.99,80924.232 1193.23,310.963 1190.82,-178.382 2555.21,862.983 674.95,426.671 253.11,1075.114 911.2,506.219 1735.6,21.695 961.82,426.67 289.27,542.378 1255.91,-21.696 291.68,807.541 761.73,-836.468 477.3,-43.389 954.58,1460.803 -342.3,4054.573 2878.22,424.264 718.35,-245.878 2490.11,841.283 2065.86,1574.105 265.17,646.03 -178.38,1265.547 1540.35,744.867 45.8,687.01 -1443.93,809.958 -817.18,1296.882 10003.85,3263.905 2651.63,-72.31 494.17,491.75 1106.45,301.33 2779.38,267.56 2239.42,1260.73 3398.9,-578.54 1651.24,392.93 795.48,-612.28 2051.39,-474.89 1918.83,221.77 713.52,491.76 1853.73,-402.56 1979.08,612.28 2391.27,-720.76 1950.16,-1687.39 1118.49,-518.28 694.25,-711.113 197.67,-706.299 1832.03,-1313.76 4418.57,-4739.173 -1750.07,-1757.303 -1781.41,173.554 2.41,-836.462 -790.67,-930.486 431.5,-2304.495 1246.25,-1974.258 -397.74,-438.724 77.14,-477.292 -1566.86,-115.707 -180.8,511.04 -506.22,-69.906 -279.63,-503.809 -407.38,115.707 139.82,672.549 -431.5,-132.582 -204.9,494.166 -727.99,-301.32 171.15,-752.097 -703.88,-400.155 -354.35,-1120.913 -617.11,-4.822 -785.85,-1022.08 -359.17,180.792 -583.36,-335.069 -1622.32,699.065 -209.71,-392.923 -930.48,118.118 -36.16,-330.248 -684.6,-245.878 -1742.85,426.671 -822,-1477.678 588.18,-3314.531 -862.98,-1516.247 3307.29,-2504.58 3811.11,-1200.463 1294.48,101.244 973.87,-486.935 723.17,-855.752 -262.75,-1041.364 359.17,-2133.353 1106.45,-790.667 740.05,-1410.182 2420.21,-161.507 822,-566.484 547.21,96.423 81.96,-448.366 588.17,359.174 908.78,-26.515 161.51,426.67 523.09,142.224 -236.23,530.325 648.44,188.024 214.54,756.918 858.16,441.134 118.12,1140.199 -349.53,200.077 655.68,134.991 120.53,513.452 -388.11,269.983 243.47,180.793 -137.4,462.829 732.81,-168.74 190.43,506.219 768.97,-166.329 580.95,834.056 559.25,9.643 98.84,600.231 1255.9,125.35 643.63,-366.407 1147.43,229.005 14.46,1038.954 482.12,325.427 592.99,-171.151 282.04,559.252 552.02,-455.597 1072.71,139.813 433.89,-744.865 1323.41,865.393 532.73,-89.191 359.18,580.946 672.54,298.911 -274.8,327.837 202.48,788.256 1323.41,1214.926 33.74,619.516 511.05,-91.601 313.37,479.703 327.84,-260.342 887.08,332.659 879.87,1381.255 -605.06,-257.93 -265.16,330.247 467.65,303.732 -154.28,262.752 -1104.04,629.158 985.92,691.832 188.03,1219.748 576.13,-453.187 -36.16,1311.349 1181.18,231.415 21.69,583.357 325.42,-65.085 122.94,-691.833 877.45,-14.463 -81.96,561.661 -701.47,568.895 395.33,400.154 -221.77,453.186 1764.54,877.447 -380.88,619.514 1010.03,1161.898 -94.01,667.73 715.94,282.035 272.39,-923.253 395.34,-238.644 130.17,1193.232 1234.2,518.269 -38.57,344.715 -607.46,212.132 -45.8,424.253 679.79,60.269 506.21,723.167 -216.95,-1251.08 527.92,-441.142 1289.65,800.314 -1169.12,580.949 -48.22,1217.334 -433.9,855.75 -793.08,658.086 -838.87,-436.309 629.15,4218.493 -911.19,537.558 -284.45,1019.669 -1034.13,785.847 -771.39,-465.243 -723.16,33.746 -990.75,1058.233 -175.96,829.24 -2666.09,944.94 -1675.34,1670.53 -241.07,783.43 163.92,3162.67 -349.53,298.91 1701.86,1186 1475.26,3418.18 925.67,674.96 -81.96,1065.48 785.85,1178.76 -889.51,1181.18 -993.15,2376.82 -527.92,216.95 -797.89,1142.61 -1904.36,843.69 -1390.89,1586.16 323.01,2478.06 -361.58,1173.95 67.5,768.98 631.56,855.75 1075.12,600.22 224.19,1236.63 636.38,971.45 889.5,-43.39 701.48,571.31 1417.42,209.72 564.07,409.79 414.61,-294.09 1889.89,552.03 282.04,-192.85 805.12,1646.41 648.44,-120.52 503.82,740.04 1113.68,-619.52 -1140.2,1844.09 -2996.33,2502.17 -1137.8,5209.24 1104.04,-67.5 332.66,342.31 1603.03,161.51 817.18,-351.95 1352.33,55.44 1282.42,277.22 212.13,347.12 3459.16,86.78 4517.41,-1745.25 916.02,-954.59 1181.18,142.23 2135.76,-684.6 759.33,554.43 1140.19,108.47 -175.96,1819.98 -995.57,2509.4 -2155.04,1176.36 -226.6,438.72 6192.75,2914.38 -33.75,1181.17 527.92,1542.77 496.57,515.86 -62.68,614.7 1089.59,1214.92 -2273.17,1489.73 1333.05,641.21 658.08,-624.33 1750.07,409.8 407.39,990.73 691.83,190.44 747.28,1034.14 2080.31,433.9 -947.35,159.09 -759.32,1762.13 -294.1,-212.13 -761.74,467.65 -110.88,547.2 -805.13,-262.75 -436.32,380.87 -257.92,-298.91 -797.91,286.86 -171.15,-402.57 -590.58,36.16 -607.46,282.04 -125.35,875.04 -653.27,-523.11 36.16,-395.33 -776.2,-320.6 -879.86,349.53 -660.5,-911.19 -450.78,269.98 -414.62,-462.83 -696.65,-94.01 -997.97,-1468.04 -1684.99,-371.23 -1434.28,212.13 -1846.5,-1472.85 -2109.24,-993.16 -1089.58,-1070.28 -188.02,1759.71 -708.71,243.47 -667.73,867.8 -147.05,1000.38 -694.24,708.71 -884.68,226.59 -431.49,479.71 -1200.47,50.62 -1786.22,723.17 -547.2,494.17 -1128.15,-118.13 7.24,315.8 -906.38,139.8 -566.48,-737.63 -1034.13,-274.8 -371.23,221.77 -1388.49,-646.04 -1243.86,875.04 -1142.6,81.96 -1014.85,-323.01 -1239.03,-944.95 -2292.45,33.75 -749.69,-378.46 -523.09,212.13 -525.51,1005.21 -108.48,1496.96 313.38,1229.39 1101.63,713.53 484.52,824.42 -1675.34,3449.51 -3420.59,2449.15 -2576.91,1918.81 -2212.9,-113.3 -1340.27,-711.12 -1169.12,236.24 -1000.39,-923.25 -737.64,-178.38 -1713.91,-1747.66 -607.46,889.5 515.86,226.58 347.12,1084.77 -431.49,1641.59 -3018.03,727.99 -3292.84,-802.71 -1788.64,1007.61 -1140.19,255.52 -142.23,395.33 -699.07,4.82 -241.05,424.27 -715.94,-190.44 -747.28,-1149.83 -1224.56,-294.1 -1788.65,-2490.12 1205.29,-564.07 48.21,-1053.42 727.99,-77.13 -236.23,-2000.77 -942.54,101.24 -74.72,-291.68 474.88,-323.02 -383.29,-192.84 45.8,-619.52 460.42,-192.84 28.93,-412.21 916.02,315.78 -441.13,-2331.02 1157.07,-981.1 -178.38,-445.95 -713.54,-231.42 151.88,-1468.04 -761.75,-72.31 -195.25,-1082.34 -674.97,185.61 163.92,-1545.17 -699.05,-21.7 120.53,-976.28 -602.65,-115.71 -378.46,-761.74 -166.33,-1219.75 -619.51,-752.09 771.38,-547.2 -349.54,-349.54 -9.63,-807.53 -306.15,-511.04 -361.59,178.38 -448.36,-282.04 388.1,-665.32 -207.31,-549.6 400.16,14.47 -573.72,-715.95 -1672.93,-891.91 -378.46,-997.97 482.11,-674.96 -175.97,-556.85 -872.62,168.75 -156.7,-1935.69 -824.4,57.86 -236.25,-1123.33 248.29,-513.45 -532.73,28.92 139.81,-421.85 720.76,-101.24 -351.94,-655.67 508.63,127.76 -84.38,-462.83 -648.44,-89.2 115.71,-443.54 -1034.13,-708.71 -130.17,-532.73 243.47,-593 -831.65,-231.41 -96.42,-2051.39 436.31,-819.6 -433.9,241.06 -53.03,-318.2 -667.73,-272.39 231.42,-441.13 479.7,168.74 303.72,-306.15 -448.36,-21.69 62.68,-325.43 -438.72,-209.72 -168.74,-894.32 -515.87,221.77 -872.62,-605.05 -1933.27,643.62 -600.24,-2246.65 -388.1,-207.31 -286.86,308.56 -1041.37,62.67 -1786.22,-404.98 -407.39,708.71 -1019.67,-207.3 -496.58,732.81 -590.59,19.28 -740.04,-578.53 -269.98,390.51 -1070.3,-949.77 -175.97,527.91 -889.5,-91.59 -1217.33,-1882.65 -465.24,310.96 -402.57,-646.03 -638.8,183.19 77.14,-949.76 -296.5,81.96 -691.83,-867.8 -166.33,279.63 -315.78,-388.11 98.82,-267.57 -1658.46,-1067.88 163.92,-260.35 -354.36,-168.74 337.48,-212.13 -339.89,-168.73 132.58,-356.77 -479.7,-822.01 315.78,-253.1 -629.16,-402.57 272.4,-964.22 -1154.67,94.01 166.33,-356.77 -593,-378.45 -173.56,-1053.43 -229,-55.43 -48.21,363.99 -942.54,-407.38 -180.79,250.7 -171.15,-241.07 -1528.3,31.35 -159.09,-1065.47 -453.19,86.78 -320.61,-482.12 -122.93,414.62 -477.3,-479.7 -831.64,431.48 -489.36,-771.38 -354.35,200.08 -72.31,-315.78 -342.31,94.01 31.34,-600.24 -1038.95,-26.51 86.78,-477.29 -1186,-1610.26 -684.6,-57.86 294.09,-911.18 -993.16,142.21 -544.78,-701.47 -1612.67,-306.14 -260.35,-458.01 -1019.67,-294.09 -542.37,-554.43 154.28,-1328.22 489.34,-718.35 1198.05,-523.1 -224.18,-887.08 621.93,-429.08 392.91,-1381.26 -503.8,-470.06 -1055.83,-122.94 -814.78,-1026.9 -2208.07,-1099.22 168.74,-568.89 -385.7,-576.13 -1395.71,-332.66 -805.13,-571.3 -1641.6,-2280.4 954.59,-1176.36 -113.3,-935.3 -1152.25,-995.56 -1588.56,-715.936 -98.84,-985.923 -344.72,-291.68 494.17,-768.969 -132.57,-1586.161 506.21,-2162.277 -1125.73,-3039.728 166.33,-853.339 1200.46,-959.4 262.75,-3683.353 985.93,-2123.71 1371.6,-1918.812 z"
   class="fil2 str0"
   id="mapa_rioverde"
   inkscape:label="#mun_5218805" /><path
   style="fill:#91c1bb;fill-opacity:1;stroke:#c8eae6;stroke-width:374.3862915;stroke-linecap:round;stroke-linejoin:round;stroke-miterlimit:4;stroke-dasharray:none;stroke-opacity:1"
   inkscape:connector-curvature="0"
   d="m 250686.29,115214.56 795.49,57.85 2422.62,-822 26.52,-964.23 1713.91,-636.39 306.14,-549.61 718.35,-306.14 848.53,142.22 590.58,670.14 1443.93,-1504.19 -197.66,-373.64 1229.39,-363.99 564.07,151.86 1282.42,-614.7 701.48,-826.82 267.57,269.99 1058.24,749.68 2304.5,3758.07 2118.89,455.6 1562.05,-120.53 265.16,607.46 7.24,1072.71 1070.28,1046.19 -219.36,1506.6 993.16,506.22 -489.35,1494.55 525.51,665.32 1376.43,-417.03 2167.1,-1983.9 1142.61,-306.14 245.87,315.78 -291.68,735.23 -1219.74,214.54 -588.18,1848.9 -1516.25,718.35 -961.81,-16.87 14.47,1263.14 1087.16,84.37 414.62,648.44 -573.72,3369.98 2010.41,1730.79 564.08,1034.12 525.5,-72.31 872.63,831.65 -718.35,595.4 -983.51,166.33 -706.3,2933.67 1745.25,1639.18 465.24,-241.06 -38.57,-1465.62 1063.06,793.08 1578.92,438.72 -151.86,629.16 -1210.1,274.8 -180.8,819.59 479.7,262.76 1629.54,2.41 -65.08,1287.24 1214.92,349.54 479.71,715.93 -1422.24,465.24 -944.94,-1277.6 -426.67,-103.65 -660.49,441.13 -1284.84,-756.92 -1709.09,1128.15 -272.39,518.27 -376.05,-332.66 -607.46,168.74 -843.71,-364 -2376.82,961.83 -1142.6,-106.08 -756.92,-556.83 -2135.76,684.6 -1181.18,-139.82 -918.43,952.18 -4517.41,1747.66 -3456.74,-89.19 -214.55,-347.13 -1280.01,-277.21 -1352.33,-55.44 -819.59,351.94 -1600.62,-161.5 -332.66,-342.31 -1106.45,67.49 1140.21,-5209.23 2996.32,-2502.16 1140.21,-1841.68 -1113.68,617.1 -503.82,-740.04 -650.85,120.53 -802.71,-1644.01 -284.45,192.85 -1887.47,-554.43 -414.62,294.08 -564.08,-409.8 -1417.41,-207.31 -701.48,-571.3 -889.5,40.98 -636.39,-969.04 -224.18,-1239.04 -1075.12,-600.23 -631.56,-855.75 -67.5,-768.97 361.58,-1173.95 -323.01,-2475.65 1388.48,-1588.57 1906.77,-843.69 797.89,-1142.61 527.91,-216.96 993.16,-2376.82 889.51,-1181.17 z"
   class="fil2 str0"
   id="mun_5219308" /><path
   style="opacity:1;fill:#91c1bb;fill-opacity:1;stroke:#c8eae6;stroke-width:374.3862915;stroke-linecap:round;stroke-linejoin:round;stroke-miterlimit:4;stroke-dasharray:none;stroke-opacity:1"
   inkscape:connector-curvature="0"
   d="m 23511.964,101459.86 380.869,-518.27 -212.129,-617.1 1574.1,-3116.869 -306.142,-192.852 v -925.654 l -542.378,-404.975 421.849,-243.466 -144.633,-978.69 568.893,-84.37 265.163,-1017.258 749.686,-648.451 -253.109,-226.589 793.076,-291.68 -291.678,-696.654 204.899,-81.959 -183.204,-674.954 429.081,-161.518 134.992,549.614 515.862,-771.38 -351.943,-843.705 -448.366,89.193 -43.39,-236.233 944.942,-154.274 67.496,-626.751 -684.601,188.031 -310.964,-219.366 330.248,-31.335 -72.316,-633.984 282.036,-89.193 -45.801,-744.867 -498.987,-156.685 409.796,-209.721 -255.52,-624.332 -1123.325,-568.895 385.691,-402.564 -226.594,-195.257 460.419,-542.377 -294.089,-544.788 -421.849,137.402 7.231,-923.247 913.605,-530.325 -24.105,-747.277 1128.145,-822.003 -185.613,-1410.183 1089.576,-212.129 458.008,-1193.232 486.935,-308.552 368.817,-1677.755 470.06,-149.455 -122.939,-932.89 985.923,-1906.759 -101.245,-1607.849 682.192,-250.699 658.084,289.268 195.257,-836.467 421.849,-7.231 216.951,-503.809 441.134,-120.529 -366.406,-822.003 455.597,-113.297 1036.544,-1648.828 -320.605,-600.232 315.784,-192.845 -313.374,-325.427 937.711,-489.346 597.821,202.489 229.004,-310.964 -192.846,-349.532 1236.621,-354.353 -412.206,-544.788 592.999,91.6 -409.797,-684.601 954.585,267.573 -139.812,-807.54 296.499,-43.39 515.862,566.484 -161.508,-730.402 479.704,55.442 108.475,-429.081 525.504,380.87 -77.138,-559.251 554.43,-91.602 -209.72,-1005.207 -732.813,9.642 7.233,-617.105 506.219,57.853 -260.341,-658.084 -785.846,445.954 185.614,-754.507 402.565,-284.447 -269.983,-805.13 544.788,-33.747 120.528,-826.826 530.325,-81.959 -723.171,-219.361 96.423,-366.407 585.768,188.024 -168.74,-494.166 718.35,-1482.499 -361.585,-431.492 -103.655,-2196.027 308.553,-188.024 250.699,470.06 368.817,-1128.145 -159.097,-467.65 1108.861,-665.318 -212.13,-183.202 289.268,-790.667 -520.683,122.939 482.114,-978.69 -530.325,-788.256 862.983,-183.203 -163.919,-484.524 1152.252,-518.272 231.415,-1226.98 397.742,-28.926 -523.093,-511.041 433.903,-209.719 -108.475,-1038.954 248.288,-614.695 462.829,549.609 412.207,-402.565 289.268,523.093 1967.024,-180.792 812.361,458.008 265.162,-144.634 -43.39,-764.15 959.406,175.972 -294.089,-862.984 672.548,253.11 -77.138,607.462 532.736,-371.227 -250.699,-981.101 -496.578,-298.911 2311.735,-79.548 -173.561,-204.898 730.402,-419.439 -178.382,494.166 376.049,115.707 28.927,1364.382 455.597,40.979 -520.683,443.545 272.394,682.19 -672.548,79.55 202.488,323.015 -633.98,783.435 544.788,421.85 -243.467,354.353 243.467,89.191 -48.211,1448.751 846.11,593 57.854,655.674 368.817,269.984 -404.977,53.032 544.789,544.788 -518.272,255.521 -315.784,947.353 -788.257,245.878 -949.763,-325.427 -740.044,508.63 -253.109,-257.931 -260.342,433.903 274.804,867.804 -674.958,282.036 -12.053,508.63 -544.788,-40.98 -282.037,896.731 759.329,985.923 147.044,1424.646 -149.455,142.223 262.752,45.801 -412.207,805.13 436.313,525.503 -477.293,274.805 335.07,624.337 -1443.931,1689.808 274.805,1424.646 -202.488,978.691 1079.935,1523.478 -209.72,817.182 159.098,315.785 462.829,-202.487 -84.37,824.414 899.141,91.601 101.245,573.715 -537.557,460.419 860.573,248.288 583.357,872.626 84.37,614.695 539.967,-110.887 918.427,3717.096 -1147.431,2403.336 1672.934,2492.527 1812.747,539.967 -315.784,1106.451 723.171,617.105 -233.826,1089.577 -289.268,537.557 -875.036,139.813 -2928.84,1506.604 -3133.738,248.289 -1046.187,1113.683 -2208.08,928.068 -1752.482,1301.703 -1275.191,243.467 -954.585,1439.11 -583.358,-130.172 -836.466,633.984 -2265.934,-518.269 -573.715,1446.334 535.146,62.68 327.837,-453.187 178.383,706.298 458.007,134.985 -33.748,730.411 -1251.085,870.207 -91.601,867.806 -378.459,267.579 -354.353,3295.24 -889.5,853.339 -260.342,1128.151 -1419.824,1639.185 84.37,414.62 -474.882,725.58 -1169.125,-339.89 -390.512,359.17 -744.866,28.93 -419.439,571.3 -496.577,84.38 -993.153,1971.84 103.653,1482.49 9999.036,9994.22 -388.102,229.01 -1672.933,-156.69 -395.334,-344.72 -1200.463,-89.19 -617.105,327.84 -1267.959,-1361.96 -1024.491,-45.81 -453.186,-376.05 -882.269,397.74 -655.674,-313.37 -1159.482,-1897.12 -665.317,-523.09 -650.854,-19.29 -265.163,-482.11 -2646.802,14.47 -491.756,-667.73 -1010.029,-373.64 4.822,-831.65 373.638,-233.82 -315.785,-609.87 272.394,-192.85 -335.069,-696.65 204.899,-219.37 -660.496,-1051 614.695,-537.56 -419.438,-474.88 245.877,-1202.87 -320.605,-149.46 612.283,-1470.45 -320.604,-928.06 z"
   class="fil2 str0"
   id="mun_5219407" /><path
   style="fill:#91c1bb;fill-opacity:1;stroke:#c8eae6;stroke-width:374.3862915;stroke-linecap:round;stroke-linejoin:round;stroke-miterlimit:4;stroke-dasharray:none;stroke-opacity:1"
   inkscape:connector-curvature="0"
   d="m 250686.29,115214.56 -788.25,-1176.36 81.96,-1065.47 -923.25,-674.96 -1475.27,-3418.18 -1701.86,-1188.41 347.12,-298.91 -163.92,-3162.67 243.47,-783.44 1675.34,-1668.11 2663.68,-944.94 175.97,-829.24 993.16,-1060.646 720.76,-33.747 773.79,465.244 1034.13,-783.436 282.04,-1019.669 913.61,-539.969 -631.58,-4216.082 838.89,433.898 795.48,-655.675 433.91,-855.75 48.21,-1219.745 1166.71,-580.949 740.04,-36.157 872.63,732.811 127.76,638.807 -556.84,614.694 460.42,224.178 715.94,-566.482 98.83,1352.329 920.84,-532.736 949.77,361.584 1031.71,-327.838 180.8,332.66 -474.88,527.913 788.25,344.716 781.02,-291.68 740.05,1412.587 636.39,-81.959 301.32,277.213 -378.45,306.147 443.54,1149.841 -142.23,1402.953 -1588.56,1104.04 202.48,159.096 884.68,-419.441 742.46,207.309 -310.96,1415.011 817.18,1132.96 -55.45,1730.79 -870.21,969.05 -2012.82,-130.18 -838.88,870.22 4.82,1193.23 740.04,800.31 397.74,1101.62 -1142.6,1631.97 -267.57,-269.99 -699.07,826.82 -1284.83,614.7 -561.66,-151.86 -1231.8,363.99 197.66,373.64 -1443.93,1504.19 -590.58,-670.14 -848.53,-142.22 -715.94,306.14 -308.55,549.61 -1713.92,636.39 -26.51,964.23 -2422.62,822 -795.49,-57.85 z"
   class="fil2 str0"
   id="mun_5219712" /><path
   style="fill:#91c1bb;fill-opacity:1;stroke:#c8eae6;stroke-width:374.3862915;stroke-linecap:round;stroke-linejoin:round;stroke-miterlimit:4;stroke-dasharray:none;stroke-opacity:1"
   inkscape:connector-curvature="0"
   d="m 250059.55,234711.22 1494.55,-2735.99 879.86,-679.78 231.41,-1759.71 460.42,-875.04 -417.03,-1434.29 5604.57,1224.57 1357.15,-142.22 2878.22,-1684.99 2415.39,349.53 3092.75,-1417.41 1899.53,474.88 1065.47,1892.3 -2398.51,785.84 -788.25,691.84 -245.88,1299.29 1058.23,2608.24 -356.76,2082.73 800.31,749.68 -327.84,1889.89 -2152.63,3835.21 -1313.76,2008.01 -549.62,554.42 -2574.48,1376.44 -1120.92,1460.8 -5411.72,-308.55 371.22,-1123.32 -1313.75,-1542.77 -48.21,-1231.79 537.56,-754.51 -373.64,-438.73 -964.23,130.17 -388.1,-1509.02 484.52,-1111.27 -356.76,-973.87 -494.17,-33.74 -597.82,-508.64 241.05,-949.75 -607.46,-834.06 -566.48,-506.23 -1048.59,-48.2 -453.19,-809.96 z"
   class="fil2 str0"
   id="mun_5220405" /><path
   style="fill:#91c1bb;fill-opacity:1;stroke:#c8eae6;stroke-width:374.3862915;stroke-linecap:round;stroke-linejoin:round;stroke-miterlimit:4;stroke-dasharray:none;stroke-opacity:1"
   inkscape:connector-curvature="0"
   d="m 64508.49,152016.7 5303.249,-7021.99 800.309,-1499.37 1880.243,-241.05 2396.104,696.65 429.081,-506.22 197.667,-1284.84 920.836,-756.91 764.151,-69.91 1798.283,-978.69 612.285,48.21 1183.589,-903.97 920.836,-125.35 983.512,-1484.9 3367.563,-783.43 1571.69,98.82 532.736,482.13 1766.946,460.41 1603.032,-1270.37 988.324,-1583.74 2572.084,-1166.71 323.015,224.18 118.117,-248.29 843.694,-16.87 424.264,-735.23 1834.439,-1173.95 653.264,-1684.99 515.867,-21.69 436.31,-491.75 9.64,1236.62 315.79,-233.83 279.62,212.13 482.11,-655.67 -84.37,1043.78 674.97,-209.72 491.75,257.92 7.24,1094.4 342.29,-284.44 513.46,221.76 -16.88,-544.78 3280.78,-1603.03 1453.58,720.76 1152.25,-219.37 2051.4,677.38 2249.06,-2412.98 1202.86,-380.87 3239.81,1559.64 -829.24,802.71 -253.1,793.08 1149.84,2649.21 -1135.39,402.58 -347.11,773.79 513.44,949.76 1079.94,679.78 -216.95,1159.49 291.68,583.35 -723.17,887.09 402.56,650.85 -195.25,641.21 2133.35,161.51 431.49,662.91 388.11,1665.7 108.47,3926.82 778.61,-390.52 1277.61,43.39 43.39,1142.61 682.18,564.07 1318.59,-306.14 1829.61,501.4 997.98,706.29 520.68,1280.02 2323.79,1723.55 1002.8,197.67 737.63,1195.64 578.54,303.74 14.46,942.53 -571.31,643.62 580.95,2111.65 3717.09,1511.44 1263.15,-520.69 1803.1,417.03 1798.29,-195.26 2709.48,-1974.25 1333.04,306.14 1716.32,-392.93 1178.76,426.68 479.71,906.37 -195.26,995.56 561.67,429.09 -250.7,414.62 682.19,2808.3 689.42,862.99 1313.76,-376.05 1229.39,636.39 132.58,867.81 453.19,482.11 -236.23,1272.78 458.01,465.23 -36.17,1882.66 711.12,-665.31 1282.42,-525.52 380.88,-576.11 889.49,55.44 1231.8,-672.55 2203.26,568.9 725.58,790.65 -55.44,359.19 2241.83,74.72 -101.25,588.17 1395.72,547.21 617.1,1022.08 638.81,106.07 171.14,1525.88 544.79,515.87 -139.8,1031.72 583.35,660.49 -2429.85,802.72 -597.83,1212.52 -1967.02,814.77 2326.2,556.84 1745.25,1803.11 267.57,1173.94 -433.9,2405.75 1798.29,3820.75 -50.63,906.37 -742.45,1120.92 -2080.32,202.49 -809.95,-752.1 -1323.4,-564.07 -385.69,875.03 -1566.87,-882.27 21.69,-390.51 -474.88,-137.4 -896.73,412.21 -332.66,-626.75 -605.05,216.95 -103.66,366.41 -1320.98,4.82 -397.75,-436.32 537.56,-253.1 -243.47,-200.09 -612.29,547.2 -508.63,-94.01 -3099.99,1318.58 -55.44,171.15 621.93,1455.98 -891.91,1709.1 226.59,1318.58 -1091.99,643.62 -417.03,894.32 -1501.78,961.82 -1171.53,229 -6983.42,-2752.87 785.85,1005.22 479.7,1882.65 899.14,1096.8 -253.11,511.04 723.17,1644.01 -151.87,2063.45 -335.06,103.65 -1504.2,-1212.51 -337.47,190.43 -1043.78,-621.92 -756.92,96.42 -467.65,-1140.2 -614.69,168.74 57.85,-773.79 -424.26,-361.59 -578.54,204.9 -376.05,-421.85 -315.78,190.43 -373.64,-518.27 -954.59,-163.92 -151.86,-385.69 257.93,-342.29 -392.92,-115.72 -151.87,-655.66 -1089.57,173.55 -1415.01,-995.56 -715.93,-91.6 -65.09,-277.22 506.22,-84.37 -115.71,-814.77 -817.18,-320.61 -216.95,-1075.11 -1265.55,-253.11 -520.68,-1173.95 -711.12,-36.16 -896.73,-754.5 -1860.96,646.03 -964.23,506.22 -229.01,650.86 -412.2,113.29 -689.42,-561.66 -1299.3,-221.78 -474.87,-995.56 -865.4,-356.77 -646.04,72.32 -269.98,-730.4 -954.59,272.39 -486.93,648.45 -552.01,-486.93 -525.52,4.81 -62.67,253.11 -310.96,-489.34 -689.43,621.92 -24.1,388.11 -862.98,-602.65 -400.15,236.23 -417.03,-219.35 -361.59,595.41 -332.66,-373.64 -262.75,380.87 -708.7,-7.23 -204.9,-450.78 -703.89,380.87 -429.09,-132.58 185.62,303.73 -580.94,-161.5 -236.24,245.87 24.1,-349.53 -400.15,-294.09 120.53,-424.26 -429.09,267.57 -568.89,-455.6 -180.79,539.97 -279.62,-445.95 -525.51,465.24 -207.31,-482.11 -472.47,414.61 -209.72,-903.97 -1041.36,506.23 -195.26,443.54 -356.76,-81.96 231.41,-467.64 -672.54,-183.21 197.66,-424.25 -400.15,-494.17 -433.91,98.83 192.85,-180.79 -614.69,-544.79 -359.18,180.78 226.59,-445.95 -617.1,-465.23 -706.3,236.23 -130.17,-363.99 -195.26,303.72 -513.44,-79.55 79.55,-279.62 -1116.1,178.38 -658.09,-200.07 -7.23,-310.97 -323.02,207.31 -330.25,-431.49 -315.78,313.37 -925.662,-993.15 -660.487,274.81 202.487,-728 -658.085,-24.1 -212.132,-520.68 -875.04,-50.63 -474.878,-641.2 -255.522,257.92 -448.365,-175.97 -973.867,-1458.39 -195.254,296.5 -200.086,-614.7 -385.685,197.67 -207.309,-583.36 -687.01,110.89 -564.081,-547.2 530.325,-496.58 -752.091,-511.03 255.523,-1407.78 -392.929,79.55 -74.726,-619.52 -397.74,57.86 414.619,-523.09 -330.249,-795.49 -253.111,151.86 -134.995,-373.64 -404.974,-31.34 65.081,-315.78 -658.086,-694.24 -725.576,226.59 -2304.502,-583.35 397.744,-966.64 -674.96,-1294.48 -699.064,-438.73 -489.346,303.74 -378.459,-147.04 -764.15,-1036.55 -571.304,-106.07 -916.017,-1055.83 -860.572,-404.97 -233.825,-795.48 -1455.983,-1465.63 101.244,-559.25 -646.032,-392.92 77.138,-679.79 -412.207,-197.66 -212.131,397.74 -694.243,-286.86 125.35,-238.64 -494.166,-568.9 -530.326,-48.21 -163.918,-629.15 -997.975,414.61 -822.003,-1718.74 -269.985,178.39 -730.401,-467.65 -77.138,-749.68 -470.062,-404.98 267.574,-188.03 -532.736,-807.54 -824.414,-96.42 -163.919,-672.54 -711.117,-301.33 -409.797,530.32 -325.427,-363.99 142.225,-363.99 -465.241,-195.26 -260.34,301.32 -166.33,-1224.57 -359.175,120.53 -2487.706,-2232.18 -472.47,16.86 60.264,-342.29 -624.338,-351.95 -65.085,-501.4 -1048.597,-949.75 -142.223,-802.73 -850.931,-494.17 -248.289,-1499.37 -503.808,-294.09 z"
   class="fil2 str0"
   id="mun_5220504" /><path
   style="fill:#91c1bb;fill-opacity:1;stroke:#c8eae6;stroke-width:374.3862915;stroke-linecap:round;stroke-linejoin:round;stroke-miterlimit:4;stroke-dasharray:none;stroke-opacity:1"
   inkscape:connector-curvature="0"
   d="m 270710.88,114992.79 981.11,-1267.97 1051,-330.24 1909.16,-1938.1 3292.84,60.26 1716.33,-1243.84 2061.04,178.37 1781.4,-822 1231.8,1390.9 2193.62,101.24 1554.82,-937.71 458.01,-1096.8 -404.98,-703.89 916.01,-1099.22 1113.69,858.16 2133.35,-1376.44 2690.19,602.65 1530.72,-354.36 1026.9,291.68 337.48,-424.25 1819.97,1822.38 -672.54,272.39 467.64,795.5 245.88,1183.58 -508.62,2.42 -1892.3,2904.73 1224.57,783.43 279.62,1063.06 -694.24,-50.62 -537.56,817.18 -978.69,-183.2 -614.69,315.79 554.42,576.12 -400.15,1263.14 -1043.77,115.7 -506.22,402.58 354.35,1721.14 1154.66,503.8 486.94,576.13 -937.71,834.06 -1451.16,390.51 -127.76,421.85 884.67,744.87 971.46,132.58 -441.13,571.3 -1260.73,441.14 -855.75,209.72 -1588.56,1513.83 -1058.25,-573.71 -1415,-236.24 -566.48,1178.77 479.7,650.85 -320.6,1345.1 1094.39,407.38 1318.59,1280.02 -156.69,409.79 -1026.9,219.37 -50.63,761.73 204.9,262.76 805.14,-9.65 995.56,1113.69 -655.68,1846.49 147.05,997.97 -1730.79,1096.81 -662.91,-397.74 -650.85,747.28 -373.64,-626.75 -631.56,508.63 -672.55,-351.95 -542.38,1065.47 190.44,1186 1280,1415.01 -183.2,1325.81 -872.62,720.76 462.83,1077.53 735.22,313.37 1280.01,-1557.23 997.97,219.37 684.6,556.83 679.79,-296.5 665.32,853.34 2627.52,-535.15 -496.58,1663.3 -1774.18,1125.73 -752.1,226.6 -1533.12,1472.86 -3444.7,-253.11 -421.85,-633.98 253.11,-783.43 793.08,-595.42 -161.51,-723.17 -1887.47,166.33 -245.88,-990.74 -1378.85,-219.37 -1771.77,-3977.43 -479.7,-715.94 -1217.34,-349.54 67.5,-1287.23 -1631.96,-2.41 -477.29,-262.76 180.79,-817.18 1210.11,-277.22 151.86,-626.75 -1581.32,-441.13 -1063.06,-793.08 38.56,1468.05 -465.24,241.05 -1742.84,-1639.18 706.29,-2933.67 983.51,-166.33 718.36,-597.82 -875.04,-829.24 -525.5,72.32 -564.07,-1034.13 -2010.42,-1733.2 576.13,-3369.97 -414.62,-646.03 -1087.17,-84.38 -16.87,-1263.13 961.81,16.88 1516.25,-720.77 590.59,-1846.49 1217.34,-216.96 294.09,-732.81 -248.29,-315.78 -1142.61,303.73 -2167.1,1983.9 -1376.43,419.44 -523.1,-665.32 486.93,-1496.96 -993.14,-506.22 221.76,-1504.19 -1070.29,-1046.2 -7.22,-1072.69 z"
   class="fil2 str0"
   id="mun_5221551" /><path
   style="fill:#91c1bb;fill-opacity:1;stroke:#c8eae6;stroke-width:374.3862915;stroke-linecap:round;stroke-linejoin:round;stroke-miterlimit:4;stroke-dasharray:none;stroke-opacity:1"
   inkscape:connector-curvature="0"
   d="m 271542.52,141337.88 2376.82,-964.23 843.71,366.41 607.46,-168.74 376.05,330.25 272.39,-515.86 1709.09,-1128.15 1284.84,756.92 660.49,-443.54 426.67,106.06 944.94,1277.6 1422.24,-465.24 1774.17,3975.03 1376.44,219.36 245.88,990.75 1887.48,-166.33 161.51,723.16 -790.67,595.41 -253.12,785.85 419.45,633.98 3447.11,250.7 1533.11,-1472.86 749.69,-226.59 882.28,1446.34 976.28,677.36 969.04,1699.46 711.12,421.85 -742.45,696.66 -959.41,-120.53 -1648.83,1026.89 -385.69,-400.15 -1012.44,445.95 -173.56,-436.31 -843.7,-371.22 -460.42,108.47 -402.56,624.34 -1798.29,67.5 -1921.22,1226.98 -122.94,426.66 373.64,197.67 -1070.3,1270.37 -988.33,26.52 -1697.03,1617.49 -1111.28,2388.87 -2080.31,-436.31 -747.28,-1034.13 -691.83,-190.45 -407.39,-990.73 -1750.07,-409.8 -658.08,626.74 -1333.05,-641.2 2273.17,-1489.74 -1089.59,-1214.92 62.68,-617.11 -496.57,-513.44 -527.92,-1545.19 33.75,-1181.17 -6192.75,-2914.38 226.6,-436.31 2155.04,-1178.76 995.57,-2507 175.96,-1819.98 z"
   class="fil2 str0"
   id="mun_5213004" /><path
   style="fill:#91c1bb;fill-opacity:1;stroke:#c8eae6;stroke-width:374.3862915;stroke-linecap:round;stroke-linejoin:round;stroke-miterlimit:4;stroke-dasharray:none;stroke-opacity:1"
   inkscape:connector-curvature="0"
   d="m 183956.95,249278.29 -455.6,-113.3 -482.11,-727.99 125.35,-1277.61 -672.55,-1055.82 2562.44,-5218.88 2473.25,151.87 1962.2,626.75 4715.07,354.35 4724.71,4505.35 2114.07,1470.44 3107.22,1190.82 2087.55,2355.13 1851.32,-21.7 981.1,453.19 752.09,1067.88 937.71,542.38 3876.2,805.13 250.7,706.3 489.34,231.41 -144.64,860.57 752.11,2651.62 -397.75,1017.27 342.3,315.78 -315.78,552.02 108.47,1716.33 -1200.46,139.81 -1106.45,-506.22 -684.61,40.98 -1586.15,-1453.57 -2191.2,19.28 -1087.17,-347.12 -662.91,-1337.86 -1154.66,-323.03 -188.02,-330.23 -421.85,426.66 -778.62,-626.75 -703.87,-69.9 -544.8,549.61 -942.53,421.84 -518.27,-253.1 -489.35,699.07 -421.84,-593.01 -1590.98,-474.88 -373.64,-1070.29 -496.57,77.14 -1205.29,-1091.99 -889.5,-77.14 366.41,-1272.78 -356.76,-460.41 -404.98,53.02 -2082.74,279.64 -744.85,-744.87 -2005.6,752.09 -269.99,-149.45 438.72,-694.25 -530.32,-445.95 45.8,-648.44 -458.01,-537.56 -1827.2,130.17 -417.03,-409.79 -930.48,-911.2 339.89,-443.54 -412.2,-306.15 -465.25,120.53 -339.89,-691.83 -429.08,-62.67 -472.47,465.23 -672.55,55.45 -766.55,-865.4 -103.66,-190.43 z"
   class="fil2 str0"
   id="mun_5212253" /><path
   style="fill:#179999;fill-opacity:1;stroke:#c8eae6;stroke-width:374.3862915;stroke-miterlimit:4;stroke-dasharray:none;stroke-opacity:1"
   inkscape:connector-curvature="0"
   d="m 52313.428,200449.83 -1675.346,-12.06 484.525,-1263.13 -633.979,-1178.78 -918.427,-826.81 -159.097,-1275.2 -1012.439,-1104.04 231.415,-824.41 1590.974,-1906.77 2572.076,-942.53 674.96,-1759.71 814.772,-1108.86 1619.901,-1012.44 643.621,-3338.63 6723.074,-1186 1113.682,-2193.62 2157.459,-1697.03 221.772,-1979.08 -633.98,-846.11 -1381.254,-1258.32 -1345.097,-701.48 -2133.353,-559.25 3242.214,-21454.05 501.398,294.09 250.699,1499.37 850.93,494.17 142.224,802.71 1046.186,949.77 65.086,501.4 626.747,351.94 -60.264,344.71 472.471,-19.29 2485.296,2234.61 359.174,-122.94 166.329,1224.56 262.752,-298.91 465.24,192.84 -144.634,366.42 325.427,361.58 409.797,-530.32 713.527,303.72 161.508,670.15 824.415,96.42 535.145,809.95 -269.983,188.02 472.471,402.56 74.728,749.69 730.402,467.66 272.394,-178.39 822.004,1718.74 995.564,-414.62 166.329,631.57 527.915,45.8 496.576,568.9 -127.759,241.05 696.654,284.45 212.13,-397.74 409.796,197.66 -74.727,679.78 646.031,392.93 -101.243,559.24 1453.572,1465.63 236.236,797.9 860.572,402.56 916.017,1055.83 571.304,106.06 761.74,1038.96 378.458,144.64 489.346,-303.74 701.475,438.72 674.959,1294.48 -400.155,969.05 2304.504,583.36 725.584,-229.01 660.497,694.24 -67.503,315.79 407.386,31.34 132.583,373.64 255.523,-151.87 330.248,795.49 -414.619,523.09 395.33,-57.85 74.726,619.52 392.928,-79.55 -255.522,1407.76 752.1,511.05 -530.324,496.58 566.482,547.19 687.009,-108.47 204.899,580.95 385.695,-197.67 202.487,617.11 195.253,-296.51 973.867,1458.39 445.954,173.57 257.934,-257.94 474.878,641.22 875.04,50.62 212.131,523.1 658.086,21.69 -202.487,727.99 658.086,-274.81 928.065,993.16 315.78,-313.38 327.84,431.5 325.42,-207.31 4.83,310.96 660.5,200.07 1113.68,-178.37 -77.14,282.03 513.45,77.14 192.85,-303.74 130.17,364.01 708.71,-236.24 617.1,467.65 -229,443.54 359.17,-178.38 617.11,542.38 -195.25,183.2 436.31,-101.24 397.74,494.16 -195.26,424.27 670.14,185.61 -229.01,467.65 -1147.43,508.62 -759.32,2772.16 327.84,1516.25 650.85,995.56 2887.85,1841.67 -72.31,2405.76 -4028.06,-1282.43 -4059.4,-2164.69 -1475.261,2572.08 -1709.1,1154.66 -1419.821,1889.89 -6038.473,3288.01 -1877.833,-532.73 -67.495,-417.03 -778.613,-590.6 -1947.74,-91.6 -224.182,419.44 -1010.029,289.27 -1757.304,1429.47 -566.483,800.31 -2658.857,-65.09 -990.743,571.3 -865.393,-636.38 -2728.763,-699.07 -894.321,-91.6 -3095.169,1043.78 -1135.377,-209.72 -1636.776,166.33 -1455.983,-860.57 -1860.958,12.04 -2029.698,-1280 -1629.544,441.13 -814.772,-445.96 -870.215,19.28 -188.024,-491.75 -2220.133,-1378.84 -3683.348,-501.4 -171.15,-125.35 204.898,-1730.78 -607.463,-571.32 z"
   class="fil5 str5"
   id="mapa_chapadao"
   inkscape:label="#mun_5205471" />





<path
   style="fill:#91c1bb;fill-opacity:1;fill-rule:evenodd;stroke:#c8eae6;stroke-width:374.3862915;stroke-linecap:round;stroke-linejoin:round;stroke-miterlimit:4;stroke-dasharray:none;stroke-opacity:1;image-rendering:optimizeQuality;shape-rendering:geometricPrecision;text-rendering:geometricPrecision"
   inkscape:connector-curvature="0"
   d="m 175939.38,86285.359 1333.05,195.258 2089.98,-216.954 2208.08,932.887 2138.17,-595.406 1583.75,-19.289 872.62,-376.045 1111.28,-2186.385 2176.74,-1827.21 759.33,84.37 1142.61,-631.569 -110.89,-380.87 1087.17,91.601 518.27,-530.324 380.87,330.247 593,-790.666 1347.5,53.033 327.84,-1422.236 2977.06,-2844.469 -841.3,-3608.644 1267.96,735.222 1412.6,-568.894 -151.86,-1084.755 -600.24,-419.438 103.66,-525.504 1048.59,-737.634 894.32,-62.675 337.48,-609.873 617.11,84.369 1123.33,-1489.73 1178.76,-429.081 694.25,-629.159 1284.83,727.992 993.15,-192.845 862.98,-638.801 1243.86,701.475 918.42,-188.025 1214.93,-807.54 -303.73,-1957.381 1940.51,-735.222 -318.2,-920.838 154.28,-665.316 817.18,67.495 843.69,-566.482 -12.04,-2405.747 1022.08,-1521.069 -332.66,-2089.962 -1530.71,-1559.637 -19.28,-527.915 1236.61,-392.922 850.94,77.138 875.03,-515.862 1137.79,450.777 694.25,-682.192 626.74,36.159 1376.44,1111.272 368.81,1475.267 812.38,740.044 1475.27,2502.171 1043.78,981.1 944.95,378.46 976.27,1458.393 597.82,310.963 590.59,1287.244 638.8,144.633 325.43,1116.093 -267.57,371.227 -81.96,448.367 -547.2,-96.423 -822.01,566.483 -2420.21,161.508 -740.04,1410.183 -1106.45,790.666 -359.18,2133.352 262.76,1041.366 -725.59,855.751 -971.48,486.935 -1294.48,-101.244 -3811.1,1200.463 -3307.3,2504.579 862.98,1516.248 -588.18,3314.555 822.01,1475.268 1742.84,-424.261 684.6,245.878 36.16,330.248 928.07,-118.118 212.12,392.923 1622.32,-701.475 583.36,337.479 359.17,-180.793 785.85,1022.081 617.11,4.845 354.35,1120.915 703.88,397.743 -171.15,754.508 727.99,301.321 204.9,-496.577 431.5,134.991 -142.23,-672.548 409.8,-115.707 277.21,503.809 506.24,69.906 183.21,-511.041 1566.87,115.708 -77.15,477.293 395.34,438.723 -1243.85,1974.258 -431.49,2304.495 790.66,930.487 -2.43,836.461 1781.41,-173.553 1750.07,1757.303 -4418.57,4739.173 -1834.44,1313.76 -195.26,706.299 -694.24,711.106 -1118.5,518.28 -1950.16,1687.39 -2391.27,720.77 -1979.08,-612.29 -1856.14,402.57 -711.12,-491.76 -1918.81,-221.78 -2051.4,474.89 -795.51,612.29 -1651.23,-392.93 -3398.9,578.53 -2239.43,-1260.72 -2779.38,-267.57 -1108.86,-301.32 -491.76,-491.76 -2651.62,72.32 -10006.27,-3263.908 819.59,-1296.882 1443.94,-809.959 -48.22,-687.009 -1540.32,-744.888 180.79,-1265.547 -265.16,-646.03 -2068.28,-1574.105 -2490.11,-841.283 -718.35,245.878 -2875.84,-424.264 342.31,-4056.987 z"
   class="fil2 str0"
   id="mun_5213756-7" /></svg>