<?xml version='1.0' encoding='UTF-8' standalone='no'?>
<svg width="419.947mm" height="296.926mm" xmlns:xlink="http://www.w3.org/1999/xlink" viewBox="0 0 4960 3507" baseProfile="tiny" xmlns:inkscape="http://www.inkscape.org/namespaces/inkscape" xmlns="http://www.w3.org/2000/svg" version="1.2">
 <defs/>
 <g stroke="black" stroke-width="1" inkscape:groupmode="layer" stroke-linecap="square" id="Camada 1" fill="none" stroke-linejoin="bevel" inkscape:label="Camada 1" fill-rule="evenodd">
  <g stroke="#000000" stroke-width="1" font-family="MS Shell Dlg 2" font-weight="400" transform="matrix(1,0,0,1,0,0)" stroke-linecap="square" fill="none" font-size="34.375" stroke-linejoin="bevel" font-style="normal" stroke-opacity="1"/>
  <g stroke="#000000" stroke-width="1" font-family="MS Shell Dlg 2" font-weight="400" transform="matrix(1,0,0,1,0,0)" stroke-linecap="square" fill="none" font-size="34.375" stroke-linejoin="bevel" font-style="normal" stroke-opacity="1"/>
  <g stroke="#000000" stroke-width="1" font-family="MS Shell Dlg 2" font-weight="400" transform="matrix(11.8081,0,0,11.8081,0,0)" stroke-linecap="square" fill="none" font-size="34.375" stroke-linejoin="bevel" font-style="normal" stroke-opacity="1"/>
  <g stroke="#000000" stroke-width="1" font-family="MS Shell Dlg 2" font-weight="400" transform="matrix(0.999751,0,0,0.999751,0,0)" stroke-linecap="square" fill="none" font-size="34.375" stroke-linejoin="bevel" font-style="normal" stroke-opacity="1"/>
  <g stroke="none" font-family="MS Shell Dlg 2" font-weight="400" fill-opacity="1" transform="matrix(0.999751,0,0,0.999751,0,0)" fill="#ffffff" font-size="34.375" font-style="normal">
   <path vector-effect="none" d="M-2,-2 L4963,-2 L4963,3510 L-2,3510 L-2,-2" fill-rule="evenodd"/>
  </g>
  <g stroke="#000000" stroke-width="1" font-family="MS Shell Dlg 2" font-weight="400" transform="matrix(0.999751,0,0,0.999751,0,0)" stroke-linecap="square" fill="none" font-size="34.375" stroke-linejoin="bevel" font-style="normal" stroke-opacity="1"/>
  <g stroke="#000000" stroke-width="1" font-family="MS Shell Dlg 2" font-weight="400" transform="matrix(11.8081,0,0,11.8081,0,0)" stroke-linecap="square" fill="none" font-size="34.375" stroke-linejoin="bevel" font-style="normal" stroke-opacity="1"/>
  <g stroke="#000000" stroke-width="1" font-family="MS Shell Dlg 2" font-weight="400" transform="matrix(11.8081,0,0,11.8081,0,0)" stroke-linecap="square" fill="none" font-size="34.375" stroke-linejoin="bevel" font-style="normal" stroke-opacity="1"/>
  <g stroke="#000000" stroke-width="1" font-family="MS Shell Dlg 2" font-weight="400" transform="matrix(11.8081,0,0,11.8081,0,0)" stroke-linecap="square" fill="none" font-size="34.375" stroke-linejoin="bevel" font-style="normal" stroke-opacity="1"/>
  <g stroke="#000000" stroke-width="1" font-family="MS Shell Dlg 2" font-weight="400" transform="matrix(11.8081,0,0,11.8081,0,0)" stroke-linecap="square" fill="none" font-size="34.375" stroke-linejoin="bevel" font-style="normal" stroke-opacity="1"/>
  <g stroke="#000000" stroke-width="1" font-family="MS Shell Dlg 2" font-weight="400" transform="matrix(1,0,0,1,0,0)" stroke-linecap="square" fill="none" font-size="34.375" stroke-linejoin="bevel" font-style="normal" stroke-opacity="1"/>
 </g>
 <defs/>
 <g stroke="black" stroke-width="1" inkscape:groupmode="layer" stroke-linecap="square" id="Camada 2" fill="none" stroke-linejoin="bevel" inkscape:label="Camada 2" fill-rule="evenodd">
  <g stroke="#000000" stroke-width="1" font-family="MS Shell Dlg 2" font-weight="400" transform="matrix(1,0,0,1,0,0)" stroke-linecap="square" fill="none" font-size="34.375" stroke-linejoin="bevel" font-style="normal" stroke-opacity="1"/>
  <g stroke="#000000" stroke-width="1" font-family="MS Shell Dlg 2" font-weight="400" transform="matrix(1,0,0,1,0,0)" stroke-linecap="square" fill="none" font-size="34.375" stroke-linejoin="bevel" font-style="normal" stroke-opacity="1"/>
  <g stroke="#000000" stroke-width="1" font-family="MS Shell Dlg 2" font-weight="400" transform="matrix(11.8081,0,0,11.8081,105.69,145.324)" stroke-linecap="square" fill="none" font-size="34.375" stroke-linejoin="bevel" font-style="normal" stroke-opacity="1"/>
  <g stroke="none" font-family="MS Shell Dlg 2" font-weight="400" fill-opacity="1" transform="matrix(11.8081,0,0,11.8081,105.69,145.324)" fill="#ffffff" font-size="34.375" font-style="normal">
   <rect width="411.049" height="278.59" y="0" x="0"/>
  </g>
  <g stroke="#000000" stroke-width="1" font-family="MS Shell Dlg 2" font-weight="400" transform="matrix(11.8081,0,0,11.8081,105.69,145.324)" stroke-linecap="square" fill="none" font-size="34.375" stroke-linejoin="bevel" font-style="normal" stroke-opacity="1"/>
  <g stroke="#000000" stroke-width="1" font-family="MS Shell Dlg 2" font-weight="400" transform="matrix(11.8081,0,0,11.8081,105.69,145.324)" stroke-linecap="square" fill="none" font-size="34.375" stroke-linejoin="bevel" font-style="normal" stroke-opacity="1"/>
  <g stroke="none" font-family="MS Shell Dlg 2" font-weight="400" fill-opacity="0" transform="matrix(0.999751,0,0,0.999751,105.69,145.324)" fill="#000000" font-size="34.375" font-style="normal">
   <rect width="4855" height="3290" y="0" x="0"/>
  </g>
  <g stroke="#000000" stroke-width="1" font-family="MS Shell Dlg 2" font-weight="400" transform="matrix(11.8081,0,0,11.8081,105.69,145.324)" stroke-linecap="square" fill="none" font-size="34.375" stroke-linejoin="bevel" font-style="normal" stroke-opacity="1"/>
  <g stroke="#000000" stroke-width="1" font-family="MS Shell Dlg 2" font-weight="400" transform="matrix(11.8081,0,0,11.8081,105.69,145.324)" stroke-linecap="square" fill="none" font-size="34.375" stroke-linejoin="bevel" font-style="normal" stroke-opacity="1"/>
  <g stroke="#000000" stroke-width="1" font-family="MS Shell Dlg 2" font-weight="400" transform="matrix(11.8081,0,0,11.8081,105.69,145.324)" stroke-linecap="square" fill="none" font-size="34.375" stroke-linejoin="bevel" font-style="normal" stroke-opacity="1"/>
  <g stroke="#000000" stroke-width="1" font-family="MS Shell Dlg 2" font-weight="400" transform="matrix(1,0,0,1,0,0)" stroke-linecap="square" fill="none" font-size="34.375" stroke-linejoin="bevel" font-style="normal" stroke-opacity="1"/>
  <g stroke="#000000" stroke-width="1" font-family="MS Shell Dlg 2" font-weight="400" transform="matrix(11.8081,0,0,11.8081,105.69,145.324)" stroke-linecap="square" fill="none" font-size="34.375" stroke-linejoin="bevel" font-style="normal" stroke-opacity="1"/>
  <g stroke="#000000" stroke-width="1" font-family="MS Shell Dlg 2" font-weight="400" transform="matrix(11.8081,0,0,11.8081,105.69,145.324)" stroke-linecap="square" fill="none" font-size="34.375" stroke-linejoin="bevel" font-style="normal" stroke-opacity="1"/>
  <g stroke="#000000" stroke-width="1" font-family="MS Shell Dlg 2" font-weight="400" transform="matrix(1,0,0,1,0,0)" stroke-linecap="square" fill="none" font-size="34.375" stroke-linejoin="bevel" font-style="normal" stroke-opacity="1"/>
 </g>
 <defs/>
 <g stroke="black" stroke-width="1" inkscape:groupmode="layer" stroke-linecap="square" id="Camada 3" fill="none" stroke-linejoin="bevel" inkscape:label="Camada 3" fill-rule="evenodd">
  <g stroke="#000000" stroke-width="1" font-family="MS Shell Dlg 2" font-weight="400" transform="matrix(1,0,0,1,0,0)" stroke-linecap="square" fill="none" font-size="34.375" stroke-linejoin="bevel" font-style="normal" stroke-opacity="1"/>
  <g stroke="#000000" stroke-width="1" font-family="MS Shell Dlg 2" font-weight="400" transform="matrix(1,0,0,1,0,0)" stroke-linecap="square" fill="none" font-size="34.375" stroke-linejoin="bevel" font-style="normal" stroke-opacity="1"/>
  <g stroke="#000000" stroke-width="1" font-family="MS Shell Dlg 2" font-weight="400" transform="matrix(11.8081,0,0,11.8081,105.69,145.324)" stroke-linecap="square" fill="none" font-size="34.375" stroke-linejoin="bevel" font-style="normal" stroke-opacity="1"/>
  <g stroke="#000000" stroke-width="1" font-family="MS Shell Dlg 2" font-weight="400" transform="matrix(11.8081,0,0,11.8081,105.69,145.324)" stroke-linecap="square" fill="none" font-size="34.375" stroke-linejoin="bevel" font-style="normal" stroke-opacity="1"/>
  <g stroke="none" font-family="MS Shell Dlg 2" font-weight="400" fill-opacity="0" transform="matrix(0.999751,0,0,0.999751,105.69,145.324)" fill="#000000" font-size="34.375" font-style="normal">
   <rect width="4855" height="3290" y="0" x="0"/>
  </g>
  <g stroke="#232323" stroke-width="3.07087" font-family="MS Shell Dlg 2" font-weight="400" fill-opacity="1" transform="matrix(0.999751,0,0,0.999751,105.69,145.324)" stroke-linecap="square" fill="#f3a6b2" font-size="34.375" stroke-linejoin="bevel" font-style="normal" stroke-opacity="1">
   <path vector-effect="none" d="M1528.94,2162.67 L1528.93,2162.64 L1529.11,2161.7 L1530.32,2160.79 L1529.85,2159.91 L1530.28,2159.62 L1529.55,2158.55 L1531.29,2154.69 L1532.31,2154.69 L1531.73,2154.16 L1533.66,2149.86 L1534.34,2150.12 L1533.69,2148.92 L1534.46,2149.39 L1535.26,2147.24 L1534.15,2146.53 L1534.15,2143.17 L1532.19,2141.7 L1533.72,2140.81 L1533.19,2137.26 L1535.26,2136.95 L1536.22,2133.26 L1536.88,2132.62 L1538.23,2132.4 L1538.94,2130.91 L1538.02,2130.09 L1540.9,2129.02 L1540.07,2127.02 L1538.54,2127.02 L1540.59,2126.2 L1539.92,2123.75 L1541.48,2123.16 L1541.97,2125.16 L1543.84,2122.36 L1542.56,2119.3 L1540.93,2119.62 L1540.78,2118.77 L1544.21,2118.21 L1544.45,2115.94 L1541.98,2116.62 L1540.84,2115.82 L1542.04,2115.71 L1541.79,2113.41 L1542.8,2113.08 L1542.64,2110.37 L1540.83,2109.81 L1542.31,2109.05 L1541.38,2106.78 L1537.31,2104.71 L1538.71,2103.24 L1537.89,2102.54 L1540.16,2100.69 L1538.38,2100.3 L1538.38,2099.5 L1539.69,2100 L1538.5,2098.59 L1536.96,2099.09 L1537.64,2097.41 L1536.99,2095.74 L1540.31,2093.81 L1540.22,2091.1 L1544.32,2088.12 L1543.64,2083 L1547.6,2082.23 L1549.26,2077.9 L1551.03,2076.78 L1552.38,2070.68 L1554.08,2070.14 L1553.64,2066.76 L1555.07,2065.55 L1557.22,2059.83 L1556.85,2053.99 L1559.33,2053.08 L1561.72,2054.14 L1562.43,2051.1 L1563.96,2051.07 L1564.75,2049.24 L1566.35,2048.8 L1565.02,2045.83 L1566.68,2045.41 L1570.44,2039.43 L1569.28,2037.25 L1570.41,2036.54 L1569.28,2035.36 L1572.68,2033.59 L1573.17,2033.49 L1574.85,2034.32 L1575.68,2033.19 L1574.98,2031.92 L1576.41,2031.73 L1576.82,2031.13 L1579.47,2030.63 L1577.98,2028.66 L1580.13,2028.99 L1578.64,2026.51 L1582.1,2027.48 L1581.6,2024.54 L1582.69,2024.38 L1584.55,2026.44 L1583.97,2023.79 L1585.72,2024 L1586.11,2022.44 L1588.02,2023.82 L1587.74,2021.79 L1589.75,2021.46 L1588.99,2017.8 L1587.88,2017.13 L1586.32,2017.84 L1586.35,2015.6 L1588.19,2015.8 L1587.24,2013.41 L1584.39,2015.04 L1585.06,2012.3 L1586.53,2011.27 L1585.55,2008.35 L1587.53,2008.22 L1587.96,2005.22 L1589.89,2004.92 L1587.26,2004.13 L1587.61,2002.8 L1589.74,2003.48 L1589.12,2001.69 L1590.53,1999.86 L1589.81,1999.26 L1591.73,1996.3 L1590.41,1994.73 L1590.03,1986.76 L1591.16,1986.07 L1592.07,1987.78 L1593.41,1983.68 L1592.83,1981.98 L1596.86,1979.56 L1596.08,1978.9 L1597.14,1976.03 L1595.24,1976.47 L1596.99,1972.91 L1595.07,1970.06 L1597.47,1968.84 L1598.2,1969.39 L1597.61,1967.63 L1599.96,1967.29 L1601.79,1965.74 L1602.63,1961.29 L1604.07,1961.18 L1602.17,1959.32 L1603.74,1958.56 L1603.35,1954.79 L1604.25,1952.55 L1605.93,1954.55 L1607.44,1953.09 L1608.49,1954.99 L1610.84,1954.26 L1611.63,1955.41 L1615.62,1954.33 L1617.74,1956.17 L1618.57,1955.99 L1619.54,1955.47 L1619.38,1952.7 L1622.81,1953.44 L1622.86,1953.34 L1621.81,1950.21 L1624.24,1951.13 L1623.96,1953.33 L1625.89,1951.98 L1624.98,1948.42 L1623.18,1947.33 L1631.58,1947.04 L1631.56,1946.87 L1630.94,1946.3 L1629.94,1945.35 L1630.98,1942.62 L1625.96,1938 L1628.8,1937.12 L1629.78,1934.66 L1631.88,1935.46 L1631.76,1939.28 L1632.5,1939.29 L1635.57,1937.69 L1637.89,1937.06 L1638.4,1933.38 L1642.84,1931.58 L1644.1,1929.68 L1642.24,1928.91 L1646.13,1925.98 L1650.97,1927.64 L1653.69,1923.32 L1655.27,1925.06 L1657.05,1922.99 L1659.03,1923.45 L1659.29,1923.55 L1662.68,1924.4 L1663.02,1924.08 L1663,1920.88 L1665.26,1920.14 L1670.42,1914.72 L1672.46,1916.72 L1673,1916.58 L1675.24,1914.17 L1677.37,1914.65 L1676.52,1908.73 L1677.18,1906.9 L1679.41,1903.87 L1685.23,1903.32 L1684.92,1895.48 L1687.36,1892.28 L1682.82,1892.33 L1682.15,1891.06 L1687.49,1889.16 L1690.17,1886.79 L1692.15,1887.26 L1689.7,1881.44 L1690.07,1878.8 L1692.53,1878.57 L1694.64,1880.07 L1697.31,1884.01 L1700.18,1881.57 L1696.81,1873.58 L1693.07,1873.04 L1691.94,1871.86 L1692.03,1870.1 L1695.17,1868.2 L1692.47,1865.53 L1693.25,1864.98 L1695.14,1864.41 L1695.51,1864.3 L1696.75,1864.49 L1703.08,1868.27 L1703.46,1867.96 L1702.68,1861.01 L1703.93,1859.51 L1704.33,1859.5 L1708.43,1863.72 L1713.22,1863.96 L1714.78,1863 L1713.74,1858.79 L1718.2,1859.21 L1714.91,1855.59 L1715.45,1852.77 L1717.37,1852.95 L1721.09,1856.33 L1721.25,1852.16 L1722.47,1851.28 L1726.12,1853.14 L1726.46,1848.7 L1729.24,1847.24 L1728.21,1842.33 L1728.06,1842.19 L1726.29,1840.48 L1725.53,1837.33 L1727.15,1836.51 L1731.01,1837.55 L1733.63,1837.07 L1735.46,1832.98 L1735.77,1830.13 L1735.69,1829.26 L1733.4,1826.65 L1736.29,1824.92 L1733.67,1822.84 L1730.99,1824.98 L1730.78,1822.46 L1732.48,1820.22 L1725.21,1815.97 L1723.07,1812.45 L1724.38,1809.36 L1723.62,1808.07 L1721.33,1806.75 L1712.85,1807.93 L1709.04,1802.74 L1709.32,1801.09 L1712,1799.55 L1712.07,1799.35 L1712.41,1798.01 L1707.55,1793.66 L1708.61,1789.93 L1707.48,1788.09 L1711.01,1785.61 L1709.91,1780.74 L1711.22,1778.33 L1709.52,1776.51 L1711.25,1772.75 L1712.76,1772.22 L1713.82,1769.58 L1719.21,1765.05 L1720.82,1765.14 L1722.22,1766.76 L1725.56,1766.17 L1730.09,1767.39 L1734.23,1762.52 L1740.89,1761.63 L1742.03,1760.9 L1743.91,1755.78 L1745.37,1755.25 L1749.94,1760.15 L1752.3,1760.34 L1753.78,1759.69 L1754.82,1758.93 L1755.13,1758.03 L1747.86,1749.86 L1747.68,1749.01 L1748.52,1747.17 L1753.21,1747.49 L1755.34,1746.63 L1753.86,1735.52 L1756.01,1732.8 L1754.39,1727.72 L1761.38,1724.83 L1761.88,1719.75 L1764.65,1718.03 L1765.78,1717.6 L1769.93,1720.45 L1771.77,1719.49 L1773.91,1716.57 L1779.42,1715.26 L1783.66,1715.52 L1790.45,1709.87 L1803.32,1704.47 L1810.69,1706.07 L1812.19,1705.04 L1813.13,1701.55 L1815.31,1700.86 L1815.53,1700.79 L1818.76,1701.38 L1824.95,1697.66 L1826.06,1696.4 L1827.04,1690.37 L1828.23,1688.79 L1827.48,1686.34 L1830.06,1683.17 L1831.66,1676.55 L1836.01,1672.86 L1838.26,1669.4 L1838.61,1663.17 L1846.32,1656.94 L1846.7,1653.83 L1848.61,1652.24 L1850.81,1644.44 L1850.43,1639.32 L1855.9,1638.12 L1864.15,1638.36 L1865.19,1638.14 L1869.79,1636.05 L1890.7,1640.06 L1897.12,1636.05 L1900.83,1638.02 L1902.62,1636.07 L1905.99,1635.48 L1913.55,1637.61 L1929.8,1636.99 L1933.59,1632.96 L1937.83,1623.52 L1941.27,1621.53 L1945.45,1622.31 L1947.29,1621.47 L1946.74,1616.21 L1948.82,1612.92 L1949.66,1612.68 L1960.95,1613.65 L1967.36,1619.08 L1968.56,1619.29 L1971.47,1617.49 L1973.21,1609.87 L1978.38,1604.91 L1981.97,1599.4 L1987.7,1589.84 L1988.55,1588.85 L1996.08,1584.36 L1996.16,1579.78 L2007.67,1562.03 L2009.32,1559.16 L2011.47,1552.52 L2012.33,1547.66 L2005.12,1530.82 L2004.63,1525.1 L2004.99,1524.13 L2005.69,1523.39 L2009.68,1522.18 L2012.86,1529.52 L2016.09,1530.33 L2020.73,1528.33 L2021.31,1525.74 L2018.05,1519.45 L2018.24,1515.43 L2021.32,1512.71 L2028.23,1510.84 L2029.75,1507.81 L2029.78,1506.82 L2029.89,1503.39 L2027.02,1497.79 L2032.06,1490.25 L2032.5,1488.07 L2030.42,1485.23 L2030.52,1482.7 L2039.04,1470.29 L2038.3,1465.65 L2034.21,1461.91 L2033.55,1449.89 L2036.63,1443.98 L2041.72,1441.18 L2046.97,1436.61 L2046.77,1434.26 L2043.39,1432.9 L2040.12,1429.6 L2041.88,1423.29 L2045.03,1416.74 L2045.29,1408.03 L2052.83,1403.41 L2059.87,1402.72 L2062.77,1400.11 L2070.62,1386.55 L2077.53,1384.03 L2082.98,1372.28 L2087.43,1368.63 L2090.63,1367.4 L2101.87,1368.07 L2107.62,1363.84 L2110.09,1360.72 L2113.57,1359.44 L2117.9,1352.67 L2118.6,1352.29 L2127.63,1350.8 L2134.62,1353.84 L2140.96,1350.48 L2143.63,1346.49 L2147.28,1341.03 L2152.05,1340.51 L2158.92,1345.3 L2160.17,1357.2 L2162.62,1360.81 L2168.66,1361.94 L2178.16,1361.16 L2192.42,1351.25 L2208.14,1344.16 L2209.52,1342.35 L2209.22,1336.53 L2213.64,1330.97 L2214.65,1330.11 L2229.29,1322.72 L2229.6,1322.54 L2229.95,1319.24 L2227.18,1314.58 L2227.32,1308.4 L2228.69,1305.1 L2227.74,1298.13 L2234.7,1288.12 L2241.93,1283.49 L2242.56,1282.55 L2243.11,1279.77 L2239.73,1271.9 L2239.37,1267.47 L2240.89,1263.78 L2243.99,1260.94 L2244.93,1258.14 L2248.06,1254.53 L2248.28,1251.56 L2246.64,1245.86 L2248.27,1241.2 L2250.71,1239.84 L2259.55,1224.35 L2257.8,1213.21 L2268.93,1196.21 L2265.67,1187.63 L2267.2,1181.69 L2264.74,1176.73 L2261.09,1173.51 L2261.23,1167.16 L2257.18,1161.22 L2258.53,1156.67 L2260.58,1153.68 L2260.9,1151.45 L2260.18,1142.88 L2263.19,1140.13 L2266.85,1133.54 L2264.68,1123.16 L2264.91,1119.57 L2269.44,1106.1 L2277.31,1093.46 L2280.83,1084.81 L2285,1080.28 L2285.97,1073.71 L2283.29,1066.01 L2283.66,1062.45 L2284.85,1061.4 L2287.78,1061.91 L2291.4,1066.2 L2292.1,1066.5 L2299.37,1065.96 L2308.13,1059.39 L2310.86,1054.34 L2311.46,1049 L2304.95,1034.64 L2305.8,1025.44 L2300.5,1018.77 L2301.42,1011.22 L2306.95,1006.26 L2308.38,1001.59 L2306.96,993.886 L2308.4,989.422 L2308.46,987 L2308.34,980.713 L2307.81,978.803 L2303.37,970.532 L2304.41,964.037 L2303.43,958.878 L2304.32,949.191 L2298.7,940.439 L2298.48,938.586 L2300.99,934.901 L2302.18,933.982 L2306.33,932.403 L2309.21,931.812 L2314.33,932.139 L2320.49,924.917 L2325.7,911.106 L2327.83,901.604 L2332,894.442 L2333.64,872.691 L2339.6,865.416 L2349.3,860.257 L2355.21,855.144 L2359.6,844.812 L2365.43,844.225 L2365.99,838.409 L2364.24,830.251 L2365.37,822.762 L2371.63,817.907 L2374.04,812.858 L2378.81,809.312 L2382.73,803.832 L2384.34,801.58 L2384.92,790.687 L2385.8,788.359 L2390.49,781.574 L2391.53,772.023 L2391.04,769.651 L2386.01,764.999 L2385.66,763.725 L2386.09,759.376 L2388.17,756.044 L2386.96,748.21 L2389.82,736.302 L2388.49,731.591 L2386.17,729.815 L2383.18,721.18 L2384.6,719.257 L2394.16,717.29 L2396.68,713.411 L2395.76,711.271 L2390.72,708.634 L2388.94,701.641 L2393.55,700.023 L2397.9,701.984 L2400.68,701.513 L2405.42,695.261 L2410.71,693.063 L2411.02,680.427 L2413.64,674.941 L2414.46,668.416 L2418.4,663.183 L2418.32,659.524 L2415.53,655.515 L2420.52,649.538 L2422.02,645.176 L2421.01,642.106 L2421.99,640.381 L2424.04,639.701 L2421.11,631.165 L2424.09,628.022 L2426.99,626.762 L2426.43,622.931 L2429.33,621.347 L2428.23,620.333 L2424.57,620.438 L2423.66,619.132 L2424.83,616.116 L2429.4,615.082 L2430.01,613.217 L2429.47,610.285 L2426,608.656 L2426.24,606.6 L2430.67,604.506 L2431.52,601.515 L2438.18,602.64 L2440.09,601.526 L2441,600.126 L2439.61,596.256 L2441.06,593.387 L2439.56,590.813 L2442.18,588.408 L2442.21,587.933 L2441.66,587.601 L2440.53,587.708 L2439.17,589.628 L2438.99,589.626 L2438.31,588.209 L2442.69,584.701 L2445.56,587.677 L2447.24,587.193 L2447.77,585.907 L2445.52,578.907 L2449.24,575.687 L2454.03,574.797 L2454.36,573.095 L2452.07,571.697 L2455.69,567.759 L2457.32,563.545 L2461.05,562.996 L2462.44,561.659 L2461.37,557.94 L2462.41,556.214 L2465.02,555.92 L2462.63,553.424 L2464.64,552 L2468.98,552.464 L2468.57,549.811 L2469.47,549.264 L2473.58,550.195 L2474.09,548.671 L2472.81,545.096 L2474.2,543.352 L2479.43,545.465 L2479.73,544.251 L2477.91,541.474 L2476.1,541.092 L2477.49,539.767 L2480.06,537.755 L2487.35,534.607 L2489.38,531.903 L2494.49,531.819 L2495.49,531.53 L2496.22,530.992 L2499.31,526.15 L2506.67,524.113 L2509.14,520.991 L2513.99,521.865 L2513.81,519.807 L2511.36,519.457 L2512.46,518.073 L2516.89,516.449 L2521.19,516.255 L2521.61,515.862 L2521.41,514.352 L2517.13,512.231 L2517.57,510.358 L2520.02,510.469 L2520.15,512.736 L2521.93,513.757 L2524.55,513.728 L2525.8,512.519 L2525.74,508.644 L2535.06,504.708 L2530.02,510.043 L2529.61,515.709 L2528.99,516.783 L2527.67,518.088 L2527.58,518.105 L2523.05,518.966 L2522.67,520.22 L2521.57,523.972 L2517.56,525.006 L2514.76,527.396 L2514.84,530.597 L2511.44,533.423 L2511.26,533.789 L2510.01,544.187 L2506.82,548.976 L2509.02,552.617 L2511.99,554.181 L2512.56,558.422 L2514.4,558.039 L2514.49,556.001 L2515.33,555.863 L2517.14,556.469 L2518.68,559.343 L2515.15,559.306 L2513.76,562.173 L2508.06,566.242 L2507.25,566.453 L2506.52,566.272 L2505.12,563.724 L2504.07,564.3 L2501.63,570.069 L2504.47,578.721 L2500.7,581.005 L2498.56,579.039 L2497.93,582.266 L2496.21,583.161 L2497.14,585.789 L2493.81,588.722 L2495.63,591.656 L2493.58,596.106 L2494.78,597.678 L2492.8,597.92 L2491.03,596.253 L2490.12,599.801 L2489.17,598.443 L2488.56,597.549 L2487.09,597.857 L2486.38,599.643 L2485.4,598.34 L2485.53,596.128 L2483.98,597.17 L2485.87,601.96 L2485.45,605.017 L2484.26,605.487 L2484.35,605.679 L2489.13,609.272 L2487.67,614.808 L2484.54,616.304 L2485.09,617.192 L2483.28,618.201 L2485.48,620.727 L2482.23,625.148 L2482.92,629.738 L2482.67,631.032 L2482.56,631.379 L2480.87,632.945 L2480.36,635.347 L2481.88,637.426 L2481.51,641.699 L2482.16,642.958 L2483.42,642.418 L2484.33,644.436 L2485.31,645.14 L2486.4,648.771 L2486.97,648.204 L2487.53,647.637 L2489,649.916 L2489.43,649.01 L2492.19,650.15 L2493.21,649.141 L2496.25,650.351 L2495.85,651.319 L2499.89,651.978 L2499.96,653.249 L2502.73,652.922 L2504.74,654.533 L2506.23,653.374 L2506.15,654.785 L2508.11,655.754 L2508.31,659.927 L2512.14,661.204 L2512.84,660.564 L2514.93,663.529 L2516.46,663.161 L2517.83,665.233 L2521.84,667.219 L2521.95,665.986 L2524.09,665.656 L2525.23,667.346 L2529.23,666.21 L2532.74,669.217 L2540.17,669.945 L2545.76,671.967 L2547.63,670.876 L2555.76,670.194 L2557.97,673.676 L2565.03,675.583 L2566.93,679.134 L2568.73,679.709 L2575.53,677.748 L2580.38,679.217 L2584.68,683.183 L2588.32,681.199 L2596.69,687.67 L2601.02,686.738 L2607.92,689.047 L2609.47,689.68 L2610.84,692.299 L2708.36,747.165 L2708.42,747.202 L2754.81,772.925 L2785.94,789.815 L2794.84,783.498 L2795.48,779.598 L2795.53,777.429 L2792.61,770.126 L2794.14,765.986 L2794.04,765.583 L2793.03,761.492 L2793.94,758.251 L2790.7,750.612 L2791.39,747.437 L2794.88,741.99 L2793.95,738.817 L2790.98,736.648 L2790.84,734.131 L2796.34,722.225 L2801.28,717.614 L2808.21,708.467 L2813.72,698.008 L2815.35,697.15 L2816.37,694.453 L2815.06,693.195 L2815.18,691.952 L2815.3,690.709 L2819.05,682.749 L2820.45,681.308 L2822.18,681.829 L2822.36,679.651 L2823.93,678.432 L2825.86,673.751 L2824.87,669.169 L2829.46,666.21 L2828.85,663.324 L2828.8,663.065 L2830.74,662.974 L2831.67,661.106 L2833.6,660.678 L2837.36,661.244 L2838.08,659.67 L2842.08,657.64 L2843.18,654.353 L2845.78,651.74 L2852.57,647.685 L2856.72,642.743 L2858.48,642.313 L2861.4,636.11 L2867.2,632.69 L2871.37,647.535 L2874.45,647.498 L2878.87,650.574 L2883.93,651.179 L2882.37,652.936 L2882.93,655.16 L2881.86,658.39 L2878.16,661.499 L2879.57,663.057 L2877.51,664.397 L2877.38,665.516 L2879.04,665.831 L2878.19,666.469 L2880.5,669.47 L2888.39,671.044 L2889.6,672.479 L2891.02,671.66 L2894.95,669.39 L2897.88,670.41 L2899.09,672.179 L2902.63,673.686 L2904.25,678.828 L2912.27,683.92 L2913.74,686.826 L2944.87,641.917 L2945.38,641.181 L2946.04,640.781 L2948.48,640.972 L2946.72,638.214 L2948.05,637.248 L2950.34,637.435 L2950.43,638.965 L2952.07,637.578 L2955.56,639 L2955.3,641.736 L2957.05,645.703 L2956.02,649.026 L2956.99,650.227 L2960.55,650.239 L2960.59,649.42 L2962.33,650.585 L2963.94,650.195 L2964.88,653.192 L2966.67,654.993 L2966.01,656.627 L2969.01,657.527 L2968.77,658.513 L2970.79,659.634 L2970.71,660.722 L2972.38,660.627 L2973.54,663.15 L2975.03,663.435 L2975.27,661.966 L2982.2,668.476 L2983.53,670.366 L2985.48,670.884 L2987.32,673.994 L2991.31,675.089 L2991.94,678.814 L2990.46,683.239 L2993.21,688.229 L2992,692.761 L2993.2,697.401 L2995,697.891 L2997.4,701.467 L2999.15,700.635 L3000.74,702.205 L3002.61,700.106 L3004.82,699.486 L3005.98,701.653 L3007.52,701.517 L3008.56,698.732 L3011.43,699.181 L3013.51,701.888 L3014.74,701.206 L3017.1,702.481 L3017.28,704.86 L3020.1,704.229 L3022.51,705.585 L3023.19,706.677 L3023.57,711.963 L3026.63,717.637 L3029.19,717.719 L3031.49,720.114 L3034.51,719.936 L3034.95,720.288 L3035.12,721.115 L3034.73,726.117 L3036.77,726.221 L3036.19,727.873 L3039.22,733.023 L3036.72,735.392 L3040.28,735.133 L3043.06,741.493 L3042.55,741.79 L3041.53,742.385 L3041.39,746.662 L3039.12,747.811 L3038.68,749.542 L3036.68,750.239 L3038.05,752.197 L3040.02,752.331 L3039.77,754.919 L3042.79,757.221 L3040.91,759.408 L3042.79,761.543 L3041.96,762.813 L3041.97,763.049 L3042.2,768.013 L3040.92,769.026 L3041.04,772.796 L3037.65,777.128 L3035.44,778.144 L3036.3,780.755 L3039.64,783.374 L3038.33,783.913 L3039.01,786.349 L3036.2,792.942 L3035.45,796.488 L3040.04,803.773 L3042.69,802.96 L3046.11,801.908 L3050.68,798.7 L3050.6,791.734 L3048.69,789.602 L3050.25,784.536 L3050.17,777.881 L3051.89,775.529 L3050.65,773.832 L3050.36,767.222 L3053.69,764.042 L3058.22,763.196 L3058.29,760.697 L3061.18,754.829 L3060.94,746.429 L3065.21,742.517 L3065.22,742.547 L3065.96,744.033 L3069.7,745.031 L3071.96,747.043 L3074.36,746.765 L3074.69,743.939 L3076.11,744.937 L3076.98,747.042 L3078.26,753.399 L3077.03,754.715 L3077.17,756.891 L3075.35,758.703 L3076.14,762.913 L3075.3,764.617 L3076.89,766.383 L3077.22,769.36 L3076.07,770.869 L3076.99,773.124 L3076.1,777.205 L3077.66,777.333 L3078.45,779.983 L3081.99,781.41 L3080.82,781.699 L3080.6,784.609 L3082.21,784.968 L3081.12,785.669 L3080.44,786.108 L3080.94,791.442 L3080.98,791.815 L3085.32,792.779 L3086.99,795.581 L3089.1,794.444 L3088.57,792.941 L3090.52,791.629 L3089.96,790.067 L3090.84,788.836 L3095.1,789.855 L3098.17,787.486 L3099.9,788.466 L3103.39,787.658 L3104.27,785.429 L3105.17,787.049 L3107.2,783.739 L3108.93,783.746 L3109.94,781.663 L3112.52,780.852 L3113.13,779.629 L3116.46,779.192 L3117.86,781.316 L3119.42,781.734 L3120.99,780.887 L3118.72,779.115 L3119.77,777.562 L3119.3,774.825 L3123.2,776.002 L3124.28,776.038 L3127.29,775.331 L3127.54,776.625 L3129.36,776.993 L3130.42,777.088 L3130.62,776.644 L3130.58,776.133 L3129.5,776.105 L3130.77,774.846 L3130.05,774.345 L3135.37,771.954 L3135.2,770.601 L3136.61,770.667 L3136.86,767.31 L3137.83,767.524 L3139.28,765.502 L3140.59,765.45 L3139.45,767.768 L3143.14,766.522 L3144.19,767.229 L3145.06,764.713 L3148.91,764.634 L3149.02,764.494 L3151.51,761.527 L3150.67,760.582 L3152.8,759.266 L3155.07,755.282 L3157.26,757.083 L3159.93,755.417 L3160.85,756.367 L3161.68,757.216 L3166.8,756.773 L3167.16,755.814 L3166.42,753.797 L3169.85,751.606 L3168.47,750.837 L3170.69,751.257 L3173.88,748.771 L3176.79,751.773 L3177.59,750.724 L3179.06,751.643 L3182.73,750.039 L3183.23,750.808 L3180.07,754.275 L3179.84,757.468 L3177.13,760.446 L3177.01,761.842 L3177.03,764.663 L3177.03,765.641 L3177.23,766.305 L3177.79,768.251 L3177.91,768.412 L3180.56,771.992 L3177.19,775.187 L3175.87,777.869 L3175.59,779.763 L3177.45,780.42 L3179.54,781.924 L3180.43,791.307 L3175.22,797.846 L3176.65,799.936 L3177.95,799.126 L3179.2,801.474 L3179.59,799.037 L3181.14,800.179 L3184.05,799.587 L3190.77,797.224 L3191.91,795.052 L3193.6,795.472 L3195.67,794.096 L3198.66,795.431 L3200.05,793.612 L3203.38,794.417 L3204.98,792.217 L3204.08,791.362 L3204.96,790.837 L3205.21,787.161 L3206.86,787.55 L3204.64,779.548 L3205.54,778.14 L3207.01,778.726 L3210.05,777.096 L3211.21,778.805 L3212.47,778.251 L3212.86,780.105 L3211.95,781.304 L3213.44,782.729 L3213.29,783.723 L3219.57,783.124 L3220.91,786.507 L3219.2,786.974 L3219.69,789.621 L3220.87,788.803 L3222.99,791.515 L3230.55,789.923 L3234.81,791.025 L3237.17,796.351 L3239.38,798.331 L3239.72,801.795 L3241.24,803.009 L3244.43,800.884 L3245.85,801.355 L3247.16,799.789 L3248.54,800.349 L3251.12,795.048 L3253.06,796.291 L3254.69,795.374 L3256.81,797.224 L3256.27,797.659 L3257.57,797.52 L3258.88,797.381 L3261.56,798.834 L3262.06,801.893 L3263.14,802.103 L3264.97,800.408 L3266.36,803.911 L3268.09,804.713 L3272.38,804.499 L3273.59,802.95 L3275.31,802.725 L3280.78,804.105 L3287.43,801.908 L3294.63,807.143 L3294.94,808.994 L3334.48,852.477 L3335.5,846.479 L3338.13,842.27 L3341.08,840.102 L3341.51,839.654 L3342.39,835.383 L3345.87,831.772 L3347.47,827.603 L3349.12,827.547 L3351.29,825.441 L3352.73,820.013 L3348.02,819.083 L3343.84,814.687 L3343.97,811.895 L3341.84,805.308 L3342.52,803.136 L3339.92,799.306 L3341.61,798.022 L3340.9,796.696 L3341.67,790.562 L3344.04,789.663 L3346.97,786.119 L3344.5,782.026 L3344.96,779.238 L3341.46,776.874 L3342.71,775.03 L3342.38,772.208 L3338.61,771.662 L3339,770.165 L3337.75,768.661 L3339.99,767.769 L3338.88,766.846 L3340.29,765.031 L3338.73,764.554 L3341.32,763.157 L3342.15,758.431 L3337.4,755.324 L3340.14,752.635 L3342.42,752.086 L3343.26,749.417 L3345.66,749.34 L3345.88,748.019 L3344.18,745.955 L3345.32,745.726 L3343.65,743.984 L3345.34,742.435 L3344.96,739.848 L3348.44,737.805 L3348.82,734.621 L3351.14,736.557 L3354.27,734.69 L3362.4,738.57 L3368.58,739.093 L3370.11,739.222 L3372.65,741.168 L3370.33,749.23 L3372.09,760.493 L3379.12,763.134 L3381.82,760.357 L3384.8,759.748 L3389.35,762.322 L3392.36,762.092 L3395.5,760.192 L3399.4,760.789 L3396.51,768.245 L3396.73,772.179 L3403.62,774.496 L3409.93,773.099 L3413.4,774.404 L3414.85,777.952 L3409.62,778.784 L3409.11,779.117 L3407.46,781.209 L3407.29,781.791 L3413.69,787.748 L3412.75,791.254 L3415.18,794.383 L3416.25,794.631 L3417.01,794.033 L3419.76,788.43 L3425.81,785.434 L3427.46,785.835 L3427.03,780.526 L3428.36,778.925 L3430.28,779.064 L3432.23,775.543 L3433.55,775.135 L3434.3,775.111 L3435.37,777.336 L3440.44,781.456 L3445.23,780.64 L3449.99,784.529 L3453.62,782.308 L3459.22,781.487 L3459.54,783.953 L3462.1,783.881 L3460.72,785.802 L3463.24,786.671 L3465.44,782.132 L3468.01,780.972 L3467.88,778.062 L3472.77,777.009 L3474.25,775.384 L3473.47,769.502 L3479.76,766.86 L3480.44,763.945 L3482.27,763.467 L3484.2,764.485 L3485.97,763.331 L3486.05,763.277 L3490.91,763.542 L3495.46,761.75 L3497.93,764.032 L3495.05,767.037 L3495.14,767.164 L3498.83,767.704 L3500.37,769.254 L3502.19,767.478 L3505.13,768.845 L3510.92,766.416 L3511.11,762.222 L3509.25,761.581 L3511.77,758.634 L3516.42,758.432 L3519.44,756.213 L3519.51,759.151 L3520.6,759.671 L3521.51,757.376 L3523.22,756.455 L3524.41,756.816 L3525.59,757.177 L3526.45,759.906 L3528.78,758.508 L3527.27,756.05 L3528.76,754.719 L3528.56,753.267 L3531.3,752.792 L3532.37,751.17 L3534.75,753.076 L3538.14,751.303 L3539.37,751.864 L3541.21,748.942 L3543.14,749.665 L3543.25,748.725 L3547.38,746.789 L3548.5,748.017 L3551.63,746.408 L3553.15,743.577 L3553.04,741.313 L3554.66,740.173 L3557.37,741.006 L3558.55,740.413 L3558.55,742.291 L3561.65,743.408 L3561.74,740.169 L3566.57,737.104 L3569.73,736.776 L3572.2,732.934 L3577.8,730.853 L3577.86,727.674 L3583.74,723.124 L3586.48,722.553 L3589.54,717.984 L3594.04,716.56 L3593.65,719.969 L3594.81,720.815 L3596.46,720.438 L3596.6,721.32 L3597.35,722.947 L3601.85,722.443 L3601.98,722.428 L3601.85,718.774 L3603.89,717.228 L3604.29,718.195 L3605.12,716.839 L3604.27,715.469 L3606.65,711.918 L3608.58,711.674 L3610.54,706.443 L3613.56,705.263 L3612.18,703.352 L3613.3,701.516 L3635.71,690.706 L3673.6,690.975 L3724.38,691.309 L3731.75,691.355 L3733.95,682.448 L3734.55,680.027 L3737.35,679.782 L3738.87,678.016 L3743.76,643.436 L3745.76,644.889 L3745.88,648.969 L3747.05,648.518 L3747.07,649.42 L3747.1,650.837 L3747.9,651.256 L3750.11,652.411 L3754.77,651.71 L3757.11,653.136 L3757.18,652.126 L3757.83,655.219 L3760.45,656.863 L3759.49,660.982 L3761.08,662.442 L3760.12,664.315 L3761.8,665.18 L3759.87,669.106 L3762.23,671.134 L3760.66,672.555 L3760.97,678.487 L3760.27,681.135 L3759.38,681.962 L3758.48,682.788 L3758.72,686.937 L3758.52,687.421 L3757.19,688.635 L3759.78,691.794 L3758.12,695.773 L3761.2,697.865 L3770.39,695.45 L3770.86,694.512 L3778.16,694.481 L3785.08,691.782 L3785.93,692.204 L3788.3,690.509 L3789.33,691.424 L3800.61,687.959 L3802.07,688.599 L3806.69,686.746 L3816.14,686.656 L3818.31,684.401 L3820.9,683.631 L3821.84,681.125 L3826.92,679.302 L3830.91,680.279 L3840.36,676.651 L3842.18,674.097 L3842.32,674.439 L3842.48,677.99 L3838.44,688.215 L3834.2,689.501 L3829.11,693.113 L3825.33,692.915 L3822.77,695.381 L3817.16,697.404 L3815.35,699.662 L3811.22,700.673 L3810.29,701.745 L3807.74,702.052 L3803.89,699.254 L3801.3,700.668 L3799.6,699.874 L3797.08,702.68 L3790.56,705.567 L3789.85,709.903 L3787.97,711.773 L3788.75,712.869 L3788.19,714.807 L3784.75,718.013 L3783.2,721.458 L3781.41,725.409 L3774.57,732.605 L3777.4,735.928 L3779.1,740.666 L3782.34,741.58 L3783.56,743.319 L3784.5,748.693 L3783.99,749.826 L3778.74,751.975 L3780.64,754.962 L3777.23,758.499 L3778.65,759.773 L3780.94,759.849 L3781.66,763.535 L3780.47,767.406 L3777.95,769.336 L3777.32,773.836 L3775.06,778.376 L3771.82,781.683 L3772.14,782.746 L3782.38,783.027 L3781.45,787.257 L3782.26,792.153 L3776.76,799.087 L3782.64,802.456 L3785.58,802.8 L3785.93,806.718 L3788.61,813.599 L3791.15,812.798 L3793.1,813.62 L3802.17,809.812 L3808.47,803.649 L3812.73,804.645 L3823.36,802.04 L3837.32,795.042 L3839.38,792.348 L3842.72,792.957 L3848.15,789.755 L3858.56,785.501 L3862.49,786.914 L3863.28,788.735 L3865.59,789.19 L3865.82,791.225 L3865.69,791.819 L3863.54,801.042 L3852.2,807.915 L3848.42,808.598 L3842.79,817.097 L3838.24,818.98 L3835.78,822.467 L3829.06,825.1 L3823.97,825.299 L3817.04,827.461 L3809.71,830.737 L3808.4,833.936 L3800.46,840.215 L3800.34,840.538 L3800.51,842.561 L3806.02,841.689 L3807.07,846.2 L3812.29,851.802 L3811.16,854.117 L3806.01,855.466 L3804.56,856.928 L3805.61,858.376 L3807.77,858.976 L3807.25,862.185 L3808.34,863.118 L3805.68,867.356 L3800.96,871.238 L3803.13,876.236 L3801.82,880.664 L3802.85,883.365 L3805.13,885.329 L3807.69,885.106 L3809.68,886.397 L3819.46,884.878 L3825.8,890.361 L3826.72,892.457 L3818.37,901.184 L3809.58,905.781 L3807.04,908.927 L3806.49,909.717 L3800.58,914.427 L3796.92,922.1 L3794.66,923.708 L3796.21,925.867 L3801.92,928.051 L3802.57,930.519 L3802.7,930.998 L3802.29,932.385 L3801.81,933.292 L3793.31,938.883 L3792.67,940.933 L3796.44,943.659 L3802.31,942.395 L3806.72,950.39 L3805.07,952.022 L3790.44,956.144 L3787.62,959.157 L3794.07,963.079 L3791.24,967.177 L3791.8,969.65 L3798.26,970.274 L3802.91,974.595 L3803.18,976.191 L3802.83,977.647 L3794.2,993.592 L3794.18,1001.89 L3792.27,1006.94 L3802.76,1014.15 L3807.48,1016.38 L3808.95,1018.47 L3809.03,1018.68 L3809.07,1018.79 L3808.25,1026 L3811.13,1029.36 L3810.23,1032.43 L3804.66,1040.12 L3798.66,1043.54 L3800.47,1044.63 L3803.74,1043.53 L3806.2,1047.78 L3800.75,1055.27 L3798.88,1055.65 L3797.02,1053.44 L3793.03,1056.98 L3796.15,1058.96 L3802.56,1059.99 L3808.9,1064.13 L3813.66,1064.01 L3815.07,1066.25 L3815.25,1071.66 L3819.03,1074.47 L3830.17,1077.25 L3835.88,1074.91 L3840.94,1077.23 L3842.26,1081.47 L3841.61,1085.94 L3841.79,1086.21 L3846.28,1087.75 L3848.05,1091.87 L3849.62,1091.93 L3854.27,1088.63 L3858.67,1088 L3862.19,1091.64 L3862.18,1091.66 L3859.47,1100.64 L3864.24,1104.54 L3869.77,1105.06 L3870.87,1108.57 L3871.81,1109.39 L3872.48,1109.71 L3873.32,1109.76 L3876.85,1108.26 L3880.55,1108.66 L3881.93,1110.46 L3880.8,1115.69 L3887.05,1115.24 L3891.19,1117.96 L3894.17,1130.72 L3896.64,1132.38 L3897.77,1136.39 L3898.72,1137.2 L3901.96,1138.95 L3907.31,1137.85 L3909.35,1139.85 L3909.46,1141.37 L3907.55,1144.12 L3907.78,1146.86 L3904.41,1148.54 L3903.25,1150.5 L3902.75,1158.33 L3900.25,1159.96 L3895.51,1160.45 L3892.13,1163.71 L3889.79,1164.69 L3887.37,1165.3 L3879.65,1164.52 L3876.52,1157.39 L3876.05,1157.45 L3874.3,1160.05 L3873.82,1161.25 L3875.36,1161.88 L3876,1163.91 L3879,1166.19 L3878.77,1170.8 L3875.29,1172.7 L3873.95,1177.52 L3874.97,1179.55 L3880.17,1183.36 L3881.32,1185.93 L3881.16,1187.64 L3878.83,1188.83 L3879.64,1190.58 L3877.88,1192.56 L3879.37,1194.49 L3885.45,1197.29 L3886.71,1200.03 L3885.85,1202.4 L3881.51,1201.19 L3880.8,1201.3 L3882.79,1203.75 L3881.25,1204.87 L3882.65,1205.77 L3882.15,1208.1 L3880.63,1208.89 L3883.25,1209.35 L3884.04,1211.3 L3882.72,1216.35 L3878.94,1220.4 L3884.19,1226.63 L3883.98,1228.48 L3880.82,1232.6 L3882.84,1234.72 L3882.59,1239.08 L3879.17,1240.85 L3876.92,1240.46 L3876.57,1238.53 L3875.19,1239.95 L3872.43,1240.7 L3871.27,1241.01 L3871.96,1242.9 L3870.87,1245.19 L3869.99,1246.48 L3871.88,1249.8 L3877.16,1252.86 L3877.31,1254.65 L3878.44,1255.77 L3878.51,1256.62 L3877.31,1261.82 L3877.01,1262.45 L3875.32,1263.2 L3876.81,1265.86 L3876.7,1272.52 L3875.17,1275.01 L3876.26,1276.45 L3876.65,1282.57 L3873.48,1285.86 L3872.61,1288.18 L3871.7,1290.62 L3866.87,1292 L3862.13,1294.95 L3862.65,1296.8 L3864.57,1297.29 L3868.6,1303.46 L3867.13,1308.81 L3865.49,1309.89 L3862.15,1312.53 L3859.04,1319.81 L3857.43,1320.39 L3853.47,1318.84 L3851.86,1327.04 L3850.67,1329.03 L3844.76,1329.44 L3843.45,1329.23 L3840.34,1323.91 L3836.33,1324.16 L3834.25,1326.47 L3831.98,1325.82 L3827.53,1321.7 L3826.89,1319.22 L3825.27,1319.96 L3826.77,1326.92 L3822.01,1333.14 L3812.49,1329.28 L3810.71,1329.22 L3809.27,1331.34 L3806.43,1330.76 L3803.44,1324.21 L3799,1324.47 L3795.49,1326.59 L3786.2,1326.35 L3784.47,1324.29 L3783.66,1320.02 L3779.94,1320.97 L3776.9,1317.41 L3775.65,1317.36 L3776.11,1312.64 L3776.63,1311.42 L3779.04,1309.94 L3781.77,1303.62 L3777.23,1302.45 L3775.82,1300.19 L3773.84,1300.28 L3775.35,1296.55 L3774.72,1289.5 L3770.79,1288.96 L3770.12,1285.84 L3763.86,1282.92 L3760.58,1283.28 L3759.88,1281.41 L3756.95,1280.41 L3748.01,1271.9 L3740.01,1269.47 L3739.58,1269.09 L3734.11,1262.6 L3729.37,1262.45 L3727.14,1255.19 L3725.17,1254.01 L3720.27,1255.57 L3716.33,1253.83 L3715.75,1254.7 L3713.88,1257.54 L3714.59,1262.76 L3713.7,1264.74 L3709.76,1266.96 L3704.99,1267.72 L3702.69,1269.53 L3703,1274.61 L3695.65,1280.35 L3696.45,1284.44 L3698.32,1287.07 L3697.86,1289.47 L3697.66,1290.55 L3697.95,1291.61 L3704.14,1293.4 L3706.29,1294.42 L3710.04,1301.38 L3707.16,1311.94 L3703.29,1315.93 L3701.93,1325.48 L3704.06,1330.18 L3703.78,1333.97 L3706.51,1336.03 L3706.09,1337.02 L3710.21,1339.09 L3711.42,1340.86 L3711.59,1343.83 L3708.17,1345.82 L3707.03,1351.38 L3710.32,1354.13 L3710.52,1356.21 L3713.18,1359.36 L3716.19,1366.62 L3712.35,1369.47 L3709.23,1367.96 L3708.55,1367.96 L3706.65,1367.97 L3702.57,1370.85 L3700.38,1370.4 L3697.24,1372.49 L3692.17,1376.72 L3688.48,1375.99 L3684.48,1378.16 L3681.14,1376.93 L3676.33,1378.71 L3670.7,1377.86 L3666.28,1376.12 L3658.61,1369.17 L3652.07,1367.01 L3643.46,1362.43 L3634.85,1360.29 L3625.57,1355.94 L3612.27,1353.15 L3601.23,1353 L3598.87,1356.28 L3581.15,1365.85 L3579.88,1367.39 L3579.22,1368.59 L3579.08,1368.84 L3578.79,1373.54 L3583.98,1378.21 L3587.56,1380.03 L3588.43,1383.36 L3590.76,1385.89 L3590.08,1388.3 L3588.45,1391.91 L3583.07,1400.21 L3580.56,1407.5 L3575.12,1416.19 L3576.38,1422.19 L3573.96,1424.18 L3578.27,1432.44 L3583.08,1429.77 L3584.95,1426.81 L3588.14,1426.18 L3589.77,1426.03 L3590.02,1426.31 L3590.71,1441.25 L3595.71,1442.26 L3595.74,1442.3 L3607.71,1454.34 L3607.87,1454.95 L3604.13,1462.18 L3599.91,1463.55 L3597.14,1466.96 L3603.23,1469.25 L3603.63,1470.75 L3598.16,1474.92 L3592.04,1477.3 L3588.2,1480.2 L3583.02,1483.79 L3577.35,1493.44 L3576.72,1506.45 L3572.89,1517.81 L3571.31,1529.62 L3573.1,1533.24 L3580.9,1540.73 L3588.19,1542.14 L3592.43,1547.09 L3593.05,1547.45 L3594.14,1548.09 L3594.53,1548.23 L3601.91,1550.96 L3601.94,1551.78 L3600.67,1556.89 L3602.51,1560.43 L3602.55,1562.3 L3601.65,1571.02 L3605.91,1581.56 L3610.78,1586.42 L3610.77,1592.76 L3615.42,1605.1 L3612.06,1612.54 L3612.87,1614.73 L3612.15,1617.24 L3617.9,1628.52 L3617.28,1632.86 L3617.1,1634.12 L3616.04,1636.79 L3615.74,1637.01 L3615.52,1637.18 L3611.62,1637.06 L3568.73,1646.9 L3537.66,1654 L3528.66,1660.56 L3526.56,1661.44 L3524.03,1660.56 L3521.93,1660.72 L3519.65,1660.14 L3513.89,1656 L3511.13,1657.98 L3512.12,1652.81 L3510.88,1651.03 L3510.71,1650.79 L3508.73,1650.34 L3509.61,1651.8 L3508.58,1653.21 L3507.48,1652.17 L3505.74,1653.06 L3506.47,1654.81 L3505.66,1654.47 L3505.28,1655.66 L3503.74,1655 L3502.71,1655.49 L3503.35,1656.5 L3502.04,1655.93 L3499.78,1659.21 L3500.78,1659.91 L3499.52,1660.62 L3499.55,1660.71 L3500.88,1661.9 L3500.05,1662.61 L3500.89,1662.91 L3499.95,1663.41 L3500.64,1663.78 L3499.55,1665.45 L3496.95,1666.78 L3496.02,1664.66 L3494.14,1664.84 L3495.45,1666.73 L3494.2,1667.24 L3494.68,1668.48 L3493.41,1668.34 L3491.43,1668.12 L3490.54,1670 L3487.37,1670.08 L3487.38,1673.29 L3486.04,1673.65 L3486.28,1675.13 L3484.45,1675.79 L3483.56,1678.77 L3482.87,1677.93 L3480.7,1679.26 L3480.68,1678.24 L3478.93,1679.25 L3477.39,1678.54 L3472.35,1680.37 L3469.89,1678.73 L3464.83,1677.93 L3465.06,1676.15 L3463.6,1677.94 L3461.42,1677.29 L3461.07,1679.32 L3460.78,1678.64 L3458.47,1679.04 L3458.49,1680.09 L3457.29,1679.68 L3457.64,1682.65 L3454.16,1684.71 L3454.51,1685.81 L3451.24,1686.05 L3451.79,1684.47 L3450.6,1684.19 L3450.36,1682.65 L3449.66,1683.56 L3448.23,1682.99 L3446.02,1679.61 L3444.62,1680.31 L3445.33,1678.04 L3442.93,1677.81 L3441.94,1676.1 L3438.03,1676.65 L3436.66,1674.39 L3435.17,1674.77 L3435.2,1672.22 L3434.27,1672.39 L3432.84,1669.81 L3434.25,1667.79 L3432.5,1667.14 L3433.57,1663.34 L3432.55,1662.09 L3434.01,1661.47 L3433.6,1660.23 L3434.65,1659.85 L3435.65,1656.83 L3435.53,1654.95 L3433.92,1653.56 L3436.93,1652.56 L3436.85,1651.53 L3437.73,1651.98 L3437.41,1648.12 L3436.14,1648.49 L3435.53,1647.44 L3436.79,1644.62 L3433.86,1643.88 L3434.35,1641.75 L3432.89,1640.62 L3432.75,1636.14 L3431.74,1635.47 L3433.09,1635.42 L3434.55,1632.72 L3434.84,1630.39 L3433.84,1629.93 L3435.69,1626.6 L3434.66,1625.03 L3434.93,1622.63 L3435.83,1620.82 L3436.49,1621.16 L3436.05,1618.4 L3437.51,1617.92 L3437.96,1615.94 L3438.49,1616.82 L3439.97,1616.47 L3440.46,1613.22 L3442.19,1611.82 L3441.68,1610.48 L3444.88,1607.51 L3446.33,1602.93 L3447.76,1602.59 L3447.66,1600.77 L3448.73,1599.87 L3448.12,1598.67 L3450.96,1595.29 L3450.33,1594.31 L3451.41,1594.51 L3452.04,1591.66 L3452.86,1592.13 L3453.26,1589.16 L3451.33,1587.49 L3452,1586.16 L3451,1583.39 L3453.44,1579.13 L3453.33,1575.03 L3451.04,1572.59 L3448.36,1572.88 L3447.21,1570.86 L3448.69,1568.24 L3447.97,1562.5 L3448.82,1560.19 L3446.7,1554.06 L3450.15,1543.7 L3452.3,1542.55 L3451.82,1540.64 L3450.41,1539.9 L3448.68,1540.76 L3443.06,1538.41 L3433.36,1537.16 L3431.64,1535.67 L3431.34,1533.77 L3428.37,1533.79 L3423.44,1526.98 L3419.25,1527.1 L3419.37,1512.01 L3393.86,1512 L3372.43,1512.02 L3339.98,1512.04 L3304.28,1512.04 L3218.59,1511.98 L3213.04,1511.97 L3165.24,1511.96 L3165.29,1516.57 L3165.31,1551.45 L3159.26,1551.7 L3154.72,1557.06 L3153.6,1563.52 L3152.18,1571.76 L3152.17,1579.07 L3154.8,1579.89 L3159.54,1579.41 L3162.99,1582.75 L3163.45,1590.25 L3161.54,1594.91 L3161.02,1596.16 L3153,1604.3 L3151.8,1608.82 L3150.44,1608.26 L3143.38,1611.49 L3139.14,1616.87 L3138.53,1618.83 L3137.16,1623.25 L3140.08,1633.3 L3141.91,1635.45 L3140.37,1638.96 L3141.27,1639.44 L3140.32,1643.75 L3142.5,1645.5 L3141.64,1648.51 L3140.45,1649.05 L3140.51,1651.61 L3143.29,1652.36 L3145.35,1650.99 L3145.57,1651.18 L3148.39,1653.63 L3148.38,1655.56 L3148.37,1659.26 L3145.59,1663.47 L3145.87,1666.93 L3144.37,1672.46 L3141.78,1676.9 L3142.18,1683.46 L3139.86,1689.99 L3139.74,1690.87 L3202.19,1690.94 L3219.15,1690.9 L3223.45,1690.89 L3250.04,1690.81 L3290.5,1690.71 L3333.02,1690.57 L3354.42,1690.58 L3454.59,1690.54 L3455.56,1692.32 L3456.02,1693.84 L3452.34,1695.99 L3453.7,1696.35 L3454.78,1698.42 L3454.79,1699.73 L3452.04,1699.98 L3453.82,1700.74 L3453.77,1702.74 L3450.2,1703.48 L3449.87,1701.91 L3449.62,1701.8 L3447.94,1703.49 L3446.7,1702.01 L3445.4,1704.52 L3447.2,1704.75 L3446.44,1705.89 L3447.11,1709.02 L3444.8,1711.25 L3445.59,1712.92 L3443.99,1713.66 L3445.2,1715.84 L3440.55,1716.96 L3442.03,1719.75 L3441.1,1722.21 L3444.16,1722.2 L3441.67,1724.47 L3444.33,1725.07 L3442.84,1727.38 L3444.25,1727.29 L3447.08,1729.87 L3447.26,1732.42 L3444.3,1734.26 L3447.46,1733.94 L3447.73,1737.71 L3445.66,1739.56 L3449.26,1741.38 L3449.82,1742.03 L3449.75,1742.05 L3448.03,1742.6 L3447.65,1743.7 L3450.16,1749.2 L3448.06,1754.98 L3446.47,1754.79 L3446.12,1757.89 L3442.83,1760.3 L3440.95,1763.29 L3441.98,1767.36 L3439.21,1769.47 L3440.26,1773.63 L3438.6,1775.12 L3435.94,1781.71 L3434.31,1782.3 L3432,1786.7 L3423.83,1796.09 L3419.19,1797.85 L3418.73,1800.97 L3416.18,1802.04 L3417.34,1810.5 L3414.67,1816.96 L3415.42,1817.78 L3410.25,1820.46 L3409.45,1824.93 L3407.46,1825.97 L3406.78,1832.3 L3407.81,1833.36 L3406.22,1835.98 L3405.99,1837.11 L3405.87,1837.68 L3406.43,1838.98 L3409.54,1842.02 L3410.29,1845.94 L3411.33,1845.86 L3410.59,1849.61 L3415.09,1849.75 L3413.96,1850.94 L3415.58,1853.38 L3416.44,1852.07 L3418.33,1853.19 L3420.62,1852 L3423.09,1854.46 L3423.15,1854.77 L3420.99,1855.36 L3420.77,1856.58 L3422,1856.13 L3420.99,1857.64 L3422.03,1858.07 L3420.82,1861 L3424.73,1859.84 L3426.94,1860.44 L3426.16,1862.34 L3429.25,1865.22 L3429.24,1862.03 L3429.37,1861.99 L3432.62,1862.42 L3433.28,1866.82 L3432.73,1868.58 L3435.72,1869.19 L3436.46,1867.12 L3439.37,1865.46 L3440.97,1866.68 L3443.54,1866.62 L3443.51,1868.23 L3445.46,1868.17 L3444.96,1870.08 L3446.45,1871.49 L3445.13,1872.62 L3446.31,1874.39 L3450.78,1871.12 L3451.43,1869.99 L3452.45,1871.29 L3450.97,1874.72 L3452.17,1874.22 L3456,1876.65 L3455.15,1879.25 L3456.93,1877.6 L3459.18,1877.45 L3459.36,1880.76 L3461.76,1880.21 L3462.66,1881.57 L3462.75,1881.76 L3461.66,1883.25 L3464.49,1884.48 L3464.84,1888.32 L3466.55,1889.5 L3468.53,1888.27 L3469.16,1889.04 L3470.36,1886.89 L3470.63,1886.88 L3472.42,1889.49 L3470.49,1890.83 L3473.62,1890.51 L3474.19,1893.21 L3470.77,1894.46 L3471.98,1896.98 L3474.78,1895.59 L3475.07,1901.6 L3473.19,1903.06 L3474.08,1904.12 L3476.42,1902.75 L3477.44,1904.24 L3480.93,1905.66 L3482.32,1908.64 L3482.4,1911.48 L3479.81,1912.43 L3481.29,1914.81 L3478.7,1915.78 L3478.22,1919.25 L3479.48,1922.4 L3482.29,1921.34 L3480.19,1923.18 L3479.87,1925.75 L3484.31,1927.26 L3483.58,1929.48 L3484.57,1931.65 L3483.71,1932.74 L3484.81,1934.42 L3483.48,1935.22 L3483.35,1935.94 L3483.65,1936.61 L3487.47,1940.17 L3485.75,1941.23 L3485.96,1942.78 L3492,1941.91 L3487.96,1946.66 L3489.78,1953.27 L3489.52,1953.85 L3486.87,1954.98 L3487.4,1958.41 L3489.6,1958.19 L3489.6,1960.43 L3492.11,1960.71 L3491.64,1962.07 L3489.13,1962.99 L3489.46,1964.44 L3491.95,1965.63 L3490.96,1969.26 L3495.71,1966.91 L3496.54,1967.85 L3498.7,1972.18 L3500.68,1971.22 L3501.51,1972.18 L3502.8,1973.34 L3498.21,1976.85 L3499.79,1977.7 L3500.17,1979.54 L3501.45,1978.55 L3503.87,1979.62 L3500.74,1983.26 L3505.26,1984.04 L3505.34,1984.3 L3503.41,1987.17 L3505.59,1988.08 L3508.01,1987.41 L3508.52,1989.57 L3513.4,1991.76 L3513.71,1992.32 L3512.11,1995.88 L3505.76,1997.76 L3509.31,1997.71 L3509.27,2000.15 L3508.02,1999.86 L3507.82,2001.78 L3511.71,2000.35 L3512.04,2002.01 L3509.15,2004.25 L3509.88,2005.11 L3507.94,2006.8 L3506.45,2006.46 L3507.1,2008.61 L3506.44,2008.88 L3505.43,2009.05 L3504.49,2007.16 L3503.79,2009.6 L3502.74,2008.52 L3502.19,2009.79 L3502.11,2010.33 L3501.74,2012 L3500.13,2011.32 L3501.23,2013.25 L3500.61,2014.03 L3496.7,2011.44 L3496.29,2010 L3494.94,2010.29 L3495.82,2015.76 L3497.61,2016.21 L3497.63,2016.73 L3495.71,2019.38 L3493.98,2017.34 L3493.05,2018.64 L3491.13,2018.11 L3491.11,2020.25 L3492.61,2020.19 L3492.8,2021.22 L3490.52,2022.07 L3488.1,2021.56 L3487.34,2020.32 L3486.53,2022.61 L3487.41,2024.7 L3482.18,2023.18 L3482.18,2025.41 L3480.53,2024.27 L3478.81,2025.35 L3479.92,2026.65 L3481.98,2026.44 L3480.25,2027.71 L3477.06,2025.78 L3475.91,2026.8 L3474.41,2025.16 L3474.27,2030.6 L3472.27,2030.52 L3471.56,2028.85 L3470.64,2031.32 L3468.98,2030.27 L3468.5,2035.49 L3466.02,2032.23 L3463.3,2035.9 L3465.51,2036.86 L3465.26,2038.56 L3463.23,2038.46 L3465.12,2039.96 L3462.83,2040.99 L3463.06,2045.38 L3458.81,2043.6 L3456.09,2046.3 L3456.48,2048.74 L3455.06,2050.22 L3453.87,2046.1 L3449.76,2049.12 L3448.47,2046.75 L3447.05,2048.72 L3447.9,2050.05 L3446.45,2052.26 L3440.58,2052.65 L3441.72,2055.8 L3440.19,2057.1 L3444.41,2059.43 L3443.57,2060.13 L3441.35,2059.05 L3439.06,2059.83 L3436.99,2059.14 L3439,2061.79 L3441.15,2062.38 L3441.06,2064.75 L3440.86,2065.24 L3439.25,2064.37 L3437.71,2065.02 L3436.62,2067.41 L3437.12,2070.89 L3433.91,2069.19 L3433.29,2069.13 L3433.58,2070.41 L3431.94,2070 L3429.77,2072.3 L3431.81,2075.29 L3429.38,2076.41 L3430.86,2077.59 L3429.37,2079.68 L3426.28,2077.4 L3422.79,2078.34 L3421.41,2079.49 L3422.32,2082.2 L3417.75,2082.86 L3417.5,2083.67 L3419.45,2084.49 L3419.5,2084.6 L3419.48,2085.41 L3419.28,2086.14 L3413.82,2088.25 L3414.37,2090.61 L3416.71,2090.65 L3418.05,2092.6 L3418.44,2095.03 L3418.25,2096.31 L3415.47,2098.57 L3417.96,2101.15 L3417.15,2103.76 L3413.11,2101.86 L3411.4,2103.43 L3408.67,2103.77 L3408.45,2105.41 L3407.15,2105.92 L3411.77,2111.45 L3409.73,2111.95 L3408.42,2110.61 L3405.52,2110.29 L3406.22,2112.75 L3404.66,2113.8 L3404.15,2113.98 L3401.57,2110.64 L3396.46,2112.03 L3395.53,2110.51 L3394.15,2110.52 L3393,2107.59 L3389.33,2106.35 L3389.01,2104.75 L3388.86,2104.77 L3388.61,2107.3 L3389.7,2108.37 L3391.06,2108.07 L3385.52,2113.1 L3386.19,2114.36 L3388.01,2114.21 L3387.85,2120.21 L3386.53,2120.42 L3386.47,2122.03 L3384.21,2122.89 L3382.65,2121.14 L3382.07,2122.29 L3383.33,2124.72 L3379.96,2124.78 L3381.74,2126.6 L3382.13,2128.82 L3384.76,2130.66 L3384.53,2132.1 L3384.5,2132.34 L3380.44,2131.09 L3380.95,2132.54 L3382.86,2132.9 L3383.56,2136.21 L3385,2135.47 L3385.6,2136.16 L3383.73,2138.06 L3383.69,2141.51 L3379.46,2143.3 L3379.19,2146.03 L3380.97,2146.47 L3387.91,2148.14 L3388.64,2152.36 L3391.5,2154.95 L3390.69,2158.6 L3391.61,2166.23 L3392.27,2167.28 L3393.9,2169.07 L3394.99,2169.44 L3399.68,2164.65 L3399.85,2164.67 L3403.29,2171.75 L3404.38,2172.36 L3406.37,2173.04 L3407.61,2172.93 L3409.94,2170.85 L3420.39,2167.85 L3425.07,2165.06 L3429.9,2165.52 L3433.26,2168.62 L3440.78,2169.6 L3447.41,2168.92 L3450.69,2170.97 L3452.87,2175.17 L3455.3,2179.83 L3462.69,2186.04 L3465.29,2192.61 L3468.2,2196.26 L3469.14,2199.95 L3467.75,2205.55 L3464.35,2207.66 L3463.49,2210.59 L3464.42,2211.35 L3463.97,2212.3 L3465.29,2212.66 L3466.85,2215.15 L3467.05,2217.47 L3461.8,2220.64 L3457.98,2220.57 L3456.97,2222.16 L3457.61,2222.99 L3455.62,2222.95 L3453.01,2225.44 L3453.52,2229.49 L3451.66,2234.4 L3445.43,2237.9 L3443.58,2240.18 L3443.67,2242.56 L3446.21,2244.19 L3445.62,2245.55 L3446.84,2247.37 L3443.43,2250.11 L3444.2,2251.4 L3439.77,2254.16 L3439.85,2256.17 L3441.73,2257.55 L3440.26,2259.79 L3438.63,2259.94 L3441.02,2261.86 L3440.56,2263.12 L3436.9,2263.71 L3436.53,2265.83 L3433.74,2267.92 L3435.73,2269.68 L3437.23,2275.44 L3438.6,2277.15 L3438.13,2279.64 L3440.02,2281.22 L3438.36,2286.5 L3439.33,2288.01 L3438.59,2288.08 L3438.93,2289.94 L3442.25,2290 L3442.65,2290.32 L3443.35,2291.67 L3443.11,2293.56 L3444.99,2294.7 L3443.12,2296.65 L3443.7,2297.74 L3442.92,2297.43 L3444.66,2299.79 L3444.28,2302.79 L3445.34,2303.23 L3445.47,2302.16 L3446.23,2303.51 L3446.52,2307.37 L3452.96,2311.17 L3452.92,2315.65 L3450.53,2316.53 L3450,2318.07 L3451.03,2318.55 L3451.23,2321.81 L3452.39,2321.61 L3453.7,2325.07 L3458.47,2326.15 L3459.39,2328.63 L3458.34,2329.76 L3458.83,2331.73 L3457.2,2331.87 L3459.7,2332.89 L3461.74,2336.98 L3462.64,2336.39 L3462.9,2342 L3459.9,2343.89 L3458.21,2343.16 L3455.65,2343.77 L3456.66,2347.03 L3454.09,2345.64 L3450.06,2345.71 L3443.36,2349.32 L3442.24,2351.73 L3438.7,2350.69 L3437.53,2354.32 L3439.7,2354.52 L3439.32,2357.21 L3436.06,2358.09 L3434.89,2360.5 L3430.2,2361.31 L3429.51,2362.43 L3427.02,2360.82 L3426.36,2364.36 L3422.63,2365.85 L3423.23,2367 L3426.12,2367.68 L3426.02,2369.13 L3422.41,2369.02 L3420.98,2371.03 L3419.05,2368.75 L3415.66,2368.3 L3413.53,2372.42 L3414.03,2374.12 L3416.13,2375.44 L3415.25,2376.9 L3413.36,2377.48 L3410.55,2374.67 L3408.38,2374.75 L3404.25,2380.65 L3402.75,2380.32 L3401.81,2381.52 L3399.05,2380.6 L3397.94,2381.74 L3396.41,2383.71 L3397.44,2385.9 L3395.83,2385.54 L3393.47,2387.7 L3390.85,2385.49 L3386.65,2387.63 L3386.71,2391.43 L3382.61,2393.79 L3383.63,2396.51 L3381.61,2397.96 L3379.84,2397 L3379.53,2393.62 L3381.34,2387.55 L3379.99,2386.37 L3378.71,2386.43 L3373.82,2390.6 L3372.5,2390.8 L3370.63,2389.25 L3369.53,2394.59 L3367.74,2396.43 L3366.2,2395.83 L3363.8,2396.77 L3366.12,2398.28 L3366.01,2399.39 L3363.1,2399.61 L3357.79,2403.16 L3357.84,2403.26 L3358.99,2405.53 L3359.05,2406.73 L3357.74,2408.73 L3355.61,2408.3 L3355.19,2407.69 L3355.38,2404.51 L3352.44,2406.75 L3351.93,2407.62 L3353.94,2411.26 L3350.4,2413.06 L3347.53,2416.45 L3349.47,2417.73 L3351.24,2421.46 L3356.45,2425.44 L3352.23,2427.79 L3351.61,2431.57 L3349.3,2431.32 L3344.98,2433.41 L3344.54,2433.14 L3344.88,2430.28 L3342.85,2428.96 L3341.43,2429.47 L3337.16,2439.09 L3334.35,2438.74 L3332.05,2439.09 L3332.17,2440.82 L3328.12,2445.51 L3326.89,2446.12 L3325.69,2446.2 L3324.02,2445.56 L3322.19,2440.59 L3314.49,2441.16 L3316.86,2445.07 L3315.91,2446.05 L3313.93,2445.31 L3313.59,2445.58 L3311.71,2447.95 L3309.36,2451.26 L3309.36,2451.65 L3312.21,2454.77 L3312.12,2456.66 L3308.47,2456.23 L3304.71,2458.85 L3302.02,2460.72 L3298.71,2458.62 L3295.7,2458.18 L3295.19,2456.43 L3295.9,2455.31 L3294.52,2454.36 L3292.25,2453.17 L3290.24,2454.92 L3285.51,2457.25 L3285.23,2461.07 L3283.19,2464.52 L3284.94,2466.68 L3284.85,2469.04 L3282.62,2469.69 L3279.16,2466.3 L3276.13,2465.99 L3275.57,2466.87 L3274.27,2468.93 L3273.91,2470.04 L3271.85,2471.13 L3271.56,2471.64 L3271.43,2472.15 L3274.39,2473.78 L3274.69,2475.52 L3273.09,2477.03 L3270.72,2477.44 L3267.44,2475.12 L3265.95,2477.84 L3258.13,2474.49 L3254.51,2476.01 L3253.17,2481.39 L3249.61,2481.48 L3245.68,2483.34 L3244.94,2485.43 L3242.58,2484.06 L3241.69,2477.99 L3240.35,2477.15 L3237.98,2478.13 L3237.06,2477.54 L3236.84,2473.23 L3238.09,2469.96 L3236.51,2466.8 L3230.99,2470.61 L3228.21,2470.53 L3227.08,2470.04 L3225.9,2467.39 L3221.69,2464.84 L3221,2464.68 L3217.54,2463.84 L3214.73,2458.4 L3212.2,2457.19 L3210.39,2457.13 L3208.35,2461.07 L3206.45,2462.03 L3201.56,2462.43 L3199.26,2462.18 L3193.12,2461.51 L3192.08,2460.99 L3188.56,2458.12 L3182.36,2455.56 L3181.38,2451.33 L3178.48,2447.86 L3177.96,2443.88 L3174.22,2444.77 L3166.73,2441.27 L3158.62,2440.65 L3156.76,2439.23 L3156.72,2435.29 L3147.44,2434.72 L3145.17,2430.79 L3141.98,2430.72 L3139.76,2430.68 L3136.77,2436.24 L3128.12,2441.26 L3127.86,2444.15 L3131.5,2446.48 L3131.45,2447.42 L3128.55,2447.97 L3125.08,2446.99 L3121.75,2444.66 L3121.5,2444.49 L3119.17,2443.46 L3115.58,2441.88 L3112.35,2442.97 L3100.36,2443.77 L3099.34,2443.54 L3098.67,2438.73 L3096.15,2438.69 L3094.19,2440.41 L3088.66,2441.63 L3085.71,2438.39 L3075.28,2446.14 L3074.68,2446.31 L3073.48,2445.45 L3072.66,2444.27 L3074.1,2440.12 L3073.01,2437.85 L3070.42,2437.63 L3063,2441.99 L3057.98,2437.02 L3051.95,2436.72 L3050.38,2435.68 L3050.64,2430.63 L3048.15,2428.19 L3041.35,2429.28 L3038.49,2431.54 L3036.51,2431.74 L3024.65,2429.41 L3022.15,2431.29 L3022.3,2433.51 L3020.32,2434.69 L3017.42,2434.2 L3013.41,2435.18 L3013.28,2435.22 L3008.74,2434.57 L3003.91,2436.72 L3000.4,2435.06 L2993.25,2437.73 L2985.09,2434.84 L2980.41,2438.49 L2975.85,2437.04 L2970.46,2440.42 L2965.43,2446.29 L2961.64,2444.86 L2960.32,2435.41 L2956.41,2433.46 L2947.13,2431.1 L2943.84,2426.56 L2935.98,2425.75 L2932.53,2422.35 L2926.35,2422.46 L2918.98,2428.06 L2915.82,2429.96 L2913.76,2433.41 L2910.97,2433.88 L2911.84,2438.74 L2908.88,2439.44 L2907.14,2443.46 L2903.9,2444.57 L2898.13,2442.48 L2892.21,2445.27 L2890.51,2450.58 L2888.39,2453.73 L2880.84,2458.34 L2879.24,2457.2 L2876.23,2457.29 L2874.4,2454.09 L2870.16,2453.6 L2869.33,2452.94 L2869.14,2452.6 L2871.06,2449.28 L2870.53,2447.65 L2864.47,2447.5 L2855.68,2453.78 L2854.52,2457.4 L2845.53,2458.22 L2839.1,2456.72 L2837.34,2458.38 L2837.28,2460.52 L2841.97,2465.42 L2842.75,2466.75 L2843.18,2468.4 L2840.5,2471.99 L2835.9,2474.57 L2831.72,2478.8 L2826.63,2487.38 L2825.01,2492.69 L2824.98,2492.8 L2817.68,2494.34 L2816.84,2494.86 L2813.58,2497.36 L2812.64,2498.63 L2810.9,2506.11 L2807.53,2506.9 L2801.17,2505.25 L2798.67,2506.6 L2794.47,2517.14 L2787.35,2523.42 L2784.7,2528.29 L2782.94,2531.53 L2777.76,2532.8 L2773.25,2532.33 L2770.62,2530.3 L2765.53,2519.98 L2749.5,2505.14 L2748.23,2499.78 L2748.04,2495.8 L2748.05,2488.02 L2747.18,2486.07 L2746.05,2484.31 L2744.46,2483.28 L2736.14,2483.02 L2731.97,2483.28 L2730.72,2484.01 L2728.08,2486.44 L2729.84,2494.24 L2727.88,2497.84 L2727.36,2498.79 L2725.77,2499.94 L2724.77,2500.38 L2719.18,2499.07 L2701.99,2502.4 L2696.37,2503.96 L2695.58,2504.44 L2694.34,2505.6 L2694.12,2508.65 L2699.62,2514.55 L2698.13,2517.86 L2695.62,2518.38 L2688.52,2514.65 L2686.39,2514.39 L2682.95,2514.61 L2676.89,2516.3 L2670.88,2520.84 L2670.17,2521.38 L2666.98,2522.94 L2665.19,2522.87 L2659.96,2520.98 L2655.9,2521.94 L2655.06,2522.8 L2653.55,2527.82 L2651.55,2531.2 L2648.13,2531.98 L2647.95,2531.96 L2647.83,2531.96 L2639.83,2528.36 L2634.53,2529.69 L2629.13,2525.3 L2624.16,2525.08 L2623.01,2522.22 L2621.09,2521.29 L2619.73,2520.91 L2618.6,2520.96 L2612.39,2524.7 L2603.54,2525.57 L2589.86,2522.43 L2587.38,2519.29 L2575.98,2517.74 L2572.03,2518.26 L2569.21,2521.33 L2565.07,2531.92 L2560.51,2535.1 L2555.39,2541.23 L2528.05,2538.67 L2516.83,2543.45 L2510.79,2543.92 L2500.16,2543.06 L2493.77,2545.07 L2487.35,2547.09 L2485.75,2547.59 L2480.98,2549.73 L2476.24,2554.29 L2467.04,2569.8 L2459.67,2586.02 L2459.12,2586.7 L2457.46,2587.98 L2453.43,2590.06 L2446.99,2591.35 L2444.71,2592.79 L2443.59,2594.43 L2438.12,2612.1 L2438.08,2612.14 L2430.13,2620.61 L2428.5,2621.65 L2427.73,2621.91 L2419.02,2624.77 L2416.16,2627.28 L2415.27,2631.99 L2419.11,2641.47 L2417.82,2649.03 L2420.72,2651.75 L2419.53,2658.62 L2411.72,2672.54 L2406.95,2679.83 L2405.54,2681.4 L2404.95,2681.85 L2404.39,2682.29 L2395.6,2686.85 L2391.53,2692.16 L2371.88,2691.04 L2371.58,2691.02 L2367.41,2691.09 L2363.43,2691.65 L2362.25,2692.07 L2361.46,2692.9 L2363.14,2700.7 L2360.5,2703.78 L2343.37,2707.87 L2340.31,2711.89 L2339.96,2717.33 L2339.78,2720.16 L2338.74,2724.1 L2331.04,2731.73 L2325.42,2732.81 L2316.22,2741.62 L2312.7,2747.52 L2312.38,2748.31 L2310.15,2753.72 L2309.49,2759.72 L2306.2,2766.11 L2302.11,2774.8 L2298.29,2779.36 L2297.79,2780.61 L2297.33,2784.78 L2299.53,2788.38 L2309.19,2796.06 L2313.69,2801.72 L2313.12,2805.75 L2310.3,2808.81 L2308.09,2809.54 L2287,2801.98 L2277.71,2799.33 L2276.45,2795.71 L2274.17,2794.53 L2272.46,2791.28 L2267.14,2788.69 L2261.65,2787.55 L2261.73,2780.75 L2255.32,2781.62 L2256.24,2778.74 L2254.9,2777.07 L2251.86,2778.18 L2246.92,2777.84 L2246.41,2776.69 L2250.08,2774.09 L2251.04,2772.14 L2249.16,2771.35 L2246.39,2765.25 L2246.09,2765 L2243.11,2764.59 L2243.05,2760.07 L2240.4,2756.3 L2239.49,2756.56 L2238.12,2754.48 L2235.13,2754.69 L2234.89,2753.09 L2228.36,2749.56 L2228.34,2747.62 L2226.85,2747.22 L2226.83,2747.22 L2222.48,2747.74 L2218.46,2745.89 L2215.97,2746.04 L2210.21,2740.77 L2202.26,2740.83 L2198.32,2739.58 L2195.9,2734.72 L2191.71,2733.54 L2191.02,2732.34 L2189.49,2733.89 L2186.67,2731.61 L2184.11,2731.35 L2182.77,2733.07 L2182.56,2733.34 L2178.7,2734.88 L2176.82,2733.96 L2175.05,2736.51 L2173.51,2734.35 L2167.73,2732.63 L2166.37,2728.74 L2164.84,2729.28 L2164.5,2729.39 L2163.8,2729.16 L2162.75,2727.44 L2160.75,2726.5 L2160.2,2725.06 L2156.97,2724.78 L2158.38,2720.25 L2157.01,2718.49 L2147.97,2719.7 L2145.26,2716.99 L2137.98,2719.73 L2137,2719.19 L2138.59,2716.67 L2136.66,2715.04 L2136.83,2712.69 L2135.17,2710.73 L2128.54,2711.2 L2125.93,2708.54 L2125.03,2707.71 L2124.72,2707.5 L2123.33,2706.1 L2125.15,2704.57 L2123.33,2703.53 L2121.68,2704.13 L2120.45,2701.62 L2118.34,2701.31 L2117.18,2703.08 L2114.74,2703.29 L2113.06,2701.92 L2112.23,2699.68 L2111.52,2699.64 L2108.58,2700.47 L2108.19,2701.96 L2103.08,2697.63 L2102.65,2697.61 L2101.88,2697.7 L2100.68,2699.39 L2096.62,2700.47 L2094.44,2698.29 L2094.17,2695.53 L2090.92,2696.6 L2085.74,2692.88 L2081.74,2694.08 L2078.16,2693.08 L2076.93,2690.56 L2069.91,2690.59 L2069.36,2689.2 L2068.79,2689.98 L2064.63,2688.92 L2063.24,2691.81 L2059.21,2693.29 L2057.77,2691.96 L2054.45,2692.37 L2049.34,2688.93 L2048.4,2689.72 L2043.39,2692.33 L2031.95,2685.94 L2029.76,2686.41 L2026.58,2684.06 L2026.08,2682.78 L2027.85,2682.19 L2025.48,2680.95 L2024.34,2682.45 L2020.44,2682.7 L2019.48,2679.72 L2016.65,2680.31 L2015.86,2679.53 L2014.64,2678.05 L2014.55,2677.4 L2016.17,2676.81 L2015.73,2676.08 L2010.07,2676.34 L2005.06,2672.58 L2003.4,2673.93 L2000.11,2672.93 L2000.69,2671.59 L1997.98,2671.18 L1998.46,2669.2 L1991.34,2664.96 L1983.9,2666.12 L1983.06,2664.65 L1985.75,2662.5 L1983.43,2661.3 L1980.79,2661.98 L1981.47,2662.79 L1979.5,2664.25 L1974.22,2659.11 L1973.92,2657.31 L1972.79,2657.51 L1970.45,2654.03 L1967.7,2653.09 L1968.3,2650.29 L1965.24,2645.69 L1962.42,2645.7 L1960.07,2642.27 L1956.53,2642.49 L1956.27,2639.94 L1953.92,2639.62 L1951.77,2637.18 L1949.91,2639.52 L1947.88,2639.44 L1948.14,2641.32 L1946.08,2640.54 L1944.31,2637.37 L1943.65,2638.02 L1942.7,2636.77 L1943.1,2639.57 L1942.24,2640.21 L1941.17,2639.36 L1939.48,2641.35 L1938.44,2638.24 L1933.72,2638.96 L1932.76,2637.11 L1930.92,2637.51 L1929.75,2640.13 L1927.35,2641.99 L1925.7,2640.86 L1927.72,2638.95 L1925.96,2637.09 L1926.36,2635.73 L1924.13,2635.76 L1920.99,2634 L1920.32,2635.05 L1918.89,2634.73 L1917.73,2631.52 L1916.21,2631.79 L1914.03,2630.18 L1910.7,2632.44 L1906.01,2631.65 L1903.7,2628.72 L1902.88,2628.76 L1902.95,2628.55 L1903.54,2626.69 L1901.26,2626.82 L1898.53,2624.24 L1897.68,2622.76 L1899.02,2622.27 L1898.35,2620.99 L1897.04,2621.28 L1897.94,2617.05 L1896.16,2614.9 L1895.59,2615.84 L1892.03,2614.26 L1889.73,2614.39 L1887.81,2611.86 L1884.36,2613.16 L1881.41,2611.38 L1882.07,2609.47 L1879.95,2608.2 L1880.66,2607.5 L1878.78,2607.56 L1878.54,2603.94 L1876.45,2602.83 L1875.24,2600.43 L1874.13,2600.7 L1873.52,2598.23 L1871.74,2597.57 L1867.73,2599.16 L1866.54,2598.21 L1864.93,2598.95 L1864.31,2597.67 L1861.24,2596.49 L1850.81,2595.53 L1846.82,2591.71 L1846.49,2592.64 L1842.49,2592.17 L1836.7,2592.18 L1835.48,2594.57 L1832.13,2595.57 L1828.14,2592.75 L1823.99,2591.85 L1822.75,2589.8 L1820.56,2589.67 L1819.88,2587.66 L1817.39,2586.8 L1818.52,2585.98 L1817.53,2582.75 L1812.42,2582.44 L1813.09,2580.7 L1810.65,2579.98 L1810.32,2578.53 L1809.29,2578.67 L1809.63,2577.47 L1802.8,2571.36 L1803.34,2569.2 L1799.42,2568.08 L1798.9,2565.27 L1798.53,2563.29 L1794.4,2560.5 L1793.5,2559.3 L1786.68,2547.3 L1778.11,2545.55 L1769.91,2542.21 L1763.1,2540.28 L1762.85,2538.76 L1760.03,2536.61 L1752.96,2536.28 L1752.14,2537.8 L1748.48,2538.85 L1742.1,2544.05 L1740.03,2546.95 L1730.38,2546.72 L1726.79,2548.79 L1723.65,2546.48 L1713.74,2543.94 L1710.48,2543.6 L1699.24,2547.4 L1698.53,2547.5 L1695.12,2546.64 L1689.18,2547.24 L1683.89,2544.12 L1677.13,2544.17 L1669.76,2539.52 L1663.85,2541.11 L1660.89,2539.5 L1657.73,2539.57 L1657.05,2537.78 L1648.99,2532.78 L1635.61,2530.95 L1634.98,2530.49 L1635.73,2524.22 L1633.52,2522.14 L1627.44,2522.09 L1629.2,2517.5 L1626.9,2513.22 L1623.56,2510.22 L1622.98,2505.58 L1619.31,2501.57 L1620.15,2498.58 L1625.92,2491.66 L1635.26,2488.23 L1637.71,2481.85 L1640.67,2477.82 L1646.56,2474.14 L1648.07,2464.25 L1648.89,2462.02 L1650.97,2461.19 L1653.36,2460.69 L1660.4,2460.57 L1673.31,2457.71 L1677.35,2449.75 L1685.19,2443.58 L1685.99,2436.4 L1685.27,2435.16 L1683.69,2433.33 L1678.67,2428.75 L1673.79,2426.21 L1667.56,2424.36 L1666.04,2424.17 L1664.84,2424.02 L1649.07,2425.26 L1632.65,2420.42 L1625.77,2419.33 L1624.34,2419.33 L1614.71,2421.97 L1603.41,2428.93 L1599.88,2436.86 L1598.27,2437.08 L1593.48,2434.7 L1585.24,2434.36 L1575.11,2423.96 L1574.82,2411.56 L1572.13,2403.59 L1572.18,2394.34 L1565.83,2375.25 L1566.07,2368.04 L1562.51,2355.62 L1561.45,2349.66 L1562.72,2346.35 L1567.06,2342.8 L1568.69,2342.14 L1577.54,2341.61 L1579.75,2341.18 L1583.36,2339.58 L1584.57,2335.91 L1585.19,2318.73 L1582.95,2312.94 L1580.03,2310.75 L1575.33,2302.6 L1565.28,2296.12 L1566.52,2290.66 L1564.86,2287.84 L1564.82,2284.63 L1562.34,2283.23 L1561.52,2281.46 L1563.67,2270.23 L1560.02,2265.72 L1560.33,2263.82 L1556.52,2259.94 L1554.89,2256.75 L1556.11,2253.91 L1552.86,2248.64 L1553.22,2247.26 L1550.94,2247.12 L1550.38,2243.88 L1548.56,2242.05 L1547.23,2242.65 L1546.51,2240.56 L1543.58,2238.62 L1544.14,2237.66 L1542.77,2235.73 L1538.91,2234.26 L1539.16,2233.39 L1536.32,2232.42 L1535.97,2233.42 L1530.59,2230.35 L1531.31,2228.17 L1530.07,2226.52 L1530.31,2224.24 L1527.82,2222.74 L1529.74,2221.31 L1530.03,2219.37 L1528.18,2216.79 L1529.97,2215.33 L1528.49,2214.32 L1528.72,2211.59 L1527.27,2211.16 L1528.11,2210.27 L1526.53,2207.66 L1526.54,2202.42 L1527.7,2200.81 L1526.42,2199.5 L1527.64,2198.86 L1527.94,2196.87 L1526.88,2195.35 L1529.1,2193.9 L1529.12,2190.87 L1530.48,2190.02 L1529.33,2187.81 L1530.32,2187.11 L1529.11,2184.57 L1529.85,2183.78 L1527.73,2181.73 L1527.46,2179.97 L1529.69,2178.01 L1528.17,2176.29 L1528.1,2173.37 L1529.06,2171.91 L1527.89,2171.37 L1528,2169.53 L1530.12,2166.04 L1529.46,2164.71 L1530.28,2164.98 L1528.94,2162.67" fill-rule="evenodd"/>
  </g>
  <g stroke="#000000" stroke-width="1" font-family="MS Shell Dlg 2" font-weight="400" transform="matrix(11.8081,0,0,11.8081,105.69,145.324)" stroke-linecap="square" fill="none" font-size="34.375" stroke-linejoin="bevel" font-style="normal" stroke-opacity="1"/>
  <g stroke="#000000" stroke-width="1" font-family="MS Shell Dlg 2" font-weight="400" transform="matrix(11.8081,0,0,11.8081,105.69,145.324)" stroke-linecap="square" fill="none" font-size="34.375" stroke-linejoin="bevel" font-style="normal" stroke-opacity="1"/>
  <g stroke="#000000" stroke-width="1" font-family="MS Shell Dlg 2" font-weight="400" transform="matrix(11.8081,0,0,11.8081,105.69,145.324)" stroke-linecap="square" fill="none" font-size="34.375" stroke-linejoin="bevel" font-style="normal" stroke-opacity="1"/>
  <g stroke="#000000" stroke-width="1" font-family="MS Shell Dlg 2" font-weight="400" transform="matrix(1,0,0,1,0,0)" stroke-linecap="square" fill="none" font-size="34.375" stroke-linejoin="bevel" font-style="normal" stroke-opacity="1"/>
  <g stroke="#000000" stroke-width="1" font-family="MS Shell Dlg 2" font-weight="400" transform="matrix(11.8081,0,0,11.8081,105.69,145.324)" stroke-linecap="square" fill="none" font-size="34.375" stroke-linejoin="bevel" font-style="normal" stroke-opacity="1"/>
  <g stroke="#000000" stroke-width="1" font-family="MS Shell Dlg 2" font-weight="400" transform="matrix(11.8081,0,0,11.8081,105.69,145.324)" stroke-linecap="square" fill="none" font-size="34.375" stroke-linejoin="bevel" font-style="normal" stroke-opacity="1"/>
  <g stroke="#000000" stroke-width="1" font-family="MS Shell Dlg 2" font-weight="400" transform="matrix(1,0,0,1,0,0)" stroke-linecap="square" fill="none" font-size="34.375" stroke-linejoin="bevel" font-style="normal" stroke-opacity="1"/>
 </g>
 <defs/>
 <g stroke="black" stroke-width="1" inkscape:groupmode="layer" stroke-linecap="square" id="Camada 4" fill="none" stroke-linejoin="bevel" inkscape:label="Camada 4" fill-rule="evenodd">
  <g stroke="#000000" stroke-width="1" font-family="MS Shell Dlg 2" font-weight="400" transform="matrix(1,0,0,1,0,0)" stroke-linecap="square" fill="none" font-size="34.375" stroke-linejoin="bevel" font-style="normal" stroke-opacity="1"/>
  <g stroke="#000000" stroke-width="1" font-family="MS Shell Dlg 2" font-weight="400" transform="matrix(1,0,0,1,0,0)" stroke-linecap="square" fill="none" font-size="34.375" stroke-linejoin="bevel" font-style="normal" stroke-opacity="1"/>
  <g stroke="#000000" stroke-width="1" font-family="MS Shell Dlg 2" font-weight="400" transform="matrix(11.8081,0,0,11.8081,105.69,145.324)" stroke-linecap="square" fill="none" font-size="34.375" stroke-linejoin="bevel" font-style="normal" stroke-opacity="1"/>
  <g stroke="#000000" stroke-width="1" font-family="MS Shell Dlg 2" font-weight="400" transform="matrix(11.8081,0,0,11.8081,105.69,145.324)" stroke-linecap="square" fill="none" font-size="34.375" stroke-linejoin="bevel" font-style="normal" stroke-opacity="1"/>
  <g stroke="none" font-family="MS Shell Dlg 2" font-weight="400" fill-opacity="0" transform="matrix(0.999751,0,0,0.999751,105.69,145.324)" fill="#000000" font-size="34.375" font-style="normal">
   <rect width="4855" height="3290" y="0" x="0"/>
  </g>
  <g stroke="#000000" stroke-width="1" font-family="MS Shell Dlg 2" font-weight="400" transform="matrix(11.8081,0,0,11.8081,105.69,145.324)" stroke-linecap="square" fill="none" font-size="34.375" stroke-linejoin="bevel" font-style="normal" stroke-opacity="1"/>
  <g stroke="#000000" stroke-width="1" font-family="MS Shell Dlg 2" font-weight="400" transform="matrix(11.8081,0,0,11.8081,105.69,145.324)" stroke-linecap="square" fill="none" font-size="34.375" stroke-linejoin="bevel" font-style="normal" stroke-opacity="1"/>
  <g stroke="#000000" stroke-width="1" font-family="MS Shell Dlg 2" font-weight="400" transform="matrix(11.8081,0,0,11.8081,105.69,145.324)" stroke-linecap="square" fill="none" font-size="34.375" stroke-linejoin="bevel" font-style="normal" stroke-opacity="1"/>
  <g stroke="#000000" stroke-width="1" font-family="MS Shell Dlg 2" font-weight="400" transform="matrix(1,0,0,1,0,0)" stroke-linecap="square" fill="none" font-size="34.375" stroke-linejoin="bevel" font-style="normal" stroke-opacity="1"/>
  <g stroke="#000000" stroke-width="1" font-family="MS Shell Dlg 2" font-weight="400" transform="matrix(11.8081,0,0,11.8081,105.69,145.324)" stroke-linecap="square" fill="none" font-size="34.375" stroke-linejoin="bevel" font-style="normal" stroke-opacity="1"/>
  <g stroke="#000000" stroke-width="1" font-family="MS Shell Dlg 2" font-weight="400" transform="matrix(11.8081,0,0,11.8081,105.69,145.324)" stroke-linecap="square" fill="none" font-size="34.375" stroke-linejoin="bevel" font-style="normal" stroke-opacity="1"/>
  <g stroke="#000000" stroke-width="1" font-family="MS Shell Dlg 2" font-weight="400" transform="matrix(1,0,0,1,0,0)" stroke-linecap="square" fill="none" font-size="34.375" stroke-linejoin="bevel" font-style="normal" stroke-opacity="1"/>
 </g>
 <defs/>
 <g stroke="black" stroke-width="1" inkscape:groupmode="layer" stroke-linecap="square" id="Camada 5" fill="none" stroke-linejoin="bevel" inkscape:label="Camada 5" fill-rule="evenodd">
  <g stroke="#000000" stroke-width="1" font-family="MS Shell Dlg 2" font-weight="400" transform="matrix(1,0,0,1,0,0)" stroke-linecap="square" fill="none" font-size="34.375" stroke-linejoin="bevel" font-style="normal" stroke-opacity="1"/>
  <g stroke="#000000" stroke-width="1" font-family="MS Shell Dlg 2" font-weight="400" transform="matrix(1,0,0,1,0,0)" stroke-linecap="square" fill="none" font-size="34.375" stroke-linejoin="bevel" font-style="normal" stroke-opacity="1"/>
  <g stroke="#000000" stroke-width="1" font-family="MS Shell Dlg 2" font-weight="400" transform="matrix(11.8081,0,0,11.8081,105.69,145.324)" stroke-linecap="square" fill="none" font-size="34.375" stroke-linejoin="bevel" font-style="normal" stroke-opacity="1"/>
  <g stroke="#000000" stroke-width="1" font-family="MS Shell Dlg 2" font-weight="400" transform="matrix(11.8081,0,0,11.8081,105.69,145.324)" stroke-linecap="square" fill="none" font-size="34.375" stroke-linejoin="bevel" font-style="normal" stroke-opacity="1"/>
  <g stroke="none" font-family="MS Shell Dlg 2" font-weight="400" fill-opacity="0" transform="matrix(0.999751,0,0,0.999751,105.69,145.324)" fill="#000000" font-size="34.375" font-style="normal">
   <rect width="4855" height="3290" y="0" x="0"/>
  </g>
  <g stroke="#000000" stroke-width="1" font-family="MS Shell Dlg 2" font-weight="400" transform="matrix(11.8081,0,0,11.8081,105.69,145.324)" stroke-linecap="square" fill="none" font-size="34.375" stroke-linejoin="bevel" font-style="normal" stroke-opacity="1"/>
  <g stroke="#000000" stroke-width="1" font-family="MS Shell Dlg 2" font-weight="400" transform="matrix(11.8081,0,0,11.8081,105.69,145.324)" stroke-linecap="square" fill="none" font-size="34.375" stroke-linejoin="bevel" font-style="normal" stroke-opacity="1"/>
  <g stroke="#000000" stroke-width="1" font-family="MS Shell Dlg 2" font-weight="400" transform="matrix(11.8081,0,0,11.8081,105.69,145.324)" stroke-linecap="square" fill="none" font-size="34.375" stroke-linejoin="bevel" font-style="normal" stroke-opacity="1"/>
  <g stroke="#000000" stroke-width="1" font-family="MS Shell Dlg 2" font-weight="400" transform="matrix(1,0,0,1,0,0)" stroke-linecap="square" fill="none" font-size="34.375" stroke-linejoin="bevel" font-style="normal" stroke-opacity="1"/>
  <g stroke="#000000" stroke-width="1" font-family="MS Shell Dlg 2" font-weight="400" transform="matrix(11.8081,0,0,11.8081,105.69,145.324)" stroke-linecap="square" fill="none" font-size="34.375" stroke-linejoin="bevel" font-style="normal" stroke-opacity="1"/>
  <g stroke="#000000" stroke-width="1" font-family="MS Shell Dlg 2" font-weight="400" transform="matrix(11.8081,0,0,11.8081,105.69,145.324)" stroke-linecap="square" fill="none" font-size="34.375" stroke-linejoin="bevel" font-style="normal" stroke-opacity="1"/>
  <g stroke="#000000" stroke-width="1" font-family="MS Shell Dlg 2" font-weight="400" transform="matrix(1,0,0,1,0,0)" stroke-linecap="square" fill="none" font-size="34.375" stroke-linejoin="bevel" font-style="normal" stroke-opacity="1"/>
 </g>
 <defs/>
 <g stroke="black" stroke-width="1" inkscape:groupmode="layer" stroke-linecap="square" id="Camada 6" fill="none" stroke-linejoin="bevel" inkscape:label="Camada 6" fill-rule="evenodd">
  <g stroke="#000000" stroke-width="1" font-family="MS Shell Dlg 2" font-weight="400" transform="matrix(1,0,0,1,0,0)" stroke-linecap="square" fill="none" font-size="34.375" stroke-linejoin="bevel" font-style="normal" stroke-opacity="1"/>
  <g stroke="#000000" stroke-width="1" font-family="MS Shell Dlg 2" font-weight="400" transform="matrix(1,0,0,1,0,0)" stroke-linecap="square" fill="none" font-size="34.375" stroke-linejoin="bevel" font-style="normal" stroke-opacity="1"/>
  <g stroke="#000000" stroke-width="1" font-family="MS Shell Dlg 2" font-weight="400" transform="matrix(11.8081,0,0,11.8081,105.69,145.324)" stroke-linecap="square" fill="none" font-size="34.375" stroke-linejoin="bevel" font-style="normal" stroke-opacity="1"/>
  <g stroke="#000000" stroke-width="1" font-family="MS Shell Dlg 2" font-weight="400" transform="matrix(11.8081,0,0,11.8081,105.69,145.324)" stroke-linecap="square" fill="none" font-size="34.375" stroke-linejoin="bevel" font-style="normal" stroke-opacity="1"/>
  <g stroke="#000000" stroke-width="1" font-family="MS Shell Dlg 2" font-weight="400" transform="matrix(1,0,0,1,0,0)" stroke-linecap="square" fill="none" font-size="34.375" stroke-linejoin="bevel" font-style="normal" stroke-opacity="1"/>
 </g>
 <metadata id="qgismetadata">
  <rdf:RDF>
   <cc:Work>
    <dc:format>image/svg+xml</dc:format>
    <dc:title></dc:title>
    <dc:date>2020-03-28T17:25:37</dc:date>
    <dc:identifier></dc:identifier>
    <dc:description></dc:description>
    <dc:creator>
     <cc:Agent>
      <dc:title>Zaqueu Henrique Souza</dc:title>
     </cc:Agent>
    </dc:creator>
    <dc:publisher>
     <cc:Agent>
      <dc:title>QGIS 3.8.0-Zanzibar</dc:title>
     </cc:Agent>
    </dc:publisher>
    <dc:subject>
     <rdf:Bag/>
    </dc:subject>
   </cc:Work>
  </rdf:RDF>
 </metadata>
</svg>
