<svg version="1.1" viewBox="0.0 0.0 600.0 371.0" fill="none" stroke="none" stroke-linecap="square" stroke-miterlimit="10" width="600" height="371" xmlns:xlink="http://www.w3.org/1999/xlink" xmlns="http://www.w3.org/2000/svg"><path fill="#ffffff" d="M0 0L600.0 0L600.0 371.0L0 371.0L0 0Z" fill-rule="nonzero"/><path stroke="#cccccc" stroke-width="1.0" stroke-linecap="butt" d="M45.5 51.5L45.5 332.5" fill-rule="nonzero"/><path stroke="#cccccc" stroke-width="1.0" stroke-linecap="butt" d="M164.5 51.5L164.5 332.5" fill-rule="nonzero"/><path stroke="#cccccc" stroke-width="1.0" stroke-linecap="butt" d="M283.5 51.5L283.5 332.5" fill-rule="nonzero"/><path stroke="#cccccc" stroke-width="1.0" stroke-linecap="butt" d="M402.5 51.5L402.5 332.5" fill-rule="nonzero"/><path stroke="#cccccc" stroke-width="1.0" stroke-linecap="butt" d="M521.5 51.5L521.5 332.5" fill-rule="nonzero"/><path stroke="#333333" stroke-width="1.0" stroke-linecap="butt" d="M45.5 332.5L581.5 332.5" fill-rule="nonzero"/><path stroke="#cccccc" stroke-width="1.0" stroke-linecap="butt" d="M45.5 285.5L581.5 285.5" fill-rule="nonzero"/><path stroke="#cccccc" stroke-width="1.0" stroke-linecap="butt" d="M45.5 238.5L581.5 238.5" fill-rule="nonzero"/><path stroke="#cccccc" stroke-width="1.0" stroke-linecap="butt" d="M45.5 192.5L581.5 192.5" fill-rule="nonzero"/><path stroke="#cccccc" stroke-width="1.0" stroke-linecap="butt" d="M45.5 145.5L581.5 145.5" fill-rule="nonzero"/><path stroke="#cccccc" stroke-width="1.0" stroke-linecap="butt" d="M45.5 98.5L581.5 98.5" fill-rule="nonzero"/><path stroke="#cccccc" stroke-width="1.0" stroke-linecap="butt" d="M45.5 51.5L581.5 51.5" fill-rule="nonzero"/><clipPath id="id_0"><path d="M45.55 51.916668L581.45 51.916668L581.45 332.45L45.55 332.45L45.55 51.916668Z" clip-rule="nonzero"/></clipPath><path stroke="#f1c232" stroke-width="2.0" stroke-linecap="butt" clip-path="url(#id_0)" d="M105.094444 285.69446C105.094444 285.69446 144.79074 227.25 164.63889 215.56111C184.48703 203.87222 204.33519 215.56111 224.18333 215.56111C244.03148 215.56111 263.87964 227.25 283.72778 215.56111C303.57593 203.87222 323.42407 157.11667 343.27222 145.42778C363.12036 133.73889 382.9685 145.42778 402.81668 145.42778C422.66483 145.42778 442.51297 137.63518 462.3611 145.42778C482.20926 153.22037 502.0574 172.70186 521.9056 192.18333C541.7537 211.66481 581.45 262.31668 581.45 262.31668" fill-rule="nonzero"/><path stroke="#38761d" stroke-width="2.0" stroke-linecap="butt" clip-path="url(#id_0)" d="M45.55 285.69446C45.55 285.69446 85.2463 258.42038 105.094444 238.93889C124.94259 219.45741 144.79074 180.49445 164.63889 168.80556C184.48703 157.11667 204.33519 168.80556 224.18333 168.80556C244.03148 168.80556 263.87964 180.49445 283.72778 168.80556C303.57593 157.11667 323.42407 110.361115 343.27222 98.672226C363.12036 86.98333 382.9685 98.672226 402.81668 98.672226C422.66483 98.672226 442.51297 102.56852 462.3611 98.672226C482.20926 94.775925 502.0574 79.19074 521.9056 75.29444C541.7537 71.39815 581.45 75.29444 581.45 75.29444" fill-rule="nonzero"/><path stroke="#000000" stroke-width="2.0" stroke-linecap="butt" clip-path="url(#id_0)" d="M343.27222 285.69446C343.27222 285.69446 382.9685 305.17593 402.81668 309.07224C422.66483 312.9685 442.51297 305.17593 462.3611 309.07224C482.20926 312.9685 502.0574 328.5537 521.9056 332.45C541.7537 336.34628 581.45 332.45 581.45 332.45" fill-rule="nonzero"/><path stroke="#966628" stroke-width="2.0" stroke-linecap="butt" clip-path="url(#id_0)" d="M343.27222 168.80556C343.27222 168.80556 382.9685 149.32408 402.81668 145.42778C422.66483 141.53148 442.51297 149.32408 462.3611 145.42778C482.20926 141.53148 502.0574 118.1537 521.9056 122.05C541.7537 125.9463 581.45 168.80556 581.45 168.80556" fill-rule="nonzero"/><path stroke="#ff0000" stroke-width="2.0" stroke-linecap="butt" clip-path="url(#id_0)" d="M45.55 309.07224C45.55 309.07224 85.2463 309.07224 105.094444 309.07224C124.94259 309.07224 144.79074 309.07224 164.63889 309.07224C184.48703 309.07224 204.33519 309.07224 224.18333 309.07224C244.03148 309.07224 263.87964 309.07224 283.72778 309.07224C303.57593 309.07224 323.42407 309.07224 343.27222 309.07224C363.12036 309.07224 382.9685 309.07224 402.81668 309.07224C422.66483 309.07224 442.51297 312.9685 462.3611 309.07224C482.20926 305.17593 502.0574 289.59073 521.9056 285.69446C541.7537 281.79816 581.45 285.69446 581.45 285.69446" fill-rule="nonzero"/><path fill="#000000" fill-opacity="0.0" clip-path="url(#id_0)" d="M108.094444 285.69446C108.094444 287.3513 106.7513 288.69446 105.094444 288.69446C103.43759 288.69446 102.094444 287.3513 102.094444 285.69446C102.094444 284.0376 103.43759 282.69446 105.094444 282.69446C106.7513 282.69446 108.094444 284.0376 108.094444 285.69446Z" fill-rule="nonzero"/><path fill="#000000" fill-opacity="0.0" clip-path="url(#id_0)" d="M167.63889 215.56111C167.63889 217.21797 166.29575 218.56111 164.63889 218.56111C162.98204 218.56111 161.63889 217.21797 161.63889 215.56111C161.63889 213.90425 162.98204 212.56111 164.63889 212.56111C166.29575 212.56111 167.63889 213.90425 167.63889 215.56111Z" fill-rule="nonzero"/><path fill="#000000" fill-opacity="0.0" clip-path="url(#id_0)" d="M227.18333 215.56111C227.18333 217.21797 225.8402 218.56111 224.18333 218.56111C222.52647 218.56111 221.18333 217.21797 221.18333 215.56111C221.18333 213.90425 222.52647 212.56111 224.18333 212.56111C225.8402 212.56111 227.18333 213.90425 227.18333 215.56111Z" fill-rule="nonzero"/><path fill="#000000" fill-opacity="0.0" clip-path="url(#id_0)" d="M286.72778 215.56111C286.72778 217.21797 285.38464 218.56111 283.72778 218.56111C282.07092 218.56111 280.72778 217.21797 280.72778 215.56111C280.72778 213.90425 282.07092 212.56111 283.72778 212.56111C285.38464 212.56111 286.72778 213.90425 286.72778 215.56111Z" fill-rule="nonzero"/><path fill="#000000" fill-opacity="0.0" clip-path="url(#id_0)" d="M346.27222 145.42778C346.27222 147.08463 344.92908 148.42778 343.27222 148.42778C341.61536 148.42778 340.27222 147.08463 340.27222 145.42778C340.27222 143.77092 341.61536 142.42778 343.27222 142.42778C344.92908 142.42778 346.27222 143.77092 346.27222 145.42778Z" fill-rule="nonzero"/><path fill="#000000" fill-opacity="0.0" clip-path="url(#id_0)" d="M405.81668 145.42778C405.81668 147.08463 404.4735 148.42778 402.81668 148.42778C401.15982 148.42778 399.81668 147.08463 399.81668 145.42778C399.81668 143.77092 401.15982 142.42778 402.81668 142.42778C404.4735 142.42778 405.81668 143.77092 405.81668 145.42778Z" fill-rule="nonzero"/><path fill="#000000" fill-opacity="0.0" clip-path="url(#id_0)" d="M465.3611 145.42778C465.3611 147.08463 464.01797 148.42778 462.3611 148.42778C460.70425 148.42778 459.3611 147.08463 459.3611 145.42778C459.3611 143.77092 460.70425 142.42778 462.3611 142.42778C464.01797 142.42778 465.3611 143.77092 465.3611 145.42778Z" fill-rule="nonzero"/><path fill="#000000" fill-opacity="0.0" clip-path="url(#id_0)" d="M524.9056 192.18333C524.9056 193.8402 523.56244 195.18333 521.9056 195.18333C520.2487 195.18333 518.9056 193.8402 518.9056 192.18333C518.9056 190.52647 520.2487 189.18333 521.9056 189.18333C523.56244 189.18333 524.9056 190.52647 524.9056 192.18333Z" fill-rule="nonzero"/><path fill="#000000" fill-opacity="0.0" clip-path="url(#id_0)" d="M584.45 262.31668C584.45 263.9735 583.1069 265.31668 581.45 265.31668C579.79315 265.31668 578.45 263.9735 578.45 262.31668C578.45 260.65982 579.79315 259.31668 581.45 259.31668C583.1069 259.31668 584.45 260.65982 584.45 262.31668Z" fill-rule="nonzero"/><path fill="#000000" fill-opacity="0.0" clip-path="url(#id_0)" d="M48.55 285.69446C48.55 287.3513 47.206856 288.69446 45.55 288.69446C43.893147 288.69446 42.55 287.3513 42.55 285.69446C42.55 284.0376 43.893147 282.69446 45.55 282.69446C47.206856 282.69446 48.55 284.0376 48.55 285.69446Z" fill-rule="nonzero"/><path fill="#000000" fill-opacity="0.0" clip-path="url(#id_0)" d="M108.094444 238.93889C108.094444 240.59575 106.7513 241.93889 105.094444 241.93889C103.43759 241.93889 102.094444 240.59575 102.094444 238.93889C102.094444 237.28203 103.43759 235.93889 105.094444 235.93889C106.7513 235.93889 108.094444 237.28203 108.094444 238.93889Z" fill-rule="nonzero"/><path fill="#000000" fill-opacity="0.0" clip-path="url(#id_0)" d="M167.63889 168.80556C167.63889 170.4624 166.29575 171.80556 164.63889 171.80556C162.98204 171.80556 161.63889 170.4624 161.63889 168.80556C161.63889 167.1487 162.98204 165.80556 164.63889 165.80556C166.29575 165.80556 167.63889 167.1487 167.63889 168.80556Z" fill-rule="nonzero"/><path fill="#000000" fill-opacity="0.0" clip-path="url(#id_0)" d="M227.18333 168.80556C227.18333 170.4624 225.8402 171.80556 224.18333 171.80556C222.52647 171.80556 221.18333 170.4624 221.18333 168.80556C221.18333 167.1487 222.52647 165.80556 224.18333 165.80556C225.8402 165.80556 227.18333 167.1487 227.18333 168.80556Z" fill-rule="nonzero"/><path fill="#000000" fill-opacity="0.0" clip-path="url(#id_0)" d="M286.72778 168.80556C286.72778 170.4624 285.38464 171.80556 283.72778 171.80556C282.07092 171.80556 280.72778 170.4624 280.72778 168.80556C280.72778 167.1487 282.07092 165.80556 283.72778 165.80556C285.38464 165.80556 286.72778 167.1487 286.72778 168.80556Z" fill-rule="nonzero"/><path fill="#000000" fill-opacity="0.0" clip-path="url(#id_0)" d="M346.27222 98.672226C346.27222 100.32908 344.92908 101.672226 343.27222 101.672226C341.61536 101.672226 340.27222 100.32908 340.27222 98.672226C340.27222 97.015366 341.61536 95.672226 343.27222 95.672226C344.92908 95.672226 346.27222 97.015366 346.27222 98.672226Z" fill-rule="nonzero"/><path fill="#000000" fill-opacity="0.0" clip-path="url(#id_0)" d="M405.81668 98.672226C405.81668 100.32908 404.4735 101.672226 402.81668 101.672226C401.15982 101.672226 399.81668 100.32908 399.81668 98.672226C399.81668 97.015366 401.15982 95.672226 402.81668 95.672226C404.4735 95.672226 405.81668 97.015366 405.81668 98.672226Z" fill-rule="nonzero"/><path fill="#000000" fill-opacity="0.0" clip-path="url(#id_0)" d="M465.3611 98.672226C465.3611 100.32908 464.01797 101.672226 462.3611 101.672226C460.70425 101.672226 459.3611 100.32908 459.3611 98.672226C459.3611 97.015366 460.70425 95.672226 462.3611 95.672226C464.01797 95.672226 465.3611 97.015366 465.3611 98.672226Z" fill-rule="nonzero"/><path fill="#000000" fill-opacity="0.0" clip-path="url(#id_0)" d="M524.9056 75.29444C524.9056 76.9513 523.56244 78.29444 521.9056 78.29444C520.2487 78.29444 518.9056 76.9513 518.9056 75.29444C518.9056 73.63759 520.2487 72.29444 521.9056 72.29444C523.56244 72.29444 524.9056 73.63759 524.9056 75.29444Z" fill-rule="nonzero"/><path fill="#000000" fill-opacity="0.0" clip-path="url(#id_0)" d="M584.45 75.29444C584.45 76.9513 583.1069 78.29444 581.45 78.29444C579.79315 78.29444 578.45 76.9513 578.45 75.29444C578.45 73.63759 579.79315 72.29444 581.45 72.29444C583.1069 72.29444 584.45 73.63759 584.45 75.29444Z" fill-rule="nonzero"/><path fill="#000000" fill-opacity="0.0" clip-path="url(#id_0)" d="M346.27222 285.69446C346.27222 287.3513 344.92908 288.69446 343.27222 288.69446C341.61536 288.69446 340.27222 287.3513 340.27222 285.69446C340.27222 284.0376 341.61536 282.69446 343.27222 282.69446C344.92908 282.69446 346.27222 284.0376 346.27222 285.69446Z" fill-rule="nonzero"/><path fill="#000000" fill-opacity="0.0" clip-path="url(#id_0)" d="M405.81668 309.07224C405.81668 310.72906 404.4735 312.07224 402.81668 312.07224C401.15982 312.07224 399.81668 310.72906 399.81668 309.07224C399.81668 307.41537 401.15982 306.07224 402.81668 306.07224C404.4735 306.07224 405.81668 307.41537 405.81668 309.07224Z" fill-rule="nonzero"/><path fill="#000000" fill-opacity="0.0" clip-path="url(#id_0)" d="M465.3611 309.07224C465.3611 310.72906 464.01797 312.07224 462.3611 312.07224C460.70425 312.07224 459.3611 310.72906 459.3611 309.07224C459.3611 307.41537 460.70425 306.07224 462.3611 306.07224C464.01797 306.07224 465.3611 307.41537 465.3611 309.07224Z" fill-rule="nonzero"/><path fill="#000000" fill-opacity="0.0" clip-path="url(#id_0)" d="M524.9056 332.45C524.9056 334.10684 523.56244 335.45 521.9056 335.45C520.2487 335.45 518.9056 334.10684 518.9056 332.45C518.9056 330.79315 520.2487 329.45 521.9056 329.45C523.56244 329.45 524.9056 330.79315 524.9056 332.45Z" fill-rule="nonzero"/><path fill="#000000" fill-opacity="0.0" clip-path="url(#id_0)" d="M584.45 332.45C584.45 334.10684 583.1069 335.45 581.45 335.45C579.79315 335.45 578.45 334.10684 578.45 332.45C578.45 330.79315 579.79315 329.45 581.45 329.45C583.1069 329.45 584.45 330.79315 584.45 332.45Z" fill-rule="nonzero"/><path fill="#000000" fill-opacity="0.0" clip-path="url(#id_0)" d="M346.27222 168.80556C346.27222 170.4624 344.92908 171.80556 343.27222 171.80556C341.61536 171.80556 340.27222 170.4624 340.27222 168.80556C340.27222 167.1487 341.61536 165.80556 343.27222 165.80556C344.92908 165.80556 346.27222 167.1487 346.27222 168.80556Z" fill-rule="nonzero"/><path fill="#000000" fill-opacity="0.0" clip-path="url(#id_0)" d="M405.81668 145.42778C405.81668 147.08463 404.4735 148.42778 402.81668 148.42778C401.15982 148.42778 399.81668 147.08463 399.81668 145.42778C399.81668 143.77092 401.15982 142.42778 402.81668 142.42778C404.4735 142.42778 405.81668 143.77092 405.81668 145.42778Z" fill-rule="nonzero"/><path fill="#000000" fill-opacity="0.0" clip-path="url(#id_0)" d="M465.3611 145.42778C465.3611 147.08463 464.01797 148.42778 462.3611 148.42778C460.70425 148.42778 459.3611 147.08463 459.3611 145.42778C459.3611 143.77092 460.70425 142.42778 462.3611 142.42778C464.01797 142.42778 465.3611 143.77092 465.3611 145.42778Z" fill-rule="nonzero"/><path fill="#000000" fill-opacity="0.0" clip-path="url(#id_0)" d="M524.9056 122.05C524.9056 123.706856 523.56244 125.05 521.9056 125.05C520.2487 125.05 518.9056 123.706856 518.9056 122.05C518.9056 120.39314 520.2487 119.05 521.9056 119.05C523.56244 119.05 524.9056 120.39314 524.9056 122.05Z" fill-rule="nonzero"/><path fill="#000000" fill-opacity="0.0" clip-path="url(#id_0)" d="M584.45 168.80556C584.45 170.4624 583.1069 171.80556 581.45 171.80556C579.79315 171.80556 578.45 170.4624 578.45 168.80556C578.45 167.1487 579.79315 165.80556 581.45 165.80556C583.1069 165.80556 584.45 167.1487 584.45 168.80556Z" fill-rule="nonzero"/><path fill="#000000" fill-opacity="0.0" clip-path="url(#id_0)" d="M48.55 309.07224C48.55 310.72906 47.206856 312.07224 45.55 312.07224C43.893147 312.07224 42.55 310.72906 42.55 309.07224C42.55 307.41537 43.893147 306.07224 45.55 306.07224C47.206856 306.07224 48.55 307.41537 48.55 309.07224Z" fill-rule="nonzero"/><path fill="#000000" fill-opacity="0.0" clip-path="url(#id_0)" d="M108.094444 309.07224C108.094444 310.72906 106.7513 312.07224 105.094444 312.07224C103.43759 312.07224 102.094444 310.72906 102.094444 309.07224C102.094444 307.41537 103.43759 306.07224 105.094444 306.07224C106.7513 306.07224 108.094444 307.41537 108.094444 309.07224Z" fill-rule="nonzero"/><path fill="#000000" fill-opacity="0.0" clip-path="url(#id_0)" d="M167.63889 309.07224C167.63889 310.72906 166.29575 312.07224 164.63889 312.07224C162.98204 312.07224 161.63889 310.72906 161.63889 309.07224C161.63889 307.41537 162.98204 306.07224 164.63889 306.07224C166.29575 306.07224 167.63889 307.41537 167.63889 309.07224Z" fill-rule="nonzero"/><path fill="#000000" fill-opacity="0.0" clip-path="url(#id_0)" d="M227.18333 309.07224C227.18333 310.72906 225.8402 312.07224 224.18333 312.07224C222.52647 312.07224 221.18333 310.72906 221.18333 309.07224C221.18333 307.41537 222.52647 306.07224 224.18333 306.07224C225.8402 306.07224 227.18333 307.41537 227.18333 309.07224Z" fill-rule="nonzero"/><path fill="#000000" fill-opacity="0.0" clip-path="url(#id_0)" d="M286.72778 309.07224C286.72778 310.72906 285.38464 312.07224 283.72778 312.07224C282.07092 312.07224 280.72778 310.72906 280.72778 309.07224C280.72778 307.41537 282.07092 306.07224 283.72778 306.07224C285.38464 306.07224 286.72778 307.41537 286.72778 309.07224Z" fill-rule="nonzero"/><path fill="#000000" fill-opacity="0.0" clip-path="url(#id_0)" d="M346.27222 309.07224C346.27222 310.72906 344.92908 312.07224 343.27222 312.07224C341.61536 312.07224 340.27222 310.72906 340.27222 309.07224C340.27222 307.41537 341.61536 306.07224 343.27222 306.07224C344.92908 306.07224 346.27222 307.41537 346.27222 309.07224Z" fill-rule="nonzero"/><path fill="#000000" fill-opacity="0.0" clip-path="url(#id_0)" d="M405.81668 309.07224C405.81668 310.72906 404.4735 312.07224 402.81668 312.07224C401.15982 312.07224 399.81668 310.72906 399.81668 309.07224C399.81668 307.41537 401.15982 306.07224 402.81668 306.07224C404.4735 306.07224 405.81668 307.41537 405.81668 309.07224Z" fill-rule="nonzero"/><path fill="#000000" fill-opacity="0.0" clip-path="url(#id_0)" d="M465.3611 309.07224C465.3611 310.72906 464.01797 312.07224 462.3611 312.07224C460.70425 312.07224 459.3611 310.72906 459.3611 309.07224C459.3611 307.41537 460.70425 306.07224 462.3611 306.07224C464.01797 306.07224 465.3611 307.41537 465.3611 309.07224Z" fill-rule="nonzero"/><path fill="#000000" fill-opacity="0.0" clip-path="url(#id_0)" d="M524.9056 285.69446C524.9056 287.3513 523.56244 288.69446 521.9056 288.69446C520.2487 288.69446 518.9056 287.3513 518.9056 285.69446C518.9056 284.0376 520.2487 282.69446 521.9056 282.69446C523.56244 282.69446 524.9056 284.0376 524.9056 285.69446Z" fill-rule="nonzero"/><path fill="#000000" fill-opacity="0.0" clip-path="url(#id_0)" d="M584.45 285.69446C584.45 287.3513 583.1069 288.69446 581.45 288.69446C579.79315 288.69446 578.45 287.3513 578.45 285.69446C578.45 284.0376 579.79315 282.69446 581.45 282.69446C583.1069 282.69446 584.45 284.0376 584.45 285.69446Z" fill-rule="nonzero"/><path fill="#000000" d="M33.05 332.21564Q33.05 330.6844 33.3625 329.7625Q33.675 328.825 34.284374 328.325Q34.909374 327.825 35.846874 327.825Q36.534374 327.825 37.05 328.10626Q37.58125 328.3875 37.925 328.91876Q38.26875 329.4344 38.45625 330.1844Q38.64375 330.9344 38.64375 332.21564Q38.64375 333.73126 38.33125 334.65314Q38.034374 335.575 37.409374 336.09064Q36.8 336.59064 35.846874 336.59064Q34.6125 336.59064 33.89375 335.7Q33.05 334.6375 33.05 332.21564ZM34.128124 332.21564Q34.128124 334.325 34.628124 335.02814Q35.128124 335.73126 35.846874 335.73126Q36.58125 335.73126 37.065624 335.02814Q37.565624 334.325 37.565624 332.21564Q37.565624 330.09064 37.065624 329.40314Q36.58125 328.7 35.83125 328.7Q35.1125 328.7 34.675 329.3094Q34.128124 330.09064 34.128124 332.21564Z" fill-rule="nonzero"/><path fill="#000000" d="M38.596874 288.67883L38.596874 289.69446L32.909374 289.69446Q32.909374 289.31946 33.034374 288.96008Q33.253124 288.38196 33.721874 287.81946Q34.20625 287.25696 35.1125 286.52258Q36.51875 285.36633 37.003124 284.69446Q37.503124 284.02258 37.503124 283.42883Q37.503124 282.80383 37.05 282.38196Q36.596874 281.94446 35.878124 281.94446Q35.1125 281.94446 34.659374 282.39758Q34.20625 282.8507 34.190624 283.6632L33.1125 283.55383Q33.221874 282.33508 33.940624 281.71008Q34.675 281.06946 35.909374 281.06946Q37.14375 281.06946 37.8625 281.75696Q38.58125 282.44446 38.58125 283.46008Q38.58125 283.9757 38.3625 284.4757Q38.159374 284.96008 37.659374 285.52258Q37.175 286.06946 36.05 287.02258Q35.096874 287.81946 34.815624 288.11633Q34.55 288.39758 34.378124 288.67883L38.596874 288.67883Z" fill-rule="nonzero"/><path fill="#000000" d="M36.425 242.93889L36.425 240.87639L32.70625 240.87639L32.70625 239.90764L36.628124 234.34514L37.4875 234.34514L37.4875 239.90764L38.64375 239.90764L38.64375 240.87639L37.4875 240.87639L37.4875 242.93889L36.425 242.93889ZM36.425 239.90764L36.425 236.04826L33.7375 239.90764L36.425 239.90764Z" fill-rule="nonzero"/><path fill="#000000" d="M38.51875 189.69896L37.471874 189.77708Q37.33125 189.15208 37.08125 188.87083Q36.64375 188.41771 36.01875 188.41771Q35.51875 188.41771 35.128124 188.69896Q34.64375 189.07396 34.346874 189.77708Q34.065624 190.46458 34.05 191.74583Q34.425 191.16771 34.971874 190.88646Q35.534374 190.60521 36.14375 190.60521Q37.190624 190.60521 37.925 191.38646Q38.675 192.16771 38.675 193.38646Q38.675 194.19896 38.315624 194.90208Q37.971874 195.58958 37.3625 195.96458Q36.753124 196.32396 35.9875 196.32396Q34.659374 196.32396 33.83125 195.35521Q33.003124 194.38646 33.003124 192.16771Q33.003124 189.66771 33.925 188.54271Q34.721874 187.55833 36.08125 187.55833Q37.096874 187.55833 37.7375 188.13646Q38.39375 188.69896 38.51875 189.69896ZM34.221874 193.40208Q34.221874 193.94896 34.440624 194.44896Q34.675 194.93333 35.08125 195.19896Q35.503124 195.46458 35.971874 195.46458Q36.628124 195.46458 37.1125 194.93333Q37.596874 194.38646 37.596874 193.46458Q37.596874 192.57396 37.1125 192.05833Q36.64375 191.54271 35.925 191.54271Q35.20625 191.54271 34.70625 192.05833Q34.221874 192.57396 34.221874 193.40208Z" fill-rule="nonzero"/><path fill="#000000" d="M34.675 144.77153Q34.01875 144.52153 33.690624 144.08403Q33.378124 143.6309 33.378124 143.02153Q33.378124 142.08403 34.05 141.4434Q34.7375 140.80278 35.846874 140.80278Q36.971874 140.80278 37.659374 141.45903Q38.346874 142.11528 38.346874 143.05278Q38.346874 143.64653 38.034374 144.08403Q37.721874 144.52153 37.08125 144.77153Q37.878124 145.02153 38.284374 145.59966Q38.690624 146.17778 38.690624 146.97466Q38.690624 148.0684 37.909374 148.8184Q37.14375 149.5684 35.8625 149.5684Q34.596874 149.5684 33.815624 148.8184Q33.034374 148.0684 33.034374 146.9434Q33.034374 146.09966 33.45625 145.53716Q33.89375 144.97466 34.675 144.77153ZM34.45625 142.97466Q34.45625 143.58403 34.846874 143.97466Q35.253124 144.36528 35.878124 144.36528Q36.4875 144.36528 36.878124 143.99028Q37.26875 143.59966 37.26875 143.03716Q37.26875 142.45903 36.8625 142.0684Q36.45625 141.66216 35.8625 141.66216Q35.253124 141.66216 34.846874 142.05278Q34.45625 142.4434 34.45625 142.97466ZM34.128124 146.9434Q34.128124 147.39653 34.33125 147.8184Q34.55 148.24028 34.971874 148.47466Q35.39375 148.70903 35.878124 148.70903Q36.628124 148.70903 37.1125 148.22466Q37.6125 147.74028 37.6125 146.99028Q37.6125 146.22466 37.1125 145.72466Q36.6125 145.22466 35.846874 145.22466Q35.096874 145.22466 34.6125 145.72466Q34.128124 146.20903 34.128124 146.9434Z" fill-rule="nonzero"/><path fill="#000000" d="M30.01875 102.672226L28.971874 102.672226L28.971874 95.953476Q28.58125 96.31285 27.95625 96.68785Q27.346874 97.047226 26.8625 97.2191L26.8625 96.203476Q27.7375 95.7816 28.39375 95.203476Q29.065624 94.609726 29.346874 94.047226L30.01875 94.047226L30.01875 102.672226ZM33.05 98.43785Q33.05 96.9066 33.3625 95.984726Q33.675 95.047226 34.284374 94.547226Q34.909374 94.047226 35.846874 94.047226Q36.534374 94.047226 37.05 94.328476Q37.58125 94.609726 37.925 95.140976Q38.26875 95.6566 38.45625 96.4066Q38.64375 97.1566 38.64375 98.43785Q38.64375 99.953476 38.33125 100.87535Q38.034374 101.797226 37.409374 102.31285Q36.8 102.81285 35.846874 102.81285Q34.6125 102.81285 33.89375 101.922226Q33.05 100.859726 33.05 98.43785ZM34.128124 98.43785Q34.128124 100.547226 34.628124 101.25035Q35.128124 101.953476 35.846874 101.953476Q36.58125 101.953476 37.065624 101.25035Q37.565624 100.547226 37.565624 98.43785Q37.565624 96.31285 37.065624 95.62535Q36.58125 94.922226 35.83125 94.922226Q35.1125 94.922226 34.675 95.5316Q34.128124 96.31285 34.128124 98.43785Z" fill-rule="nonzero"/><path fill="#000000" d="M30.01875 55.916668L28.971874 55.916668L28.971874 49.197918Q28.58125 49.557293 27.95625 49.932293Q27.346874 50.291668 26.8625 50.463543L26.8625 49.447918Q27.7375 49.026043 28.39375 48.447918Q29.065624 47.854168 29.346874 47.291668L30.01875 47.291668L30.01875 55.916668ZM38.596874 54.901043L38.596874 55.916668L32.909374 55.916668Q32.909374 55.541668 33.034374 55.182293Q33.253124 54.604168 33.721874 54.041668Q34.20625 53.479168 35.1125 52.744793Q36.51875 51.588543 37.003124 50.916668Q37.503124 50.244793 37.503124 49.651043Q37.503124 49.026043 37.05 48.604168Q36.596874 48.166668 35.878124 48.166668Q35.1125 48.166668 34.659374 48.619793Q34.20625 49.072918 34.190624 49.885418L33.1125 49.776043Q33.221874 48.557293 33.940624 47.932293Q34.675 47.291668 35.909374 47.291668Q37.14375 47.291668 37.8625 47.979168Q38.58125 48.666668 38.58125 49.682293Q38.58125 50.197918 38.3625 50.697918Q38.159374 51.182293 37.659374 51.744793Q37.175 52.291668 36.05 53.244793Q35.096874 54.041668 34.815624 54.338543Q34.55 54.619793 34.378124 54.901043L38.596874 54.901043Z" fill-rule="nonzero"/><path fill="#000000" d="M43.01875 349.45L41.971874 349.45L41.971874 342.73126Q41.58125 343.09064 40.95625 343.46564Q40.346874 343.825 39.8625 343.9969L39.8625 342.98126Q40.7375 342.5594 41.39375 341.98126Q42.065624 341.3875 42.346874 340.825L43.01875 340.825L43.01875 349.45ZM47.675 344.79376Q47.01875 344.54376 46.690624 344.10626Q46.378124 343.65314 46.378124 343.04376Q46.378124 342.10626 47.05 341.46564Q47.7375 340.825 48.846874 340.825Q49.971874 340.825 50.659374 341.48126Q51.346874 342.1375 51.346874 343.075Q51.346874 343.66876 51.034374 344.10626Q50.721874 344.54376 50.08125 344.79376Q50.878124 345.04376 51.284374 345.6219Q51.690624 346.2 51.690624 346.9969Q51.690624 348.09064 50.909374 348.84064Q50.14375 349.59064 48.8625 349.59064Q47.596874 349.59064 46.815624 348.84064Q46.034374 348.09064 46.034374 346.96564Q46.034374 346.1219 46.45625 345.5594Q46.89375 344.9969 47.675 344.79376ZM47.45625 342.9969Q47.45625 343.60626 47.846874 343.9969Q48.253124 344.3875 48.878124 344.3875Q49.4875 344.3875 49.878124 344.0125Q50.26875 343.6219 50.26875 343.0594Q50.26875 342.48126 49.8625 342.09064Q49.45625 341.6844 48.8625 341.6844Q48.253124 341.6844 47.846874 342.075Q47.45625 342.46564 47.45625 342.9969ZM47.128124 346.96564Q47.128124 347.41876 47.33125 347.84064Q47.55 348.2625 47.971874 348.4969Q48.39375 348.73126 48.878124 348.73126Q49.628124 348.73126 50.1125 348.2469Q50.6125 347.7625 50.6125 347.0125Q50.6125 346.2469 50.1125 345.7469Q49.6125 345.2469 48.846874 345.2469Q48.096874 345.2469 47.6125 345.7469Q47.128124 346.23126 47.128124 346.96564Z" fill-rule="nonzero"/><path fill="#000000" d="M163.68576 348.4344L163.68576 349.45L157.99826 349.45Q157.99826 349.075 158.12326 348.71564Q158.34201 348.1375 158.81076 347.575Q159.29514 347.0125 160.20139 346.27814Q161.60764 345.1219 162.09201 344.45Q162.59201 343.77814 162.59201 343.1844Q162.59201 342.5594 162.13889 342.1375Q161.68576 341.7 160.96701 341.7Q160.20139 341.7 159.74826 342.15314Q159.29514 342.60626 159.27951 343.41876L158.20139 343.3094Q158.31076 342.09064 159.02951 341.46564Q159.76389 340.825 160.99826 340.825Q162.23264 340.825 162.95139 341.5125Q163.67014 342.2 163.67014 343.21564Q163.67014 343.73126 163.45139 344.23126Q163.24826 344.71564 162.74826 345.27814Q162.26389 345.825 161.13889 346.77814Q160.18576 347.575 159.90451 347.8719Q159.63889 348.15314 159.46701 348.4344L163.68576 348.4344ZM165.13889 345.21564Q165.13889 343.6844 165.45139 342.7625Q165.76389 341.825 166.37326 341.325Q166.99826 340.825 167.93576 340.825Q168.62326 340.825 169.13889 341.10626Q169.67014 341.3875 170.01389 341.91876Q170.35764 342.4344 170.54514 343.1844Q170.73264 343.9344 170.73264 345.21564Q170.73264 346.73126 170.42014 347.65314Q170.12326 348.575 169.49826 349.09064Q168.88889 349.59064 167.93576 349.59064Q166.70139 349.59064 165.98264 348.7Q165.13889 347.6375 165.13889 345.21564ZM166.21701 345.21564Q166.21701 347.325 166.71701 348.02814Q167.21701 348.73126 167.93576 348.73126Q168.67014 348.73126 169.15451 348.02814Q169.65451 347.325 169.65451 345.21564Q169.65451 343.09064 169.15451 342.40314Q168.67014 341.7 167.92014 341.7Q167.20139 341.7 166.76389 342.3094Q166.21701 343.09064 166.21701 345.21564Z" fill-rule="nonzero"/><path fill="#000000" d="M282.77466 348.4344L282.77466 349.45L277.08716 349.45Q277.08716 349.075 277.21216 348.71564Q277.4309 348.1375 277.89966 347.575Q278.38403 347.0125 279.29028 346.27814Q280.69653 345.1219 281.1809 344.45Q281.6809 343.77814 281.6809 343.1844Q281.6809 342.5594 281.22778 342.1375Q280.77466 341.7 280.0559 341.7Q279.29028 341.7 278.83716 342.15314Q278.38403 342.60626 278.3684 343.41876L277.29028 343.3094Q277.39966 342.09064 278.1184 341.46564Q278.85278 340.825 280.08716 340.825Q281.32153 340.825 282.04028 341.5125Q282.75903 342.2 282.75903 343.21564Q282.75903 343.73126 282.54028 344.23126Q282.33716 344.71564 281.83716 345.27814Q281.35278 345.825 280.22778 346.77814Q279.27466 347.575 278.9934 347.8719Q278.72778 348.15314 278.5559 348.4344L282.77466 348.4344ZM289.77466 348.4344L289.77466 349.45L284.08716 349.45Q284.08716 349.075 284.21216 348.71564Q284.4309 348.1375 284.89966 347.575Q285.38403 347.0125 286.29028 346.27814Q287.69653 345.1219 288.1809 344.45Q288.6809 343.77814 288.6809 343.1844Q288.6809 342.5594 288.22778 342.1375Q287.77466 341.7 287.0559 341.7Q286.29028 341.7 285.83716 342.15314Q285.38403 342.60626 285.3684 343.41876L284.29028 343.3094Q284.39966 342.09064 285.1184 341.46564Q285.85278 340.825 287.08716 340.825Q288.32153 340.825 289.04028 341.5125Q289.75903 342.2 289.75903 343.21564Q289.75903 343.73126 289.54028 344.23126Q289.33716 344.71564 288.83716 345.27814Q288.35278 345.825 287.22778 346.77814Q286.27466 347.575 285.9934 347.8719Q285.72778 348.15314 285.5559 348.4344L289.77466 348.4344Z" fill-rule="nonzero"/><path fill="#000000" d="M401.86356 348.4344L401.86356 349.45L396.17606 349.45Q396.17606 349.075 396.30106 348.71564Q396.5198 348.1375 396.98856 347.575Q397.47293 347.0125 398.37918 346.27814Q399.78543 345.1219 400.2698 344.45Q400.7698 343.77814 400.7698 343.1844Q400.7698 342.5594 400.31668 342.1375Q399.86356 341.7 399.1448 341.7Q398.37918 341.7 397.92606 342.15314Q397.47293 342.60626 397.4573 343.41876L396.37918 343.3094Q396.48856 342.09064 397.2073 341.46564Q397.94168 340.825 399.17606 340.825Q400.41043 340.825 401.12918 341.5125Q401.84793 342.2 401.84793 343.21564Q401.84793 343.73126 401.62918 344.23126Q401.42606 344.71564 400.92606 345.27814Q400.44168 345.825 399.31668 346.77814Q398.36356 347.575 398.0823 347.8719Q397.81668 348.15314 397.6448 348.4344L401.86356 348.4344ZM406.69168 349.45L406.69168 347.3875L402.97293 347.3875L402.97293 346.41876L406.8948 340.85626L407.75418 340.85626L407.75418 346.41876L408.91043 346.41876L408.91043 347.3875L407.75418 347.3875L407.75418 349.45L406.69168 349.45ZM406.69168 346.41876L406.69168 342.5594L404.00418 346.41876L406.69168 346.41876Z" fill-rule="nonzero"/><path fill="#000000" d="M520.95245 348.4344L520.95245 349.45L515.26495 349.45Q515.26495 349.075 515.38995 348.71564Q515.6087 348.1375 516.07745 347.575Q516.5618 347.0125 517.4681 346.27814Q518.8743 345.1219 519.3587 344.45Q519.8587 343.77814 519.8587 343.1844Q519.8587 342.5594 519.4056 342.1375Q518.95245 341.7 518.2337 341.7Q517.4681 341.7 517.01495 342.15314Q516.5618 342.60626 516.5462 343.41876L515.4681 343.3094Q515.57745 342.09064 516.2962 341.46564Q517.0306 340.825 518.26495 340.825Q519.4993 340.825 520.2181 341.5125Q520.9368 342.2 520.9368 343.21564Q520.9368 343.73126 520.7181 344.23126Q520.51495 344.71564 520.01495 345.27814Q519.5306 345.825 518.4056 346.77814Q517.45245 347.575 517.1712 347.8719Q516.9056 348.15314 516.7337 348.4344L520.95245 348.4344ZM527.8743 342.96564L526.82745 343.04376Q526.6868 342.41876 526.4368 342.1375Q525.9993 341.6844 525.3743 341.6844Q524.8743 341.6844 524.4837 341.96564Q523.9993 342.34064 523.70245 343.04376Q523.4212 343.73126 523.4056 345.0125Q523.7806 344.4344 524.32745 344.15314Q524.88995 343.8719 525.4993 343.8719Q526.5462 343.8719 527.2806 344.65314Q528.0306 345.4344 528.0306 346.65314Q528.0306 347.46564 527.6712 348.16876Q527.32745 348.85626 526.7181 349.23126Q526.1087 349.59064 525.3431 349.59064Q524.01495 349.59064 523.1868 348.6219Q522.3587 347.65314 522.3587 345.4344Q522.3587 342.9344 523.2806 341.8094Q524.07745 340.825 525.4368 340.825Q526.45245 340.825 527.0931 341.40314Q527.7493 341.96564 527.8743 342.96564ZM523.57745 346.66876Q523.57745 347.21564 523.7962 347.71564Q524.0306 348.2 524.4368 348.46564Q524.8587 348.73126 525.32745 348.73126Q525.9837 348.73126 526.4681 348.2Q526.95245 347.65314 526.95245 346.73126Q526.95245 345.84064 526.4681 345.325Q525.9993 344.8094 525.2806 344.8094Q524.5618 344.8094 524.0618 345.325Q523.57745 345.84064 523.57745 346.66876Z" fill-rule="nonzero"/><path stroke="#f1c232" stroke-width="4.0" stroke-linecap="butt" d="M66.0 25.55L78.0 25.55" fill-rule="nonzero"/><path fill="#1a1a1a" d="M87.125 29.55L87.125 20.95625L88.25 20.95625L88.25 29.55L87.125 29.55ZM89.796875 29.55L89.796875 23.33125L90.734375 23.33125L90.734375 24.20625Q91.421875 23.190624 92.71875 23.190624Q93.28125 23.190624 93.75 23.39375Q94.234375 23.596874 94.46875 23.925Q94.703125 24.253124 94.796875 24.690624Q94.84375 24.9875 94.84375 25.721874L94.84375 29.55L93.796875 29.55L93.796875 25.76875Q93.796875 25.1125 93.671875 24.8Q93.546875 24.4875 93.234375 24.3Q92.921875 24.096874 92.5 24.096874Q91.828125 24.096874 91.328125 24.534374Q90.84375 24.95625 90.84375 26.14375L90.84375 29.55L89.796875 29.55ZM98.515625 29.55L96.15625 23.33125L97.265625 23.33125L98.609375 27.05Q98.8125 27.659374 99.0 28.3Q99.140625 27.815624 99.390625 27.128124L100.78125 23.33125L101.859375 23.33125L99.5 29.55L98.515625 29.55ZM107.046875 27.55L108.140625 27.675Q107.890625 28.628124 107.1875 29.159374Q106.484375 29.690624 105.40625 29.690624Q104.046875 29.690624 103.234375 28.846874Q102.4375 28.003124 102.4375 26.4875Q102.4375 24.925 103.25 24.065624Q104.0625 23.190624 105.34375 23.190624Q106.59375 23.190624 107.375 24.034374Q108.171875 24.878124 108.171875 26.425Q108.171875 26.51875 108.171875 26.70625L103.53125 26.70625Q103.59375 27.7375 104.109375 28.284374Q104.625 28.815624 105.40625 28.815624Q105.984375 28.815624 106.390625 28.51875Q106.8125 28.20625 107.046875 27.55ZM103.59375 25.846874L107.0625 25.846874Q107.0 25.05 106.671875 24.659374Q106.15625 24.05 105.359375 24.05Q104.625 24.05 104.125 24.534374Q103.640625 25.01875 103.59375 25.846874ZM109.375 27.690624L110.40625 27.534374Q110.5 28.159374 110.890625 28.4875Q111.296875 28.815624 112.03125 28.815624Q112.75 28.815624 113.09375 28.534374Q113.453125 28.2375 113.453125 27.83125Q113.453125 27.471874 113.140625 27.26875Q112.921875 27.128124 112.0625 26.909374Q110.90625 26.6125 110.453125 26.409374Q110.015625 26.190624 109.78125 25.815624Q109.546875 25.440624 109.546875 24.971874Q109.546875 24.565624 109.734375 24.20625Q109.921875 23.846874 110.25 23.6125Q110.5 23.440624 110.921875 23.315624Q111.34375 23.190624 111.84375 23.190624Q112.5625 23.190624 113.109375 23.409374Q113.671875 23.6125 113.9375 23.971874Q114.203125 24.33125 114.296875 24.925L113.265625 25.065624Q113.203125 24.596874 112.859375 24.33125Q112.53125 24.05 111.90625 24.05Q111.1875 24.05 110.875 24.3Q110.5625 24.534374 110.5625 24.8625Q110.5625 25.065624 110.6875 25.221874Q110.828125 25.39375 111.09375 25.503124Q111.25 25.565624 112.03125 25.76875Q113.15625 26.08125 113.59375 26.26875Q114.03125 26.45625 114.28125 26.815624Q114.53125 27.175 114.53125 27.721874Q114.53125 28.253124 114.21875 28.721874Q113.921875 29.175 113.34375 29.440624Q112.765625 29.690624 112.03125 29.690624Q110.8125 29.690624 110.171875 29.190624Q109.546875 28.675 109.375 27.690624ZM118.09375 28.6125L118.25 29.534374Q117.796875 29.628124 117.453125 29.628124Q116.875 29.628124 116.5625 29.45625Q116.25 29.26875 116.109375 28.971874Q115.984375 28.675 115.984375 27.721874L115.984375 24.14375L115.21875 24.14375L115.21875 23.33125L115.984375 23.33125L115.984375 21.784374L117.03125 21.159374L117.03125 23.33125L118.09375 23.33125L118.09375 24.14375L117.03125 24.14375L117.03125 27.784374Q117.03125 28.2375 117.078125 28.3625Q117.140625 28.4875 117.265625 28.565624Q117.390625 28.64375 117.625 28.64375Q117.8125 28.64375 118.09375 28.6125ZM118.796875 22.175L118.796875 20.95625L119.859375 20.95625L119.859375 22.175L118.796875 22.175ZM118.796875 29.55L118.796875 23.33125L119.859375 23.33125L119.859375 29.55L118.796875 29.55ZM121.59375 30.065624L122.625 30.221874Q122.6875 30.690624 122.984375 30.909374Q123.375 31.20625 124.046875 31.20625Q124.78125 31.20625 125.171875 30.909374Q125.578125 30.6125 125.71875 30.096874Q125.8125 29.76875 125.796875 28.7375Q125.109375 29.55 124.078125 29.55Q122.796875 29.55 122.09375 28.628124Q121.390625 27.690624 121.390625 26.409374Q121.390625 25.51875 121.703125 24.76875Q122.03125 24.003124 122.640625 23.596874Q123.25 23.190624 124.078125 23.190624Q125.1875 23.190624 125.90625 24.08125L125.90625 23.33125L126.875 23.33125L126.875 28.70625Q126.875 30.159374 126.578125 30.76875Q126.28125 31.378124 125.640625 31.721874Q125.0 32.08125 124.0625 32.08125Q122.953125 32.08125 122.265625 31.58125Q121.578125 31.08125 121.59375 30.065624ZM122.46875 26.33125Q122.46875 27.55 122.953125 28.1125Q123.4375 28.675 124.171875 28.675Q124.90625 28.675 125.390625 28.1125Q125.890625 27.55 125.890625 26.3625Q125.890625 25.221874 125.375 24.64375Q124.875 24.065624 124.15625 24.065624Q123.453125 24.065624 122.953125 24.64375Q122.46875 25.20625 122.46875 26.33125ZM132.85938 28.784374Q132.26562 29.284374 131.71875 29.4875Q131.1875 29.690624 130.5625 29.690624Q129.53125 29.690624 128.98438 29.190624Q128.4375 28.690624 128.4375 27.909374Q128.4375 27.45625 128.64062 27.08125Q128.84375 26.690624 129.1875 26.471874Q129.53125 26.2375 129.95312 26.128124Q130.25 26.034374 130.89062 25.95625Q132.15625 25.815624 132.76562 25.596874Q132.76562 25.378124 132.76562 25.33125Q132.76562 24.675 132.46875 24.409374Q132.0625 24.065624 131.26562 24.065624Q130.53125 24.065624 130.17188 24.33125Q129.8125 24.58125 129.64062 25.2375L128.60938 25.096874Q128.75 24.440624 129.07812 24.034374Q129.40625 23.628124 130.01562 23.409374Q130.625 23.190624 131.42188 23.190624Q132.21875 23.190624 132.71875 23.378124Q133.21875 23.565624 133.45312 23.846874Q133.6875 24.128124 133.78125 24.565624Q133.82812 24.83125 133.82812 25.534374L133.82812 26.940624Q133.82812 28.409374 133.89062 28.8Q133.96875 29.190624 134.17188 29.55L133.0625 29.55Q132.90625 29.221874 132.85938 28.784374ZM132.76562 26.425Q132.1875 26.659374 131.04688 26.83125Q130.39062 26.925 130.125 27.05Q129.85938 27.159374 129.70312 27.378124Q129.5625 27.596874 129.5625 27.878124Q129.5625 28.3 129.875 28.58125Q130.20312 28.8625 130.8125 28.8625Q131.42188 28.8625 131.89062 28.596874Q132.375 28.33125 132.59375 27.8625Q132.76562 27.503124 132.76562 26.815624L132.76562 26.425ZM139.82812 29.55L139.82812 28.76875Q139.23438 29.690624 138.09375 29.690624Q137.34375 29.690624 136.71875 29.284374Q136.09375 28.8625 135.75 28.128124Q135.40625 27.39375 135.40625 26.440624Q135.40625 25.51875 135.71875 24.753124Q136.03125 23.9875 136.65625 23.596874Q137.28125 23.190624 138.04688 23.190624Q138.60938 23.190624 139.04688 23.425Q139.48438 23.659374 139.76562 24.034374L139.76562 20.95625L140.8125 20.95625L140.8125 29.55L139.82812 29.55ZM136.5 26.440624Q136.5 27.64375 137.0 28.2375Q137.5 28.815624 138.1875 28.815624Q138.875 28.815624 139.35938 28.253124Q139.84375 27.690624 139.84375 26.534374Q139.84375 25.253124 139.34375 24.659374Q138.85938 24.065624 138.14062 24.065624Q137.4375 24.065624 136.96875 24.64375Q136.5 25.20625 136.5 26.440624ZM142.40625 26.440624Q142.40625 24.70625 143.35938 23.878124Q144.15625 23.190624 145.3125 23.190624Q146.59375 23.190624 147.40625 24.034374Q148.23438 24.8625 148.23438 26.346874Q148.23438 27.55 147.875 28.2375Q147.51562 28.925 146.8125 29.315624Q146.125 29.690624 145.3125 29.690624Q144.01562 29.690624 143.20312 28.8625Q142.40625 28.01875 142.40625 26.440624ZM143.48438 26.440624Q143.48438 27.628124 144.0 28.221874Q144.53125 28.815624 145.3125 28.815624Q146.10938 28.815624 146.625 28.221874Q147.14062 27.628124 147.14062 26.409374Q147.14062 25.253124 146.60938 24.659374Q146.09375 24.065624 145.3125 24.065624Q144.53125 24.065624 144.0 24.659374Q143.48438 25.2375 143.48438 26.440624ZM149.375 27.690624L150.40625 27.534374Q150.5 28.159374 150.89062 28.4875Q151.29688 28.815624 152.03125 28.815624Q152.75 28.815624 153.09375 28.534374Q153.45312 28.2375 153.45312 27.83125Q153.45312 27.471874 153.14062 27.26875Q152.92188 27.128124 152.0625 26.909374Q150.90625 26.6125 150.45312 26.409374Q150.01562 26.190624 149.78125 25.815624Q149.54688 25.440624 149.54688 24.971874Q149.54688 24.565624 149.73438 24.20625Q149.92188 23.846874 150.25 23.6125Q150.5 23.440624 150.92188 23.315624Q151.34375 23.190624 151.84375 23.190624Q152.5625 23.190624 153.10938 23.409374Q153.67188 23.6125 153.9375 23.971874Q154.20312 24.33125 154.29688 24.925L153.26562 25.065624Q153.20312 24.596874 152.85938 24.33125Q152.53125 24.05 151.90625 24.05Q151.1875 24.05 150.875 24.3Q150.5625 24.534374 150.5625 24.8625Q150.5625 25.065624 150.6875 25.221874Q150.82812 25.39375 151.09375 25.503124Q151.25 25.565624 152.03125 25.76875Q153.15625 26.08125 153.59375 26.26875Q154.03125 26.45625 154.28125 26.815624Q154.53125 27.175 154.53125 27.721874Q154.53125 28.253124 154.21875 28.721874Q153.92188 29.175 153.34375 29.440624Q152.76562 29.690624 152.03125 29.690624Q150.8125 29.690624 150.17188 29.190624Q149.54688 28.675 149.375 27.690624Z" fill-rule="nonzero"/><path stroke="#38761d" stroke-width="4.0" stroke-linecap="butt" d="M171.0 25.55L183.0 25.55" fill-rule="nonzero"/><path fill="#1a1a1a" d="M191.92188 29.55L191.92188 20.95625L193.07812 20.95625L197.59375 27.70625L197.59375 20.95625L198.6875 20.95625L198.6875 29.55L197.51562 29.55L193.0 22.8L193.0 29.55L191.92188 29.55ZM200.40625 26.440624Q200.40625 24.70625 201.35938 23.878124Q202.15625 23.190624 203.3125 23.190624Q204.59375 23.190624 205.40625 24.034374Q206.23438 24.8625 206.23438 26.346874Q206.23438 27.55 205.875 28.2375Q205.51562 28.925 204.8125 29.315624Q204.125 29.690624 203.3125 29.690624Q202.01562 29.690624 201.20312 28.8625Q200.40625 28.01875 200.40625 26.440624ZM201.48438 26.440624Q201.48438 27.628124 202.0 28.221874Q202.53125 28.815624 203.3125 28.815624Q204.10938 28.815624 204.625 28.221874Q205.14062 27.628124 205.14062 26.409374Q205.14062 25.253124 204.60938 24.659374Q204.09375 24.065624 203.3125 24.065624Q202.53125 24.065624 202.0 24.659374Q201.48438 25.2375 201.48438 26.440624ZM210.09375 28.6125L210.25 29.534374Q209.79688 29.628124 209.45312 29.628124Q208.875 29.628124 208.5625 29.45625Q208.25 29.26875 208.10938 28.971874Q207.98438 28.675 207.98438 27.721874L207.98438 24.14375L207.21875 24.14375L207.21875 23.33125L207.98438 23.33125L207.98438 21.784374L209.03125 21.159374L209.03125 23.33125L210.09375 23.33125L210.09375 24.14375L209.03125 24.14375L209.03125 27.784374Q209.03125 28.2375 209.07812 28.3625Q209.14062 28.4875 209.26562 28.565624Q209.39062 28.64375 209.625 28.64375Q209.8125 28.64375 210.09375 28.6125ZM210.79688 22.175L210.79688 20.95625L211.85938 20.95625L211.85938 22.175L210.79688 22.175ZM210.79688 29.55L210.79688 23.33125L211.85938 23.33125L211.85938 29.55L210.79688 29.55ZM214.04688 29.55L214.04688 24.14375L213.10938 24.14375L213.10938 23.33125L214.04688 23.33125L214.04688 22.659374Q214.04688 22.034374 214.15625 21.7375Q214.3125 21.315624 214.6875 21.065624Q215.07812 20.815624 215.76562 20.815624Q216.21875 20.815624 216.75 20.925L216.59375 21.83125Q216.26562 21.784374 215.96875 21.784374Q215.48438 21.784374 215.28125 21.9875Q215.09375 22.190624 215.09375 22.753124L215.09375 23.33125L216.3125 23.33125L216.3125 24.14375L215.09375 24.14375L215.09375 29.55L214.04688 29.55ZM216.79688 22.175L216.79688 20.95625L217.85938 20.95625L217.85938 22.175L216.79688 22.175ZM216.79688 29.55L216.79688 23.33125L217.85938 23.33125L217.85938 29.55L216.79688 29.55ZM223.85938 27.26875L224.89062 27.409374Q224.71875 28.471874 224.01562 29.08125Q223.3125 29.690624 222.29688 29.690624Q221.01562 29.690624 220.23438 28.8625Q219.46875 28.01875 219.46875 26.45625Q219.46875 25.45625 219.79688 24.70625Q220.14062 23.940624 220.8125 23.565624Q221.5 23.190624 222.3125 23.190624Q223.3125 23.190624 223.95312 23.70625Q224.60938 24.20625 224.79688 25.159374L223.76562 25.315624Q223.625 24.690624 223.25 24.378124Q222.875 24.05 222.34375 24.05Q221.54688 24.05 221.04688 24.628124Q220.54688 25.190624 220.54688 26.425Q220.54688 27.690624 221.03125 28.253124Q221.51562 28.815624 222.28125 28.815624Q222.90625 28.815624 223.3125 28.440624Q223.73438 28.065624 223.85938 27.26875ZM229.85938 28.784374Q229.26562 29.284374 228.71875 29.4875Q228.1875 29.690624 227.5625 29.690624Q226.53125 29.690624 225.98438 29.190624Q225.4375 28.690624 225.4375 27.909374Q225.4375 27.45625 225.64062 27.08125Q225.84375 26.690624 226.1875 26.471874Q226.53125 26.2375 226.95312 26.128124Q227.25 26.034374 227.89062 25.95625Q229.15625 25.815624 229.76562 25.596874Q229.76562 25.378124 229.76562 25.33125Q229.76562 24.675 229.46875 24.409374Q229.0625 24.065624 228.26562 24.065624Q227.53125 24.065624 227.17188 24.33125Q226.8125 24.58125 226.64062 25.2375L225.60938 25.096874Q225.75 24.440624 226.07812 24.034374Q226.40625 23.628124 227.01562 23.409374Q227.625 23.190624 228.42188 23.190624Q229.21875 23.190624 229.71875 23.378124Q230.21875 23.565624 230.45312 23.846874Q230.6875 24.128124 230.78125 24.565624Q230.82812 24.83125 230.82812 25.534374L230.82812 26.940624Q230.82812 28.409374 230.89062 28.8Q230.96875 29.190624 231.17188 29.55L230.0625 29.55Q229.90625 29.221874 229.85938 28.784374ZM229.76562 26.425Q229.1875 26.659374 228.04688 26.83125Q227.39062 26.925 227.125 27.05Q226.85938 27.159374 226.70312 27.378124Q226.5625 27.596874 226.5625 27.878124Q226.5625 28.3 226.875 28.58125Q227.20312 28.8625 227.8125 28.8625Q228.42188 28.8625 228.89062 28.596874Q229.375 28.33125 229.59375 27.8625Q229.76562 27.503124 229.76562 26.815624L229.76562 26.425ZM236.82812 29.55L236.82812 28.76875Q236.23438 29.690624 235.09375 29.690624Q234.34375 29.690624 233.71875 29.284374Q233.09375 28.8625 232.75 28.128124Q232.40625 27.39375 232.40625 26.440624Q232.40625 25.51875 232.71875 24.753124Q233.03125 23.9875 233.65625 23.596874Q234.28125 23.190624 235.04688 23.190624Q235.60938 23.190624 236.04688 23.425Q236.48438 23.659374 236.76562 24.034374L236.76562 20.95625L237.8125 20.95625L237.8125 29.55L236.82812 29.55ZM233.5 26.440624Q233.5 27.64375 234.0 28.2375Q234.5 28.815624 235.1875 28.815624Q235.875 28.815624 236.35938 28.253124Q236.84375 27.690624 236.84375 26.534374Q236.84375 25.253124 236.34375 24.659374Q235.85938 24.065624 235.14062 24.065624Q234.4375 24.065624 233.96875 24.64375Q233.5 25.20625 233.5 26.440624ZM239.40625 26.440624Q239.40625 24.70625 240.35938 23.878124Q241.15625 23.190624 242.3125 23.190624Q243.59375 23.190624 244.40625 24.034374Q245.23438 24.8625 245.23438 26.346874Q245.23438 27.55 244.875 28.2375Q244.51562 28.925 243.8125 29.315624Q243.125 29.690624 242.3125 29.690624Q241.01562 29.690624 240.20312 28.8625Q239.40625 28.01875 239.40625 26.440624ZM240.48438 26.440624Q240.48438 27.628124 241.0 28.221874Q241.53125 28.815624 242.3125 28.815624Q243.10938 28.815624 243.625 28.221874Q244.14062 27.628124 244.14062 26.409374Q244.14062 25.253124 243.60938 24.659374Q243.09375 24.065624 242.3125 24.065624Q241.53125 24.065624 241.0 24.659374Q240.48438 25.2375 240.48438 26.440624ZM246.375 27.690624L247.40625 27.534374Q247.5 28.159374 247.89062 28.4875Q248.29688 28.815624 249.03125 28.815624Q249.75 28.815624 250.09375 28.534374Q250.45312 28.2375 250.45312 27.83125Q250.45312 27.471874 250.14062 27.26875Q249.92188 27.128124 249.0625 26.909374Q247.90625 26.6125 247.45312 26.409374Q247.01562 26.190624 246.78125 25.815624Q246.54688 25.440624 246.54688 24.971874Q246.54688 24.565624 246.73438 24.20625Q246.92188 23.846874 247.25 23.6125Q247.5 23.440624 247.92188 23.315624Q248.34375 23.190624 248.84375 23.190624Q249.5625 23.190624 250.10938 23.409374Q250.67188 23.6125 250.9375 23.971874Q251.20312 24.33125 251.29688 24.925L250.26562 25.065624Q250.20312 24.596874 249.85938 24.33125Q249.53125 24.05 248.90625 24.05Q248.1875 24.05 247.875 24.3Q247.5625 24.534374 247.5625 24.8625Q247.5625 25.065624 247.6875 25.221874Q247.82812 25.39375 248.09375 25.503124Q248.25 25.565624 249.03125 25.76875Q250.15625 26.08125 250.59375 26.26875Q251.03125 26.45625 251.28125 26.815624Q251.53125 27.175 251.53125 27.721874Q251.53125 28.253124 251.21875 28.721874Q250.92188 29.175 250.34375 29.440624Q249.76562 29.690624 249.03125 29.690624Q247.8125 29.690624 247.17188 29.190624Q246.54688 28.675 246.375 27.690624Z" fill-rule="nonzero"/><path stroke="#000000" stroke-width="4.0" stroke-linecap="butt" d="M268.0 25.55L280.0 25.55" fill-rule="nonzero"/><path fill="#1a1a1a" d="M289.125 29.55L289.125 20.95625L290.25 20.95625L290.25 29.55L289.125 29.55ZM291.79688 29.55L291.79688 23.33125L292.73438 23.33125L292.73438 24.20625Q293.42188 23.190624 294.71875 23.190624Q295.28125 23.190624 295.75 23.39375Q296.23438 23.596874 296.46875 23.925Q296.70312 24.253124 296.79688 24.690624Q296.84375 24.9875 296.84375 25.721874L296.84375 29.55L295.79688 29.55L295.79688 25.76875Q295.79688 25.1125 295.67188 24.8Q295.54688 24.4875 295.23438 24.3Q294.92188 24.096874 294.5 24.096874Q293.82812 24.096874 293.32812 24.534374Q292.84375 24.95625 292.84375 26.14375L292.84375 29.55L291.79688 29.55ZM301.09375 28.6125L301.25 29.534374Q300.79688 29.628124 300.45312 29.628124Q299.875 29.628124 299.5625 29.45625Q299.25 29.26875 299.10938 28.971874Q298.98438 28.675 298.98438 27.721874L298.98438 24.14375L298.21875 24.14375L298.21875 23.33125L298.98438 23.33125L298.98438 21.784374L300.03125 21.159374L300.03125 23.33125L301.09375 23.33125L301.09375 24.14375L300.03125 24.14375L300.03125 27.784374Q300.03125 28.2375 300.07812 28.3625Q300.14062 28.4875 300.26562 28.565624Q300.39062 28.64375 300.625 28.64375Q300.8125 28.64375 301.09375 28.6125ZM306.04688 27.55L307.14062 27.675Q306.89062 28.628124 306.1875 29.159374Q305.48438 29.690624 304.40625 29.690624Q303.04688 29.690624 302.23438 28.846874Q301.4375 28.003124 301.4375 26.4875Q301.4375 24.925 302.25 24.065624Q303.0625 23.190624 304.34375 23.190624Q305.59375 23.190624 306.375 24.034374Q307.17188 24.878124 307.17188 26.425Q307.17188 26.51875 307.17188 26.70625L302.53125 26.70625Q302.59375 27.7375 303.10938 28.284374Q303.625 28.815624 304.40625 28.815624Q304.98438 28.815624 305.39062 28.51875Q305.8125 28.20625 306.04688 27.55ZM302.59375 25.846874L306.0625 25.846874Q306.0 25.05 305.67188 24.659374Q305.15625 24.05 304.35938 24.05Q303.625 24.05 303.125 24.534374Q302.64062 25.01875 302.59375 25.846874ZM308.78125 29.55L308.78125 23.33125L309.73438 23.33125L309.73438 24.26875Q310.09375 23.6125 310.39062 23.409374Q310.70312 23.190624 311.07812 23.190624Q311.60938 23.190624 312.15625 23.51875L311.79688 24.503124Q311.40625 24.26875 311.03125 24.26875Q310.67188 24.26875 310.39062 24.4875Q310.125 24.690624 310.01562 25.065624Q309.82812 25.628124 309.82812 26.284374L309.82812 29.55L308.78125 29.55ZM312.79688 29.55L312.79688 23.33125L313.73438 23.33125L313.73438 24.20625Q314.42188 23.190624 315.71875 23.190624Q316.28125 23.190624 316.75 23.39375Q317.23438 23.596874 317.46875 23.925Q317.70312 24.253124 317.79688 24.690624Q317.84375 24.9875 317.84375 25.721874L317.84375 29.55L316.79688 29.55L316.79688 25.76875Q316.79688 25.1125 316.67188 24.8Q316.54688 24.4875 316.23438 24.3Q315.92188 24.096874 315.5 24.096874Q314.82812 24.096874 314.32812 24.534374Q313.84375 24.95625 313.84375 26.14375L313.84375 29.55L312.79688 29.55ZM323.85938 28.784374Q323.26562 29.284374 322.71875 29.4875Q322.1875 29.690624 321.5625 29.690624Q320.53125 29.690624 319.98438 29.190624Q319.4375 28.690624 319.4375 27.909374Q319.4375 27.45625 319.64062 27.08125Q319.84375 26.690624 320.1875 26.471874Q320.53125 26.2375 320.95312 26.128124Q321.25 26.034374 321.89062 25.95625Q323.15625 25.815624 323.76562 25.596874Q323.76562 25.378124 323.76562 25.33125Q323.76562 24.675 323.46875 24.409374Q323.0625 24.065624 322.26562 24.065624Q321.53125 24.065624 321.17188 24.33125Q320.8125 24.58125 320.64062 25.2375L319.60938 25.096874Q319.75 24.440624 320.07812 24.034374Q320.40625 23.628124 321.01562 23.409374Q321.625 23.190624 322.42188 23.190624Q323.21875 23.190624 323.71875 23.378124Q324.21875 23.565624 324.45312 23.846874Q324.6875 24.128124 324.78125 24.565624Q324.82812 24.83125 324.82812 25.534374L324.82812 26.940624Q324.82812 28.409374 324.89062 28.8Q324.96875 29.190624 325.17188 29.55L324.0625 29.55Q323.90625 29.221874 323.85938 28.784374ZM323.76562 26.425Q323.1875 26.659374 322.04688 26.83125Q321.39062 26.925 321.125 27.05Q320.85938 27.159374 320.70312 27.378124Q320.5625 27.596874 320.5625 27.878124Q320.5625 28.3 320.875 28.58125Q321.20312 28.8625 321.8125 28.8625Q322.42188 28.8625 322.89062 28.596874Q323.375 28.33125 323.59375 27.8625Q323.76562 27.503124 323.76562 26.815624L323.76562 26.425ZM330.82812 29.55L330.82812 28.76875Q330.23438 29.690624 329.09375 29.690624Q328.34375 29.690624 327.71875 29.284374Q327.09375 28.8625 326.75 28.128124Q326.40625 27.39375 326.40625 26.440624Q326.40625 25.51875 326.71875 24.753124Q327.03125 23.9875 327.65625 23.596874Q328.28125 23.190624 329.04688 23.190624Q329.60938 23.190624 330.04688 23.425Q330.48438 23.659374 330.76562 24.034374L330.76562 20.95625L331.8125 20.95625L331.8125 29.55L330.82812 29.55ZM327.5 26.440624Q327.5 27.64375 328.0 28.2375Q328.5 28.815624 329.1875 28.815624Q329.875 28.815624 330.35938 28.253124Q330.84375 27.690624 330.84375 26.534374Q330.84375 25.253124 330.34375 24.659374Q329.85938 24.065624 329.14062 24.065624Q328.4375 24.065624 327.96875 24.64375Q327.5 25.20625 327.5 26.440624ZM333.40625 26.440624Q333.40625 24.70625 334.35938 23.878124Q335.15625 23.190624 336.3125 23.190624Q337.59375 23.190624 338.40625 24.034374Q339.23438 24.8625 339.23438 26.346874Q339.23438 27.55 338.875 28.2375Q338.51562 28.925 337.8125 29.315624Q337.125 29.690624 336.3125 29.690624Q335.01562 29.690624 334.20312 28.8625Q333.40625 28.01875 333.40625 26.440624ZM334.48438 26.440624Q334.48438 27.628124 335.0 28.221874Q335.53125 28.815624 336.3125 28.815624Q337.10938 28.815624 337.625 28.221874Q338.14062 27.628124 338.14062 26.409374Q338.14062 25.253124 337.60938 24.659374Q337.09375 24.065624 336.3125 24.065624Q335.53125 24.065624 335.0 24.659374Q334.48438 25.2375 334.48438 26.440624ZM340.375 27.690624L341.40625 27.534374Q341.5 28.159374 341.89062 28.4875Q342.29688 28.815624 343.03125 28.815624Q343.75 28.815624 344.09375 28.534374Q344.45312 28.2375 344.45312 27.83125Q344.45312 27.471874 344.14062 27.26875Q343.92188 27.128124 343.0625 26.909374Q341.90625 26.6125 341.45312 26.409374Q341.01562 26.190624 340.78125 25.815624Q340.54688 25.440624 340.54688 24.971874Q340.54688 24.565624 340.73438 24.20625Q340.92188 23.846874 341.25 23.6125Q341.5 23.440624 341.92188 23.315624Q342.34375 23.190624 342.84375 23.190624Q343.5625 23.190624 344.10938 23.409374Q344.67188 23.6125 344.9375 23.971874Q345.20312 24.33125 345.29688 24.925L344.26562 25.065624Q344.20312 24.596874 343.85938 24.33125Q343.53125 24.05 342.90625 24.05Q342.1875 24.05 341.875 24.3Q341.5625 24.534374 341.5625 24.8625Q341.5625 25.065624 341.6875 25.221874Q341.82812 25.39375 342.09375 25.503124Q342.25 25.565624 343.03125 25.76875Q344.15625 26.08125 344.59375 26.26875Q345.03125 26.45625 345.28125 26.815624Q345.53125 27.175 345.53125 27.721874Q345.53125 28.253124 345.21875 28.721874Q344.92188 29.175 344.34375 29.440624Q343.76562 29.690624 343.03125 29.690624Q341.8125 29.690624 341.17188 29.190624Q340.54688 28.675 340.375 27.690624Z" fill-rule="nonzero"/><path stroke="#966628" stroke-width="4.0" stroke-linecap="butt" d="M362.0 25.55L374.0 25.55" fill-rule="nonzero"/><path fill="#1a1a1a" d="M383.125 29.55L383.125 20.95625L384.25 20.95625L384.25 29.55L383.125 29.55ZM385.375 27.690624L386.40625 27.534374Q386.5 28.159374 386.89062 28.4875Q387.29688 28.815624 388.03125 28.815624Q388.75 28.815624 389.09375 28.534374Q389.45312 28.2375 389.45312 27.83125Q389.45312 27.471874 389.14062 27.26875Q388.92188 27.128124 388.0625 26.909374Q386.90625 26.6125 386.45312 26.409374Q386.01562 26.190624 385.78125 25.815624Q385.54688 25.440624 385.54688 24.971874Q385.54688 24.565624 385.73438 24.20625Q385.92188 23.846874 386.25 23.6125Q386.5 23.440624 386.92188 23.315624Q387.34375 23.190624 387.84375 23.190624Q388.5625 23.190624 389.10938 23.409374Q389.67188 23.6125 389.9375 23.971874Q390.20312 24.33125 390.29688 24.925L389.26562 25.065624Q389.20312 24.596874 388.85938 24.33125Q388.53125 24.05 387.90625 24.05Q387.1875 24.05 386.875 24.3Q386.5625 24.534374 386.5625 24.8625Q386.5625 25.065624 386.6875 25.221874Q386.82812 25.39375 387.09375 25.503124Q387.25 25.565624 388.03125 25.76875Q389.15625 26.08125 389.59375 26.26875Q390.03125 26.45625 390.28125 26.815624Q390.53125 27.175 390.53125 27.721874Q390.53125 28.253124 390.21875 28.721874Q389.92188 29.175 389.34375 29.440624Q388.76562 29.690624 388.03125 29.690624Q386.8125 29.690624 386.17188 29.190624Q385.54688 28.675 385.375 27.690624ZM391.40625 26.440624Q391.40625 24.70625 392.35938 23.878124Q393.15625 23.190624 394.3125 23.190624Q395.59375 23.190624 396.40625 24.034374Q397.23438 24.8625 397.23438 26.346874Q397.23438 27.55 396.875 28.2375Q396.51562 28.925 395.8125 29.315624Q395.125 29.690624 394.3125 29.690624Q393.01562 29.690624 392.20312 28.8625Q391.40625 28.01875 391.40625 26.440624ZM392.48438 26.440624Q392.48438 27.628124 393.0 28.221874Q393.53125 28.815624 394.3125 28.815624Q395.10938 28.815624 395.625 28.221874Q396.14062 27.628124 396.14062 26.409374Q396.14062 25.253124 395.60938 24.659374Q395.09375 24.065624 394.3125 24.065624Q393.53125 24.065624 393.0 24.659374Q392.48438 25.2375 392.48438 26.440624ZM398.76562 29.55L398.76562 20.95625L399.82812 20.95625L399.82812 29.55L398.76562 29.55ZM405.85938 28.784374Q405.26562 29.284374 404.71875 29.4875Q404.1875 29.690624 403.5625 29.690624Q402.53125 29.690624 401.98438 29.190624Q401.4375 28.690624 401.4375 27.909374Q401.4375 27.45625 401.64062 27.08125Q401.84375 26.690624 402.1875 26.471874Q402.53125 26.2375 402.95312 26.128124Q403.25 26.034374 403.89062 25.95625Q405.15625 25.815624 405.76562 25.596874Q405.76562 25.378124 405.76562 25.33125Q405.76562 24.675 405.46875 24.409374Q405.0625 24.065624 404.26562 24.065624Q403.53125 24.065624 403.17188 24.33125Q402.8125 24.58125 402.64062 25.2375L401.60938 25.096874Q401.75 24.440624 402.07812 24.034374Q402.40625 23.628124 403.01562 23.409374Q403.625 23.190624 404.42188 23.190624Q405.21875 23.190624 405.71875 23.378124Q406.21875 23.565624 406.45312 23.846874Q406.6875 24.128124 406.78125 24.565624Q406.82812 24.83125 406.82812 25.534374L406.82812 26.940624Q406.82812 28.409374 406.89062 28.8Q406.96875 29.190624 407.17188 29.55L406.0625 29.55Q405.90625 29.221874 405.85938 28.784374ZM405.76562 26.425Q405.1875 26.659374 404.04688 26.83125Q403.39062 26.925 403.125 27.05Q402.85938 27.159374 402.70312 27.378124Q402.5625 27.596874 402.5625 27.878124Q402.5625 28.3 402.875 28.58125Q403.20312 28.8625 403.8125 28.8625Q404.42188 28.8625 404.89062 28.596874Q405.375 28.33125 405.59375 27.8625Q405.76562 27.503124 405.76562 26.815624L405.76562 26.425ZM412.82812 29.55L412.82812 28.76875Q412.23438 29.690624 411.09375 29.690624Q410.34375 29.690624 409.71875 29.284374Q409.09375 28.8625 408.75 28.128124Q408.40625 27.39375 408.40625 26.440624Q408.40625 25.51875 408.71875 24.753124Q409.03125 23.9875 409.65625 23.596874Q410.28125 23.190624 411.04688 23.190624Q411.60938 23.190624 412.04688 23.425Q412.48438 23.659374 412.76562 24.034374L412.76562 20.95625L413.8125 20.95625L413.8125 29.55L412.82812 29.55ZM409.5 26.440624Q409.5 27.64375 410.0 28.2375Q410.5 28.815624 411.1875 28.815624Q411.875 28.815624 412.35938 28.253124Q412.84375 27.690624 412.84375 26.534374Q412.84375 25.253124 412.34375 24.659374Q411.85938 24.065624 411.14062 24.065624Q410.4375 24.065624 409.96875 24.64375Q409.5 25.20625 409.5 26.440624ZM415.40625 26.440624Q415.40625 24.70625 416.35938 23.878124Q417.15625 23.190624 418.3125 23.190624Q419.59375 23.190624 420.40625 24.034374Q421.23438 24.8625 421.23438 26.346874Q421.23438 27.55 420.875 28.2375Q420.51562 28.925 419.8125 29.315624Q419.125 29.690624 418.3125 29.690624Q417.01562 29.690624 416.20312 28.8625Q415.40625 28.01875 415.40625 26.440624ZM416.48438 26.440624Q416.48438 27.628124 417.0 28.221874Q417.53125 28.815624 418.3125 28.815624Q419.10938 28.815624 419.625 28.221874Q420.14062 27.628124 420.14062 26.409374Q420.14062 25.253124 419.60938 24.659374Q419.09375 24.065624 418.3125 24.065624Q417.53125 24.065624 417.0 24.659374Q416.48438 25.2375 416.48438 26.440624ZM422.375 27.690624L423.40625 27.534374Q423.5 28.159374 423.89062 28.4875Q424.29688 28.815624 425.03125 28.815624Q425.75 28.815624 426.09375 28.534374Q426.45312 28.2375 426.45312 27.83125Q426.45312 27.471874 426.14062 27.26875Q425.92188 27.128124 425.0625 26.909374Q423.90625 26.6125 423.45312 26.409374Q423.01562 26.190624 422.78125 25.815624Q422.54688 25.440624 422.54688 24.971874Q422.54688 24.565624 422.73438 24.20625Q422.92188 23.846874 423.25 23.6125Q423.5 23.440624 423.92188 23.315624Q424.34375 23.190624 424.84375 23.190624Q425.5625 23.190624 426.10938 23.409374Q426.67188 23.6125 426.9375 23.971874Q427.20312 24.33125 427.29688 24.925L426.26562 25.065624Q426.20312 24.596874 425.85938 24.33125Q425.53125 24.05 424.90625 24.05Q424.1875 24.05 423.875 24.3Q423.5625 24.534374 423.5625 24.8625Q423.5625 25.065624 423.6875 25.221874Q423.82812 25.39375 424.09375 25.503124Q424.25 25.565624 425.03125 25.76875Q426.15625 26.08125 426.59375 26.26875Q427.03125 26.45625 427.28125 26.815624Q427.53125 27.175 427.53125 27.721874Q427.53125 28.253124 427.21875 28.721874Q426.92188 29.175 426.34375 29.440624Q425.76562 29.690624 425.03125 29.690624Q423.8125 29.690624 423.17188 29.190624Q422.54688 28.675 422.375 27.690624Z" fill-rule="nonzero"/><path stroke="#ff0000" stroke-width="4.0" stroke-linecap="butt" d="M444.0 25.55L456.0 25.55" fill-rule="nonzero"/><path fill="#1a1a1a" d="M471.0625 26.534374L472.1875 26.83125Q471.82812 28.221874 470.90625 28.95625Q469.98438 29.690624 468.64062 29.690624Q467.25 29.690624 466.375 29.128124Q465.5 28.565624 465.04688 27.503124Q464.59375 26.425 464.59375 25.190624Q464.59375 23.846874 465.10938 22.846874Q465.625 21.846874 466.5625 21.33125Q467.51562 20.815624 468.65625 20.815624Q469.9375 20.815624 470.8125 21.471874Q471.70312 22.128124 472.04688 23.315624L470.92188 23.58125Q470.625 22.64375 470.04688 22.221874Q469.48438 21.784374 468.625 21.784374Q467.64062 21.784374 466.96875 22.26875Q466.3125 22.7375 466.03125 23.534374Q465.76562 24.33125 465.76562 25.190624Q465.76562 26.284374 466.07812 27.096874Q466.40625 27.909374 467.07812 28.315624Q467.75 28.721874 468.54688 28.721874Q469.5 28.721874 470.15625 28.175Q470.82812 27.628124 471.0625 26.534374ZM473.40625 26.440624Q473.40625 24.70625 474.35938 23.878124Q475.15625 23.190624 476.3125 23.190624Q477.59375 23.190624 478.40625 24.034374Q479.23438 24.8625 479.23438 26.346874Q479.23438 27.55 478.875 28.2375Q478.51562 28.925 477.8125 29.315624Q477.125 29.690624 476.3125 29.690624Q475.01562 29.690624 474.20312 28.8625Q473.40625 28.01875 473.40625 26.440624ZM474.48438 26.440624Q474.48438 27.628124 475.0 28.221874Q475.53125 28.815624 476.3125 28.815624Q477.10938 28.815624 477.625 28.221874Q478.14062 27.628124 478.14062 26.409374Q478.14062 25.253124 477.60938 24.659374Q477.09375 24.065624 476.3125 24.065624Q475.53125 24.065624 475.0 24.659374Q474.48438 25.2375 474.48438 26.440624ZM480.79688 29.55L480.79688 23.33125L481.73438 23.33125L481.73438 24.20625Q482.42188 23.190624 483.71875 23.190624Q484.28125 23.190624 484.75 23.39375Q485.23438 23.596874 485.46875 23.925Q485.70312 24.253124 485.79688 24.690624Q485.84375 24.9875 485.84375 25.721874L485.84375 29.55L484.79688 29.55L484.79688 25.76875Q484.79688 25.1125 484.67188 24.8Q484.54688 24.4875 484.23438 24.3Q483.92188 24.096874 483.5 24.096874Q482.82812 24.096874 482.32812 24.534374Q481.84375 24.95625 481.84375 26.14375L481.84375 29.55L480.79688 29.55ZM488.04688 29.55L488.04688 24.14375L487.10938 24.14375L487.10938 23.33125L488.04688 23.33125L488.04688 22.659374Q488.04688 22.034374 488.15625 21.7375Q488.3125 21.315624 488.6875 21.065624Q489.07812 20.815624 489.76562 20.815624Q490.21875 20.815624 490.75 20.925L490.59375 21.83125Q490.26562 21.784374 489.96875 21.784374Q489.48438 21.784374 489.28125 21.9875Q489.09375 22.190624 489.09375 22.753124L489.09375 23.33125L490.3125 23.33125L490.3125 24.14375L489.09375 24.14375L489.09375 29.55L488.04688 29.55ZM490.79688 22.175L490.79688 20.95625L491.85938 20.95625L491.85938 22.175L490.79688 22.175ZM490.79688 29.55L490.79688 23.33125L491.85938 23.33125L491.85938 29.55L490.79688 29.55ZM493.78125 29.55L493.78125 23.33125L494.73438 23.33125L494.73438 24.26875Q495.09375 23.6125 495.39062 23.409374Q495.70312 23.190624 496.07812 23.190624Q496.60938 23.190624 497.15625 23.51875L496.79688 24.503124Q496.40625 24.26875 496.03125 24.26875Q495.67188 24.26875 495.39062 24.4875Q495.125 24.690624 495.01562 25.065624Q494.82812 25.628124 494.82812 26.284374L494.82812 29.55L493.78125 29.55ZM497.79688 29.55L497.79688 23.33125L498.73438 23.33125L498.73438 24.20625Q499.03125 23.7375 499.51562 23.471874Q500.0 23.190624 500.625 23.190624Q501.3125 23.190624 501.75 23.471874Q502.20312 23.753124 502.375 24.26875Q503.125 23.190624 504.29688 23.190624Q505.23438 23.190624 505.71875 23.70625Q506.21875 24.20625 506.21875 25.284374L506.21875 29.55L505.17188 29.55L505.17188 25.628124Q505.17188 25.003124 505.0625 24.721874Q504.96875 24.440624 504.70312 24.26875Q504.4375 24.096874 504.0625 24.096874Q503.40625 24.096874 502.96875 24.534374Q502.54688 24.971874 502.54688 25.940624L502.54688 29.55L501.48438 29.55L501.48438 25.503124Q501.48438 24.8 501.21875 24.45625Q500.96875 24.096874 500.39062 24.096874Q499.9375 24.096874 499.5625 24.33125Q499.1875 24.565624 499.01562 25.01875Q498.84375 25.471874 498.84375 26.315624L498.84375 29.55L497.79688 29.55ZM511.85938 28.784374Q511.26562 29.284374 510.71875 29.4875Q510.1875 29.690624 509.5625 29.690624Q508.53125 29.690624 507.98438 29.190624Q507.4375 28.690624 507.4375 27.909374Q507.4375 27.45625 507.64062 27.08125Q507.84375 26.690624 508.1875 26.471874Q508.53125 26.2375 508.95312 26.128124Q509.25 26.034374 509.89062 25.95625Q511.15625 25.815624 511.76562 25.596874Q511.76562 25.378124 511.76562 25.33125Q511.76562 24.675 511.46875 24.409374Q511.0625 24.065624 510.26562 24.065624Q509.53125 24.065624 509.17188 24.33125Q508.8125 24.58125 508.64062 25.2375L507.60938 25.096874Q507.75 24.440624 508.07812 24.034374Q508.40625 23.628124 509.01562 23.409374Q509.625 23.190624 510.42188 23.190624Q511.21875 23.190624 511.71875 23.378124Q512.21875 23.565624 512.4531 23.846874Q512.6875 24.128124 512.78125 24.565624Q512.8281 24.83125 512.8281 25.534374L512.8281 26.940624Q512.8281 28.409374 512.8906 28.8Q512.96875 29.190624 513.1719 29.55L512.0625 29.55Q511.90625 29.221874 511.85938 28.784374ZM511.76562 26.425Q511.1875 26.659374 510.04688 26.83125Q509.39062 26.925 509.125 27.05Q508.85938 27.159374 508.70312 27.378124Q508.5625 27.596874 508.5625 27.878124Q508.5625 28.3 508.875 28.58125Q509.20312 28.8625 509.8125 28.8625Q510.42188 28.8625 510.89062 28.596874Q511.375 28.33125 511.59375 27.8625Q511.76562 27.503124 511.76562 26.815624L511.76562 26.425ZM518.8281 29.55L518.8281 28.76875Q518.2344 29.690624 517.09375 29.690624Q516.34375 29.690624 515.71875 29.284374Q515.09375 28.8625 514.75 28.128124Q514.40625 27.39375 514.40625 26.440624Q514.40625 25.51875 514.71875 24.753124Q515.03125 23.9875 515.65625 23.596874Q516.28125 23.190624 517.0469 23.190624Q517.6094 23.190624 518.0469 23.425Q518.4844 23.659374 518.7656 24.034374L518.7656 20.95625L519.8125 20.95625L519.8125 29.55L518.8281 29.55ZM515.5 26.440624Q515.5 27.64375 516.0 28.2375Q516.5 28.815624 517.1875 28.815624Q517.875 28.815624 518.3594 28.253124Q518.84375 27.690624 518.84375 26.534374Q518.84375 25.253124 518.34375 24.659374Q517.8594 24.065624 517.1406 24.065624Q516.4375 24.065624 515.96875 24.64375Q515.5 25.20625 515.5 26.440624ZM521.40625 26.440624Q521.40625 24.70625 522.3594 23.878124Q523.15625 23.190624 524.3125 23.190624Q525.59375 23.190624 526.40625 24.034374Q527.2344 24.8625 527.2344 26.346874Q527.2344 27.55 526.875 28.2375Q526.5156 28.925 525.8125 29.315624Q525.125 29.690624 524.3125 29.690624Q523.0156 29.690624 522.2031 28.8625Q521.40625 28.01875 521.40625 26.440624ZM522.4844 26.440624Q522.4844 27.628124 523.0 28.221874Q523.53125 28.815624 524.3125 28.815624Q525.1094 28.815624 525.625 28.221874Q526.1406 27.628124 526.1406 26.409374Q526.1406 25.253124 525.6094 24.659374Q525.09375 24.065624 524.3125 24.065624Q523.53125 24.065624 523.0 24.659374Q522.4844 25.2375 522.4844 26.440624ZM528.375 27.690624L529.40625 27.534374Q529.5 28.159374 529.8906 28.4875Q530.2969 28.815624 531.03125 28.815624Q531.75 28.815624 532.09375 28.534374Q532.4531 28.2375 532.4531 27.83125Q532.4531 27.471874 532.1406 27.26875Q531.9219 27.128124 531.0625 26.909374Q529.90625 26.6125 529.4531 26.409374Q529.0156 26.190624 528.78125 25.815624Q528.5469 25.440624 528.5469 24.971874Q528.5469 24.565624 528.7344 24.20625Q528.9219 23.846874 529.25 23.6125Q529.5 23.440624 529.9219 23.315624Q530.34375 23.190624 530.84375 23.190624Q531.5625 23.190624 532.1094 23.409374Q532.6719 23.6125 532.9375 23.971874Q533.2031 24.33125 533.2969 24.925L532.2656 25.065624Q532.2031 24.596874 531.8594 24.33125Q531.53125 24.05 530.90625 24.05Q530.1875 24.05 529.875 24.3Q529.5625 24.534374 529.5625 24.8625Q529.5625 25.065624 529.6875 25.221874Q529.8281 25.39375 530.09375 25.503124Q530.25 25.565624 531.03125 25.76875Q532.15625 26.08125 532.59375 26.26875Q533.03125 26.45625 533.28125 26.815624Q533.53125 27.175 533.53125 27.721874Q533.53125 28.253124 533.21875 28.721874Q532.9219 29.175 532.34375 29.440624Q531.7656 29.690624 531.03125 29.690624Q529.8125 29.690624 529.1719 29.190624Q528.5469 28.675 528.375 27.690624Z" fill-rule="nonzero"/></svg>