<?xml version="1.0" encoding="UTF-8" standalone="no"?>
<svg
   xmlns:dc="http://purl.org/dc/elements/1.1/"
   xmlns:cc="http://creativecommons.org/ns#"
   xmlns:rdf="http://www.w3.org/1999/02/22-rdf-syntax-ns#"
   xmlns:svg="http://www.w3.org/2000/svg"
   xmlns="http://www.w3.org/2000/svg"
   xmlns:sodipodi="http://sodipodi.sourceforge.net/DTD/sodipodi-0.dtd"
   xmlns:inkscape="http://www.inkscape.org/namespaces/inkscape"
   width="419.947mm"
   height="296.926mm"
   viewBox="0 0 4960 3507"
   version="1.2"
   id="svg258"
   sodipodi:docname="mapa-jatai.svg"
   inkscape:version="0.92.3 (2405546, 2018-03-11)">
  <sodipodi:namedview
     pagecolor="#ffffff"
     bordercolor="#666666"
     borderopacity="1"
     objecttolerance="10"
     gridtolerance="10"
     guidetolerance="10"
     inkscape:pageopacity="0"
     inkscape:pageshadow="2"
     inkscape:window-width="1360"
     inkscape:window-height="700"
     id="namedview260"
     showgrid="false"
     inkscape:zoom="0.33694382"
     inkscape:cx="-65.087026"
     inkscape:cy="495.08291"
     inkscape:window-x="0"
     inkscape:window-y="0"
     inkscape:window-maximized="1"
     inkscape:current-layer="Camada 4"
     inkscape:pagecheckerboard="true" />
    <g
       id="mapa_goias"
       font-style="normal"
       font-size="34.375"
       transform="matrix(1.4687618,0,0,1.4687618,-1528.8579,-762.52798)"
       font-weight="400"
       style="font-style:normal;font-weight:400;font-size:34.375px;font-family:'MS Shell Dlg 2';fill:#c8eae6;fill-opacity:1;fill-rule:evenodd;stroke:none;stroke-width:3.07086992;stroke-linecap:square;stroke-linejoin:bevel;stroke-opacity:1"
       inkscape:label="#g364">
      <path
         id="path362"
         d="m 1516.21,2145.48 -0.01,-0.03 0.18,-0.93 1.2,-0.9 -0.47,-0.88 0.43,-0.29 -0.73,-1.05 1.73,-3.83 h 1.02 l -0.59,-0.53 1.93,-4.27 0.67,0.27 -0.65,-1.2 0.76,0.47 0.8,-2.14 -1.1,-0.7 v -3.33 l -1.95,-1.46 1.52,-0.88 -0.52,-3.53 2.05,-0.3 0.95,-3.66 0.66,-0.63 1.34,-0.23 0.7,-1.47 -0.91,-0.82 2.86,-1.05 -0.83,-1.99 h -1.52 l 2.04,-0.82 -0.67,-2.42 1.55,-0.59 0.49,1.99 1.85,-2.78 -1.27,-3.04 -1.62,0.32 -0.15,-0.84 3.41,-0.56 0.24,-2.25 -2.46,0.67 -1.13,-0.78 1.19,-0.12 -0.25,-2.28 1.01,-0.33 -0.16,-2.68 -1.8,-0.56 1.47,-0.76 -0.92,-2.25 -4.04,-2.05 1.39,-1.46 -0.81,-0.7 2.25,-1.82 -1.77,-0.4 v -0.79 l 1.31,0.5 -1.19,-1.4 -1.52,0.49 0.67,-1.66 -0.65,-1.66 3.29,-1.91 -0.08,-2.69 4.06,-2.95 -0.67,-5.09 3.93,-0.76 1.64,-4.3 1.77,-1.11 1.33,-6.05 1.68,-0.53 -0.43,-3.36 1.42,-1.2 2.13,-5.67 -0.37,-5.79 2.46,-0.9 2.38,1.05 0.7,-3.01 1.51,-0.03 0.79,-1.82 1.58,-0.44 -1.31,-2.95 1.64,-0.41 3.73,-5.94 -1.15,-2.16 1.13,-0.7 -1.13,-1.17 3.37,-1.76 0.49,-0.09 1.67,0.82 0.82,-1.12 -0.69,-1.26 1.42,-0.19 0.4,-0.59 2.63,-0.5 -1.48,-1.95 2.14,0.33 -1.48,-2.47 3.43,0.96 -0.49,-2.91 1.07,-0.16 1.85,2.05 -0.58,-2.63 1.74,0.2 0.39,-1.55 1.89,1.37 -0.28,-2.01 2,-0.33 -0.76,-3.62 -1.1,-0.67 -1.54,0.7 0.02,-2.22 1.83,0.2 -0.94,-2.37 -2.83,1.62 0.66,-2.72 1.46,-1.03 -0.97,-2.89 1.96,-0.13 0.43,-2.97 1.92,-0.3 -2.61,-0.78 0.34,-1.33 2.11,0.68 -0.6,-1.78 1.39,-1.82 -0.71,-0.59 1.9,-2.93 -1.3,-1.56 -0.38,-7.9 1.12,-0.69 0.9,1.69 1.33,-4.06 -0.58,-1.69 4,-2.39 -0.77,-0.66 1.05,-2.85 -1.88,0.44 1.73,-3.53 -1.9,-2.83 2.38,-1.21 0.72,0.55 -0.59,-1.75 2.33,-0.34 1.82,-1.53 0.83,-4.42 1.43,-0.11 -1.89,-1.84 1.57,-0.76 -0.39,-3.74 0.89,-2.22 1.67,1.99 1.49,-1.45 1.04,1.88 2.33,-0.72 0.79,1.14 3.96,-1.07 2.11,1.82 0.82,-0.17 0.96,-0.52 -0.16,-2.75 3.4,0.73 0.05,-0.09 -1.05,-3.11 2.42,0.91 -0.28,2.18 1.91,-1.33 -0.9,-3.53 -1.78,-1.08 8.33,-0.3 -0.02,-0.16 -0.61,-0.57 -1,-0.94 1.04,-2.7 -4.98,-4.59 2.81,-0.87 0.98,-2.44 2.08,0.79 -0.12,3.79 0.73,0.01 3.04,-1.59 2.3,-0.62 0.51,-3.66 4.41,-1.78 1.24,-1.89 -1.84,-0.76 3.86,-2.91 4.8,1.65 2.7,-4.28 1.57,1.72 1.76,-2.05 1.97,0.45 0.26,0.11 3.36,0.84 0.34,-0.32 -0.03,-3.17 2.25,-0.73 5.12,-5.38 2.02,1.98 0.54,-0.14 2.21,-2.38 2.12,0.46 -0.84,-5.86 0.65,-1.82 2.21,-3.01 5.78,-0.54 -0.32,-7.78 2.43,-3.17 -4.51,0.05 -0.66,-1.26 5.29,-1.88 2.67,-2.36 1.96,0.47 -2.44,-5.77 0.37,-2.62 2.45,-0.23 2.08,1.49 2.66,3.91 2.84,-2.42 -3.34,-7.93 -3.71,-0.53 -1.12,-1.17 0.09,-1.75 3.12,-1.89 -2.68,-2.65 0.77,-0.54 1.88,-0.56 0.36,-0.11 1.23,0.18 6.28,3.76 0.38,-0.31 -0.77,-6.89 1.23,-1.5 0.4,-0.01 4.07,4.19 4.75,0.24 1.55,-0.96 -1.03,-4.17 4.41,0.42 -3.26,-3.59 0.55,-2.8 1.9,0.18 3.68,3.35 0.16,-4.13 1.21,-0.88 3.62,1.84 0.34,-4.4 2.75,-1.45 -1.01,-4.86 -0.15,-0.14 -1.76,-1.7 -0.75,-3.13 1.61,-0.81 3.83,1.04 2.6,-0.48 1.81,-4.06 0.3,-2.82 -0.08,-0.87 -2.26,-2.59 2.87,-1.72 -2.61,-2.06 -2.65,2.13 -0.22,-2.51 1.69,-2.22 -7.21,-4.21 -2.12,-3.5 1.3,-3.06 -0.75,-1.28 -2.28,-1.31 -8.41,1.17 -3.78,-5.15 0.28,-1.63 2.66,-1.53 0.07,-0.2 0.33,-1.33 -4.82,-4.31 1.05,-3.7 -1.12,-1.83 3.51,-2.45 -1.09,-4.84 1.29,-2.39 -1.69,-1.8 1.72,-3.74 1.5,-0.52 1.06,-2.62 5.34,-4.49 1.59,0.09 1.39,1.6 3.31,-0.58 4.5,1.21 4.11,-4.83 6.61,-0.88 1.13,-0.73 1.86,-5.07 1.45,-0.53 4.53,4.86 2.34,0.19 1.47,-0.65 1.03,-0.75 0.31,-0.89 -7.21,-8.11 -0.18,-0.84 0.84,-1.82 4.64,0.31 2.12,-0.85 -1.47,-11.02 2.14,-2.7 -1.61,-5.04 6.93,-2.86 0.5,-5.04 2.74,-1.71 1.12,-0.42 4.12,2.82 1.83,-0.95 2.11,-2.9 5.47,-1.29 4.21,0.25 6.73,-5.6 12.77,-5.36 7.31,1.59 1.49,-1.03 0.93,-3.45 2.16,-0.69 0.22,-0.07 3.2,0.59 6.14,-3.7 1.1,-1.24 0.98,-5.98 1.18,-1.57 -0.74,-2.43 2.55,-3.15 1.59,-6.57 4.32,-3.66 2.23,-3.43 0.35,-6.18 7.64,-6.17 0.38,-3.09 1.89,-1.58 2.18,-7.73 -0.37,-5.09 5.43,-1.18 8.17,0.23 1.04,-0.22 4.56,-2.07 20.74,3.98 6.37,-3.98 3.68,1.95 1.77,-1.93 3.35,-0.58 7.5,2.11 16.11,-0.62 3.77,-3.99 4.2,-9.36 3.41,-1.98 4.15,0.78 1.82,-0.84 -0.54,-5.22 2.06,-3.26 0.83,-0.24 11.21,0.97 6.36,5.38 1.19,0.21 2.88,-1.79 1.73,-7.56 5.12,-4.92 3.56,-5.46 5.69,-9.48 0.84,-0.99 7.47,-4.45 0.08,-4.54 11.42,-17.6 1.63,-2.85 2.14,-6.59 0.85,-4.83 -7.16,-16.7 -0.48,-5.67 0.36,-0.97 0.69,-0.73 3.96,-1.2 3.15,7.28 3.2,0.81 4.61,-1.99 0.58,-2.57 -3.24,-6.24 0.19,-3.98 3.06,-2.7 6.85,-1.86 1.51,-3 0.03,-0.98 0.1,-3.41 -2.84,-5.55 5,-7.48 0.44,-2.16 -2.07,-2.82 0.1,-2.51 8.45,-12.31 -0.73,-4.6 -4.06,-3.71 -0.66,-11.93 3.06,-5.85 5.05,-2.79 5.21,-4.52 -0.2,-2.33 -3.36,-1.36 -3.23,-3.26 1.74,-6.27 3.12,-6.49 0.27,-8.64 7.47,-4.59 6.99,-0.68 2.87,-2.59 7.79,-13.45 6.85,-2.5 5.4,-11.65 4.42,-3.63 3.17,-1.22 11.15,0.67 5.71,-4.2 2.44,-3.09 3.46,-1.27 4.29,-6.72 0.7,-0.37 8.95,-1.48 6.94,3.02 6.29,-3.34 2.64,-3.96 3.62,-5.41 4.74,-0.52 6.81,4.75 1.25,11.81 2.43,3.58 5.98,1.12 9.43,-0.78 14.14,-9.82 15.6,-7.04 1.36,-1.79 -0.3,-5.77 4.39,-5.52 1,-0.85 14.53,-7.33 0.3,-0.18 0.35,-3.27 -2.75,-4.63 0.14,-6.13 1.36,-3.27 -0.95,-6.91 6.91,-9.94 7.17,-4.59 0.63,-0.93 0.54,-2.75 -3.35,-7.81 -0.35,-4.4 1.5,-3.65 3.07,-2.82 0.94,-2.78 3.1,-3.58 0.22,-2.95 -1.63,-5.65 1.62,-4.62 2.42,-1.36 8.77,-15.35 -1.74,-11.06 11.04,-16.86 -3.23,-8.51 1.51,-5.89 -2.44,-4.92 -3.62,-3.19 0.15,-6.3 -4.02,-5.89 1.34,-4.52 2.03,-2.96 0.32,-2.22 -0.72,-8.5 2.99,-2.73 3.63,-6.53 -2.16,-10.3 0.23,-3.56 4.5,-13.36 7.81,-12.54 3.49,-8.58 4.13,-4.49 0.97,-6.52 -2.67,-7.64 0.37,-3.53 1.18,-1.04 2.91,0.51 3.6,4.26 0.68,0.29 7.22,-0.54 8.68,-6.52 2.71,-5 0.6,-5.3 -6.46,-14.24 0.85,-9.13 -5.26,-6.61 0.91,-7.5 5.48,-4.908 1.42,-4.632 -1.41,-7.646 1.44,-4.428 0.06,-2.403 -0.13,-6.236 -0.53,-1.894 -4.4,-8.204 1.04,-6.443 -0.97,-5.117 0.87,-9.609 -5.57,-8.681 -0.21,-1.838 2.48,-3.655 1.18,-0.912 4.12,-1.566 2.86,-0.586 5.07,0.324 6.12,-7.164 5.16,-13.699 2.12,-9.425 4.14,-7.104 1.62,-21.574 5.91,-7.217 9.62,-5.117 5.87,-5.071 4.35,-10.25 5.79,-0.582 0.55,-5.768 -1.74,-8.093 1.12,-7.428 6.21,-4.815 2.39,-5.009 4.74,-3.517 3.88,-5.435 1.6,-2.234 0.57,-10.805 0.88,-2.309 4.65,-6.731 1.04,-9.473 -0.49,-2.353 -4.99,-4.615 -0.35,-1.263 0.43,-4.314 2.06,-3.305 -1.2,-7.771 2.84,-11.811 -1.32,-4.673 -2.31,-1.762 -2.96,-8.565 1.41,-1.907 9.48,-1.951 2.5,-3.848 -0.92,-2.122 -5,-2.616 -1.76,-6.936 4.57,-1.606 4.32,1.945 2.76,-0.467 4.69,-6.201 5.25,-2.18 0.32,-12.534 2.6,-5.442 0.81,-6.472 3.9,-5.191 -0.07,-3.629 -2.77,-3.976 4.95,-5.93 1.48,-4.326 -1,-3.045 0.98,-1.711 2.03,-0.675 -2.91,-8.467 2.96,-3.117 2.87,-1.25 -0.55,-3.8 2.88,-1.571 -1.1,-1.006 -3.62,0.104 -0.91,-1.295 1.17,-2.992 4.53,-1.026 0.6,-1.849 -0.54,-2.909 -3.43,-1.616 0.23,-2.039 4.4,-2.077 0.84,-2.967 6.6,1.116 1.9,-1.105 0.9,-1.389 -1.37,-3.838 1.43,-2.846 -1.48,-2.553 2.59,-2.385 0.03,-0.472 -0.54,-0.329 -1.13,0.106 -1.34,1.905 -0.18,-0.002 -0.68,-1.406 4.35,-3.479 2.85,2.951 1.66,-0.48 0.53,-1.276 -2.24,-6.943 3.7,-3.194 4.75,-0.882 0.32,-1.689 -2.27,-1.386 3.59,-3.907 1.62,-4.18 3.7,-0.544 1.37,-1.326 -1.05,-3.689 1.03,-1.712 2.59,-0.292 -2.38,-2.476 2,-1.413 4.3,0.461 -0.4,-2.631 0.89,-0.543 4.08,0.923 0.5,-1.511 -1.26,-3.546 1.38,-1.731 5.18,2.097 0.3,-1.205 -1.81,-2.754 -1.79,-0.379 1.37,-1.314 2.56,-1.996 7.22,-3.122 2.02,-2.683 5.06,-0.083 1,-0.287 0.72,-0.533 3.07,-4.803 7.3,-2.02 2.45,-3.098 4.81,0.868 -0.18,-2.042 -2.43,-0.346 1.09,-1.374 4.4,-1.611 4.26,-0.192 0.42,-0.39 -0.2,-1.498 -4.25,-2.104 0.44,-1.858 2.43,0.111 0.13,2.249 1.77,1.013 2.59,-0.029 1.24,-1.2 -0.05,-3.843 9.24,-3.905 -5,5.292 -0.4,5.621 -0.62,1.064 -1.31,1.295 -0.09,0.017 -4.49,0.854 -0.38,1.244 -1.09,3.722 -3.97,1.025 -2.79,2.371 0.08,3.175 -3.37,2.803 -0.18,0.364 -1.24,10.313 -3.16,4.751 2.18,3.611 2.95,1.551 0.56,4.207 1.82,-0.38 0.1,-2.021 0.83,-0.138 1.8,0.601 1.52,2.851 -3.5,-0.037 -1.38,2.844 -5.65,4.036 -0.81,0.21 -0.72,-0.179 -1.39,-2.528 -1.04,0.572 -2.42,5.722 2.81,8.582 -3.73,2.265 -2.12,-1.95 -0.63,3.201 -1.71,0.888 0.92,2.607 -3.3,2.909 1.81,2.91 -2.04,4.414 1.2,1.559 -1.97,0.241 -1.76,-1.654 -0.9,3.519 -0.93,-1.347 -0.62,-0.887 -1.45,0.305 -0.71,1.772 -0.97,-1.293 0.13,-2.193 -1.53,1.034 1.87,4.751 -0.42,3.032 -1.18,0.466 0.09,0.191 4.74,3.563 -1.45,5.492 -3.1,1.484 0.55,0.88 -1.8,1.002 2.18,2.505 -3.22,4.385 0.68,4.553 -0.25,1.283 -0.11,0.345 -1.68,1.553 -0.5,2.383 1.51,2.062 -0.37,4.238 0.65,1.249 1.25,-0.536 0.9,2.002 0.97,0.698 1.09,3.602 0.55,-0.562 0.56,-0.563 1.46,2.26 0.43,-0.898 2.73,1.131 1.02,-1.001 3.02,1.2 -0.4,0.96 4,0.654 0.08,1.261 2.74,-0.324 2,1.597 1.47,-1.15 -0.07,1.4 1.94,0.961 0.2,4.14 3.79,1.267 0.7,-0.636 2.07,2.941 1.52,-0.364 1.36,2.054 3.98,1.97 0.11,-1.223 2.12,-0.326 1.13,1.675 3.97,-1.127 3.48,2.984 7.36,0.721 5.55,2.006 1.86,-1.082 8.06,-0.677 2.19,3.454 7,1.892 1.9,3.522 1.78,0.571 6.75,-1.945 4.81,1.457 4.26,3.933 3.61,-1.968 8.3,6.419 4.29,-0.924 6.85,2.29 1.54,0.628 1.35,2.598 96.73,54.422 0.07,0.037 46.01,25.514 30.88,16.754 8.83,-6.266 0.64,-3.868 0.04,-2.152 -2.89,-7.244 1.52,-4.107 -0.1,-0.399 -1.01,-4.058 0.9,-3.215 -3.21,-7.577 0.68,-3.15 3.47,-5.402 -0.93,-3.148 -2.94,-2.151 -0.14,-2.497 5.45,-11.809 4.91,-4.574 6.87,-9.073 5.47,-10.375 1.62,-0.851 1.01,-2.674 -1.3,-1.248 0.11,-1.234 0.12,-1.233 3.72,-7.895 1.4,-1.429 1.71,0.517 0.18,-2.161 1.55,-1.209 1.92,-4.643 -0.98,-4.545 4.55,-2.935 -0.61,-2.863 -0.05,-0.257 1.92,-0.09 0.93,-1.853 1.92,-0.424 3.73,0.561 0.7,-1.562 3.97,-2.013 1.09,-3.26 2.59,-2.593 6.73,-4.022 4.12,-4.901 1.75,-0.427 2.89,-6.152 5.75,-3.393 4.14,14.725 3.06,-0.036 4.38,3.05 5.02,0.6 -1.55,1.744 0.55,2.205 -1.05,3.204 -3.68,3.084 1.41,1.546 -2.06,1.328 -0.12,1.111 1.65,0.312 -0.85,0.633 2.3,2.976 7.82,1.562 1.2,1.423 1.41,-0.813 3.9,-2.251 2.91,1.012 1.19,1.754 3.52,1.496 1.61,5.1 7.94,5.05 1.47,2.883 30.87,-44.546 0.51,-0.73 0.66,-0.397 2.42,0.19 -1.76,-2.736 1.33,-0.958 2.27,0.186 0.09,1.517 1.63,-1.376 3.46,1.411 -0.26,2.714 1.74,3.935 -1.02,3.296 0.95,1.192 3.54,0.011 0.03,-0.813 1.73,1.157 1.6,-0.388 0.94,2.974 1.76,1.786 -0.65,1.62 2.98,0.893 -0.24,0.978 2,1.112 -0.08,1.08 1.67,-0.095 1.14,2.502 1.48,0.283 0.24,-1.457 6.87,6.457 1.32,1.875 1.94,0.514 1.82,3.085 3.96,1.086 0.62,3.695 -1.47,4.389 2.74,4.95 -1.2,4.495 1.19,4.603 1.78,0.485 2.38,3.548 1.74,-0.826 1.58,1.558 1.85,-2.083 2.19,-0.614 1.15,2.149 1.52,-0.135 1.04,-2.762 2.85,0.445 2.06,2.685 1.22,-0.676 2.34,1.265 0.18,2.359 2.8,-0.625 2.38,1.344 0.68,1.084 0.38,5.243 3.03,5.628 2.54,0.081 2.28,2.376 3,-0.177 0.43,0.349 0.17,0.821 -0.38,4.961 2.02,0.103 -0.58,1.639 3.01,5.108 -2.48,2.35 3.54,-0.256 2.75,6.308 -0.51,0.295 -1,0.589 -0.14,4.243 -2.26,1.139 -0.43,1.718 -1.99,0.691 1.36,1.942 1.95,0.133 -0.25,2.567 3,2.284 -1.86,2.169 1.86,2.118 -0.82,1.26 0.01,0.234 0.23,4.923 -1.27,1.005 0.12,3.74 -3.37,4.296 -2.19,1.008 0.85,2.591 3.32,2.597 -1.3,0.534 0.67,2.417 -2.78,6.54 -0.75,3.516 4.55,7.227 2.63,-0.807 3.4,-1.043 4.53,-3.182 -0.08,-6.91 -1.89,-2.114 1.54,-5.026 -0.08,-6.601 1.71,-2.332 -1.23,-1.684 -0.29,-6.557 3.31,-3.154 4.48,-0.839 0.08,-2.479 2.87,-5.82 -0.25,-8.333 4.24,-3.88 0.01,0.03 0.73,1.475 3.71,0.989 2.25,1.996 2.38,-0.276 0.32,-2.803 1.41,0.99 0.87,2.087 1.26,6.306 -1.22,1.306 0.14,2.158 -1.8,1.798 0.79,4.175 -0.84,1.69 1.58,1.753 0.32,2.952 -1.13,1.497 0.91,2.237 -0.89,4.047 1.55,0.128 0.79,2.628 3.51,1.416 -1.17,0.286 -0.22,2.887 1.6,0.356 -1.08,0.695 -0.68,0.436 0.5,5.291 0.04,0.37 4.31,0.956 1.65,2.78 2.09,-1.129 -0.52,-1.49 1.94,-1.302 -0.56,-1.55 0.87,-1.22 4.23,1.01 3.05,-2.349 1.71,0.971 3.46,-0.801 0.88,-2.211 0.89,1.607 2.01,-3.283 1.72,0.006 0.99,-2.065 2.57,-0.804 0.6,-1.214 3.31,-0.433 1.39,2.106 1.54,0.415 1.56,-0.84 -2.25,-1.758 1.04,-1.54 -0.46,-2.715 3.86,1.168 1.07,0.035 2.99,-0.701 0.24,1.283 1.81,0.365 1.05,0.095 0.21,-0.441 -0.05,-0.506 -1.07,-0.028 1.26,-1.249 -0.71,-0.497 5.27,-2.371 -0.16,-1.343 1.39,0.065 0.25,-3.329 0.96,0.212 1.44,-2.006 1.3,-0.051 -1.13,2.299 3.66,-1.236 1.04,0.701 0.87,-2.495 3.81,-0.079 0.11,-0.138 2.47,-2.944 -0.83,-0.937 2.11,-1.305 2.26,-3.952 2.16,1.787 2.66,-1.653 0.9,0.942 0.83,0.842 5.08,-0.439 0.36,-0.951 -0.73,-2.001 3.39,-2.173 -1.37,-0.763 2.2,0.417 3.17,-2.467 2.89,2.979 0.79,-1.041 1.46,0.911 3.64,-1.591 0.49,0.764 -3.13,3.438 -0.22,3.167 -2.69,2.955 -0.13,1.384 0.02,2.799 0.01,0.97 0.19,0.658 0.56,1.931 0.12,0.159 2.63,3.551 -3.35,3.169 -1.31,2.66 -0.27,1.879 1.84,0.651 2.07,1.493 0.89,9.307 -5.17,6.486 1.41,2.073 1.3,-0.804 1.23,2.33 0.4,-2.418 1.54,1.133 2.88,-0.588 6.66,-2.343 1.14,-2.154 1.67,0.416 2.06,-1.365 2.97,1.324 1.37,-1.804 3.3,0.798 1.59,-2.182 -0.89,-0.848 0.87,-0.521 0.25,-3.645 1.63,0.385 -2.2,-7.938 0.9,-1.396 1.45,0.581 3.02,-1.616 1.15,1.695 1.25,-0.55 0.39,1.839 -0.91,1.19 1.48,1.413 -0.15,0.986 6.23,-0.594 1.33,3.356 -1.7,0.463 0.49,2.626 1.17,-0.812 2.11,2.69 7.49,-1.579 4.23,1.093 2.34,5.283 2.19,1.964 0.34,3.436 1.51,1.204 3.16,-2.107 1.41,0.467 1.3,-1.554 1.37,0.556 2.56,-5.259 1.92,1.233 1.62,-0.909 2.1,1.835 -0.54,0.432 1.29,-0.138 1.3,-0.138 2.66,1.441 0.49,3.034 1.08,0.209 1.82,-1.682 1.38,3.475 1.71,0.795 4.26,-0.212 1.2,-1.536 1.7,-0.224 5.43,1.369 6.59,-2.179 7.14,5.192 0.32,1.836 39.21,43.131 1.01,-5.948 2.61,-4.176 2.93,-2.15 0.42,-0.445 0.88,-4.236 3.45,-3.581 1.59,-4.136 1.64,-0.055 2.14,-2.089 1.43,-5.385 -4.67,-0.922 -4.14,-4.361 0.12,-2.769 -2.11,-6.533 0.67,-2.155 -2.57,-3.799 1.67,-1.274 -0.7,-1.315 0.76,-6.084 2.35,-0.892 2.91,-3.515 -2.45,-4.06 0.46,-2.765 -3.47,-2.345 1.23,-1.83 -0.32,-2.799 -3.75,-0.541 0.4,-1.485 -1.24,-1.492 2.22,-0.885 -1.11,-0.916 1.41,-1.799 -1.55,-0.474 2.56,-1.386 0.83,-4.687 -4.71,-3.082 2.71,-2.668 2.27,-0.544 0.84,-2.648 2.38,-0.075 0.21,-1.311 -1.68,-2.048 1.12,-0.227 -1.65,-1.727 1.67,-1.537 -0.37,-2.566 3.45,-2.026 0.38,-3.159 2.3,1.92 3.1,-1.852 8.07,3.849 6.13,0.519 1.51,0.128 2.52,1.93 -2.3,7.997 1.75,11.172 6.97,2.619 2.68,-2.754 2.95,-0.604 4.52,2.553 2.98,-0.228 3.12,-1.884 3.87,0.591 -2.87,7.396 0.22,3.903 6.83,2.298 6.26,-1.386 3.44,1.294 1.44,3.519 -5.19,0.826 -0.51,0.33 -1.63,2.076 -0.16,0.576 6.35,5.909 -0.94,3.478 2.41,3.104 1.06,0.246 0.75,-0.593 2.73,-5.558 6,-2.972 1.64,0.398 -0.43,-5.266 1.32,-1.588 1.9,0.138 1.94,-3.493 1.31,-0.405 0.75,-0.024 1.06,2.207 5.02,4.087 4.76,-0.809 4.72,3.857 3.6,-2.203 5.55,-0.814 0.32,2.446 2.54,-0.071 -1.37,1.905 2.5,0.863 2.19,-4.503 2.54,-1.15 -0.13,-2.887 4.85,-1.045 1.48,-1.611 -0.78,-5.834 6.24,-2.622 0.67,-2.891 1.81,-0.474 1.92,1.01 1.76,-1.145 0.08,-0.053 4.82,0.262 4.51,-1.777 2.45,2.264 -2.86,2.98 0.09,0.126 3.66,0.536 1.53,1.537 1.8,-1.761 2.92,1.355 5.75,-2.409 0.18,-4.16 -1.85,-0.636 2.51,-2.923 4.61,-0.201 2.99,-2.201 0.08,2.915 1.08,0.516 0.9,-2.277 1.69,-0.913 1.18,0.358 1.18,0.358 0.85,2.707 2.31,-1.387 -1.5,-2.438 1.48,-1.32 -0.2,-1.44 2.72,-0.472 1.06,-1.608 2.36,1.89 3.37,-1.758 1.21,0.556 1.83,-2.898 1.91,0.716 0.12,-0.931 4.09,-1.921 1.11,1.218 3.11,-1.596 1.5,-2.808 -0.11,-2.246 1.61,-1.13 2.69,0.826 1.17,-0.589 v 1.864 l 3.07,1.107 0.1,-3.213 4.78,-3.04 3.14,-0.325 2.45,-3.811 5.55,-2.064 0.07,-3.153 5.83,-4.514 2.71,-0.566 3.04,-4.532 4.46,-1.413 -0.39,3.382 1.15,0.84 1.64,-0.375 0.14,0.875 0.75,1.614 4.46,-0.5 0.13,-0.015 -0.13,-3.625 2.02,-1.533 0.4,0.96 0.82,-1.346 -0.84,-1.358 2.36,-3.523 1.91,-0.242 1.94,-5.188 3,-1.171 -1.37,-1.896 1.11,-1.821 22.24,-10.722 37.57,0.266 50.38,0.331 7.3,0.046 2.19,-8.834 0.59,-2.402 2.78,-0.243 1.51,-1.751 4.85,-34.301 1.98,1.441 0.12,4.047 1.16,-0.447 0.03,0.894 0.02,1.406 0.8,0.416 2.19,1.146 4.62,-0.696 2.33,1.414 0.06,-1.002 0.65,3.068 2.59,1.631 -0.95,4.086 1.58,1.448 -0.95,1.858 1.67,0.858 -1.92,3.894 2.34,2.012 -1.55,1.409 0.3,5.885 -0.7,2.626 -0.88,0.82 -0.88,0.82 0.23,4.115 -0.2,0.481 -1.32,1.203 2.57,3.134 -1.64,3.947 3.05,2.075 9.11,-2.396 0.48,-0.931 7.23,-0.03 6.86,-2.677 0.85,0.419 2.35,-1.681 1.03,0.907 11.18,-3.437 1.45,0.634 4.58,-1.838 9.38,-0.089 2.15,-2.237 2.56,-0.763 0.94,-2.486 5.04,-1.808 3.95,0.969 9.38,-3.599 1.8,-2.533 0.14,0.339 0.17,3.523 -4.02,10.142 -4.2,1.275 -5.05,3.583 -3.75,-0.196 -2.54,2.446 -5.56,2.006 -1.8,2.24 -4.1,1.003 -0.92,1.063 -2.53,0.304 -3.81,-2.774 -2.58,1.402 -1.68,-0.787 -2.5,2.783 -6.46,2.863 -0.71,4.301 -1.86,1.856 0.76,1.087 -0.55,1.922 -3.41,3.18 -1.54,3.417 -1.77,3.919 -6.79,7.138 2.81,3.296 1.68,4.699 3.22,0.907 1.2,1.725 0.94,5.33 -0.5,1.124 -5.21,2.132 1.89,2.963 -3.39,3.508 1.41,1.264 2.27,0.075 0.72,3.656 -1.19,3.84 -2.49,1.915 -0.63,4.463 -2.24,4.504 -3.21,3.28 0.31,1.054 10.16,0.279 -0.93,4.196 0.81,4.856 -5.46,6.878 5.83,3.341 2.92,0.341 0.35,3.887 2.66,6.826 2.52,-0.795 1.93,0.815 9,-3.777 6.24,-6.113 4.24,0.988 10.54,-2.584 13.85,-6.941 2.04,-2.673 3.31,0.605 5.39,-3.177 10.33,-4.219 3.89,1.401 0.78,1.807 2.29,0.45 0.24,2.019 -0.14,0.59 -2.13,9.148 -11.24,6.818 -3.76,0.677 -5.58,8.43 -4.51,1.867 -2.44,3.459 -6.67,2.612 -5.04,0.198 -6.88,2.144 -7.27,3.25 -1.3,3.173 -7.88,6.228 -0.12,0.32 0.17,2.007 5.46,-0.865 1.05,4.475 5.18,5.556 -1.12,2.297 -5.11,1.338 -1.44,1.45 1.04,1.436 2.14,0.595 -0.51,3.183 1.08,0.926 -2.64,4.204 -4.68,3.85 2.15,4.958 -1.3,4.392 1.03,2.679 2.25,1.948 2.55,-0.221 1.97,1.281 9.7,-1.507 6.29,5.438 0.91,2.08 -8.28,8.656 -8.72,4.56 -2.52,3.121 -0.55,0.783 -5.86,4.672 -3.63,7.61 -2.24,1.595 1.54,2.142 5.66,2.167 0.65,2.447 0.13,0.475 -0.41,1.377 -0.48,0.899 -8.43,5.546 -0.64,2.033 3.75,2.704 5.82,-1.254 4.37,7.931 -1.64,1.618 -14.5,4.089 -2.8,2.989 6.39,3.89 -2.8,4.065 0.55,2.453 6.41,0.619 4.61,4.286 0.27,1.583 -0.35,1.444 -8.55,15.816 -0.03,8.23 -1.9,5.013 10.41,7.145 4.68,2.22 1.46,2.07 0.08,0.21 0.05,0.11 -0.82,7.14 2.85,3.34 -0.88,3.04 -5.53,7.64 -5.95,3.38 1.79,1.09 3.25,-1.09 2.43,4.21 -5.4,7.44 -1.86,0.37 -1.84,-2.19 -3.96,3.51 3.1,1.96 6.36,1.02 6.29,4.11 4.72,-0.12 1.39,2.22 0.19,5.37 3.74,2.78 11.06,2.76 5.65,-2.31 5.02,2.29 1.31,4.21 -0.64,4.43 0.18,0.27 4.45,1.53 1.75,4.08 1.56,0.07 4.61,-3.28 4.37,-0.63 3.49,3.62 -0.01,0.02 -2.69,8.9 4.74,3.87 5.48,0.52 1.09,3.48 0.93,0.81 0.67,0.32 0.83,0.05 3.51,-1.49 3.66,0.39 1.37,1.8 -1.12,5.18 6.2,-0.44 4.11,2.7 2.95,12.65 2.45,1.64 1.13,3.98 0.93,0.8 3.22,1.75 5.31,-1.1 2.02,1.99 0.11,1.51 -1.89,2.72 0.22,2.72 -3.34,1.67 -1.15,1.94 -0.5,7.77 -2.48,1.61 -4.69,0.49 -3.36,3.23 -2.32,0.97 -2.4,0.61 -7.66,-0.78 -3.1,-7.06 -0.47,0.05 -1.74,2.59 -0.47,1.18 1.53,0.63 0.63,2.02 2.98,2.25 -0.23,4.58 -3.45,1.89 -1.33,4.77 1.01,2.02 5.16,3.78 1.14,2.55 -0.16,1.69 -2.31,1.18 0.8,1.74 -1.74,1.96 1.48,1.91 6.03,2.78 1.24,2.72 -0.85,2.35 -4.3,-1.2 -0.71,0.11 1.98,2.43 -1.53,1.11 1.39,0.89 -0.5,2.31 -1.5,0.79 2.59,0.45 0.78,1.93 -1.3,5.02 -3.76,4.01 5.21,6.19 -0.2,1.83 -3.14,4.09 2,2.1 -0.24,4.33 -3.39,1.75 -2.24,-0.39 -0.34,-1.91 -1.37,1.41 -2.74,0.74 -1.16,0.31 0.69,1.88 -1.08,2.27 -0.87,1.27 1.88,3.29 5.23,3.04 0.15,1.78 1.12,1.11 0.07,0.84 -1.19,5.16 -0.3,0.63 -1.67,0.74 1.47,2.63 -0.1,6.61 -1.52,2.48 1.08,1.42 0.39,6.07 -3.15,3.27 -0.86,2.29 -0.9,2.43 -4.79,1.37 -4.71,2.92 0.52,1.84 1.9,0.48 4,6.12 -1.46,5.31 -1.62,1.07 -3.31,2.62 -3.09,7.22 -1.6,0.58 -3.93,-1.54 -1.6,8.13 -1.17,1.98 -5.87,0.41 -1.3,-0.21 -3.08,-5.28 -3.98,0.24 -2.06,2.29 -2.26,-0.63 -4.41,-4.09 -0.63,-2.46 -1.61,0.73 1.49,6.91 -4.73,6.16 -9.44,-3.83 -1.76,-0.06 -1.43,2.11 -2.81,-0.58 -2.97,-6.5 -4.41,0.27 -3.48,2.1 -9.22,-0.24 -1.71,-2.05 -0.81,-4.23 -3.68,0.94 -3.01,-3.53 -1.24,-0.05 0.45,-4.68 0.51,-1.21 2.4,-1.47 2.71,-6.27 -4.51,-1.16 -1.4,-2.24 -1.96,0.09 1.5,-3.7 -0.63,-6.99 -3.89,-0.54 -0.68,-3.1 -6.2,-2.89 -3.25,0.36 -0.7,-1.86 -2.91,-0.99 -8.86,-8.44 -7.94,-2.41 -0.43,-0.38 -5.42,-6.43 -4.7,-0.15 -2.21,-7.21 -1.95,-1.17 -4.87,1.55 -3.91,-1.73 -0.57,0.87 -1.86,2.81 0.71,5.18 -0.89,1.97 -3.9,2.2 -4.74,0.76 -2.28,1.79 0.31,5.04 -7.29,5.69 0.8,4.06 1.85,2.6 -0.46,2.39 -0.2,1.06 0.29,1.06 6.14,1.78 2.13,1.01 3.72,6.9 -2.85,10.47 -3.84,3.96 -1.35,9.47 2.11,4.67 -0.28,3.75 2.71,2.05 -0.42,0.98 4.1,2.05 1.19,1.76 0.17,2.95 -3.39,1.98 -1.13,5.51 3.27,2.72 0.19,2.07 2.64,3.12 2.98,7.21 -3.81,2.82 -3.09,-1.5 h -0.67 l -1.89,0.01 -4.05,2.86 -2.17,-0.45 -3.11,2.07 -5.03,4.2 -3.67,-0.72 -3.96,2.15 -3.31,-1.22 -4.78,1.77 -5.58,-0.85 -4.38,-1.73 -7.61,-6.89 -6.49,-2.14 -8.54,-4.55 -8.53,-2.11 -9.21,-4.32 -13.19,-2.77 -10.96,-0.15 -2.34,3.26 -17.57,9.49 -1.26,1.52 -0.66,1.2 -0.14,0.25 -0.28,4.65 5.15,4.63 3.54,1.81 0.87,3.31 2.31,2.51 -0.68,2.39 -1.61,3.58 -5.34,8.23 -2.49,7.23 -5.39,8.62 1.24,5.95 -2.4,1.98 4.28,8.19 4.77,-2.65 1.86,-2.94 3.16,-0.62 1.62,-0.15 0.24,0.28 0.68,14.82 4.97,1 0.03,0.04 11.87,11.95 0.16,0.6 -3.71,7.17 -4.19,1.36 -2.74,3.38 6.04,2.27 0.4,1.49 -5.43,4.13 -6.07,2.37 -3.81,2.87 -5.13,3.57 -5.63,9.57 -0.63,12.9 -3.79,11.27 -1.57,11.72 1.77,3.59 7.74,7.42 7.23,1.41 4.21,4.9 0.61,0.36 1.08,0.63 0.39,0.15 7.32,2.7 0.03,0.82 -1.26,5.06 1.82,3.51 0.04,1.86 -0.89,8.65 4.23,10.46 4.82,4.82 v 6.29 l 4.61,12.23 -3.34,7.38 0.81,2.18 -0.71,2.49 5.7,11.19 -0.61,4.3 -0.18,1.25 -1.06,2.65 -0.29,0.22 -0.22,0.16 -3.87,-0.11 -42.54,9.75 -30.82,7.05 -8.93,6.5 -2.08,0.88 -2.51,-0.87 -2.09,0.15 -2.26,-0.57 -5.71,-4.11 -2.74,1.97 0.98,-5.13 -1.23,-1.77 -0.17,-0.24 -1.96,-0.44 0.88,1.44 -1.03,1.41 -1.09,-1.03 -1.72,0.87 0.72,1.74 -0.8,-0.33 -0.38,1.17 -1.53,-0.65 -1.02,0.49 0.64,1 -1.3,-0.57 -2.24,3.25 0.99,0.7 -1.25,0.71 0.03,0.08 1.32,1.19 -0.82,0.7 0.82,0.3 -0.93,0.49 0.68,0.37 -1.07,1.66 -2.58,1.31 -0.93,-2.1 -1.86,0.18 1.3,1.87 -1.24,0.51 0.48,1.23 -1.27,-0.14 -1.95,-0.21 -0.89,1.86 -3.15,0.08 0.01,3.19 -1.32,0.35 0.24,1.46 -1.82,0.66 -0.88,2.95 -0.69,-0.82 -2.15,1.31 -0.02,-1.01 -1.73,1.01 -1.54,-0.72 -4.99,1.83 -2.44,-1.63 -5.02,-0.8 0.23,-1.77 -1.45,1.79 -2.16,-0.66 -0.35,2.02 -0.29,-0.67 -2.29,0.39 0.02,1.04 -1.19,-0.4 0.35,2.94 -3.46,2.05 0.35,1.09 -3.24,0.24 0.55,-1.57 -1.19,-0.28 -0.23,-1.52 -0.7,0.9 -1.42,-0.57 -2.19,-3.35 -1.39,0.69 0.71,-2.24 -2.39,-0.23 -0.98,-1.7 -3.88,0.55 -1.35,-2.25 -1.48,0.38 0.03,-2.53 -0.92,0.17 -1.43,-2.57 1.4,-1.99 -1.73,-0.65 1.06,-3.76 -1.01,-1.25 1.45,-0.62 -0.41,-1.22 1.04,-0.38 0.99,-2.99 -0.11,-1.87 -1.6,-1.38 2.99,-0.99 -0.09,-1.02 0.87,0.45 -0.31,-3.84 -1.26,0.37 -0.61,-1.04 1.25,-2.8 -2.91,-0.73 0.5,-2.11 -1.46,-1.12 -0.13,-4.44 -1,-0.67 1.34,-0.05 1.44,-2.68 0.29,-2.31 -0.99,-0.45 1.83,-3.31 -1.02,-1.55 0.27,-2.39 0.9,-1.79 0.65,0.33 -0.44,-2.74 1.45,-0.47 0.44,-1.96 0.53,0.87 1.47,-0.35 0.48,-3.23 1.72,-1.39 -0.5,-1.32 3.17,-2.95 1.44,-4.54 1.42,-0.34 -0.11,-1.81 1.07,-0.89 -0.6,-1.18 2.81,-3.36 -0.63,-0.97 1.08,0.2 0.62,-2.83 0.81,0.47 0.4,-2.95 -1.91,-1.65 0.66,-1.33 -0.99,-2.74 2.41,-4.23 -0.1,-4.06 -2.27,-2.43 -2.66,0.3 -1.14,-2.01 1.47,-2.6 -0.71,-5.69 0.84,-2.29 -2.11,-6.08 3.43,-10.29 2.13,-1.14 -0.48,-1.88 -1.4,-0.74 -1.72,0.86 -5.57,-2.34 -9.62,-1.24 -1.7,-1.48 -0.3,-1.88 -2.95,0.01 -4.89,-6.75 -4.16,0.13 0.13,-14.98 h -25.3 l -21.26,0.02 -32.19,0.02 h -35.41 l -85,-0.07 h -5.5 l -47.42,-0.01 0.06,4.57 0.02,34.6 -6.01,0.24 -4.51,5.32 -1.1,6.41 -1.41,8.17 -0.01,7.25 2.6,0.82 4.71,-0.48 3.42,3.32 0.45,7.44 -1.89,4.62 -0.51,1.23 -7.96,8.08 -1.19,4.49 -1.34,-0.56 -7.01,3.2 -4.21,5.34 -0.6,1.94 -1.36,4.38 2.89,9.97 1.82,2.13 -1.53,3.49 0.89,0.48 -0.94,4.27 2.17,1.73 -0.86,2.99 -1.18,0.53 0.06,2.55 2.76,0.74 2.04,-1.35 0.22,0.18 2.79,2.43 v 1.91 l -0.01,3.67 -2.76,4.18 0.28,3.43 -1.49,5.49 -2.57,4.4 0.39,6.51 -2.29,6.47 -0.12,0.88 61.94,0.07 16.82,-0.04 4.27,-0.02 26.38,-0.07 40.13,-0.1 42.17,-0.14 21.23,0.01 99.36,-0.04 0.96,1.76 0.46,1.51 -3.66,2.14 1.36,0.35 1.07,2.06 0.01,1.29 -2.73,0.26 1.77,0.75 -0.05,1.99 -3.54,0.72 -0.33,-1.55 -0.25,-0.11 -1.67,1.68 -1.23,-1.47 -1.29,2.48 1.79,0.23 -0.75,1.13 0.66,3.11 -2.29,2.22 0.78,1.65 -1.59,0.73 1.2,2.16 -4.6,1.12 1.46,2.77 -0.92,2.44 3.03,-0.01 -2.46,2.25 2.63,0.59 -1.47,2.3 1.39,-0.09 2.81,2.56 0.18,2.52 -2.93,1.83 3.13,-0.32 0.26,3.74 -2.04,1.83 3.56,1.81 0.56,0.65 -0.07,0.02 -1.71,0.54 -0.37,1.09 2.49,5.46 -2.09,5.73 -1.57,-0.19 -0.35,3.07 -3.26,2.39 -1.87,2.98 1.03,4.03 -2.75,2.09 1.04,4.13 -1.65,1.47 -2.63,6.54 -1.62,0.59 -2.29,4.36 -8.11,9.32 -4.6,1.75 -0.46,3.09 -2.53,1.06 1.15,8.39 -2.65,6.41 0.75,0.81 -5.13,2.66 -0.8,4.43 -1.97,1.03 -0.67,6.28 1.02,1.06 -1.57,2.6 -0.23,1.11 -0.12,0.57 0.55,1.29 3.08,3.02 0.75,3.89 1.03,-0.09 -0.73,3.73 4.46,0.13 -1.12,1.18 1.61,2.42 0.85,-1.3 1.87,1.12 2.27,-1.19 2.46,2.44 0.06,0.31 -2.15,0.59 -0.22,1.21 1.22,-0.44 -1,1.49 1.03,0.42 -1.19,2.91 3.87,-1.15 2.2,0.6 -0.78,1.88 3.07,2.86 -0.02,-3.17 0.13,-0.04 3.23,0.43 0.65,4.37 -0.54,1.74 2.96,0.6 0.74,-2.05 2.88,-1.65 1.59,1.21 2.55,-0.05 -0.03,1.6 1.93,-0.06 -0.49,1.89 1.47,1.4 -1.3,1.12 1.16,1.75 4.44,-3.24 0.65,-1.12 1.01,1.29 -1.47,3.4 1.19,-0.49 3.8,2.4 -0.85,2.59 1.77,-1.65 2.23,-0.14 0.19,3.29 2.37,-0.55 0.9,1.35 0.08,0.19 -1.07,1.47 2.8,1.22 0.34,3.81 1.7,1.18 1.97,-1.23 0.62,0.77 1.19,-2.14 h 0.27 l 1.78,2.58 -1.92,1.33 3.11,-0.31 0.56,2.68 -3.39,1.23 1.2,2.5 2.77,-1.38 0.29,5.96 -1.86,1.46 0.89,1.04 2.31,-1.36 1.01,1.48 3.46,1.41 1.39,2.95 0.08,2.82 -2.58,0.95 1.47,2.35 -2.56,0.97 -0.48,3.44 1.25,3.12 2.79,-1.05 -2.09,1.83 -0.31,2.55 4.4,1.5 -0.73,2.2 0.99,2.15 -0.85,1.09 1.09,1.66 -1.32,0.79 -0.13,0.72 0.3,0.67 3.78,3.52 -1.7,1.05 0.2,1.54 6,-0.87 -4.01,4.72 1.8,6.55 -0.25,0.58 -2.63,1.12 0.52,3.4 2.19,-0.22 v 2.23 l 2.49,0.28 -0.47,1.34 -2.49,0.91 0.33,1.44 2.47,1.19 -0.98,3.59 4.71,-2.32 0.83,0.93 2.13,4.29 1.96,-0.95 0.83,0.95 1.28,1.16 -4.55,3.47 1.56,0.85 0.38,1.82 1.27,-0.98 2.4,1.06 -3.11,3.61 4.49,0.78 0.08,0.26 -1.91,2.84 2.15,0.9 2.41,-0.66 0.5,2.14 4.85,2.18 0.3,0.55 -1.58,3.53 -6.31,1.87 3.53,-0.06 -0.04,2.43 -1.24,-0.29 -0.2,1.9 3.85,-1.41 0.33,1.64 -2.87,2.22 0.73,0.86 -1.92,1.67 -1.48,-0.34 0.65,2.14 -0.66,0.27 -1,0.16 -0.94,-1.87 -0.69,2.42 -1.04,-1.07 -0.54,1.25 -0.09,0.55 -0.36,1.65 -1.6,-0.67 1.1,1.91 -0.62,0.78 -3.88,-2.58 -0.41,-1.42 -1.33,0.29 0.87,5.42 1.77,0.44 0.02,0.53 -1.91,2.62 -1.71,-2.02 -0.92,1.29 -1.91,-0.52 -0.01,2.11 1.48,-0.06 0.2,1.02 -2.27,0.85 -2.4,-0.51 -0.75,-1.23 -0.81,2.28 0.87,2.06 -5.19,-1.5 0.01,2.21 -1.64,-1.13 -1.71,1.07 1.11,1.29 2.04,-0.2 -1.72,1.26 -3.16,-1.92 -1.14,1.01 -1.49,-1.63 -0.14,5.4 -1.98,-0.07 -0.71,-1.67 -0.91,2.45 -1.64,-1.03 -0.48,5.17 -2.46,-3.23 -2.7,3.64 2.2,0.95 -0.26,1.69 -2.01,-0.11 1.88,1.5 -2.28,1.02 0.23,4.35 -4.22,-1.76 -2.69,2.67 0.39,2.42 -1.42,1.47 -1.18,-4.08 -4.07,2.99 -1.28,-2.35 -1.41,1.95 0.85,1.32 -1.45,2.19 -5.82,0.39 1.13,3.13 -1.52,1.29 4.2,2.3 -0.84,0.7 -2.21,-1.07 -2.26,0.77 -2.05,-0.68 1.99,2.63 2.13,0.59 -0.09,2.34 -0.2,0.49 -1.59,-0.86 -1.54,0.64 -1.07,2.38 0.49,3.44 -3.18,-1.69 -0.62,-0.05 0.29,1.27 -1.62,-0.41 -2.16,2.28 2.03,2.97 -2.41,1.11 1.47,1.17 -1.49,2.07 -3.06,-2.26 -3.46,0.94 -1.37,1.14 0.9,2.69 -4.53,0.65 -0.25,0.8 1.94,0.81 0.05,0.12 -0.03,0.8 -0.2,0.72 -5.41,2.09 0.54,2.34 2.33,0.05 1.33,1.93 0.38,2.41 -0.18,1.26 -2.76,2.26 2.46,2.55 -0.79,2.59 -4.01,-1.89 -1.7,1.57 -2.71,0.33 -0.22,1.62 -1.29,0.51 4.58,5.48 -2.02,0.51 -1.3,-1.34 -2.87,-0.31 0.69,2.44 -1.55,1.04 -0.51,0.17 -2.55,-3.31 -5.07,1.38 -0.92,-1.5 h -1.37 l -1.14,-2.9 -3.64,-1.24 -0.32,-1.58 -0.14,0.03 -0.26,2.5 1.09,1.06 1.35,-0.3 -5.5,5 0.67,1.25 1.8,-0.16 -0.16,5.96 -1.31,0.2 -0.06,1.6 -2.24,0.85 -1.54,-1.73 -0.59,1.14 1.26,2.41 -3.35,0.06 1.77,1.81 0.39,2.2 2.61,1.82 -0.23,1.43 -0.04,0.24 -4.02,-1.24 0.5,1.44 1.9,0.36 0.7,3.28 1.42,-0.73 0.6,0.68 -1.85,1.88 -0.05,3.42 -4.19,1.77 -0.27,2.72 1.77,0.43 6.88,1.66 0.72,4.18 2.85,2.57 -0.81,3.62 0.91,7.58 0.66,1.03 1.61,1.78 1.08,0.37 4.66,-4.76 0.16,0.02 3.42,7.03 1.08,0.6 1.97,0.68 1.23,-0.11 2.32,-2.07 10.36,-2.97 4.64,-2.77 4.79,0.46 3.34,3.08 7.45,0.97 6.58,-0.68 3.25,2.04 2.17,4.16 2.41,4.62 7.32,6.16 2.59,6.52 2.88,3.62 0.93,3.66 -1.38,5.55 -3.37,2.1 -0.85,2.9 0.92,0.76 -0.45,0.94 1.31,0.35 1.55,2.47 0.2,2.31 -5.21,3.14 -3.78,-0.07 -1.01,1.58 0.63,0.82 -1.97,-0.04 -2.59,2.47 0.51,4.03 -1.85,4.86 -6.17,3.47 -1.84,2.27 0.09,2.36 2.52,1.61 -0.59,1.35 1.21,1.81 -3.38,2.72 0.77,1.28 -4.4,2.73 0.08,2 1.86,1.36 -1.46,2.22 -1.61,0.15 2.37,1.91 -0.45,1.25 -3.64,0.59 -0.37,2.1 -2.76,2.07 1.98,1.75 1.48,5.71 1.36,1.7 -0.47,2.46 1.88,1.57 -1.65,5.24 0.97,1.5 -0.74,0.07 0.34,1.84 3.29,0.06 0.4,0.32 0.7,1.34 -0.25,1.88 1.87,1.13 -1.85,1.93 0.57,1.08 -0.78,-0.31 1.74,2.34 -0.39,2.98 1.06,0.43 0.12,-1.06 0.76,1.34 0.29,3.83 6.38,3.77 -0.04,4.45 -2.36,0.86 -0.53,1.53 1.01,0.48 0.2,3.24 1.16,-0.21 1.3,3.43 4.73,1.08 0.91,2.46 -1.04,1.12 0.49,1.95 -1.63,0.14 2.49,1.02 2.03,4.06 0.89,-0.6 0.25,5.57 -2.98,1.87 -1.67,-0.72 -2.54,0.61 1,3.23 -2.54,-1.38 -4,0.07 -6.65,3.58 -1.11,2.39 -3.51,-1.03 -1.16,3.6 2.15,0.2 -0.38,2.67 -3.23,0.87 -1.16,2.39 -4.65,0.8 -0.68,1.12 -2.48,-1.6 -0.65,3.51 -3.71,1.48 0.6,1.14 2.88,0.67 -0.11,1.44 -3.58,-0.11 -1.42,1.99 -1.92,-2.25 -3.35,-0.46 -2.12,4.09 0.5,1.69 2.08,1.31 -0.87,1.45 -1.88,0.57 -2.78,-2.78 -2.16,0.07 -4.09,5.86 -1.49,-0.33 -0.93,1.19 -2.74,-0.91 -1.1,1.13 -1.52,1.95 1.03,2.17 -1.6,-0.35 -2.35,2.15 -2.59,-2.21 -4.17,2.13 0.06,3.78 -4.07,2.33 1.02,2.7 -2.01,1.44 -1.76,-0.95 -0.3,-3.36 1.79,-6.02 -1.34,-1.17 -1.27,0.06 -4.85,4.14 -1.3,0.19 -1.86,-1.53 -1.09,5.3 -1.78,1.82 -1.53,-0.6 -2.38,0.94 2.31,1.5 -0.11,1.09 -2.89,0.23 -5.27,3.52 0.05,0.1 1.14,2.25 0.06,1.18 -1.3,1.99 -2.11,-0.43 -0.41,-0.6 0.18,-3.16 -2.91,2.22 -0.51,0.87 1.99,3.62 -3.5,1.78 -2.86,3.35 1.93,1.27 1.76,3.71 5.17,3.94 -4.19,2.34 -0.62,3.75 -2.29,-0.25 -4.28,2.07 -0.44,-0.27 0.33,-2.83 -2.01,-1.31 -1.41,0.5 -4.23,9.55 -2.79,-0.35 -2.28,0.34 0.12,1.72 -4.02,4.65 -1.22,0.61 -1.18,0.08 -1.66,-0.64 -1.82,-4.93 -7.63,0.57 2.34,3.88 -0.94,0.97 -1.96,-0.74 -0.34,0.27 -1.86,2.35 -2.33,3.29 -0.01,0.39 2.84,3.09 -0.09,1.87 -3.62,-0.43 -3.74,2.61 -2.67,1.85 -3.28,-2.08 -2.99,-0.44 -0.5,-1.74 0.7,-1.11 -1.37,-0.94 -2.25,-1.17 -1.99,1.73 -4.69,2.3 -0.28,3.79 -2.02,3.43 1.73,2.14 -0.09,2.35 -2.21,0.63 -3.43,-3.36 -3.01,-0.3 -0.55,0.87 -1.29,2.04 -0.35,1.11 -2.05,1.08 -0.28,0.5 -0.14,0.51 2.93,1.61 0.31,1.73 -1.59,1.5 -2.36,0.41 -3.24,-2.3 -1.49,2.7 -7.75,-3.33 -3.59,1.5 -1.33,5.35 -3.54,0.08 -3.89,1.85 -0.74,2.07 -2.33,-1.35 -0.89,-6.03 -1.33,-0.84 -2.35,0.98 -0.91,-0.59 -0.22,-4.27 1.24,-3.24 -1.57,-3.14 -5.47,3.78 -2.76,-0.08 -1.12,-0.48 -1.17,-2.63 -4.18,-2.53 -0.68,-0.17 -3.43,-0.82 -2.79,-5.4 -2.51,-1.2 -1.8,-0.06 -2.02,3.91 -1.88,0.95 -4.86,0.4 -2.28,-0.25 -6.08,-0.66 -1.03,-0.52 -3.5,-2.84 -6.15,-2.55 -0.97,-4.19 -2.88,-3.45 -0.51,-3.94 -3.71,0.88 -7.43,-3.47 -8.05,-0.61 -1.84,-1.42 -0.04,-3.9 -9.2,-0.57 -2.26,-3.9 -3.17,-0.06 -2.19,-0.05 -2.97,5.52 -8.58,4.98 -0.25,2.86 3.61,2.32 -0.05,0.92 -2.88,0.56 -3.45,-0.98 -3.3,-2.31 -0.24,-0.17 -2.31,-1.02 -3.57,-1.56 -3.2,1.07 -11.89,0.79 -1.02,-0.22 -0.66,-4.78 -2.5,-0.03 -1.94,1.71 -5.49,1.21 -2.93,-3.22 -10.34,7.69 -0.59,0.16 -1.2,-0.84 -0.81,-1.18 1.43,-4.11 -1.09,-2.26 -2.56,-0.21 -7.36,4.33 -4.98,-4.94 -5.98,-0.3 -1.56,-1.03 0.26,-5 -2.47,-2.42 -6.75,1.07 -2.83,2.25 -1.96,0.19 -11.77,-2.3 -2.48,1.86 0.14,2.2 -1.95,1.17 -2.88,-0.48 -3.98,0.97 -0.13,0.03 -4.5,-0.64 -4.79,2.14 -3.49,-1.65 -7.09,2.65 -8.09,-2.87 -4.65,3.62 -4.51,-1.44 -5.36,3.35 -4.99,5.83 -3.75,-1.42 -1.31,-9.37 -3.88,-1.94 -9.21,-2.34 -3.26,-4.5 -7.8,-0.81 -3.42,-3.37 -6.12,0.11 -7.32,5.56 -3.13,1.88 -2.05,3.42 -2.76,0.47 0.86,4.81 -2.93,0.71 -1.73,3.98 -3.21,1.1 -5.73,-2.07 -5.87,2.76 -1.68,5.27 -2.11,3.12 -7.49,4.58 -1.58,-1.14 -2.99,0.1 -1.82,-3.17 -4.2,-0.49 -0.83,-0.65 -0.19,-0.34 1.91,-3.3 -0.52,-1.61 -6.01,-0.16 -8.73,6.24 -1.14,3.59 -8.93,0.81 -6.37,-1.49 -1.74,1.65 -0.06,2.12 4.64,4.86 0.78,1.32 0.43,1.64 -2.66,3.56 -4.56,2.56 -4.15,4.2 -5.04,8.51 -1.61,5.27 -0.04,0.1 -7.24,1.53 -0.83,0.51 -3.23,2.48 -0.94,1.26 -1.72,7.42 -3.35,0.78 -6.3,-1.63 -2.48,1.34 -4.17,10.45 -7.06,6.23 -2.63,4.83 -1.74,3.22 -5.15,1.26 -4.47,-0.47 -2.61,-2.02 -5.04,-10.23 -15.91,-14.72 -1.25,-5.31 -0.2,-3.96 0.02,-7.71 -0.87,-1.93 -1.12,-1.75 -1.57,-1.02 -8.26,-0.26 -4.13,0.26 -1.24,0.72 -2.62,2.41 1.75,7.74 -1.95,3.57 -0.52,0.94 -1.57,1.14 -1,0.44 -5.54,-1.3 -17.05,3.3 -5.57,1.55 -0.79,0.48 -1.23,1.15 -0.21,3.02 5.45,5.85 -1.48,3.29 -2.49,0.51 -7.04,-3.7 -2.12,-0.25 -3.41,0.21 -6,1.68 -5.96,4.51 -0.71,0.53 -3.17,1.55 -1.77,-0.07 -5.2,-1.87 -4.02,0.95 -0.83,0.85 -1.5,4.98 -1.98,3.35 -3.39,0.77 -0.19,-0.01 -0.12,-0.01 -7.92,-3.57 -5.27,1.32 -5.35,-4.35 -4.93,-0.22 -1.14,-2.84 -1.91,-0.92 -1.35,-0.38 -1.11,0.05 -6.17,3.71 -8.78,0.87 -13.57,-3.12 -2.45,-3.11 -11.31,-1.55 -3.92,0.53 -2.79,3.04 -4.11,10.5 -4.53,3.16 -5.08,6.08 -27.11,-2.54 -11.13,4.74 -5.99,0.46 -10.55,-0.84 -6.34,1.99 -6.36,2 -1.59,0.5 -4.73,2.12 -4.7,4.52 -9.13,15.39 -7.31,16.09 -0.55,0.67 -1.64,1.27 -4,2.06 -6.38,1.28 -2.27,1.44 -1.11,1.62 -5.43,17.53 -0.04,0.04 -7.88,8.4 -1.62,1.03 -0.76,0.25 -8.64,2.84 -2.84,2.49 -0.88,4.68 3.8,9.39 -1.27,7.51 2.88,2.7 -1.19,6.81 -7.75,13.81 -4.73,7.23 -1.39,1.55 -0.59,0.45 -0.55,0.43 -8.72,4.53 -4.04,5.27 -19.49,-1.12 -0.29,-0.01 -4.14,0.06 -3.95,0.56 -1.17,0.42 -0.79,0.83 1.67,7.72 -2.61,3.06 -17,4.06 -3.03,3.99 -0.35,5.39 -0.18,2.82 -1.03,3.9 -7.64,7.57 -5.57,1.07 -9.13,8.74 -3.49,5.85 -0.32,0.79 -2.21,5.36 -0.66,5.96 -3.26,6.33 -4.06,8.62 -3.79,4.52 -0.5,1.25 -0.45,4.13 2.18,3.57 9.59,7.62 4.46,5.61 -0.57,4 -2.8,3.03 -2.18,0.73 -20.92,-7.5 -9.22,-2.63 -1.25,-3.59 -2.26,-1.17 -1.7,-3.23 -5.27,-2.57 -5.45,-1.12 0.08,-6.75 -6.36,0.87 0.92,-2.86 -1.34,-1.66 -3.01,1.1 -4.9,-0.34 -0.5,-1.14 3.63,-2.57 0.96,-1.94 -1.87,-0.78 -2.74,-6.05 -0.31,-0.25 -2.94,-0.41 -0.07,-4.48 -2.63,-3.74 -0.9,0.25 -1.36,-2.06 -2.97,0.21 -0.23,-1.58 -6.48,-3.51 -0.02,-1.92 -1.47,-0.4 h -0.03 l -4.31,0.52 -3.99,-1.84 -2.46,0.16 -5.72,-5.23 -7.88,0.06 -3.92,-1.25 -2.4,-4.82 -4.15,-1.17 -0.68,-1.18 -1.52,1.53 -2.8,-2.26 -2.54,-0.26 -1.33,1.71 -0.21,0.27 -3.82,1.52 -1.87,-0.91 -1.76,2.53 -1.52,-2.14 -5.74,-1.71 -1.35,-3.86 -1.51,0.53 -0.34,0.12 -0.7,-0.23 -1.04,-1.71 -1.98,-0.93 -0.55,-1.43 -3.2,-0.27 1.39,-4.5 -1.36,-1.75 -8.96,1.2 -2.68,-2.68 -7.23,2.71 -0.97,-0.53 1.58,-2.5 -1.91,-1.61 0.16,-2.34 -1.65,-1.94 -6.57,0.47 -2.59,-2.65 -0.9,-0.82 -0.3,-0.21 -1.38,-1.38 1.8,-1.52 -1.8,-1.04 -1.63,0.6 -1.23,-2.49 -2.09,-0.31 -1.15,1.76 -2.42,0.21 -1.66,-1.37 -0.83,-2.22 -0.7,-0.03 -2.92,0.82 -0.38,1.48 -5.08,-4.3 -0.42,-0.02 -0.77,0.1 -1.19,1.67 -4.03,1.07 -2.15,-2.16 -0.28,-2.74 -3.21,1.06 -5.14,-3.69 -3.97,1.19 -3.56,-0.99 -1.21,-2.49 -6.97,0.02 -0.54,-1.38 -0.56,0.78 -4.13,-1.05 -1.38,2.86 -4,1.47 -1.43,-1.32 -3.3,0.4 -5.07,-3.41 -0.92,0.78 -4.97,2.6 -11.35,-6.35 -2.17,0.48 -3.16,-2.34 -0.49,-1.27 1.75,-0.58 -2.35,-1.24 -1.13,1.5 -3.87,0.24 -0.95,-2.95 -2.81,0.58 -0.78,-0.77 -1.21,-1.46 -0.09,-0.65 1.6,-0.59 -0.43,-0.72 -5.61,0.25 -4.97,-3.72 -1.65,1.33 -3.26,-0.99 0.57,-1.33 -2.69,-0.4 0.49,-1.97 -7.07,-4.2 -7.38,1.15 -0.83,-1.45 2.66,-2.15 -2.3,-1.18 -2.62,0.67 0.68,0.8 -1.95,1.46 -5.25,-5.11 -0.29,-1.78 -1.12,0.2 -2.32,-3.45 -2.73,-0.94 0.59,-2.77 -3.03,-4.56 h -2.8 l -2.33,-3.4 -3.51,0.22 -0.26,-2.53 -2.33,-0.32 -2.13,-2.42 -1.85,2.32 -2.01,-0.08 0.26,1.87 -2.05,-0.78 -1.75,-3.14 -0.65,0.65 -0.95,-1.24 0.4,2.78 -0.86,0.63 -1.06,-0.85 -1.67,1.98 -1.03,-3.08 -4.69,0.7 -0.94,-1.82 -1.84,0.39 -1.16,2.6 -2.38,1.84 -1.63,-1.12 2,-1.89 -1.74,-1.84 0.39,-1.35 -2.21,0.02 -3.11,-1.74 -0.67,1.04 -1.42,-0.31 -1.15,-3.19 -1.51,0.27 -2.16,-1.6 -3.3,2.24 -4.66,-0.78 -2.29,-2.9 -0.81,0.03 0.07,-0.21 0.59,-1.84 -2.26,0.12 -2.71,-2.56 -0.85,-1.46 1.34,-0.49 -0.67,-1.26 -1.3,0.28 0.89,-4.2 -1.76,-2.12 -0.56,0.92 -3.53,-1.56 -2.29,0.13 -1.91,-2.51 -3.41,1.29 -2.94,-1.77 0.67,-1.89 -2.11,-1.26 0.7,-0.69 -1.86,0.05 -0.24,-3.59 -2.07,-1.1 -1.2,-2.38 -1.1,0.27 -0.61,-2.45 -1.77,-0.66 -3.97,1.58 -1.19,-0.94 -1.59,0.73 -0.61,-1.27 -3.05,-1.17 -10.35,-0.96 -3.95,-3.78 -0.33,0.92 -3.96,-0.46 -5.75,0.01 -1.21,2.36 -3.32,1 -3.96,-2.8 -4.12,-0.89 -1.23,-2.03 -2.17,-0.13 -0.67,-2 -2.47,-0.85 1.12,-0.81 -0.98,-3.21 -5.08,-0.3 0.67,-1.73 -2.42,-0.72 -0.33,-1.43 -1.02,0.14 0.34,-1.19 -6.77,-6.06 0.53,-2.15 -3.89,-1.11 -0.52,-2.78 -0.36,-1.97 -4.1,-2.76 -0.89,-1.2 -6.77,-11.9 -8.49,-1.74 -8.14,-3.31 -6.76,-1.91 -0.24,-1.51 -2.8,-2.13 -7.01,-0.33 -0.82,1.51 -3.63,1.04 -6.33,5.15 -2.04,2.89 -9.58,-0.24 -3.56,2.06 -3.12,-2.29 -9.83,-2.53 -3.23,-0.33 -11.15,3.77 -0.7,0.1 -3.39,-0.86 -5.89,0.6 -5.25,-3.09 -6.7,0.04 -7.31,-4.61 -5.86,1.58 -2.94,-1.6 -3.13,0.07 -0.68,-1.77 -7.99,-4.97 -13.27,-1.8 -0.63,-0.46 0.75,-6.22 -2.19,-2.07 -6.04,-0.05 1.75,-4.55 -2.28,-4.25 -3.31,-2.97 -0.59,-4.6 -3.63,-3.98 0.83,-2.96 5.73,-6.87 9.26,-3.4 2.43,-6.33 2.94,-4 5.83,-3.64 1.51,-9.82 0.81,-2.21 2.06,-0.83 2.37,-0.49 6.99,-0.12 12.8,-2.83 4,-7.9 7.78,-6.12 0.79,-7.13 -0.71,-1.22 -1.56,-1.82 -4.98,-4.54 -4.84,-2.52 -6.18,-1.83 -1.51,-0.19 -1.19,-0.15 -15.64,1.22 -16.29,-4.8 -6.82,-1.07 h -1.42 l -9.55,2.62 -11.22,6.89 -3.5,7.88 -1.59,0.21 -4.75,-2.36 -8.18,-0.34 -10.05,-10.31 -0.28,-12.3 -2.67,-7.91 0.05,-9.17 -6.3,-18.94 0.24,-7.15 -3.53,-12.32 -1.05,-5.92 1.25,-3.28 4.31,-3.51 1.62,-0.66 8.78,-0.52 2.19,-0.43 3.58,-1.59 1.2,-3.64 0.62,-17.04 -2.23,-5.74 -2.9,-2.17 -4.66,-8.09 -9.96,-6.43 1.23,-5.41 -1.65,-2.8 -0.04,-3.18 -2.46,-1.39 -0.81,-1.76 2.13,-11.14 -3.62,-4.48 0.31,-1.88 -3.79,-3.85 -1.61,-3.16 1.21,-2.82 -3.22,-5.23 0.35,-1.36 -2.25,-0.14 -0.56,-3.21 -1.81,-1.82 -1.32,0.6 -0.72,-2.08 -2.9,-1.92 0.56,-0.96 -1.37,-1.91 -3.82,-1.45 0.25,-0.87 -2.82,-0.96 -0.35,0.99 -5.33,-3.05 0.71,-2.15 -1.23,-1.65 0.24,-2.26 -2.47,-1.49 1.91,-1.42 0.28,-1.92 -1.83,-2.55 1.77,-1.45 -1.47,-1 0.23,-2.72 -1.43,-0.42 0.83,-0.88 -1.57,-2.6 0.01,-5.19 1.15,-1.6 -1.27,-1.3 1.21,-0.63 0.3,-1.98 -1.06,-1.5 2.21,-1.44 0.02,-3.01 1.35,-0.83 -1.14,-2.2 0.98,-0.7 -1.2,-2.51 0.74,-0.79 -2.11,-2.03 -0.27,-1.75 2.21,-1.94 -1.51,-1.71 -0.06,-2.9 0.95,-1.44 -1.16,-0.53 0.1,-1.84 2.11,-3.46 -0.66,-1.32 0.82,0.27 -1.33,-2.29"
         inkscape:connector-curvature="0"
         style="vector-effect:none;fill:#c8eae6;fill-opacity:1;fill-rule:evenodd;stroke:none" />
    </g>
</svg>
